<?xml version="1.0" encoding="iso-8859-1"?>
<!-- Generator: Adobe Illustrator 19.0.0, SVG Export Plug-In . SVG Version: 6.00 Build 0)  -->
<svg xmlns="http://www.w3.org/2000/svg" xmlns:xlink="http://www.w3.org/1999/xlink" version="1.1" id="Capa_1" x="0px" y="0px" viewBox="0 0 504.123 504.123" style="enable-background:new 0 0 504.123 504.123;" xml:space="preserve">
<path style="fill:#3B66ED;" d="M408.157,35.51L358.796,7.232c-2.162-1.571-4.478-2.903-6.936-3.978l-0.733-0.414L351.1,2.904  c-13.284-5.4-30.44-3.446-49.148,7.353L149.908,98.029c-41.807,24.139-76.004,83.385-76.004,131.663V430.27  c0,23.544,8.172,40.239,21.354,48.431l-0.126,0.228l54.867,6.053l30.846-53.713l121.112-69.916  c41.799-24.139,76.012-83.385,76.012-131.663V88.081L408.157,35.51z"/>
<path style="fill:#2A4BD8;" d="M408.157,35.51l-52.838-12.394c-2.158-1.571-12.95-1.532-15.407-2.607l-3.919-1.564l-7.054-1.312  c-13.28-5.4-8.275-18.176-26.986-7.377L149.908,98.029c-41.807,24.139-76.004,83.385-76.004,131.663V430.27  c0,23.544,8.172,40.239,21.354,48.431l-0.126,0.228l54.867,6.053l30.846-53.713l121.112-69.916  c41.799-24.139,76.012-83.385,76.012-131.663V88.081L408.157,35.51z"/>
<path style="fill:#093896;" d="M76.794,204.399c-1.843,8.598-2.891,17.105-2.891,25.293V430.27c0,23.544,8.172,40.239,21.354,48.431  l-0.126,0.228l40.405,22.678l45.308-70.333l121.112-69.916c7.101-4.104,13.966-9.279,20.496-15.191L76.794,204.399z"/>
<path style="fill:#0A3477;" d="M202.163,128.328c-41.807,24.139-76.02,83.389-76.02,131.667v214.059  c0,48.274,34.213,29.515,76.02,5.38L354.2,391.658c41.807-24.135,76.02-44.883,76.02-93.156V84.446  c0-48.278-34.213-68.021-76.02-43.89L202.163,128.328z"/>
<g>
	<path style="opacity:0.1;fill:#383E3F;enable-background:new    ;" d="M357.024,390.011c12.784-7.4,24.773-14.572,35.214-22.37   v-24.084h-35.214V390.011z"/>
	<path style="opacity:0.1;fill:#383E3F;enable-background:new    ;" d="M354.2,50.146l-152.036,87.776   c-41.807,24.135-76.02,83.385-76.02,131.663v175.549l304.073-175.549V94.036C430.216,45.758,396.007,26.011,354.2,50.146z"/>
</g>
<path style="fill:#4697F9;" d="M354.2,40.556l-152.036,87.773c-41.807,24.139-76.02,83.389-76.02,131.667v175.549l304.073-175.549  V84.442C430.216,36.168,396.007,16.421,354.2,40.556z"/>
<path style="opacity:0.1;fill:#383E3F;enable-background:new    ;" d="M128.073,490.403c6.81,23.367,31.098,13.225,61.353-3.702  L430.22,84.446c0-48.278-34.213-68.021-76.02-43.89l-152.036,87.773c-41.807,24.139-76.02,83.389-76.02,131.667v175.549v5.498  C126.147,457.465,126.265,475.188,128.073,490.403z"/>
<path style="fill:#B3BCBC;" d="M399.996,305.85l-31.701,54.898l-4.624-2.67c-0.039-0.02-0.071-0.035,0.863,0.508l-0.484-0.287  l-0.949-0.595c-3.757-2.469-6.077-7.329-6.073-14.147c-0.004-14.253,10.09-31.744,22.441-38.869  c5.896-3.403,11.272-3.828,15.281-1.804l1.008,0.52L399.996,305.85z"/>
<path style="fill:#C7D1D1;" d="M357.024,343.557c-0.004-14.253,10.09-31.744,22.441-38.869c5.896-3.403,11.272-3.828,15.281-1.804  l1.008,0.52l4.238,2.446l-27.069,46.883L357.024,343.557z"/>
<path style="fill:#EDF3F4;" d="M362.309,346.617c0-14.257,10.106-31.744,22.445-38.873c12.351-7.133,22.445-1.3,22.437,12.958  c0.008,14.249-10.09,31.744-22.437,38.873C372.419,366.703,362.309,360.867,362.309,346.617z"/>
<g>
	<path style="fill:#FFFFFF;" d="M407.196,320.702c0.008,14.249-10.09,31.744-22.437,38.873   c-12.339,7.133-22.445,1.292-22.445-12.958"/>
	<path style="fill:#FFFFFF;" d="M198.713,290.66c-4.257,0-7.708-3.446-7.708-7.708c0-54.678,38.518-121.383,85.862-148.724   c24.292-14.021,47.592-16.022,65.607-5.616c18.022,10.401,27.955,31.59,27.955,59.652c0,4.25-3.454,7.7-7.708,7.7   c-4.254,0-7.708-3.45-7.708-7.7c0-22.331-7.188-38.77-20.244-46.308c-13.044-7.534-30.878-5.537-50.196,5.616   c-42.366,24.462-78.155,86.453-78.155,135.377C206.421,287.213,202.967,290.66,198.713,290.66z"/>
	<path style="fill:#FFFFFF;" d="M239.413,293.574c-4.254,0-7.708-3.454-7.708-7.704c0-33.457,23.572-74.287,52.547-91.014   c15.431-8.905,30.377-10.09,42.086-3.328s18.156,20.291,18.156,38.124c0,4.254-3.45,7.708-7.704,7.708s-7.708-3.454-7.708-7.708   c0-12.091-3.706-20.894-10.453-24.777c-6.731-3.891-16.207-2.71-26.667,3.332c-24.308,14.029-44.843,49.601-44.843,77.666   C247.117,290.12,243.667,293.574,239.413,293.574z"/>
	<path style="fill:#FFFFFF;" d="M273.048,293.673c-4.257,0-7.704-3.45-7.704-7.7c0-15.34,10.401-33.355,23.678-41.019   c7.645-4.411,15.549-4.907,21.709-1.359c6.152,3.552,9.677,10.654,9.677,19.484c0,4.254-3.45,7.7-7.708,7.7   c-4.254,0-7.704-3.446-7.704-7.7c0-3.694-1.067-5.612-1.973-6.14c-0.91-0.516-3.104-0.48-6.294,1.363   c-8.507,4.907-15.974,17.837-15.974,27.668C280.755,290.222,277.305,293.673,273.048,293.673z"/>
	<path style="fill:#FFFFFF;" d="M295.335,286.843c-4.919,2.84-8.944,9.815-8.944,15.49c0,5.679,4.021,8.003,8.944,5.167   c4.923-2.836,8.944-9.815,8.944-15.49C304.28,286.327,300.255,284,295.335,286.843z"/>
</g>
<g>
</g>
<g>
</g>
<g>
</g>
<g>
</g>
<g>
</g>
<g>
</g>
<g>
</g>
<g>
</g>
<g>
</g>
<g>
</g>
<g>
</g>
<g>
</g>
<g>
</g>
<g>
</g>
<g>
</g>
</svg>
