<?xml version="1.0" encoding="iso-8859-1"?>
<!-- Generator: Adobe Illustrator 19.0.0, SVG Export Plug-In . SVG Version: 6.00 Build 0)  -->
<svg xmlns="http://www.w3.org/2000/svg" xmlns:xlink="http://www.w3.org/1999/xlink" version="1.1" id="Capa_1" x="0px" y="0px" viewBox="0 0 504.122 504.122" style="enable-background:new 0 0 504.122 504.122;" xml:space="preserve">
<path style="fill:#136BD3;" d="M382.535,7.545c-2.249-1.642-4.671-3.029-7.235-4.147l-0.76-0.433l-0.032,0.063  c-13.855-5.632-31.752-3.592-51.275,7.672l-157.219,90.762c0.382,0.232,0.768,0.449,1.126,0.713l54.682,31.323l-1.036,1.8h122.313  v227.178c34.06-29.932,59.435-80.408,59.435-122.841V91.895l31.504-54.847L382.535,7.545z"/>
<path style="fill:#4697F9;" d="M377.741,42.31l-156.57,90.392v366.289l156.57-90.388c43.615-25.186,79.305-86.993,79.305-137.362  V88.099C457.046,37.734,421.356,17.136,377.741,42.31z"/>
<path style="fill:#3182F7;" d="M377.741,42.31l-156.57,90.392v366.289L457.046,88.099C457.046,37.734,421.356,17.136,377.741,42.31z  "/>
<path style="fill:#0A4C9B;" d="M172.776,477.179c-3.84-2.213-6.971-7.641-6.971-12.064V102.675c0-4.427,3.131-6.235,6.971-4.021  l41.563,24.001c3.84,2.213,6.975,7.637,6.975,12.063v362.441c0,4.423-3.135,6.235-6.975,4.021L172.776,477.179z"/>
<polygon style="fill:#043E77;" points="179.022,480.787 206.643,496.734 206.643,154.608 179.022,154.608 "/>
<path style="fill:#9BB8BA;" d="M182.138,439.276l16.691,28.908l2.434-1.402c0.02-0.012,0.035-0.02-0.457,0.264l0.256-0.15l0.5-0.315  c1.977-1.3,3.198-3.86,3.198-7.448c0.004-7.507-5.313-16.715-11.815-20.468c-3.104-1.792-5.935-2.017-8.046-0.949l-0.532,0.272  L182.138,439.276z"/>
<path style="fill:#BCCACC;" d="M204.76,459.133c0.004-7.507-5.313-16.715-11.815-20.468c-3.104-1.792-5.935-2.017-8.046-0.949  l-0.532,0.272l-2.229,1.288l14.253,24.69L204.76,459.133z"/>
<path style="fill:#E4EDEF;" d="M201.98,460.74c0-7.507-5.325-16.715-11.819-20.468c-6.502-3.753-11.819-0.685-11.815,6.821  c-0.004,7.503,5.317,16.715,11.815,20.468C196.659,471.319,201.98,468.247,201.98,460.74z"/>
<path style="fill:#FFFFFF;" d="M178.345,447.097c-0.004,7.503,5.317,16.715,11.815,20.468c6.495,3.753,11.819,0.681,11.819-6.821"/>
<path style="fill:#136BD3;" d="M217.438,504.122c-1.323,0-2.702-0.41-4.096-1.213l-41.567-24.001  c-4.466-2.576-7.964-8.637-7.964-13.796V102.675c0-4.813,2.946-6.963,5.864-6.963c1.327,0,2.702,0.406,4.096,1.209l41.567,24.005  c4.466,2.572,7.967,8.629,7.967,13.792v362.441C223.307,501.968,220.357,504.122,217.438,504.122z M169.676,99.702  c-1.694,0-1.879,2.08-1.879,2.974v362.437c0,3.734,2.733,8.468,5.975,10.335l41.567,24.005c0.768,0.441,1.493,0.677,2.099,0.677  c1.694,0,1.879-2.076,1.879-2.97V134.718c0-3.738-2.733-8.472-5.975-10.338l-41.567-24.001  C171.012,99.938,170.283,99.702,169.676,99.702z"/>
<polygon style="fill:#647882;" points="206.643,139.311 192.299,131.028 172.78,142.442 187.132,150.732 "/>
<polyline style="fill:#70838E;" points="172.78,142.442 187.132,150.732 206.643,139.311 "/>
<polygon style="fill:#647882;" points="187.116,150.764 172.76,142.473 172.796,168.424 187.14,176.702 "/>
<polyline style="fill:#51636B;" points="187.14,176.702 187.132,150.732 172.78,142.442 "/>
<polygon style="fill:#A2B2BC;" points="206.643,139.311 187.132,150.732 187.136,161.157 187.128,176.734 206.647,165.269 "/>
<polygon style="fill:#34484F;" points="195.217,164.064 192.909,165.415 192.906,166.647 192.909,168.479 195.217,167.132 "/>
<polyline style="fill:#8E9BA5;" points="206.643,139.311 187.132,150.732 187.136,161.157 187.128,176.734 "/>
<polygon style="fill:#34484F;" points="185.245,152.209 174.344,145.915 174.363,167.502 185.257,173.788 "/>
<polygon style="fill:#27A0C1;" points="179.062,148.641 174.344,145.915 174.363,167.502 179.085,170.228 "/>
<polygon style="fill:#287BBF;" points="179.03,148.621 185.245,152.209 185.253,166.521 179.018,170.188 179.022,154.608 "/>
<polygon style="fill:#34484F;" points="194.764,152.414 192.457,153.769 192.46,154.994 192.46,156.833 194.761,155.482 "/>
<polygon style="fill:#272A2D;" points="198.868,137.995 175.21,124.337 119.477,156.404 143.171,170.09 "/>
<polygon style="fill:#09090A;" points="143.147,170.133 119.449,156.459 119.5,199.266 143.175,212.932 "/>
<polygon style="fill:#3A3D3F;" points="198.868,137.995 143.171,170.09 143.155,187.277 143.147,212.98 198.864,180.85 "/>
<g>
	<path style="fill:#272A2D;" d="M86.835,207.072l-0.004,106.5l12.485,7.203l91.487-52.854l1.65,112.998l-25.982,15.002   c-3.97,2.284-5.337,7.385-3.048,11.366c2.3,3.974,7.393,5.337,11.374,3.044l30.208-17.447l4.163-7.329l-1.93-132.045l-12.481-7.077   l-91.286,52.724l0.008-87.276l30.421-17.566c3.982-2.292,5.348-7.381,3.044-11.366c-2.3-3.982-7.389-5.344-11.37-3.044   l-34.58,19.968L86.835,207.072z"/>
	<polygon style="fill:#272A2D;" points="176.49,377.024 144.738,358.691 69.978,401.711 101.766,420.064  "/>
</g>
<polygon style="fill:#09090A;" points="101.726,420.127 69.943,401.77 70.006,459.216 101.758,477.546 "/>
<polygon style="fill:#3A3D3F;" points="176.49,377.024 101.766,420.064 101.746,443.124 101.718,477.613 176.486,434.506 "/>
<polygon style="fill:#647882;" points="96.378,426.18 75.508,414.129 47.104,430.745 67.997,442.808 "/>
<polyline style="fill:#70838E;" points="47.104,430.745 67.997,442.808 96.378,426.18 "/>
<polygon style="fill:#647882;" points="67.974,442.852 47.076,430.788 47.131,468.546 67.993,480.59 "/>
<polyline style="fill:#51636B;" points="67.993,480.59 67.997,442.808 47.104,430.745 "/>
<polygon style="fill:#A2B2BC;" points="96.378,426.18 67.997,442.808 67.989,457.964 67.97,480.633 96.374,463.958 "/>
<polygon style="fill:#34484F;" points="79.754,462.194 76.398,464.163 76.394,465.951 76.398,468.629 79.754,466.656 "/>
<polyline style="fill:#8E9BA5;" points="96.378,426.18 67.997,442.808 67.989,457.964 67.97,480.633 "/>
<polygon style="fill:#34484F;" points="65.24,444.959 49.38,435.79 49.416,467.195 65.264,476.341 "/>
<polygon style="fill:#27A0C1;" points="56.257,439.764 49.38,435.79 49.416,467.195 56.276,471.165 "/>
<polygon style="fill:#287BBF;" points="56.202,439.733 65.24,444.959 65.26,465.781 56.182,471.106 56.198,448.437 "/>
<polygon style="fill:#34484F;" points="79.092,445.258 75.736,447.223 75.736,449.012 75.732,451.686 79.092,449.713 "/>
<g>
	<path style="fill:#FFFFFF;" d="M261.049,330.834c-4.257,0-7.708-3.446-7.708-7.7c0-54.678,38.518-121.391,85.862-148.728   c24.292-14.021,47.592-16.018,65.607-5.62c18.022,10.409,27.955,31.59,27.955,59.652c0,4.254-3.454,7.708-7.708,7.708   s-7.708-3.454-7.708-7.708c0-22.323-7.188-38.77-20.244-46.301c-13.044-7.538-30.878-5.537-50.196,5.616   c-42.366,24.454-78.155,86.445-78.155,135.377C268.756,327.388,265.302,330.834,261.049,330.834z"/>
	<path style="fill:#FFFFFF;" d="M301.749,333.756c-4.254,0-7.708-3.454-7.708-7.708c0-33.461,23.572-74.283,52.547-91.014   c15.431-8.909,30.377-10.09,42.086-3.332c11.709,6.758,18.156,20.299,18.156,38.132c0,4.25-3.45,7.704-7.704,7.704   s-7.708-3.454-7.708-7.704c0-12.091-3.706-20.894-10.453-24.785c-6.731-3.891-16.207-2.706-26.667,3.336   c-24.308,14.029-44.843,49.597-44.843,77.666C309.452,330.302,306.002,333.756,301.749,333.756z"/>
	<path style="fill:#FFFFFF;" d="M335.383,333.859c-4.258,0-7.704-3.454-7.704-7.708c0-15.34,10.401-33.351,23.678-41.015   c7.645-4.415,15.549-4.907,21.709-1.359c6.152,3.549,9.677,10.65,9.677,19.48c0,4.254-3.45,7.708-7.708,7.708   c-4.254,0-7.704-3.454-7.704-7.708c0-3.686-1.067-5.608-1.973-6.132c-0.91-0.524-3.104-0.484-6.294,1.355   c-8.507,4.911-15.974,17.837-15.974,27.668C343.091,330.405,339.641,333.859,335.383,333.859z"/>
	<path style="fill:#FFFFFF;" d="M357.671,327.026c-4.919,2.832-8.944,9.807-8.944,15.486c0,5.679,4.021,8.007,8.944,5.163   c4.919-2.84,8.944-9.807,8.944-15.486S362.59,324.182,357.671,327.026z"/>
</g>
<g>
</g>
<g>
</g>
<g>
</g>
<g>
</g>
<g>
</g>
<g>
</g>
<g>
</g>
<g>
</g>
<g>
</g>
<g>
</g>
<g>
</g>
<g>
</g>
<g>
</g>
<g>
</g>
<g>
</g>
</svg>
