<?xml version="1.0" encoding="iso-8859-1"?>
<!-- Generator: Adobe Illustrator 19.0.0, SVG Export Plug-In . SVG Version: 6.00 Build 0)  -->
<svg xmlns="http://www.w3.org/2000/svg" xmlns:xlink="http://www.w3.org/1999/xlink" version="1.1" id="Capa_1" x="0px" y="0px" viewBox="0 0 504.119 504.119" style="enable-background:new 0 0 504.119 504.119;" xml:space="preserve">
<path style="fill:#3B66ED;" d="M410.124,36.32L359.633,7.396c-2.209-1.611-4.577-2.97-7.093-4.068l-0.744-0.421l-0.032,0.063  c-13.584-5.522-31.13-3.525-50.271,7.522l-155.518,89.773c-42.76,24.69-77.745,85.291-77.745,134.668v179.562  c0,24.08,8.361,41.153,21.847,49.534l-0.13,0.236l56.115,31.791l31.555-54.938l123.876-71.515  c42.752-24.686,77.745-85.287,77.745-134.668V90.088L410.124,36.32z"/>
<path style="fill:#2A4BD8;" d="M410.124,36.32l-54.047-12.678c-2.209-1.607-13.245-1.568-15.762-2.666l-4.005-1.603l-7.215-1.339  c-13.584-5.522-8.46-18.593-27.601-7.546l-155.518,89.777c-42.76,24.69-77.745,85.291-77.745,134.668v179.562  c0,24.08,8.361,41.153,21.847,49.534l-0.13,0.236l56.115,31.791l31.555-54.938l123.876-71.515  c42.752-24.686,77.745-85.287,77.745-134.668V90.088L410.124,36.32z"/>
<path style="fill:#1A40BA;" d="M71.192,209.065c-1.887,8.791-2.962,17.499-2.962,25.868v179.562c0,24.08,8.361,41.153,21.847,49.534  l-0.13,0.236l56.115,31.791l31.555-54.938l123.876-71.515c7.263-4.191,14.285-9.492,20.961-15.537L71.192,209.065z"/>
<path style="fill:#607EFC;" d="M199.424,131.257c-42.76,24.69-77.753,85.291-77.753,134.668v179.562  c0,49.377,34.993,69.577,77.753,44.887l155.506-89.781c42.76-24.686,77.753-85.283,77.753-134.668V86.37  c0-49.38-34.993-69.573-77.753-44.887L199.424,131.257z"/>
<path style="fill:#5069FF;" d="M432.683,86.37c0-49.38-34.993-69.573-77.753-44.887l-155.506,89.773  c-42.76,24.69-77.753,85.291-77.753,134.668v179.562c0,49.377,34.993,69.577,77.753,44.887"/>
<path style="fill:#7D9CFF;" d="M164.884,504.119h-0.008c-28.192,0-46.407-23.016-46.407-58.632V265.925  c0-50.523,35.592-112.183,79.344-137.44l155.514-89.781c12.607-7.278,24.769-10.961,36.147-10.961  c28.191,0,46.415,23.016,46.415,58.628v179.558c0,50.53-35.6,112.187-79.352,137.444L201.023,493.15  C188.416,500.425,176.262,504.119,164.884,504.119z M389.478,34.154c-10.24,0-21.323,3.399-32.937,10.098l-155.518,89.781  c-41.984,24.245-76.146,83.409-76.146,131.891v179.562c0,32.209,15.325,52.216,39.999,52.216h0.008  c10.24,0,21.315-3.399,32.929-10.098l155.514-89.781c41.984-24.237,76.146-83.413,76.146-131.895V86.37  C429.477,54.162,414.153,34.154,389.478,34.154z"/>
<path style="fill:#FFFFFF;" d="M210.014,432.022c-19.684-0.004-32.402-16.053-32.402-40.897c0-33.867,22.701-74.665,51.873-93.531  c2.225-40.377,30.259-87.008,64.264-106.646c10.216-5.9,20.066-8.885,29.282-8.885c21.752,0,36.254,17.093,37.467,43.811  c1.898-0.28,3.773-0.417,5.589-0.417c19.688,0,32.41,16.049,32.41,40.889c0,35.159-24.773,78.064-55.225,95.642l-108.063,62.393  C226.426,429.45,217.95,432.022,210.014,432.022L210.014,432.022z"/>
<path style="fill:#E4F0F2;" d="M323.037,182.067c-9.216,0-19.066,2.985-29.282,8.885c-34.009,19.637-62.039,66.269-64.264,106.646  c-29.172,18.865-51.873,59.664-51.873,93.531c0,24.844,12.717,40.893,32.402,40.897c7.936,0,16.412-2.572,25.19-7.641l3.478-2.009  L358.94,214.099C354.536,194.253,341.382,182.067,323.037,182.067z"/>
<path style="fill:#F9B835;" d="M180.126,276.342c0-42.606,30.22-94.866,67.088-116.173c36.907-21.307,67.068-3.887,67.068,38.727  c0,42.583-30.169,94.866-67.068,116.165C210.345,336.376,180.126,318.933,180.126,276.342z"/>
<path style="fill:#B5DAE5;" d="M247.217,315.061c36.899-21.299,67.068-73.582,67.068-116.165c0-5.675-0.551-10.886-1.564-15.64  c-6.128,1.382-12.473,3.942-18.964,7.692c-34.009,19.637-62.039,66.269-64.264,106.646c-9.374,6.061-18.062,14.403-25.557,24.036  C215.639,326.349,230.762,324.573,247.217,315.061z"/>
<g>
</g>
<g>
</g>
<g>
</g>
<g>
</g>
<g>
</g>
<g>
</g>
<g>
</g>
<g>
</g>
<g>
</g>
<g>
</g>
<g>
</g>
<g>
</g>
<g>
</g>
<g>
</g>
<g>
</g>
</svg>
