<?xml version="1.0" encoding="iso-8859-1"?>
<!-- Generator: Adobe Illustrator 19.0.0, SVG Export Plug-In . SVG Version: 6.00 Build 0)  -->
<svg xmlns="http://www.w3.org/2000/svg" xmlns:xlink="http://www.w3.org/1999/xlink" version="1.1" id="Capa_1" x="0px" y="0px" viewBox="0 0 504.119 504.119" style="enable-background:new 0 0 504.119 504.119;" xml:space="preserve">
<path style="fill:#323738;" d="M410.12,36.32L359.629,7.396c-2.209-1.607-4.576-2.97-7.093-4.064l-0.744-0.425L351.76,2.97  c-13.584-5.522-31.13-3.525-50.271,7.522l-155.518,89.777c-42.76,24.69-77.737,85.287-77.737,134.668v179.558  c0,24.08,8.361,41.157,21.847,49.538l-0.13,0.232l56.107,31.791l31.555-54.938l123.876-71.511  c42.752-24.69,77.745-85.287,77.745-134.668V90.092L410.12,36.32z"/>
<path style="fill:#252B2D;" d="M410.12,36.32l-54.048-12.674c-2.209-1.611-13.245-1.568-15.762-2.666l-4.005-1.607l-7.215-1.339  c-13.584-5.522-8.46-18.593-27.601-7.546l-155.518,89.781c-42.76,24.69-77.737,85.287-77.737,134.668v179.558  c0,24.08,8.361,41.157,21.847,49.538l-0.13,0.232l56.107,31.791l31.555-54.938l123.876-71.511  c42.752-24.69,77.745-85.287,77.745-134.668V90.092L410.12,36.32z"/>
<path style="fill:#090C0C;" d="M71.196,209.069c-1.887,8.787-2.962,17.495-2.962,25.868v179.558c0,24.08,8.361,41.157,21.847,49.538  l-0.13,0.232l56.107,31.791l31.555-54.938l123.876-71.511c7.263-4.194,14.285-9.496,20.96-15.537L71.196,209.069z"/>
<path style="fill:#3B4142;" d="M199.42,131.261c-42.76,24.69-77.753,85.287-77.753,134.668v179.558  c0,49.38,34.993,69.577,77.753,44.891l155.506-89.781c42.76-24.69,77.753-85.287,77.753-134.668V86.374  c0-49.38-34.993-69.577-77.753-44.891L199.42,131.261z"/>
<path style="opacity:0.2;fill:#383E3F;enable-background:new    ;" d="M432.679,86.374c0-49.38-34.993-69.577-77.753-44.891  L199.42,131.261c-42.76,24.69-77.753,85.287-77.753,134.668v179.558c0,49.38,34.993,69.577,77.753,44.891"/>
<path style="fill:#4F5759;" d="M164.88,504.119h-0.008c-28.192,0-46.407-23.016-46.407-58.632V265.929  c0-50.527,35.592-112.187,79.344-137.44l155.514-89.781c12.607-7.278,24.769-10.965,36.147-10.965  c28.191,0,46.415,23.016,46.415,58.632v179.558c0,50.527-35.6,112.187-79.352,137.44l-155.514,89.781  C188.412,500.429,176.258,504.119,164.88,504.119z M389.474,34.158c-10.24,0-21.323,3.399-32.937,10.098l-155.518,89.777  c-41.984,24.245-76.146,83.413-76.146,131.895v179.558c0,32.209,15.325,52.22,39.999,52.22h0.008  c10.24,0,21.315-3.403,32.929-10.102l155.514-89.777c41.984-24.241,76.146-83.413,76.146-131.895V86.374  C429.473,54.166,414.149,34.158,389.474,34.158z"/>
<path style="fill:#52ADFF;" d="M413.716,182.071c-1.674-5.029-5.565-9.007-10.555-10.791c-20.307-7.27-42.488-13.993-67.056-13.993  c-22.634,0-44.351,5.912-64.536,17.573c-46.856,27.057-87.993,85.626-122.868,138.405c-2.922,4.415-3.655,9.933-1.977,14.962  c1.674,5.022,5.561,8.999,10.547,10.784c20.315,7.278,42.496,14.009,67.08,14.009c0,0,0,0,0.004,0  c22.607,0,44.304-5.908,64.461-17.554c46.836-27.038,88.009-85.638,122.923-138.429C414.661,192.61,415.393,187.097,413.716,182.071  z"/>
<path style="fill:#428BF4;" d="M413.716,182.071c-1.674-5.029-5.565-9.007-10.555-10.791c-20.307-7.27-42.488-13.993-67.056-13.993  c-22.634,0-44.351,5.912-64.536,17.573c-46.856,27.057-87.993,85.626-122.868,138.405c-2.922,4.415-3.655,9.933-1.977,14.962  c0.965,2.899,2.733,5.384,4.962,7.365l262.55-151.584C414.102,183.359,413.928,182.713,413.716,182.071z"/>
<path style="fill:#FFFFFF;" d="M221.664,290.78c0.008-37.207,26.348-82.838,58.549-101.431  c32.236-18.609,58.573-3.407,58.561,33.816c0.012,37.183-26.344,82.814-58.561,101.415  C248.017,343.174,221.672,327.956,221.664,290.78z"/>
<path style="fill:#DFE4F4;" d="M280.214,324.58c-32.201,18.593-58.541,3.375-58.549-33.8c0.008-37.207,26.348-82.838,58.549-101.431  "/>
<path style="fill:#252B2D;" d="M245.559,279.962c0.004-22.028,15.6-49.034,34.662-60.042c19.082-11.02,34.674-2.02,34.666,20.015  c0.008,22.012-15.596,49.022-34.666,60.038C261.159,310.977,245.563,301.97,245.559,279.962z"/>
<path style="fill:#FFFFFF;" d="M286.968,236.012c0-8.338,5.904-18.562,13.119-22.729c7.223-4.171,13.127-0.76,13.123,7.578  c0.004,8.334-5.904,18.562-13.123,22.729C292.872,247.749,286.968,244.342,286.968,236.012z"/>
<g>
</g>
<g>
</g>
<g>
</g>
<g>
</g>
<g>
</g>
<g>
</g>
<g>
</g>
<g>
</g>
<g>
</g>
<g>
</g>
<g>
</g>
<g>
</g>
<g>
</g>
<g>
</g>
<g>
</g>
</svg>
