<?xml version="1.0" encoding="iso-8859-1"?>
<!-- Generator: Adobe Illustrator 19.0.0, SVG Export Plug-In . SVG Version: 6.00 Build 0)  -->
<svg xmlns="http://www.w3.org/2000/svg" xmlns:xlink="http://www.w3.org/1999/xlink" version="1.1" id="Capa_1" x="0px" y="0px" viewBox="0 0 504.116 504.116" style="enable-background:new 0 0 504.116 504.116;" xml:space="preserve">
<path style="fill:#AF0E40;" d="M410.122,36.318L359.631,7.394c-2.209-1.611-4.577-2.97-7.093-4.064l-0.744-0.421l-0.032,0.063  c-13.584-5.522-31.13-3.529-50.271,7.519l-155.518,89.777c-42.76,24.69-77.745,85.287-77.745,134.668v179.558  c0,24.08,8.361,41.157,21.847,49.538l-0.13,0.232l56.115,31.791l31.555-54.938l123.876-71.511  c42.752-24.69,77.745-85.287,77.745-134.668V90.089L410.122,36.318z"/>
<path style="fill:#9B0E33;" d="M410.122,36.318l-54.047-12.674c-2.209-1.611-13.245-1.568-15.762-2.666l-4.005-1.607l-7.215-1.339  c-13.584-5.522-8.46-18.593-27.601-7.546l-155.518,89.781c-42.76,24.69-77.745,85.287-77.745,134.668v179.558  c0,24.08,8.361,41.157,21.847,49.538l-0.13,0.232l56.115,31.791l31.555-54.938l123.876-71.511  c42.752-24.69,77.745-85.287,77.745-134.668V90.089L410.122,36.318z"/>
<path style="fill:#8E0724;" d="M71.19,209.066c-1.887,8.787-2.962,17.495-2.962,25.868v179.558c0,24.08,8.361,41.157,21.847,49.538  l-0.13,0.232l56.115,31.791l31.555-54.938l123.876-71.511c7.263-4.194,14.285-9.496,20.961-15.537L71.19,209.066z"/>
<path style="fill:#D61841;" d="M199.423,131.258c-42.76,24.69-77.753,85.287-77.753,134.668v179.558  c0,49.38,34.993,69.577,77.753,44.891l155.506-89.781c42.76-24.69,77.753-85.287,77.753-134.668V86.372  c0-49.38-34.993-69.577-77.753-44.891L199.423,131.258z"/>
<path style="fill:#BF112E;" d="M432.682,86.372c0-49.38-34.993-69.577-77.753-44.891l-155.506,89.777  c-42.76,24.69-77.753,85.287-77.753,134.668v179.558c0,49.38,34.993,69.577,77.753,44.891"/>
<path style="fill:#F91925;" d="M164.882,504.116h-0.008c-28.192,0-46.407-23.016-46.407-58.632V265.926  c0-50.527,35.592-112.187,79.344-137.44l155.514-89.781c12.607-7.278,24.769-10.965,36.147-10.965  c28.191,0,46.415,23.016,46.415,58.632V265.93c0,50.527-35.6,112.187-79.352,137.44l-155.514,89.781  C188.415,500.426,176.26,504.116,164.882,504.116z M389.477,34.155c-10.24,0-21.323,3.399-32.937,10.098l-155.518,89.777  c-41.984,24.245-76.146,83.413-76.146,131.895v179.558c0,32.209,15.325,52.22,39.999,52.22h0.008  c10.24,0,21.315-3.403,32.929-10.102l155.514-89.777c41.984-24.241,76.146-83.413,76.146-131.895V86.372  C429.476,54.163,414.151,34.155,389.477,34.155z"/>
<path style="fill:#FFFFFF;" d="M180.128,256.615c-5.754,3.324-10.461,11.481-10.461,18.125v120.808  c0,6.644,4.706,9.362,10.461,6.038l146.467-84.563c5.762-3.324,10.468-11.481,10.468-18.125V178.094  c0-6.644-4.706-9.362-10.468-6.038L180.128,256.615z"/>
<path style="fill:#E2E9F2;" d="M337.068,251.976V178.09c0-6.644-4.706-9.362-10.468-6.038l-146.471,84.563  c-5.754,3.324-10.461,11.481-10.461,18.125v120.808c0,6.644,4.706,9.362,10.461,6.038l105.838-61.101L337.068,251.976z"/>
<path style="fill:#FFFFFF;" d="M355.46,206.896c-4.053,5.266-7.369,15.013-7.369,21.654v12.083c0,6.644,5.376,12.863,11.953,13.804  l17.936,2.595c6.581,0.941,11.957-3.714,11.957-10.358l0.008-72.487c0-6.64-3.316-7.775-7.369-2.509L355.46,206.896z"/>
<path style="fill:#E2E9F2;" d="M348.092,232.882l36.588-63.374c-0.673,0.544-1.371,1.217-2.103,2.17l-27.116,35.218  c-4.053,5.266-7.369,15.013-7.369,21.654V232.882z"/>
<g>
</g>
<g>
</g>
<g>
</g>
<g>
</g>
<g>
</g>
<g>
</g>
<g>
</g>
<g>
</g>
<g>
</g>
<g>
</g>
<g>
</g>
<g>
</g>
<g>
</g>
<g>
</g>
<g>
</g>
</svg>
