<?xml version="1.0" encoding="iso-8859-1"?>
<!-- Generator: Adobe Illustrator 19.0.0, SVG Export Plug-In . SVG Version: 6.00 Build 0)  -->
<svg xmlns="http://www.w3.org/2000/svg" xmlns:xlink="http://www.w3.org/1999/xlink" version="1.1" id="Capa_1" x="0px" y="0px" viewBox="0 0 504.12 504.12" style="enable-background:new 0 0 504.12 504.12;" xml:space="preserve">
<path style="fill:#AF1C6C;" d="M410.124,36.322L359.633,7.394c-2.209-1.611-4.576-2.97-7.093-4.064l-0.744-0.421l-0.032,0.063  c-13.584-5.522-31.13-3.529-50.271,7.519l-155.518,89.777c-42.76,24.686-77.745,85.287-77.745,134.668v179.558  c0,24.08,8.361,41.157,21.847,49.534l-0.13,0.236l56.115,31.795l31.555-54.942l123.876-71.511  c42.752-24.69,77.745-85.291,77.745-134.668V90.089L410.124,36.322z"/>
<path style="fill:#961D59;" d="M410.124,36.322l-54.048-12.678c-2.209-1.607-13.245-1.568-15.762-2.67l-4.005-1.599l-7.215-1.339  c-13.584-5.522-8.46-18.593-27.601-7.546l-155.518,89.777c-42.76,24.686-77.745,85.287-77.745,134.668v179.558  c0,24.08,8.361,41.157,21.847,49.534l-0.13,0.236l56.115,31.795l31.555-54.942l123.876-71.511  c42.752-24.69,77.745-85.291,77.745-134.668V90.089L410.124,36.322z"/>
<path style="fill:#7F1344;" d="M71.192,209.066c-1.887,8.791-2.962,17.495-2.962,25.868v179.558c0,24.08,8.361,41.157,21.847,49.534  l-0.13,0.236l56.115,31.795l31.555-54.942l123.876-71.511c7.263-4.194,14.285-9.492,20.96-15.537L71.192,209.066z"/>
<path style="fill:#CE2E77;" d="M199.425,131.262c-42.76,24.686-77.753,85.291-77.753,134.668v179.562  c0,49.377,34.993,69.577,77.753,44.883l155.506-89.777c42.76-24.686,77.753-85.287,77.753-134.668V86.368  c0-49.376-34.993-69.573-77.753-44.883L199.425,131.262z"/>
<g>
	<path style="fill:#B22961;" d="M432.684,86.368c0-49.376-34.993-69.573-77.753-44.883l-155.506,89.777   c-42.76,24.686-77.753,85.291-77.753,134.668v179.562c0,49.377,34.993,69.577,77.753,44.883"/>
	<polygon style="opacity:0.3;fill:#B22961;enable-background:new    ;" points="201.992,488.894 340.67,408.829 340.67,208.306    201.992,208.306  "/>
</g>
<path style="fill:#ED3A94;" d="M164.884,504.12h-0.008c-28.192,0-46.407-23.012-46.407-58.628V265.93  c0-50.523,35.592-112.183,79.344-137.444l155.514-89.777c12.607-7.278,24.769-10.965,36.147-10.965  c28.191,0,46.415,23.016,46.415,58.628v179.562c0,50.527-35.6,112.183-79.352,137.444l-155.514,89.777  C188.417,500.43,176.262,504.12,164.884,504.12z M389.479,34.151c-10.24,0-21.323,3.399-32.937,10.098l-155.518,89.789  c-41.984,24.241-76.146,83.409-76.146,131.891v179.562c0,32.209,15.325,52.216,39.999,52.216h0.008  c10.24,0,21.315-3.399,32.929-10.098l155.514-89.785c41.984-24.237,76.146-83.409,76.146-131.891V86.368  C429.478,54.159,414.153,34.151,389.479,34.151z"/>
<polygon style="fill:#E26B1B;" points="236.186,228.038 301.797,417.474 301.797,265.926 "/>
<polygon style="fill:#F9A832;" points="265.571,312.892 301.797,417.474 301.797,265.926 "/>
<polygon style="fill:#E26B1B;" points="201.992,208.306 236.186,228.038 236.186,152.27 "/>
<g>
	<polygon style="fill:#F78334;" points="236.186,152.27 236.186,228.038 301.797,265.926  "/>
	<polygon style="fill:#F78334;" points="236.186,228.038 201.992,208.306 301.797,417.474  "/>
</g>
<polygon style="fill:#F9A832;" points="236.186,152.27 301.797,265.926 301.797,190.158 "/>
<polygon style="fill:#F78334;" points="367.416,228.038 301.797,417.474 301.797,265.926 "/>
<g>
	<polygon style="fill:#F7C934;" points="338.031,312.892 301.797,417.474 301.797,265.926  "/>
	<polygon style="fill:#F7C934;" points="401.605,208.306 367.416,228.038 367.416,152.27  "/>
</g>
<g>
	<polygon style="fill:#F9A832;" points="367.416,152.27 367.416,228.038 301.797,265.926  "/>
	<polygon style="fill:#F9A832;" points="367.416,228.038 401.605,208.306 301.797,417.474  "/>
</g>
<polygon style="fill:#F78334;" points="301.797,190.158 301.797,265.926 367.416,152.27 "/>
<polygon style="fill:#F77721;" points="301.797,114.382 236.186,152.27 301.797,190.158 367.416,152.27 "/>
<polyline style="fill:#E26B1B;" points="236.186,152.27 301.797,190.158 367.416,152.27 "/>
<g>
</g>
<g>
</g>
<g>
</g>
<g>
</g>
<g>
</g>
<g>
</g>
<g>
</g>
<g>
</g>
<g>
</g>
<g>
</g>
<g>
</g>
<g>
</g>
<g>
</g>
<g>
</g>
<g>
</g>
</svg>
