<?xml version="1.0" encoding="iso-8859-1"?>
<!-- Generator: Adobe Illustrator 19.0.0, SVG Export Plug-In . SVG Version: 6.00 Build 0)  -->
<svg xmlns="http://www.w3.org/2000/svg" xmlns:xlink="http://www.w3.org/1999/xlink" version="1.1" id="Capa_1" x="0px" y="0px" viewBox="0 0 504.121 504.121" style="enable-background:new 0 0 504.121 504.121;" xml:space="preserve">
<path style="fill:#67586B;" d="M382.534,7.544c-2.249-1.642-4.671-3.029-7.235-4.147l-0.76-0.433l-0.032,0.067  c-13.855-5.636-31.752-3.596-51.275,7.668l-157.219,90.762c0.382,0.232,0.768,0.449,1.126,0.713l54.682,31.323l-1.036,1.804h122.313  v227.174c34.06-29.928,59.435-80.408,59.435-122.841V91.894l31.504-54.847L382.534,7.544z"/>
<path style="fill:#8F7F93;" d="M377.741,42.309l-156.57,90.392V498.99l156.57-90.388c43.615-25.183,79.305-86.993,79.305-137.362  V88.098C457.046,37.733,421.355,17.135,377.741,42.309z"/>
<path style="fill:#88768C;" d="M377.741,42.309l-156.57,90.392V498.99L457.046,88.098C457.046,37.733,421.355,17.135,377.741,42.309  z"/>
<path style="fill:#4B3F4F;" d="M172.775,477.178c-3.84-2.213-6.971-7.641-6.971-12.064V102.674c0-4.427,3.131-6.235,6.971-4.021  l41.563,24.001c3.84,2.213,6.975,7.637,6.975,12.064v362.441c0,4.423-3.135,6.235-6.975,4.021L172.775,477.178z"/>
<polygon style="fill:#3B343F;" points="179.022,480.786 206.642,496.733 206.642,154.607 179.022,154.607 "/>
<path style="fill:#9BB8BA;" d="M182.137,439.275l16.691,28.908l2.434-1.402c0.02-0.012,0.035-0.02-0.457,0.264l0.256-0.15l0.5-0.315  c1.977-1.3,3.198-3.86,3.198-7.448c0.004-7.507-5.313-16.715-11.815-20.468c-3.104-1.792-5.935-2.016-8.046-0.949l-0.532,0.272  L182.137,439.275z"/>
<path style="fill:#BCCACC;" d="M204.76,459.132c0.004-7.507-5.313-16.715-11.815-20.468c-3.104-1.792-5.935-2.016-8.046-0.949  l-0.532,0.272l-2.229,1.288l14.253,24.69L204.76,459.132z"/>
<path style="fill:#E4EDEF;" d="M201.979,460.739c0-7.507-5.325-16.715-11.819-20.468c-6.502-3.753-11.819-0.685-11.815,6.821  c-0.004,7.503,5.317,16.715,11.815,20.468C196.658,471.318,201.979,468.246,201.979,460.739z"/>
<path style="fill:#FFFFFF;" d="M178.344,447.096c-0.004,7.503,5.317,16.715,11.815,20.468c6.495,3.753,11.819,0.681,11.819-6.821"/>
<path style="fill:#67586B;" d="M217.438,504.121c-1.323,0-2.702-0.41-4.096-1.213l-41.567-24.001  c-4.466-2.576-7.964-8.637-7.964-13.796V102.674c0-4.813,2.946-6.963,5.864-6.963c1.327,0,2.702,0.406,4.096,1.209l41.567,24.005  c4.466,2.572,7.967,8.629,7.967,13.792v362.441C223.306,501.967,220.356,504.121,217.438,504.121z M169.676,99.7  c-1.694,0-1.879,2.08-1.879,2.974v362.437c0,3.734,2.733,8.468,5.975,10.335l41.567,24.005c0.768,0.441,1.493,0.677,2.099,0.677  c1.694,0,1.879-2.076,1.879-2.97V134.717c0-3.738-2.733-8.472-5.975-10.338l-41.567-24.001  C171.011,99.937,170.282,99.7,169.676,99.7z"/>
<polygon style="fill:#647882;" points="206.642,139.31 192.298,131.027 172.779,142.441 187.131,150.731 "/>
<polyline style="fill:#70838E;" points="172.779,142.441 187.131,150.731 206.642,139.31 "/>
<polygon style="fill:#647882;" points="187.115,150.763 172.76,142.472 172.795,168.423 187.139,176.701 "/>
<polyline style="fill:#51636B;" points="187.139,176.701 187.131,150.731 172.779,142.441 "/>
<polygon style="fill:#A2B2BC;" points="206.642,139.31 187.131,150.731 187.135,161.156 187.127,176.733 206.646,165.268 "/>
<polygon style="fill:#34484F;" points="195.217,164.063 192.909,165.414 192.905,166.646 192.909,168.478 195.217,167.131 "/>
<polyline style="fill:#8E9BA5;" points="206.642,139.31 187.131,150.731 187.135,161.156 187.127,176.733 "/>
<polygon style="fill:#34484F;" points="185.245,152.208 174.343,145.914 174.363,167.501 185.256,173.787 "/>
<polygon style="fill:#27A0C1;" points="179.061,148.64 174.343,145.914 174.363,167.501 179.085,170.226 "/>
<polygon style="fill:#287BBF;" points="179.03,148.62 185.245,152.208 185.253,166.52 179.018,170.187 179.022,154.607 "/>
<polygon style="fill:#34484F;" points="194.764,152.413 192.456,153.768 192.46,154.993 192.46,156.832 194.76,155.485 "/>
<polygon style="fill:#272A2D;" points="198.868,137.994 175.209,124.336 119.476,156.402 143.17,170.089 "/>
<polygon style="fill:#09090A;" points="143.146,170.132 119.449,156.458 119.5,199.265 143.174,212.931 "/>
<polygon style="fill:#3A3D3F;" points="198.868,137.994 143.17,170.089 143.154,187.276 143.146,212.978 198.864,180.848 "/>
<g>
	<path style="fill:#272A2D;" d="M86.834,207.071l-0.004,106.5l12.485,7.203l91.487-52.854l1.65,112.998L166.47,395.92   c-3.97,2.284-5.337,7.385-3.048,11.366c2.3,3.974,7.392,5.337,11.374,3.044l30.208-17.447l4.163-7.329l-1.93-132.045l-12.481-7.077   l-91.286,52.724l0.008-87.276l30.421-17.566c3.982-2.292,5.348-7.381,3.044-11.366c-2.3-3.982-7.389-5.344-11.37-3.044   l-34.58,19.968L86.834,207.071z"/>
	<polygon style="fill:#272A2D;" points="176.489,377.023 144.738,358.69 69.978,401.71 101.765,420.063  "/>
</g>
<polygon style="fill:#09090A;" points="101.726,420.126 69.942,401.769 70.005,459.215 101.757,477.545 "/>
<polygon style="fill:#3A3D3F;" points="176.489,377.023 101.765,420.063 101.745,443.122 101.718,477.616 176.486,434.505 "/>
<polygon style="fill:#647882;" points="96.377,426.179 75.507,414.128 47.103,430.744 67.997,442.807 "/>
<polyline style="fill:#70838E;" points="47.103,430.744 67.997,442.807 96.377,426.179 "/>
<polygon style="fill:#647882;" points="67.973,442.851 47.076,430.787 47.131,468.545 67.993,480.589 "/>
<polyline style="fill:#51636B;" points="67.993,480.589 67.997,442.807 47.103,430.744 "/>
<polygon style="fill:#A2B2BC;" points="96.377,426.179 67.997,442.807 67.989,457.963 67.969,480.632 96.373,463.957 "/>
<polygon style="fill:#34484F;" points="79.753,462.193 76.397,464.162 76.393,465.95 76.397,468.628 79.753,466.655 "/>
<polyline style="fill:#8E9BA5;" points="96.377,426.179 67.997,442.807 67.989,457.963 67.969,480.632 "/>
<polygon style="fill:#34484F;" points="65.24,444.958 49.38,435.789 49.415,467.194 65.263,476.339 "/>
<polygon style="fill:#27A0C1;" points="56.256,439.763 49.38,435.789 49.415,467.194 56.276,471.164 "/>
<polygon style="fill:#287BBF;" points="56.201,439.731 65.24,444.958 65.259,465.78 56.181,471.105 56.197,448.435 "/>
<polygon style="fill:#34484F;" points="79.091,445.257 75.736,447.222 75.736,449.01 75.732,451.685 79.091,449.715 "/>
<g>
	<path style="fill:#D0E2E1;" d="M314.009,204.141c-1.985,0-4.045,0.39-6.156,1.146c3.911-4.443,6.632-10.63,6.632-15.959v-19.165   v-0.193l0,0c0-7.42-5.258-10.449-11.678-6.743l-10.835,6.254c-6.424,3.706-11.678,12.808-11.678,20.224l0,0v0.197v19.161   c0,4.998,2.395,7.995,5.916,8.287c-0.303,0.193-0.614,0.402-0.945,0.63c-0.012,0.004-0.02,0.012-0.028,0.016   c-0.626,0.429-1.241,0.89-1.859,1.371c-0.008,0.008-0.016,0.016-0.024,0.02c-10.587,8.29-18.263,23.324-18.263,35.749v20.913   c0,0.725,0.386,1.394,1.008,1.753c0.315,0.177,0.662,0.268,1.008,0.268c0.354,0,0.709-0.091,1.016-0.268l58.671-33.879   c0.622-0.358,1.008-1.024,1.008-1.745v-20.917C327.801,210.86,322.39,204.141,314.009,204.141z"/>
	<polygon style="fill:#D0E2E1;" points="320.696,205.881 318.207,207.118 319.818,211.679 328.372,210.387  "/>
	<polygon style="fill:#D0E2E1;" points="311.181,162.507 309.129,164.315 288.799,221.45 266.097,277.802 273.407,282.035    317.994,166.457  "/>
</g>
<path style="fill:#FFFFFF;" d="M321.082,208.264c-1.989,0-4.045,0.39-6.16,1.146c3.907-4.439,6.632-10.626,6.632-15.959v-19.165  v-0.193l0,0c0-7.42-5.254-10.449-11.681-6.743l-10.835,6.254c-6.42,3.706-11.674,12.812-11.674,20.224v0.004v0.193v19.161  c0,5.002,2.391,7.995,5.92,8.287c-0.303,0.197-0.622,0.406-0.953,0.63l0,0c-0.008,0.004-0.016,0.012-0.024,0.016  c-0.63,0.425-1.249,0.894-1.859,1.371c-0.008,0.008-0.02,0.016-0.028,0.02c-10.587,8.29-18.259,23.324-18.259,35.749v20.913  c0,0.725,0.382,1.394,1.008,1.753c0.311,0.177,0.666,0.268,1.008,0.268c0.354,0,0.701-0.091,1.012-0.268l58.671-33.875  c0.622-0.358,1.012-1.028,1.012-1.749v-20.913C334.875,214.987,329.459,208.264,321.082,208.264z"/>
<g>
	<path style="fill:#D0E2E1;" d="M392.266,159.081c-1.989,0-4.045,0.386-6.156,1.142c3.911-4.443,6.632-10.626,6.632-15.959V125.1   v-0.193l0,0c0-7.42-5.258-10.449-11.678-6.743l-10.831,6.254c-6.428,3.706-11.681,12.812-11.681,20.224l0,0v0.201V164   c0,4.998,2.395,7.995,5.916,8.287c-0.303,0.197-0.618,0.402-0.945,0.63c-0.012,0.008-0.02,0.012-0.028,0.016   c-0.626,0.429-1.241,0.894-1.859,1.371c-0.008,0.008-0.016,0.016-0.028,0.024c-10.583,8.287-18.259,23.324-18.259,35.749v20.913   c0,0.725,0.382,1.39,1.008,1.749c0.315,0.181,0.662,0.272,1.012,0.272c0.351,0,0.701-0.091,1.012-0.272l58.671-33.875   c0.622-0.362,1.008-1.028,1.008-1.749v-20.913C406.062,165.8,400.651,159.081,392.266,159.081z"/>
	<polygon style="fill:#D0E2E1;" points="398.953,160.817 396.464,162.05 398.075,166.615 406.63,165.327  "/>
	<polygon style="fill:#D0E2E1;" points="389.438,117.439 387.386,119.251 367.052,176.382 344.359,232.738 351.664,236.972    396.252,121.393  "/>
</g>
<path style="fill:#FFFFFF;" d="M399.343,163.2c-1.989,0-4.045,0.386-6.16,1.142c3.907-4.439,6.632-10.626,6.632-15.955v-19.165  v-0.197l0,0c0-7.42-5.258-10.449-11.681-6.743l-10.835,6.254c-6.42,3.706-11.674,12.812-11.674,20.224v0.004v0.193v19.165  c0,4.998,2.391,7.991,5.919,8.287c-0.303,0.197-0.622,0.406-0.953,0.63l0,0c-0.008,0.004-0.016,0.012-0.028,0.02  c-0.626,0.425-1.245,0.89-1.855,1.371c-0.008,0.004-0.016,0.012-0.028,0.02c-10.583,8.287-18.259,23.324-18.259,35.745v20.917  c0,0.725,0.382,1.394,1.008,1.753c0.311,0.177,0.666,0.268,1.008,0.268c0.354,0,0.701-0.091,1.012-0.268l58.671-33.879  c0.622-0.358,1.008-1.024,1.008-1.749v-20.913C413.128,169.923,407.72,163.2,399.343,163.2z"/>
<g>
	<path style="fill:#D0E2E1;" d="M314.009,316.194c-1.985,0-4.045,0.386-6.156,1.142c3.911-4.443,6.632-10.626,6.632-15.959v-19.165   v-0.193l0,0c0-7.42-5.258-10.449-11.678-6.743l-10.835,6.254c-6.424,3.706-11.678,12.812-11.678,20.224l0,0v0.201v19.157   c0,4.998,2.395,7.995,5.916,8.287c-0.303,0.197-0.614,0.402-0.945,0.63c-0.012,0.008-0.02,0.012-0.028,0.016   c-0.626,0.429-1.241,0.894-1.859,1.371c-0.008,0.008-0.016,0.016-0.024,0.024c-10.587,8.286-18.263,23.324-18.263,35.749v20.913   c0,0.725,0.386,1.39,1.008,1.749c0.315,0.181,0.662,0.272,1.008,0.272c0.354,0,0.709-0.091,1.016-0.272l58.671-33.875   c0.622-0.362,1.008-1.028,1.008-1.749v-20.913C327.801,322.913,322.39,316.194,314.009,316.194z"/>
	<polygon style="fill:#D0E2E1;" points="320.696,317.935 318.207,319.167 319.818,323.728 328.372,322.44  "/>
	<polygon style="fill:#D0E2E1;" points="311.181,274.556 309.129,276.368 288.799,333.499 266.097,389.851 273.407,394.089    317.994,278.511  "/>
</g>
<path style="fill:#FFFFFF;" d="M321.082,320.317c-1.989,0-4.045,0.386-6.16,1.142c3.907-4.439,6.632-10.626,6.632-15.955V286.34  v-0.197l0,0c0-7.42-5.254-10.445-11.681-6.743l-10.835,6.254c-6.42,3.706-11.674,12.812-11.674,20.224v0.004v0.193v19.165  c0,4.998,2.391,7.991,5.92,8.286c-0.303,0.197-0.622,0.406-0.953,0.63l0,0c-0.008,0.004-0.016,0.012-0.024,0.02  c-0.63,0.425-1.249,0.89-1.859,1.371c-0.008,0.004-0.02,0.012-0.028,0.02c-10.587,8.286-18.259,23.324-18.259,35.749v20.913  c0,0.725,0.382,1.394,1.008,1.753c0.311,0.177,0.666,0.268,1.008,0.268c0.354,0,0.701-0.091,1.012-0.268l58.671-33.879  c0.622-0.358,1.012-1.024,1.012-1.749v-20.913C334.875,327.036,329.459,320.317,321.082,320.317z"/>
<g>
	<path style="fill:#D0E2E1;" d="M392.266,271.13c-1.989,0-4.045,0.39-6.156,1.146c3.911-4.443,6.632-10.63,6.632-15.959v-19.169   v-0.193l0,0c0-7.416-5.258-10.445-11.678-6.739l-10.831,6.254c-6.428,3.706-11.681,12.808-11.681,20.224l0,0v0.197v19.161   c0,4.998,2.395,7.995,5.916,8.286c-0.303,0.197-0.618,0.406-0.945,0.634c-0.012,0.004-0.02,0.008-0.028,0.016   c-0.626,0.429-1.241,0.89-1.859,1.371c-0.008,0.008-0.016,0.016-0.028,0.02c-10.583,8.286-18.259,23.324-18.259,35.749v20.913   c0,0.725,0.382,1.39,1.008,1.749c0.315,0.181,0.662,0.272,1.012,0.272c0.351,0,0.701-0.091,1.012-0.272l58.671-33.875   c0.622-0.358,1.008-1.028,1.008-1.749v-20.913C406.062,277.849,400.651,271.13,392.266,271.13z"/>
	<polygon style="fill:#D0E2E1;" points="398.953,272.871 396.464,274.103 398.075,278.664 406.63,277.376  "/>
	<polygon style="fill:#D0E2E1;" points="389.438,229.496 387.386,231.3 367.052,288.432 344.359,344.787 351.664,349.025    396.252,233.443  "/>
</g>
<path style="fill:#FFFFFF;" d="M399.343,275.253c-1.989,0-4.045,0.39-6.16,1.142c3.907-4.439,6.632-10.622,6.632-15.955v-19.165  v-0.193v-0.004c0-7.416-5.258-10.445-11.681-6.739l-10.835,6.254c-6.42,3.706-11.674,12.808-11.674,20.224l0,0v0.197v19.161  c0,4.998,2.391,7.995,5.919,8.286c-0.303,0.193-0.622,0.402-0.953,0.63l0,0c-0.008,0.004-0.016,0.008-0.028,0.016  c-0.626,0.425-1.245,0.894-1.855,1.371c-0.008,0.008-0.016,0.016-0.028,0.02c-10.583,8.287-18.259,23.324-18.259,35.749v20.913  c0,0.725,0.382,1.394,1.008,1.753c0.311,0.177,0.666,0.268,1.008,0.268c0.354,0,0.701-0.091,1.012-0.268l58.671-33.875  c0.622-0.362,1.008-1.028,1.008-1.749v-20.917C413.128,281.972,407.72,275.253,399.343,275.253z"/>
<g>
</g>
<g>
</g>
<g>
</g>
<g>
</g>
<g>
</g>
<g>
</g>
<g>
</g>
<g>
</g>
<g>
</g>
<g>
</g>
<g>
</g>
<g>
</g>
<g>
</g>
<g>
</g>
<g>
</g>
</svg>
