<?xml version="1.0" encoding="iso-8859-1"?>
<!-- Generator: Adobe Illustrator 19.0.0, SVG Export Plug-In . SVG Version: 6.00 Build 0)  -->
<svg xmlns="http://www.w3.org/2000/svg" xmlns:xlink="http://www.w3.org/1999/xlink" version="1.1" id="Capa_1" x="0px" y="0px" viewBox="0 0 504.123 504.123" style="enable-background:new 0 0 504.123 504.123;" xml:space="preserve">
<path style="fill:#7A6B7F;" d="M408.161,35.51L358.796,7.232c-2.158-1.571-4.474-2.903-6.932-3.978l-0.733-0.414L351.1,2.904  c-13.281-5.4-30.44-3.446-49.148,7.353L149.908,98.029c-41.807,24.139-76.004,83.385-76.004,131.663V430.27  c0,23.544,8.176,40.239,21.358,48.431l-0.126,0.228l54.863,6.053l30.85-53.713l121.112-69.916  c41.799-24.139,76.008-83.385,76.008-131.663V88.081L408.161,35.51z"/>
<path style="fill:#6E6072;" d="M408.161,35.51l-52.838-12.394c-2.158-1.571-12.95-1.532-15.411-2.607l-3.915-1.564l-7.054-1.312  c-13.284-5.4-8.279-18.176-26.986-7.377L149.908,98.029c-41.807,24.139-76.004,83.385-76.004,131.663V430.27  c0,23.544,8.176,40.239,21.358,48.431l-0.126,0.228l54.863,6.053l30.85-53.713l121.112-69.916  c41.799-24.139,76.008-83.385,76.008-131.663V88.081L408.161,35.51z"/>
<path style="fill:#645668;" d="M76.794,204.399c-1.839,8.598-2.891,17.105-2.891,25.293V430.27c0,23.544,8.176,40.239,21.358,48.431  l-0.126,0.228l40.405,22.678l45.308-70.333l121.112-69.916c7.101-4.104,13.966-9.279,20.492-15.191L76.794,204.399z"/>
<path style="fill:#3B333D;" d="M202.163,128.328c-41.807,24.139-76.016,83.389-76.016,131.667v214.059  c0,48.274,34.209,29.515,76.016,5.38l152.04-87.776c41.807-24.135,76.016-44.883,76.016-93.156V84.446  c0-48.278-34.209-68.021-76.016-43.89L202.163,128.328z"/>
<g>
	<path style="opacity:0.4;fill:#2D2D2D;enable-background:new    ;" d="M357.028,390.011c12.784-7.4,24.773-14.572,35.21-22.37   v-24.084h-35.21V390.011z"/>
	<path style="opacity:0.4;fill:#2D2D2D;enable-background:new    ;" d="M354.204,50.146l-152.04,87.776   c-41.807,24.135-76.016,83.385-76.016,131.663v175.549l304.069-175.549V94.036C430.216,45.758,396.01,26.011,354.204,50.146z"/>
</g>
<path style="fill:#8F7F93;" d="M354.204,40.556l-152.04,87.773c-41.807,24.139-76.016,83.389-76.016,131.667v175.549  l304.069-175.549V84.442C430.216,36.168,396.01,16.421,354.204,40.556z"/>
<path style="opacity:0.1;fill:#383E3F;enable-background:new    ;" d="M128.077,490.403c6.806,23.367,31.098,13.225,61.349-3.702  L430.22,84.446c0-48.278-34.209-68.021-76.016-43.89l-152.04,87.773c-41.807,24.139-76.016,83.389-76.016,131.667v175.549v5.498  C126.147,457.465,126.265,475.188,128.077,490.403z"/>
<path style="fill:#B3BCBC;" d="M399.996,305.85l-31.701,54.898l-4.624-2.67c-0.039-0.02-0.071-0.035,0.866,0.508l-0.488-0.287  l-0.945-0.595c-3.757-2.469-6.077-7.329-6.073-14.147c-0.004-14.253,10.09-31.744,22.441-38.869  c5.892-3.403,11.268-3.828,15.277-1.804l1.012,0.52L399.996,305.85z"/>
<path style="fill:#C7D1D1;" d="M357.028,343.557c-0.004-14.253,10.09-31.744,22.441-38.869c5.892-3.403,11.268-3.828,15.277-1.804  l1.012,0.52l4.234,2.446l-27.069,46.883L357.028,343.557z"/>
<path style="fill:#EDF3F4;" d="M362.309,346.617c0-14.257,10.106-31.744,22.445-38.873c12.355-7.133,22.445-1.3,22.441,12.958  c0.004,14.249-10.094,31.744-22.441,38.873C372.419,366.703,362.309,360.867,362.309,346.617z"/>
<path style="fill:#FFFFFF;" d="M407.2,320.702c0.004,14.249-10.094,31.744-22.441,38.873c-12.339,7.133-22.445,1.292-22.445-12.958"/>
<g>
	<path style="fill:#D0E2E1;" d="M257.16,170.261c-1.985,0-4.045,0.39-6.156,1.146c3.911-4.443,6.632-10.63,6.632-15.959v-19.165   v-0.197l0,0c0-7.416-5.258-10.445-11.678-6.739l-10.835,6.254c-6.424,3.706-11.678,12.808-11.678,20.224l0,0v0.197v19.161   c0,4.998,2.395,7.995,5.916,8.287c-0.303,0.193-0.614,0.402-0.945,0.63c-0.012,0.004-0.02,0.012-0.028,0.016   c-0.626,0.429-1.241,0.894-1.859,1.371c-0.008,0.008-0.016,0.016-0.024,0.024c-10.587,8.287-18.263,23.324-18.263,35.745v20.913   c0,0.725,0.386,1.394,1.008,1.749c0.315,0.185,0.662,0.272,1.008,0.272c0.354,0,0.709-0.087,1.016-0.272l58.671-33.875   c0.622-0.358,1.008-1.024,1.008-1.749v-20.913C270.956,176.984,265.545,170.261,257.16,170.261z"/>
	<polygon style="fill:#D0E2E1;" points="263.847,172.006 261.358,173.238 262.973,177.803 271.524,176.507  "/>
	<polygon style="fill:#D0E2E1;" points="254.332,128.627 252.284,130.435 231.954,187.57 209.253,243.922 216.558,248.16    261.15,132.582  "/>
</g>
<path style="fill:#FFFFFF;" d="M264.237,174.384c-1.989,0-4.045,0.39-6.16,1.146c3.907-4.443,6.632-10.626,6.632-15.959v-19.165  v-0.193v-0.004c0-7.416-5.254-10.445-11.682-6.739l-10.835,6.254c-6.42,3.706-11.674,12.812-11.674,20.224v0.004v0.193v19.165  c0,4.994,2.391,7.991,5.92,8.287c-0.303,0.197-0.622,0.402-0.953,0.63l0,0c-0.008,0.004-0.016,0.008-0.024,0.016  c-0.63,0.429-1.248,0.894-1.859,1.371c-0.008,0.008-0.02,0.016-0.028,0.02c-10.587,8.287-18.259,23.324-18.259,35.749v20.917  c0,0.721,0.382,1.39,1.008,1.749c0.311,0.177,0.666,0.268,1.008,0.268c0.354,0,0.701-0.091,1.012-0.268l58.671-33.875  c0.622-0.362,1.012-1.028,1.012-1.749v-20.913C278.03,181.107,272.615,174.384,264.237,174.384z"/>
<g>
	<path style="fill:#D0E2E1;" d="M335.417,125.197c-1.989,0-4.045,0.39-6.156,1.146c3.911-4.443,6.632-10.626,6.632-15.959V91.22   v-0.193l0,0c0-7.416-5.258-10.449-11.678-6.743l-10.831,6.254c-6.428,3.706-11.681,12.812-11.681,20.228l0,0v0.193v19.161   c0,4.998,2.395,7.995,5.916,8.287c-0.303,0.197-0.618,0.402-0.945,0.63c-0.012,0.004-0.02,0.012-0.028,0.016   c-0.626,0.429-1.241,0.894-1.859,1.371c-0.008,0.012-0.016,0.016-0.028,0.024c-10.583,8.287-18.259,23.324-18.259,35.749v20.909   c0,0.729,0.382,1.394,1.008,1.753c0.315,0.181,0.662,0.268,1.012,0.268c0.351,0,0.701-0.087,1.012-0.268l58.671-33.875   c0.622-0.358,1.008-1.028,1.008-1.749v-20.917C349.214,131.92,343.802,125.197,335.417,125.197z"/>
	<polygon style="fill:#D0E2E1;" points="342.105,126.938 339.616,128.174 341.23,132.735 349.781,131.447  "/>
	<polygon style="fill:#D0E2E1;" points="332.589,83.567 330.541,85.375 310.207,142.507 287.51,198.858 294.816,203.092    339.407,87.518  "/>
</g>
<path style="fill:#FFFFFF;" d="M342.495,129.321c-1.989,0-4.045,0.394-6.16,1.146c3.907-4.439,6.632-10.626,6.632-15.955V95.343  V95.15l0,0c0-7.42-5.258-10.445-11.681-6.739l-10.835,6.25c-6.42,3.706-11.674,12.812-11.674,20.228l0,0v0.193v19.165  c0,4.998,2.391,7.995,5.919,8.287c-0.303,0.197-0.622,0.406-0.953,0.63l0,0c-0.008,0.004-0.016,0.012-0.028,0.02  c-0.626,0.425-1.245,0.89-1.855,1.371c-0.008,0.004-0.016,0.012-0.028,0.02c-10.583,8.287-18.259,23.324-18.259,35.749v20.913  c0,0.721,0.382,1.39,1.008,1.749c0.311,0.181,0.666,0.268,1.008,0.268c0.354,0,0.701-0.087,1.012-0.268l58.671-33.875  c0.622-0.358,1.008-1.028,1.008-1.749v-20.913C356.283,136.044,350.876,129.321,342.495,129.321z"/>
<g>
	<path style="fill:#D0E2E1;" d="M257.16,282.314c-1.985,0-4.045,0.39-6.156,1.146c3.911-4.439,6.632-10.626,6.632-15.959v-19.165   v-0.193l0,0c0-7.416-5.258-10.449-11.678-6.743l-10.835,6.254c-6.424,3.706-11.678,12.812-11.678,20.228l0,0v0.193v19.161   c0,5.002,2.395,7.995,5.916,8.286c-0.303,0.197-0.614,0.406-0.945,0.63c-0.012,0.004-0.02,0.012-0.028,0.016   c-0.626,0.429-1.241,0.894-1.859,1.371c-0.008,0.012-0.016,0.016-0.024,0.024c-10.587,8.286-18.263,23.324-18.263,35.749v20.909   c0,0.729,0.386,1.394,1.008,1.753c0.315,0.181,0.662,0.268,1.008,0.268c0.354,0,0.709-0.087,1.016-0.268l58.671-33.875   c0.622-0.358,1.008-1.028,1.008-1.749v-20.917C270.956,289.037,265.545,282.314,257.16,282.314z"/>
	<polygon style="fill:#D0E2E1;" points="263.847,284.055 261.358,285.292 262.973,289.852 271.524,288.56  "/>
	<polygon style="fill:#D0E2E1;" points="254.332,240.681 252.284,242.488 231.954,299.62 209.253,355.975 216.558,360.209    261.15,244.631  "/>
</g>
<path style="fill:#FFFFFF;" d="M264.237,286.438c-1.989,0-4.045,0.39-6.16,1.142c3.907-4.439,6.632-10.626,6.632-15.955v-19.168  v-0.193l0,0c0-7.42-5.254-10.445-11.682-6.739l-10.835,6.25c-6.42,3.706-11.674,12.812-11.674,20.228l0,0v0.193v19.165  c0,4.998,2.391,7.995,5.92,8.286c-0.303,0.197-0.622,0.406-0.953,0.63l0,0c-0.008,0.004-0.016,0.012-0.024,0.02  c-0.63,0.425-1.248,0.89-1.859,1.371c-0.008,0.004-0.02,0.012-0.028,0.02c-10.587,8.286-18.259,23.324-18.259,35.749v20.913  c0,0.721,0.382,1.39,1.008,1.749c0.311,0.181,0.666,0.272,1.008,0.272c0.354,0,0.701-0.091,1.012-0.272l58.671-33.875  c0.622-0.358,1.012-1.028,1.012-1.749v-20.913C278.03,293.161,272.615,286.438,264.237,286.438z"/>
<g>
	<path style="fill:#D0E2E1;" d="M335.417,237.25c-1.989,0-4.045,0.386-6.156,1.146c3.911-4.443,6.632-10.63,6.632-15.959v-19.165   v-0.197l0,0c0-7.416-5.258-10.449-11.678-6.743l-10.831,6.258c-6.428,3.706-11.681,12.808-11.681,20.224l0,0v0.197v19.161   c0,4.998,2.395,7.991,5.916,8.287c-0.303,0.197-0.618,0.406-0.945,0.634c-0.012,0.004-0.02,0.012-0.028,0.012   c-0.626,0.429-1.241,0.894-1.859,1.375c-0.008,0.008-0.016,0.012-0.028,0.02c-10.583,8.287-18.259,23.324-18.259,35.749v20.913   c0,0.725,0.382,1.394,1.008,1.749c0.315,0.181,0.662,0.272,1.012,0.272c0.351,0,0.701-0.091,1.012-0.272l58.671-33.875   c0.622-0.358,1.008-1.024,1.008-1.749v-20.913C349.214,243.969,343.802,237.25,335.417,237.25z"/>
	<polygon style="fill:#D0E2E1;" points="342.105,238.991 339.616,240.228 341.23,244.788 349.781,243.497  "/>
	<polygon style="fill:#D0E2E1;" points="332.589,195.617 330.541,197.424 310.207,254.556 287.51,310.907 294.816,315.145    339.407,199.567  "/>
</g>
<path style="fill:#FFFFFF;" d="M342.495,241.374c-1.989,0-4.045,0.39-6.16,1.146c3.907-4.443,6.632-10.63,6.632-15.959v-19.165  v-0.193V207.2c0-7.416-5.258-10.445-11.681-6.739l-10.835,6.25c-6.42,3.706-11.674,12.816-11.674,20.228v0.004v0.193v19.161  c0,4.998,2.391,7.995,5.919,8.287c-0.303,0.197-0.622,0.402-0.953,0.626l0,0c-0.008,0.008-0.016,0.012-0.028,0.02  c-0.626,0.425-1.245,0.894-1.855,1.371c-0.008,0.008-0.016,0.012-0.028,0.02c-10.583,8.287-18.259,23.324-18.259,35.749v20.913  c0,0.725,0.382,1.394,1.008,1.753c0.311,0.177,0.666,0.268,1.008,0.268c0.354,0,0.701-0.091,1.012-0.268l58.671-33.879  c0.622-0.358,1.008-1.024,1.008-1.745v-20.917C356.283,248.097,350.876,241.374,342.495,241.374z"/>
<g>
</g>
<g>
</g>
<g>
</g>
<g>
</g>
<g>
</g>
<g>
</g>
<g>
</g>
<g>
</g>
<g>
</g>
<g>
</g>
<g>
</g>
<g>
</g>
<g>
</g>
<g>
</g>
<g>
</g>
</svg>
