<?xml version="1.0" encoding="iso-8859-1"?>
<!-- Generator: Adobe Illustrator 19.0.0, SVG Export Plug-In . SVG Version: 6.00 Build 0)  -->
<svg xmlns="http://www.w3.org/2000/svg" xmlns:xlink="http://www.w3.org/1999/xlink" version="1.1" id="Capa_1" x="0px" y="0px" viewBox="0 0 504.117 504.117" style="enable-background:new 0 0 504.117 504.117;" xml:space="preserve">
<path style="fill:#323738;" d="M410.123,36.319L359.632,7.395c-2.209-1.607-4.577-2.97-7.093-4.064l-0.744-0.425l-0.032,0.063  c-13.584-5.518-31.13-3.525-50.271,7.522l-155.518,89.777c-42.76,24.69-77.745,85.287-77.745,134.668v179.558  c0,24.08,8.361,41.157,21.847,49.538l-0.13,0.232l56.115,31.791l31.555-54.938l123.876-71.511  c42.752-24.69,77.745-85.287,77.745-134.668V90.09L410.123,36.319z"/>
<path style="fill:#252B2D;" d="M410.123,36.319l-54.048-12.674c-2.209-1.611-13.245-1.568-15.762-2.666l-4.005-1.607l-7.215-1.339  c-13.584-5.522-8.46-18.593-27.601-7.546l-155.518,89.781c-42.76,24.69-77.745,85.287-77.745,134.668v179.558  c0,24.08,8.361,41.157,21.847,49.538l-0.13,0.232l56.115,31.791l31.555-54.938l123.876-71.511  c42.752-24.69,77.745-85.287,77.745-134.668V90.09L410.123,36.319z"/>
<path style="fill:#090C0C;" d="M71.191,209.067c-1.887,8.787-2.962,17.495-2.962,25.868v179.558c0,24.08,8.361,41.157,21.847,49.538  l-0.13,0.232l56.115,31.791l31.555-54.938l123.876-71.511c7.263-4.194,14.285-9.492,20.96-15.537L71.191,209.067z"/>
<path style="fill:#3B4142;" d="M199.423,131.259c-42.76,24.69-77.753,85.287-77.753,134.668v179.558  c0,49.38,34.993,69.577,77.753,44.891l155.506-89.781c42.76-24.69,77.753-85.287,77.753-134.668V86.373  c0-49.38-34.993-69.577-77.753-44.891L199.423,131.259z"/>
<path style="opacity:0.2;fill:#383E3F;enable-background:new    ;" d="M432.682,86.373c0-49.38-34.993-69.577-77.753-44.891  l-155.506,89.777c-42.76,24.69-77.753,85.287-77.753,134.668v179.558c0,49.38,34.993,69.577,77.753,44.891"/>
<path style="fill:#4F5759;" d="M164.883,504.117h-0.008c-28.192,0-46.407-23.016-46.407-58.632V265.927  c0-50.527,35.592-112.187,79.344-137.44l155.514-89.781c12.607-7.278,24.769-10.965,36.147-10.965  c28.191,0,46.415,23.016,46.415,58.632v179.558c0,50.527-35.6,112.187-79.352,137.44l-155.514,89.781  C188.415,500.427,176.261,504.117,164.883,504.117z M389.477,34.156c-10.24,0-21.323,3.399-32.937,10.098l-155.518,89.777  c-41.984,24.245-76.146,83.413-76.146,131.895v179.558c0,32.209,15.325,52.22,39.999,52.22h0.008  c10.24,0,21.315-3.403,32.929-10.102l155.514-89.777c41.984-24.241,76.146-83.413,76.146-131.895V86.373  C429.477,54.164,414.152,34.156,389.477,34.156z"/>
<g style="opacity:0.3;">
	<path style="fill:#787F7E;" d="M234.239,450.661c-3.462,0-6.262-2.8-6.262-6.262V138.073c0-3.462,2.8-6.262,6.262-6.262   s6.262,2.8,6.262,6.262v306.326C240.497,447.86,237.701,450.661,234.239,450.661z"/>
	<path style="fill:#787F7E;" d="M320.121,394.301c-3.462,0-6.262-2.804-6.262-6.266V87.46c0-3.462,2.8-6.262,6.262-6.262   c3.462,0,6.262,2.8,6.262,6.262v300.576C326.383,391.497,323.583,394.301,320.121,394.301z"/>
	<path style="fill:#787F7E;" d="M146.585,294.111c-2.17,0-4.285-1.126-5.431-3.143c-1.725-3.013-0.685-6.837,2.308-8.55   l261.199-149.78c2.97-1.733,6.821-0.693,8.546,2.316c1.729,3.009,0.693,6.833-2.308,8.546L149.7,293.276   C148.708,293.835,147.644,294.111,146.585,294.111z"/>
	<path style="fill:#787F7E;" d="M146.569,394.301c-2.162,0-4.277-1.122-5.431-3.143c-1.725-3.009-0.685-6.837,2.316-8.55   L404.66,232.832c2.97-1.725,6.821-0.709,8.546,2.312c1.729,3.009,0.693,6.833-2.308,8.55L149.692,393.47   C148.7,394.033,147.636,394.301,146.569,394.301z"/>
</g>
<path style="fill:#35EFCB;" d="M163.363,468.073c-1.008,0-2.032-0.252-2.962-0.8c-2.824-1.634-3.785-5.25-2.146-8.07L383.463,70.894  c1.631-2.824,5.246-3.789,8.07-2.146c2.824,1.638,3.785,5.254,2.146,8.078L168.475,465.127  C167.376,467.017,165.399,468.073,163.363,468.073z"/>
<path style="fill:#5CFFE0;" d="M277.192,292.216c13.414-7.83,24.454-26.986,24.517-42.539c0.071-15.608-10.91-21.961-24.391-14.194  c-13.501,7.794-24.533,26.963-24.533,42.571C252.785,293.677,263.762,300.058,277.192,292.216z"/>
<path style="fill:#35EFCB;" d="M277.314,235.487c-13.501,7.794-24.533,26.963-24.533,42.571c0,15.624,10.977,22,24.407,14.163"/>
<path style="fill:#5CFFE0;" d="M380.9,117.939c13.414-7.83,24.454-26.986,24.525-42.539c0.071-15.608-10.914-21.961-24.391-14.194  c-13.501,7.794-24.533,26.963-24.533,42.571C356.501,119.401,367.477,125.781,380.9,117.939z"/>
<path style="fill:#35EFCB;" d="M381.03,61.21c-13.501,7.794-24.533,26.963-24.533,42.571c0,15.624,10.977,22,24.399,14.163"/>
<path style="fill:#5CFFE0;" d="M170.822,479.002c13.414-7.822,24.454-26.986,24.517-42.539c0.071-15.608-10.91-21.953-24.391-14.186  c-13.501,7.794-24.533,26.955-24.533,42.567C146.415,480.463,157.392,486.847,170.822,479.002z"/>
<path style="fill:#35EFCB;" d="M170.944,422.28c-13.501,7.794-24.533,26.955-24.533,42.567c0,15.62,10.976,22.004,24.407,14.159"/>
<g>
</g>
<g>
</g>
<g>
</g>
<g>
</g>
<g>
</g>
<g>
</g>
<g>
</g>
<g>
</g>
<g>
</g>
<g>
</g>
<g>
</g>
<g>
</g>
<g>
</g>
<g>
</g>
<g>
</g>
</svg>
