<?xml version="1.0" encoding="iso-8859-1"?>
<!-- Generator: Adobe Illustrator 19.0.0, SVG Export Plug-In . SVG Version: 6.00 Build 0)  -->
<svg xmlns="http://www.w3.org/2000/svg" xmlns:xlink="http://www.w3.org/1999/xlink" version="1.1" id="Capa_1" x="0px" y="0px" viewBox="0 0 504.12 504.12" style="enable-background:new 0 0 504.12 504.12;" xml:space="preserve">
<path style="fill:#323738;" d="M410.124,36.322L359.633,7.394c-2.209-1.607-4.576-2.966-7.093-4.061l-0.744-0.425l-0.032,0.063  c-13.584-5.522-31.13-3.529-50.271,7.519L145.976,100.27c-42.76,24.686-77.745,85.283-77.745,134.668v179.554  c0,24.084,8.361,41.161,21.847,49.538l-0.13,0.232l56.115,31.795l31.555-54.942l123.876-71.507  c42.752-24.694,77.745-85.291,77.745-134.668V90.093L410.124,36.322z"/>
<path style="fill:#252B2D;" d="M410.124,36.322l-54.048-12.674c-2.209-1.611-13.245-1.568-15.762-2.67l-4.005-1.603l-7.215-1.343  c-13.584-5.522-8.46-18.593-27.601-7.546L145.976,100.27c-42.76,24.686-77.745,85.283-77.745,134.668v179.554  c0,24.084,8.361,41.161,21.847,49.538l-0.13,0.232l56.115,31.795l31.555-54.942l123.876-71.507  c42.752-24.694,77.745-85.291,77.745-134.668V90.093L410.124,36.322z"/>
<path style="fill:#090C0C;" d="M71.192,209.07c-1.887,8.787-2.962,17.491-2.962,25.868v179.554c0,24.084,8.361,41.161,21.847,49.538  l-0.13,0.232l56.115,31.795l31.555-54.942l123.876-71.507c7.263-4.198,14.285-9.496,20.96-15.537L71.192,209.07z"/>
<path style="fill:#3B4142;" d="M199.425,131.262c-42.76,24.686-77.753,85.287-77.753,134.668v179.558  c0,49.38,34.993,69.577,77.753,44.887l155.506-89.777c42.76-24.69,77.753-85.291,77.753-134.668V86.372  c0-49.376-34.993-69.577-77.753-44.887L199.425,131.262z"/>
<path style="opacity:0.2;fill:#383E3F;enable-background:new    ;" d="M432.684,86.372c0-49.376-34.993-69.577-77.753-44.887  l-155.506,89.777c-42.76,24.686-77.753,85.287-77.753,134.668v179.558c0,49.38,34.993,69.577,77.753,44.887"/>
<path style="fill:#3B4142;" d="M122.747,252.437l308.882-178.33c0.488-3.738,0.8-7.436,0.933-11.083L121.809,242.433  C121.939,245.926,122.254,249.262,122.747,252.437z"/>
<path style="fill:#4F5759;" d="M164.884,504.12h-0.008c-28.192,0-46.407-23.016-46.407-58.632V265.93  c0-50.527,35.592-112.187,79.344-137.444l155.514-89.777c12.607-7.278,24.769-10.969,36.147-10.969  c28.191,0,46.415,23.016,46.415,58.632v179.562c0,50.523-35.6,112.183-79.352,137.44l-155.514,89.781  C188.417,500.43,176.262,504.12,164.884,504.12z M389.479,34.155c-10.24,0-21.323,3.399-32.937,10.098l-155.518,89.781  c-41.984,24.241-76.146,83.413-76.146,131.895v179.558c0,32.209,15.325,52.22,39.999,52.22h0.008  c10.24,0,21.315-3.403,32.929-10.102l155.514-89.781c41.984-24.237,76.146-83.409,76.146-131.891V86.372  C429.478,54.163,414.153,34.155,389.479,34.155z"/>
<path style="fill:#FF4D8D;" d="M183.56,181.627c0-4.139,2.926-9.212,6.506-11.28c3.584-2.068,6.514-0.378,6.514,3.761  c0,4.135-2.93,9.208-6.514,11.276C186.491,187.456,183.56,185.763,183.56,181.627z"/>
<path style="fill:#EA2864;" d="M190.071,185.384c-3.58,2.068-6.506,0.378-6.506-3.757c0-4.139,2.926-9.212,6.506-11.28"/>
<path style="fill:#F7D011;" d="M211.307,165.763c0-4.139,2.93-9.212,6.51-11.284c3.584-2.068,6.51-0.378,6.51,3.761  c0,4.139-2.93,9.212-6.51,11.28C214.237,171.584,211.307,169.894,211.307,165.763z"/>
<path style="fill:#F4B414;" d="M217.821,169.52c-3.58,2.064-6.51,0.374-6.51-3.757c0-4.139,2.93-9.212,6.51-11.284"/>
<path style="fill:#15EAA8;" d="M239.053,149.895c0.004-4.139,2.93-9.212,6.514-11.276c3.584-2.068,6.51-0.382,6.506,3.757  c0.004,4.135-2.93,9.212-6.506,11.28C241.984,155.72,239.057,154.03,239.053,149.895z"/>
<path style="fill:#08C1B3;" d="M245.571,153.656c-3.584,2.064-6.51,0.378-6.514-3.761c0.004-4.139,2.93-9.212,6.514-11.276"/>
<g>
	<path style="fill:#FC7C7C;" d="M166.834,312.357c-3.383,0-6.672-1.757-8.487-4.899c-2.71-4.683-1.099-10.665,3.58-13.371   l237.048-136.862c4.667-2.698,10.669-1.095,13.375,3.588c2.71,4.679,1.099,10.669-3.584,13.375L171.721,311.041   C170.178,311.927,168.492,312.357,166.834,312.357z"/>
	<path style="fill:#FC7C7C;" d="M166.834,351.509c-3.383,0-6.672-1.749-8.487-4.892c-2.71-4.683-1.099-10.669,3.58-13.375   l70.81-40.881c4.671-2.698,10.661-1.099,13.375,3.588c2.71,4.683,1.099,10.669-3.584,13.375l-70.806,40.881   C170.178,351.095,168.492,351.509,166.834,351.509z"/>
	<path style="fill:#FC7C7C;" d="M271.9,290.853c-3.383,0-6.668-1.757-8.491-4.899c-2.702-4.679-1.095-10.665,3.596-13.375   l131.97-76.186c4.667-2.71,10.669-1.111,13.375,3.58c2.71,4.683,1.099,10.665-3.584,13.375l-131.978,76.197   C275.248,290.431,273.57,290.853,271.9,290.853z"/>
	<path style="fill:#FC7C7C;" d="M166.834,390.673c-3.383,0-6.672-1.753-8.487-4.896c-2.71-4.687-1.099-10.665,3.58-13.375   l237.048-136.858c4.667-2.702,10.669-1.103,13.375,3.58c2.71,4.687,1.099,10.677-3.584,13.379L171.721,389.357   C170.178,390.251,168.492,390.673,166.834,390.673z"/>
	<path style="fill:#FC7C7C;" d="M237.643,388.952c-3.387,0-6.672-1.757-8.487-4.896c-2.71-4.683-1.103-10.669,3.58-13.375   l78.62-45.379c4.651-2.706,10.657-1.103,13.375,3.58c2.71,4.683,1.099,10.677-3.588,13.379l-78.62,45.383   C240.987,388.53,239.301,388.952,237.643,388.952z"/>
	<path style="fill:#FC7C7C;" d="M166.834,429.833c-3.383,0-6.672-1.753-8.487-4.895c-2.71-4.679-1.099-10.669,3.58-13.375   l33.091-19.105c4.671-2.706,10.657-1.103,13.375,3.588c2.706,4.683,1.095,10.669-3.592,13.371l-33.083,19.109   C170.178,429.412,168.492,429.833,166.834,429.833z"/>
	<path style="fill:#FC7C7C;" d="M349.409,324.42c-3.383,0-6.672-1.757-8.487-4.888c-2.71-4.687-1.095-10.677,3.588-13.379   l54.465-31.445c4.667-2.71,10.669-1.095,13.375,3.588c2.71,4.683,1.099,10.669-3.584,13.375l-54.469,31.441   C352.753,324.003,351.079,324.42,349.409,324.42z"/>
</g>
<g>
</g>
<g>
</g>
<g>
</g>
<g>
</g>
<g>
</g>
<g>
</g>
<g>
</g>
<g>
</g>
<g>
</g>
<g>
</g>
<g>
</g>
<g>
</g>
<g>
</g>
<g>
</g>
<g>
</g>
</svg>
