<?xml version="1.0" encoding="iso-8859-1"?>
<!-- Generator: Adobe Illustrator 19.0.0, SVG Export Plug-In . SVG Version: 6.00 Build 0)  -->
<svg xmlns="http://www.w3.org/2000/svg" xmlns:xlink="http://www.w3.org/1999/xlink" version="1.1" id="Capa_1" x="0px" y="0px" viewBox="0 0 504.121 504.121" style="enable-background:new 0 0 504.121 504.121;" xml:space="preserve">
<path style="fill:#E5352C;" d="M382.534,7.544c-2.249-1.642-4.671-3.029-7.235-4.147l-0.76-0.433l-0.032,0.067  c-13.855-5.636-31.752-3.596-51.275,7.668l-157.219,90.762c0.382,0.232,0.768,0.449,1.126,0.713l54.682,31.323l-1.036,1.804h122.313  v227.174c34.06-29.928,59.435-80.408,59.435-122.841V91.894l31.504-54.847L382.534,7.544z"/>
<path style="fill:#F48B76;" d="M377.741,42.309l-156.57,90.392V498.99l156.57-90.388c43.615-25.183,79.305-86.993,79.305-137.362  V88.098C457.046,37.733,421.355,17.135,377.741,42.309z"/>
<path style="fill:#EF6F5E;" d="M377.741,42.309l-156.57,90.392V498.99L457.046,88.098C457.046,37.733,421.355,17.135,377.741,42.309  z"/>
<path style="fill:#AF1512;" d="M172.775,477.178c-3.84-2.213-6.971-7.641-6.971-12.064V102.674c0-4.427,3.131-6.235,6.971-4.021  l41.563,24.001c3.84,2.213,6.975,7.637,6.975,12.064v362.441c0,4.423-3.135,6.235-6.975,4.021L172.775,477.178z"/>
<polygon style="fill:#870E0E;" points="179.022,480.786 206.642,496.733 206.642,154.607 179.022,154.607 "/>
<path style="fill:#9BB8BA;" d="M182.137,439.275l16.691,28.908l2.434-1.402c0.02-0.012,0.035-0.02-0.457,0.264l0.256-0.15l0.5-0.315  c1.977-1.3,3.198-3.86,3.198-7.448c0.004-7.507-5.313-16.715-11.815-20.468c-3.104-1.792-5.935-2.016-8.046-0.949l-0.532,0.272  L182.137,439.275z"/>
<path style="fill:#BCCACC;" d="M204.76,459.132c0.004-7.507-5.313-16.715-11.815-20.468c-3.104-1.792-5.935-2.016-8.046-0.949  l-0.532,0.272l-2.229,1.288l14.253,24.69L204.76,459.132z"/>
<path style="fill:#E4EDEF;" d="M201.979,460.739c0-7.507-5.325-16.715-11.819-20.468c-6.502-3.753-11.819-0.685-11.815,6.821  c-0.004,7.503,5.317,16.715,11.815,20.468C196.658,471.318,201.979,468.246,201.979,460.739z"/>
<path style="fill:#FFFFFF;" d="M178.344,447.096c-0.004,7.503,5.317,16.715,11.815,20.468c6.495,3.753,11.819,0.681,11.819-6.821"/>
<path style="fill:#E5352C;" d="M217.438,504.121c-1.323,0-2.702-0.41-4.096-1.213l-41.567-24.001  c-4.466-2.576-7.964-8.637-7.964-13.796V102.674c0-4.813,2.946-6.963,5.864-6.963c1.327,0,2.702,0.406,4.096,1.209l41.567,24.005  c4.466,2.572,7.967,8.629,7.967,13.792v362.441C223.306,501.967,220.356,504.121,217.438,504.121z M169.676,99.7  c-1.694,0-1.879,2.08-1.879,2.974v362.437c0,3.734,2.733,8.468,5.975,10.335l41.567,24.005c0.768,0.441,1.493,0.677,2.099,0.677  c1.694,0,1.879-2.076,1.879-2.97V134.717c0-3.738-2.733-8.472-5.975-10.338l-41.567-24.001  C171.011,99.937,170.282,99.7,169.676,99.7z"/>
<polygon style="fill:#647882;" points="206.642,139.31 192.298,131.027 172.779,142.441 187.131,150.731 "/>
<polyline style="fill:#70838E;" points="172.779,142.441 187.131,150.731 206.642,139.31 "/>
<polygon style="fill:#647882;" points="187.115,150.763 172.76,142.472 172.795,168.423 187.139,176.701 "/>
<polyline style="fill:#51636B;" points="187.139,176.701 187.131,150.731 172.779,142.441 "/>
<polygon style="fill:#A2B2BC;" points="206.642,139.31 187.131,150.731 187.135,161.156 187.127,176.733 206.646,165.268 "/>
<polygon style="fill:#34484F;" points="195.217,164.063 192.909,165.414 192.905,166.646 192.909,168.478 195.217,167.131 "/>
<polyline style="fill:#8E9BA5;" points="206.642,139.31 187.131,150.731 187.135,161.156 187.127,176.733 "/>
<polygon style="fill:#34484F;" points="185.245,152.208 174.343,145.914 174.363,167.501 185.256,173.787 "/>
<polygon style="fill:#27A0C1;" points="179.061,148.64 174.343,145.914 174.363,167.501 179.085,170.226 "/>
<polygon style="fill:#287BBF;" points="179.03,148.62 185.245,152.208 185.253,166.52 179.018,170.187 179.022,154.607 "/>
<polygon style="fill:#34484F;" points="194.764,152.413 192.456,153.768 192.46,154.993 192.46,156.832 194.76,155.485 "/>
<polygon style="fill:#272A2D;" points="198.868,137.994 175.209,124.336 119.476,156.402 143.17,170.089 "/>
<polygon style="fill:#09090A;" points="143.146,170.132 119.449,156.458 119.5,199.265 143.174,212.931 "/>
<polygon style="fill:#3A3D3F;" points="198.868,137.994 143.17,170.089 143.154,187.276 143.146,212.978 198.864,180.848 "/>
<g>
	<path style="fill:#272A2D;" d="M86.834,207.071l-0.004,106.5l12.485,7.203l91.487-52.854l1.65,112.998L166.47,395.92   c-3.97,2.284-5.337,7.385-3.048,11.366c2.3,3.974,7.392,5.337,11.374,3.044l30.208-17.447l4.163-7.329l-1.93-132.045l-12.481-7.077   l-91.286,52.724l0.008-87.276l30.421-17.566c3.982-2.292,5.348-7.381,3.044-11.366c-2.3-3.982-7.389-5.344-11.37-3.044   l-34.58,19.968L86.834,207.071z"/>
	<polygon style="fill:#272A2D;" points="176.489,377.023 144.738,358.69 69.978,401.71 101.765,420.063  "/>
</g>
<polygon style="fill:#09090A;" points="101.726,420.126 69.942,401.769 70.005,459.215 101.757,477.545 "/>
<polygon style="fill:#3A3D3F;" points="176.489,377.023 101.765,420.063 101.745,443.122 101.718,477.616 176.486,434.505 "/>
<polygon style="fill:#647882;" points="96.377,426.179 75.507,414.128 47.103,430.744 67.997,442.807 "/>
<polyline style="fill:#70838E;" points="47.103,430.744 67.997,442.807 96.377,426.179 "/>
<polygon style="fill:#647882;" points="67.973,442.851 47.076,430.787 47.131,468.545 67.993,480.589 "/>
<polyline style="fill:#51636B;" points="67.993,480.589 67.997,442.807 47.103,430.744 "/>
<polygon style="fill:#A2B2BC;" points="96.377,426.179 67.997,442.807 67.989,457.963 67.969,480.632 96.373,463.957 "/>
<polygon style="fill:#34484F;" points="79.753,462.193 76.397,464.162 76.393,465.95 76.397,468.628 79.753,466.655 "/>
<polyline style="fill:#8E9BA5;" points="96.377,426.179 67.997,442.807 67.989,457.963 67.969,480.632 "/>
<polygon style="fill:#34484F;" points="65.24,444.958 49.38,435.789 49.415,467.194 65.263,476.339 "/>
<polygon style="fill:#27A0C1;" points="56.256,439.763 49.38,435.789 49.415,467.194 56.276,471.164 "/>
<polygon style="fill:#287BBF;" points="56.201,439.731 65.24,444.958 65.259,465.78 56.181,471.105 56.197,448.435 "/>
<polygon style="fill:#34484F;" points="79.091,445.257 75.736,447.222 75.736,449.01 75.732,451.685 79.091,449.715 "/>
<g>
</g>
<g>
</g>
<g>
</g>
<g>
</g>
<g>
</g>
<g>
</g>
<g>
</g>
<g>
</g>
<g>
</g>
<g>
</g>
<g>
</g>
<g>
</g>
<g>
</g>
<g>
</g>
<g>
</g>
</svg>
