<?xml version="1.0" encoding="iso-8859-1"?>
<!-- Generator: Adobe Illustrator 19.0.0, SVG Export Plug-In . SVG Version: 6.00 Build 0)  -->
<svg xmlns="http://www.w3.org/2000/svg" xmlns:xlink="http://www.w3.org/1999/xlink" version="1.1" id="Capa_1" x="0px" y="0px" viewBox="0 0 504.116 504.116" style="enable-background:new 0 0 504.116 504.116;" xml:space="preserve">
<path style="fill:#F46E34;" d="M410.118,36.322L359.627,7.394c-2.209-1.611-4.576-2.97-7.093-4.064l-0.744-0.421l-0.032,0.063  c-13.584-5.522-31.13-3.529-50.271,7.519l-155.514,89.777c-42.76,24.686-77.745,85.287-77.745,134.668v179.558  c0,24.08,8.361,41.157,21.847,49.534l-0.13,0.236l56.115,31.795l31.555-54.942l123.876-71.511  c42.752-24.69,77.745-85.291,77.745-134.668V90.089L410.118,36.322z"/>
<path style="fill:#E25E1B;" d="M410.118,36.322l-54.044-12.678c-2.209-1.607-13.245-1.568-15.762-2.67l-4.009-1.599l-7.215-1.343  c-13.584-5.522-8.46-18.593-27.601-7.546l-155.514,89.781c-42.76,24.686-77.745,85.287-77.745,134.668v179.558  c0,24.08,8.361,41.157,21.847,49.534l-0.13,0.236l56.115,31.795l31.555-54.942l123.876-71.511  c42.752-24.69,77.745-85.291,77.745-134.668V90.089L410.118,36.322z"/>
<path style="fill:#C95412;" d="M71.19,209.066c-1.887,8.791-2.962,17.495-2.962,25.868v179.558c0,24.08,8.361,41.157,21.847,49.534  l-0.13,0.236l56.115,31.795l31.555-54.942l123.876-71.511c7.263-4.194,14.285-9.492,20.96-15.537L71.19,209.066z"/>
<path style="fill:#FF902C;" d="M199.419,131.258c-42.76,24.686-77.753,85.291-77.753,134.668v179.562  c0,49.377,34.993,69.577,77.753,44.883l155.506-89.777c42.76-24.686,77.753-85.287,77.753-134.668V86.368  c0-49.376-34.993-69.573-77.753-44.883L199.419,131.258z"/>
<path style="fill:#EA7A00;" d="M432.682,86.368c0-49.376-34.993-69.573-77.753-44.883l-155.51,89.773  c-42.76,24.686-77.753,85.291-77.753,134.668v179.562c0,49.377,34.993,69.577,77.753,44.883"/>
<polygon style="opacity:0.3;fill:#F46E34;enable-background:new    ;" points="204.192,487.622 339.982,409.227 339.982,343.77   204.192,387.967 "/>
<path style="fill:#FFAA2E;" d="M164.882,504.116h-0.008c-28.192,0-46.407-23.012-46.407-58.628V265.926  c0-50.523,35.592-112.183,79.344-137.44l155.514-89.781c12.607-7.278,24.769-10.965,36.147-10.965  c28.191,0,46.415,23.016,46.415,58.628V265.93c0,50.527-35.6,112.183-79.352,137.444l-155.514,89.777  C188.411,500.426,176.257,504.116,164.882,504.116z M389.473,34.151c-10.24,0-21.323,3.399-32.937,10.098l-155.514,89.785  c-41.984,24.241-76.146,83.409-76.146,131.891v179.562c0,32.209,15.325,52.216,39.999,52.216h0.008  c10.24,0,21.315-3.399,32.929-10.098l155.514-89.785c41.984-24.237,76.146-83.409,76.146-131.891V86.368  C429.472,54.159,414.151,34.151,389.473,34.151z"/>
<path style="fill:#4845B5;" d="M343.543,313.258l64.677-139.937l-31.055-17.802l-0.008,0.008c-2.686-1.969-7.995-1.091-15.49,3.198  l-17.719,10.161c-9.247,5.301-19.121,5.163-26.9,0.693l3.324-35.013l-31.815-18.298c-0.016-0.008-0.024-0.012-0.032-0.016  l-0.008-0.008l0,0c-4.395-2.556-8.932,1.642-11.953,12.56l-17.321,62.586c-4.84,17.499-21.669,39.235-37.4,48.301l-47.612,27.443  c-15.726,9.07-15.734,23.906-0.004,32.985l12.702,7.326c15.73,9.074,26.01,31.122,22.847,49.002l-12.363,69.829  c-1.568,8.869-0.756,14.037,1.808,15.238l-0.083,0.284l31.693,17.857l27.943-74.055l62.44-34.257l3.186,1.209  c16.975,6.439,27.53-2.769,23.473-20.46L343.543,313.258z"/>
<g>
	<path style="fill:#4C40A0;" d="M290.586,237.805l26.707-70.782l3.08-32.453l-31.815-18.298c-0.016-0.008-0.024-0.012-0.032-0.016   l-0.008-0.008c-4.395-2.556-8.932,1.642-11.953,12.56l-17.321,62.586c-1.985,7.176-5.998,15.053-11.114,22.485L290.586,237.805z"/>
	<path style="fill:#4C40A0;" d="M199.218,441.518l-0.083,0.284l31.693,17.857l27.943-74.055l12.099-6.636l-60.963-35.202   c0.579,4.309,0.591,8.606-0.13,12.682l-12.363,69.829C195.843,435.15,196.654,440.321,199.218,441.518z"/>
</g>
<path style="fill:#875CFF;" d="M407.113,189.957c8.062-16.266,1.772-22.185-13.978-13.154l-17.715,10.161  c-15.754,9.035-33.406,2.355-39.239-14.84l-8.747-25.793c-5.829-17.195-14.56-16.947-19.401,0.555l-17.321,62.586  c-4.84,17.499-21.669,39.235-37.404,48.301l-47.612,27.439c-15.726,9.066-15.726,23.906,0,32.981l12.702,7.326  c15.722,9.078,26.01,31.122,22.843,49.006l-12.363,69.829c-3.167,17.877,3.32,20.74,14.403,6.361l53.098-68.86  c11.087-14.375,34.052-20.878,51.023-14.431l8.452,3.206c16.975,6.439,27.542-2.769,23.477-20.464l-8.96-39.018  c-4.061-17.692-0.788-45.485,7.278-61.751L407.113,189.957z"/>
<path style="fill:#9B82F9;" d="M393.136,176.806l-17.715,10.161c-15.754,9.035-33.406,2.355-39.239-14.84l-8.747-25.793  c-5.829-17.195-14.56-16.947-19.401,0.555l-17.321,62.586c-4.84,17.499-21.669,39.235-37.404,48.301l-47.612,27.439  c-15.726,9.066-15.726,23.906,0,32.981l12.702,7.326c15.722,9.078,26.01,31.122,22.843,49.006l-12.363,69.829  c-3.167,17.877,3.32,20.74,14.403,6.361l53.098-68.86L377.65,249.4l29.46-59.443C415.175,173.695,408.886,167.776,393.136,176.806z"/>
<path style="fill:#7255FF;" d="M393.136,176.806l-17.715,10.161c-15.754,9.035-33.406,2.355-39.239-14.84l-8.747-25.793  c-5.829-17.195-14.56-16.947-19.401,0.555l-17.321,62.586c-4.84,17.499-21.669,39.235-37.404,48.301l-47.612,27.439  c-15.726,9.066-15.726,23.906,0,32.981l12.702,7.326c15.722,9.078,26.01,31.122,22.843,49.006l-12.363,69.829"/>
<path style="fill:#FFFFFF;" d="M260.126,280.951c-2.737,1.575-4.978,5.463-4.978,8.617v57.439c0,3.163,2.237,4.454,4.978,2.871  l69.64-40.204c2.733-1.579,4.974-5.459,4.974-8.613v-57.442c0-3.163-2.237-4.454-4.974-2.875L260.126,280.951z"/>
<path style="fill:#E2E9F2;" d="M334.74,278.746v-35.127c0-3.163-2.237-4.454-4.974-2.875l-69.64,40.208  c-2.737,1.575-4.978,5.463-4.978,8.617v57.439c0,3.163,2.237,4.454,4.978,2.871l50.314-29.046L334.74,278.746z"/>
<path style="fill:#FFFFFF;" d="M343.48,257.313c-1.922,2.509-3.501,7.136-3.501,10.291v5.746c0,3.163,2.552,6.116,5.683,6.561  l8.523,1.237c3.131,0.445,5.683-1.768,5.683-4.927l0.008-34.465c0-3.155-1.575-3.694-3.509-1.189L343.48,257.313z"/>
<path style="fill:#E2E9F2;" d="M339.982,269.668l17.396-30.129c-0.319,0.26-0.65,0.575-1.004,1.036l-12.891,16.742  c-1.922,2.509-3.501,7.136-3.501,10.291V269.668z"/>
<g>
</g>
<g>
</g>
<g>
</g>
<g>
</g>
<g>
</g>
<g>
</g>
<g>
</g>
<g>
</g>
<g>
</g>
<g>
</g>
<g>
</g>
<g>
</g>
<g>
</g>
<g>
</g>
<g>
</g>
</svg>
