<?xml version="1.0" encoding="iso-8859-1"?>
<!-- Generator: Adobe Illustrator 19.0.0, SVG Export Plug-In . SVG Version: 6.00 Build 0)  -->
<svg xmlns="http://www.w3.org/2000/svg" xmlns:xlink="http://www.w3.org/1999/xlink" version="1.1" id="Capa_1" x="0px" y="0px" viewBox="0 0 504.116 504.116" style="enable-background:new 0 0 504.116 504.116;" xml:space="preserve">
<path style="fill:#323738;" d="M410.122,36.322L359.631,7.394c-2.209-1.611-4.577-2.97-7.093-4.064l-0.744-0.421l-0.032,0.063  c-13.584-5.522-31.13-3.529-50.271,7.519l-155.518,89.777c-42.76,24.686-77.745,85.287-77.745,134.668v179.558  c0,24.08,8.361,41.157,21.847,49.534l-0.13,0.236l56.115,31.795l31.555-54.942l123.876-71.511  c42.752-24.69,77.745-85.291,77.745-134.668V90.089L410.122,36.322z"/>
<path style="fill:#252B2D;" d="M410.122,36.322l-54.047-12.678c-2.209-1.607-13.245-1.568-15.762-2.67l-4.009-1.599l-7.211-1.343  c-13.584-5.522-8.46-18.593-27.601-7.546l-155.518,89.781c-42.76,24.686-77.745,85.287-77.745,134.668v179.558  c0,24.08,8.361,41.157,21.847,49.534l-0.13,0.236l56.115,31.795l31.555-54.942l123.876-71.511  c42.752-24.69,77.745-85.291,77.745-134.668V90.089L410.122,36.322z"/>
<path style="fill:#090C0C;" d="M71.19,209.066c-1.887,8.791-2.962,17.495-2.962,25.868v179.558c0,24.08,8.361,41.157,21.847,49.534  l-0.13,0.236l56.115,31.795l31.555-54.942l123.876-71.511c7.263-4.194,14.285-9.492,20.961-15.537L71.19,209.066z"/>
<path style="fill:#3B4142;" d="M199.423,131.258c-42.76,24.686-77.753,85.291-77.753,134.668v179.562  c0,49.377,34.993,69.577,77.753,44.883l155.506-89.777c42.76-24.686,77.753-85.287,77.753-134.668V86.368  c0-49.376-34.993-69.573-77.753-44.883L199.423,131.258z"/>
<g>
	<polygon style="opacity:0.2;fill:#383E3F;enable-background:new    ;" points="269.866,449.71 308.837,427.21 308.837,383.91    269.866,383.91  "/>
	<path style="opacity:0.2;fill:#383E3F;enable-background:new    ;" d="M432.682,86.368c0-49.376-34.993-69.573-77.753-44.883   l-155.506,89.773c-42.76,24.686-77.753,85.291-77.753,134.668v179.562c0,49.377,34.993,69.577,77.753,44.883"/>
</g>
<path style="fill:#FF456D;" d="M291.346,356.719c-5.089,0-9.216-4.128-9.216-9.216V229.491c0-5.089,4.124-13.824,9.216-13.824  c5.088,0,9.216,4.124,9.216,9.216l0.004,122.624C300.562,352.588,296.439,356.719,291.346,356.719z"/>
<path style="fill:#4F5759;" d="M164.882,504.116h-0.008c-28.192,0-46.407-23.012-46.407-58.628V265.926  c0-50.523,35.592-112.183,79.344-137.44l155.514-89.781c12.607-7.278,24.769-10.965,36.147-10.965  c28.191,0,46.415,23.016,46.415,58.628V265.93c0,50.527-35.6,112.183-79.352,137.444l-155.514,89.777  C188.415,500.426,176.26,504.116,164.882,504.116z M389.477,34.151c-10.24,0-21.323,3.399-32.937,10.098l-155.518,89.785  c-41.984,24.241-76.146,83.409-76.146,131.891v179.562c0,32.209,15.325,52.216,39.999,52.216h0.008  c10.24,0,21.315-3.399,32.929-10.098l155.514-89.785c41.984-24.237,76.146-83.409,76.146-131.891V86.368  C429.476,54.159,414.151,34.151,389.477,34.151z"/>
<path style="fill:#E5DCDE;" d="M312.831,341.867l-31.701,54.898l-4.624-2.67c-0.039-0.016-0.071-0.032,0.866,0.508l-0.488-0.284  l-0.945-0.599c-3.757-2.469-6.077-7.329-6.073-14.147c-0.004-14.253,10.09-31.74,22.441-38.869c5.892-3.399,11.268-3.824,15.277-1.8  l1.012,0.516L312.831,341.867z"/>
<path style="fill:#C6B6BA;" d="M269.866,379.574c-0.004-14.253,10.09-31.74,22.441-38.869c5.892-3.399,11.268-3.824,15.277-1.8  l1.012,0.516l4.234,2.446l-27.069,46.887L269.866,379.574z"/>
<path style="fill:#E5DCDE;" d="M275.143,382.634c0-14.261,10.106-31.748,22.445-38.877c12.355-7.133,22.445-1.3,22.441,12.961  c0.004,14.245-10.094,31.744-22.441,38.869C285.253,402.721,275.143,396.884,275.143,382.634z"/>
<path style="fill:#FFFFFF;" d="M320.034,356.719c0.004,14.245-10.094,31.744-22.441,38.869  c-12.339,7.133-22.445,1.296-22.445-12.954"/>
<g>
	<path style="fill:#C2CDCE;" d="M172.72,293.574c0-8.279,5.868-18.432,13.036-22.567c7.168-4.139,13.032-0.756,13.028,7.522   c0.004,8.275-5.86,18.432-13.028,22.567S172.72,301.853,172.72,293.574z"/>
	<path style="fill:#C2CDCE;" d="M365.472,181.474c0-8.279,5.868-18.428,13.036-22.563c7.168-4.143,13.032-0.756,13.028,7.519   c0.004,8.279-5.86,18.436-13.028,22.567C371.34,193.139,365.472,189.752,365.472,181.474z"/>
	<path style="fill:#C2CDCE;" d="M211.439,216.766c0-8.279,5.868-18.432,13.036-22.567c7.168-4.139,13.032-0.756,13.028,7.522   c0.004,8.275-5.86,18.432-13.028,22.567C217.307,228.424,211.439,225.045,211.439,216.766z"/>
	<path style="fill:#C2CDCE;" d="M335.5,144.677c0-8.275,5.868-18.428,13.032-22.563c7.168-4.143,13.032-0.756,13.032,7.522   c0,8.275-5.86,18.432-13.032,22.563C341.369,156.342,335.5,152.955,335.5,144.677z"/>
	<path style="fill:#C2CDCE;" d="M273.883,149.324c0-8.279,5.868-18.428,13.036-22.567s13.032-0.756,13.028,7.522   c0.004,8.275-5.86,18.432-13.028,22.567C279.751,160.99,273.883,157.603,273.883,149.324z"/>
</g>
<g>
</g>
<g>
</g>
<g>
</g>
<g>
</g>
<g>
</g>
<g>
</g>
<g>
</g>
<g>
</g>
<g>
</g>
<g>
</g>
<g>
</g>
<g>
</g>
<g>
</g>
<g>
</g>
<g>
</g>
</svg>
