<?xml version="1.0" encoding="iso-8859-1"?>
<!-- Generator: Adobe Illustrator 19.0.0, SVG Export Plug-In . SVG Version: 6.00 Build 0)  -->
<svg xmlns="http://www.w3.org/2000/svg" xmlns:xlink="http://www.w3.org/1999/xlink" version="1.1" id="Capa_1" x="0px" y="0px" viewBox="0 0 504.119 504.119" style="enable-background:new 0 0 504.119 504.119;" xml:space="preserve">
<path style="fill:#18C694;" d="M410.12,36.32L359.629,7.396c-2.209-1.607-4.576-2.97-7.093-4.064l-0.744-0.425L351.76,2.97  c-13.584-5.522-31.13-3.525-50.271,7.522l-155.518,89.777c-42.76,24.69-77.737,85.287-77.737,134.668v179.558  c0,24.08,8.361,41.157,21.847,49.538l-0.13,0.232l56.107,31.791l31.555-54.938l123.876-71.511  c42.752-24.69,77.745-85.287,77.745-134.668V90.092L410.12,36.32z"/>
<path style="fill:#12B288;" d="M410.12,36.32l-54.048-12.674c-2.209-1.611-13.245-1.568-15.762-2.666l-4.005-1.607l-7.215-1.339  c-13.584-5.522-8.46-18.593-27.601-7.546l-155.518,89.781c-42.76,24.69-77.737,85.287-77.737,134.668v179.558  c0,24.08,8.361,41.157,21.847,49.538l-0.13,0.232l56.107,31.791l31.555-54.938l123.876-71.511  c42.752-24.69,77.745-85.287,77.745-134.668V90.092L410.12,36.32z"/>
<path style="fill:#0B9B90;" d="M71.196,209.069c-1.887,8.787-2.962,17.495-2.962,25.868v179.558c0,24.08,8.361,41.157,21.847,49.538  l-0.13,0.232l56.107,31.791l31.555-54.938l123.876-71.511c7.263-4.194,14.285-9.496,20.96-15.537L71.196,209.069z"/>
<path style="fill:#1FDD8C;" d="M199.42,131.261c-42.76,24.69-77.753,85.287-77.753,134.668v179.558  c0,49.38,34.993,69.577,77.753,44.891l155.506-89.781c42.76-24.69,77.753-85.287,77.753-134.668V86.374  c0-49.38-34.993-69.577-77.753-44.891L199.42,131.261z"/>
<g>
	<path style="opacity:0.2;fill:#383E3F;enable-background:new    ;" d="M432.679,86.374c0-49.38-34.993-69.577-77.753-44.891   L199.42,131.261c-42.76,24.69-77.753,85.287-77.753,134.668v179.558c0,49.38,34.993,69.577,77.753,44.891"/>
	<polygon style="opacity:0.1;fill:#383E3F;enable-background:new    ;" points="206.186,351.035 206.186,486.475 330.114,414.925    330.114,334.273 273.51,393.842  "/>
</g>
<path style="fill:#2AEA93;" d="M164.88,504.119h-0.008c-28.192,0-46.407-23.016-46.407-58.632V265.929  c0-50.527,35.592-112.187,79.344-137.44l155.514-89.781c12.607-7.278,24.769-10.965,36.147-10.965  c28.191,0,46.415,23.016,46.415,58.632v179.558c0,50.527-35.6,112.187-79.352,137.44l-155.514,89.781  C188.412,500.429,176.258,504.119,164.88,504.119z M389.474,34.158c-10.24,0-21.323,3.399-32.937,10.098l-155.518,89.777  c-41.984,24.245-76.146,83.413-76.146,131.895v179.558c0,32.209,15.325,52.22,39.999,52.22h0.008  c10.24,0,21.315-3.403,32.929-10.102l155.514-89.777c41.984-24.241,76.146-83.413,76.146-131.895V86.374  C429.473,54.166,414.149,34.158,389.474,34.158z"/>
<g>
	<path style="fill:#D2FFED;" d="M344.572,147.617c-7.806-4.525-16.549-6.821-25.982-6.821c-12.272,0-25.163,3.844-38.309,11.422   c-40.704,23.509-73.63,78.793-75.827,126.783l-15.833,9.145c-2.584,1.477-4.131,3.99-4.135,6.723   c-0.008,2.733,1.532,5.258,4.112,6.747l27.999,16.175c1.378,0.78,2.938,1.193,4.517,1.193c3.253,0,6.294-1.745,7.932-4.569   l30.322-52.527c2.013-3.474,1.103-6.089,0.382-7.341c-1.796-3.119-5.79-4.131-9.61-1.922l-8.562,4.915   c8.865-31.417,31.067-62.578,55.288-76.568c12.386-7.14,23.733-8.869,31.027-4.64c7.392,4.293,11.433,14.706,11.374,29.314   c0,0.284-0.024,0.575-0.043,0.863c-0.024,0.402-0.051,0.799-0.059,1.193c-0.059,2.139,1.048,4.139,2.879,5.23   s4.12,1.107,5.979,0.039l20.968-12.107c2.017-1.162,3.163-3.399,2.922-5.715C369.692,173.442,359.975,156.562,344.572,147.617z"/>
	<path style="fill:#D2FFED;" d="M233.535,398.556c7.806,4.529,16.549,6.821,25.982,6.821c12.272,0,25.163-3.84,38.309-11.414   c40.704-23.509,73.63-78.793,75.827-126.791l15.833-9.145c2.584-1.477,4.131-3.986,4.135-6.719   c0.008-2.733-1.532-5.258-4.112-6.751l-27.999-16.175c-1.378-0.776-2.938-1.193-4.517-1.193c-3.253,0-6.294,1.745-7.932,4.569   L318.74,284.29c-2.013,3.47-1.103,6.093-0.382,7.337c1.796,3.123,5.79,4.131,9.61,1.93l8.562-4.923   c-8.865,31.417-31.067,62.578-55.288,76.576c-12.386,7.136-23.733,8.865-31.027,4.632c-7.392-4.293-11.433-14.706-11.374-29.314   c0-0.276,0.024-0.571,0.043-0.863c0.024-0.402,0.051-0.792,0.059-1.186c0.059-2.139-1.048-4.147-2.879-5.238   c-1.831-1.091-4.12-1.107-5.979-0.035l-20.968,12.103c-2.016,1.162-3.163,3.407-2.922,5.723   C208.415,372.744,218.132,389.62,233.535,398.556z"/>
</g>
<g>
</g>
<g>
</g>
<g>
</g>
<g>
</g>
<g>
</g>
<g>
</g>
<g>
</g>
<g>
</g>
<g>
</g>
<g>
</g>
<g>
</g>
<g>
</g>
<g>
</g>
<g>
</g>
<g>
</g>
</svg>
