<?xml version="1.0" encoding="iso-8859-1"?>
<!-- Generator: Adobe Illustrator 19.0.0, SVG Export Plug-In . SVG Version: 6.00 Build 0)  -->
<svg xmlns="http://www.w3.org/2000/svg" xmlns:xlink="http://www.w3.org/1999/xlink" version="1.1" id="Capa_1" x="0px" y="0px" viewBox="0 0 504.119 504.119" style="enable-background:new 0 0 504.119 504.119;" xml:space="preserve">
<path style="fill:#3B66ED;" d="M410.124,36.32L359.633,7.396c-2.209-1.607-4.577-2.97-7.093-4.064l-0.744-0.425l-0.032,0.063  c-13.584-5.522-31.13-3.525-50.271,7.522l-155.518,89.777c-42.76,24.69-77.745,85.287-77.745,134.668v179.558  c0,24.08,8.361,41.157,21.847,49.538l-0.13,0.232l56.115,31.791l31.555-54.938l123.876-71.511  c42.752-24.69,77.745-85.287,77.745-134.668V90.092L410.124,36.32z"/>
<path style="fill:#2A4BD8;" d="M410.124,36.32l-54.047-12.674c-2.209-1.611-13.245-1.568-15.762-2.666l-4.005-1.607l-7.215-1.339  c-13.584-5.522-8.46-18.593-27.601-7.546l-155.518,89.781c-42.76,24.69-77.745,85.287-77.745,134.668v179.558  c0,24.08,8.361,41.157,21.847,49.538l-0.13,0.232l56.115,31.791l31.555-54.938l123.876-71.511  c42.752-24.69,77.745-85.287,77.745-134.668V90.092L410.124,36.32z"/>
<path style="fill:#1A40BA;" d="M71.192,209.069c-1.887,8.787-2.962,17.495-2.962,25.868v179.558c0,24.08,8.361,41.157,21.847,49.538  l-0.13,0.232l56.115,31.791l31.555-54.938l123.876-71.511c7.263-4.194,14.285-9.496,20.961-15.537L71.192,209.069z"/>
<path style="fill:#607EFC;" d="M199.424,131.261c-42.76,24.69-77.753,85.287-77.753,134.668v179.558  c0,49.38,34.993,69.577,77.753,44.891l155.506-89.781c42.76-24.69,77.753-85.287,77.753-134.668V86.374  c0-49.38-34.993-69.577-77.753-44.891L199.424,131.261z"/>
<g>
	<path style="fill:#5069FF;" d="M432.683,86.374c0-49.38-34.993-69.577-77.753-44.891l-155.506,89.777   c-42.76,24.69-77.753,85.287-77.753,134.668v179.558c0,49.38,34.993,69.577,77.753,44.891"/>
	<path style="opacity:0.5;fill:#5069FF;enable-background:new    ;" d="M155.632,499.944c12.493,2.69,27.577-0.209,43.792-9.567   l155.506-89.781c0.461-0.264,0.906-0.591,1.363-0.866V295.708H155.632V499.944z"/>
</g>
<path style="fill:#7D9CFF;" d="M164.884,504.119h-0.008c-28.192,0-46.407-23.016-46.407-58.632V265.929  c0-50.527,35.592-112.187,79.344-137.44l155.514-89.781c12.607-7.278,24.769-10.965,36.147-10.965  c28.191,0,46.415,23.016,46.415,58.632v179.558c0,50.527-35.6,112.187-79.352,137.44l-155.514,89.781  C188.416,500.429,176.262,504.119,164.884,504.119z M389.478,34.158c-10.24,0-21.323,3.399-32.937,10.098l-155.518,89.777  c-41.984,24.245-76.146,83.413-76.146,131.895v179.558c0,32.209,15.325,52.22,39.999,52.22h0.008  c10.24,0,21.315-3.403,32.929-10.102l155.514-89.777c41.984-24.241,76.146-83.413,76.146-131.895V86.374  C429.477,54.166,414.153,34.158,389.478,34.158z"/>
<path style="fill:#1FA5FF;" d="M241.731,392.247c-32.614-0.004-65.524-24.261-65.524-78.446c0-58.644,39.692-127.5,90.352-156.767  c15.722-9.066,31.224-13.655,46.084-13.655c17.191,0,32.429,6.168,44.056,17.845c14.139,14.198,21.555,35.178,21.445,60.656  c-0.26,58.396-39.901,127.149-90.238,156.526c-15.722,9.177-31.264,13.836-46.171,13.836  C241.731,392.247,241.731,392.247,241.731,392.247z"/>
<path style="fill:#111C3D;" d="M312.647,165.041c26.069,0,43.993,20.807,43.839,56.745c-0.224,50.44-36.017,112.538-79.502,137.917  c-12.646,7.385-24.623,10.882-35.253,10.882c-25.954,0-43.863-20.858-43.863-56.785c0-50.605,35.769-112.735,79.521-138.008  C290.052,168.495,302.025,165.041,312.647,165.041 M312.647,121.718c-18.708,0-37.845,5.561-56.883,16.538  c-56.773,32.796-101.218,109.895-101.218,175.545c0,58.943,35.856,100.108,87.186,100.108c18.806,0,38.014-5.652,57.1-16.798  c56.332-32.87,100.683-109.796,100.978-175.132c0.169-39.629-15.002-63.224-27.762-76.04  C356.494,130.32,335.399,121.718,312.647,121.718L312.647,121.718z"/>
<path style="fill:#1D79FF;" d="M277.394,175.793c-43.756,25.273-79.525,87.402-79.525,138.008c0,50.641,35.568,71.329,79.116,45.903  "/>
<path style="fill:#111C3D;" d="M378.124,353.044c-3.678,0-7.4-0.937-10.807-2.907l-93.692-54.095  c-10.362-5.983-13.907-19.232-7.932-29.594c5.986-10.354,19.232-13.903,29.594-7.928l93.692,54.091  c10.362,5.983,13.907,19.228,7.932,29.59C392.893,349.152,385.607,353.044,378.124,353.044z"/>
<g>
</g>
<g>
</g>
<g>
</g>
<g>
</g>
<g>
</g>
<g>
</g>
<g>
</g>
<g>
</g>
<g>
</g>
<g>
</g>
<g>
</g>
<g>
</g>
<g>
</g>
<g>
</g>
<g>
</g>
</svg>
