<?xml version="1.0" encoding="iso-8859-1"?>
<!-- Generator: Adobe Illustrator 19.0.0, SVG Export Plug-In . SVG Version: 6.00 Build 0)  -->
<svg xmlns="http://www.w3.org/2000/svg" xmlns:xlink="http://www.w3.org/1999/xlink" version="1.1" id="Capa_1" x="0px" y="0px" viewBox="0 0 504.116 504.116" style="enable-background:new 0 0 504.116 504.116;" xml:space="preserve">
<path style="fill:#1375EA;" d="M410.122,36.322L359.631,7.394c-2.209-1.611-4.577-2.97-7.093-4.064l-0.744-0.421l-0.032,0.063  c-13.584-5.522-31.13-3.529-50.271,7.519l-155.518,89.777c-42.76,24.686-77.745,85.287-77.745,134.668v179.558  c0,24.08,8.361,41.157,21.847,49.534l-0.13,0.236l56.115,31.795l31.555-54.942l123.876-71.511  c42.752-24.69,77.745-85.291,77.745-134.668V90.089L410.122,36.322z"/>
<path style="fill:#0A62E0;" d="M410.122,36.322l-54.047-12.678c-2.209-1.607-13.245-1.568-15.762-2.67l-4.009-1.599l-7.211-1.343  c-13.584-5.522-8.46-18.593-27.601-7.546l-155.518,89.781c-42.76,24.686-77.745,85.287-77.745,134.668v179.558  c0,24.08,8.361,41.157,21.847,49.534l-0.13,0.236l56.115,31.795l31.555-54.942l123.876-71.511  c42.752-24.69,77.745-85.291,77.745-134.668V90.089L410.122,36.322z"/>
<path style="fill:#0455B7;" d="M71.19,209.066c-1.887,8.791-2.962,17.495-2.962,25.868v179.558c0,24.08,8.361,41.157,21.847,49.534  l-0.13,0.236l56.115,31.795l31.555-54.942l123.876-71.511c7.263-4.194,14.285-9.492,20.961-15.537L71.19,209.066z"/>
<path style="fill:#0381FF;" d="M199.423,131.258c-42.76,24.686-77.753,85.291-77.753,134.668v179.562  c0,49.377,34.993,69.577,77.753,44.883l155.506-89.777c42.76-24.686,77.753-85.287,77.753-134.668V86.368  c0-49.376-34.993-69.573-77.753-44.883L199.423,131.258z"/>
<path style="fill:#69BBFF;" d="M384.345,31.229v345.632c28.286-29.791,48.337-73.563,48.337-110.931V86.368  C432.682,48.996,412.631,28.358,384.345,31.229z"/>
<path style="opacity:0.1;fill:#383E3F;enable-background:new    ;" d="M432.682,86.368c0-49.376-34.993-69.573-77.753-44.883  l-155.506,89.773c-42.76,24.686-77.753,85.291-77.753,134.668v179.562c0,49.377,34.993,69.577,77.753,44.883"/>
<path style="fill:#69BBFF;" d="M164.882,504.116h-0.008c-28.192,0-46.407-23.012-46.407-58.628V265.926  c0-50.523,35.592-112.183,79.344-137.44l155.514-89.781c12.607-7.278,24.769-10.965,36.147-10.965  c28.191,0,46.415,23.016,46.415,58.628V265.93c0,50.527-35.6,112.183-79.352,137.444l-155.514,89.777  C188.415,500.426,176.26,504.116,164.882,504.116z M389.477,34.151c-10.24,0-21.323,3.399-32.937,10.098l-155.518,89.785  c-41.984,24.241-76.146,83.409-76.146,131.891v179.562c0,32.209,15.325,52.216,39.999,52.216h0.008  c10.24,0,21.315-3.399,32.929-10.098l155.514-89.785c41.984-24.237,76.146-83.409,76.146-131.891V86.368  C429.476,54.159,414.151,34.151,389.477,34.151z"/>
<g>
	<path style="fill:#FFFFFF;" d="M174.866,448.682c-4.738,0-8.578-3.844-8.578-8.578V302.877c0-3.064,1.631-5.896,4.285-7.428   l79.23-45.741c2.662-1.532,5.916-1.532,8.578,0c2.655,1.528,4.285,4.36,4.285,7.428v91.487c0,3.064-1.631,5.896-4.285,7.428   l-39.617,22.871c-4.092,2.367-9.354,0.973-11.717-3.135c-2.371-4.108-0.969-9.35,3.131-11.717l35.34-20.401v-71.676l-62.086,35.84   v132.277C183.436,444.838,179.6,448.682,174.866,448.682z"/>
	<path style="fill:#FFFFFF;" d="M293.713,380.067c-2.962,0-5.845-1.536-7.432-4.285c-2.371-4.108-0.969-9.35,3.139-11.717   l35.324-20.401v-25.939l-26.746,15.447c-2.662,1.532-5.923,1.532-8.578,0c-2.655-1.528-4.293-4.36-4.293-7.428v-45.737   c0-3.064,1.638-5.896,4.293-7.428l39.617-22.871c4.1-2.371,9.346-0.981,11.717,3.135c2.363,4.108,0.961,9.35-3.139,11.717   l-35.332,20.401v25.935l26.754-15.443c2.655-1.532,5.916-1.532,8.578,0c2.647,1.532,4.285,4.36,4.285,7.428v45.741   c0,3.064-1.638,5.896-4.285,7.428l-39.617,22.871C296.643,379.696,295.167,380.067,293.713,380.067z"/>
</g>
<g style="opacity:0.1;">
	<path style="fill:#383E3F;" d="M174.866,460.12c-4.738,0-8.578-3.848-8.578-8.578V314.314c0-3.06,1.631-5.896,4.285-7.424   l79.23-45.745c2.662-1.532,5.916-1.532,8.578,0c2.655,1.532,4.285,4.36,4.285,7.428v91.487c0,3.06-1.631,5.892-4.285,7.424   l-39.617,22.871c-4.092,2.371-9.354,0.977-11.717-3.135c-2.371-4.104-0.969-9.35,3.131-11.717l35.34-20.397v-71.68l-62.086,35.844   v132.277C183.436,456.276,179.6,460.12,174.866,460.12z"/>
	<path style="fill:#383E3F;" d="M293.713,391.504c-2.962,0-5.845-1.54-7.432-4.289c-2.371-4.104-0.969-9.35,3.139-11.717   l35.324-20.397v-25.939l-26.746,15.447c-2.662,1.532-5.923,1.532-8.578,0c-2.655-1.532-4.293-4.36-4.293-7.432v-45.733   c0-3.068,1.638-5.9,4.293-7.432l39.617-22.871c4.1-2.371,9.346-0.977,11.717,3.139c2.363,4.108,0.961,9.346-3.139,11.717   l-35.332,20.401v25.931l26.754-15.439c2.655-1.532,5.916-1.532,8.578,0c2.647,1.528,4.285,4.36,4.285,7.424v45.745   c0,3.06-1.638,5.892-4.285,7.424l-39.617,22.871C296.643,391.134,295.167,391.504,293.713,391.504z"/>
</g>
<g>
</g>
<g>
</g>
<g>
</g>
<g>
</g>
<g>
</g>
<g>
</g>
<g>
</g>
<g>
</g>
<g>
</g>
<g>
</g>
<g>
</g>
<g>
</g>
<g>
</g>
<g>
</g>
<g>
</g>
</svg>
