<?xml version="1.0" encoding="iso-8859-1"?>
<!-- Generator: Adobe Illustrator 19.0.0, SVG Export Plug-In . SVG Version: 6.00 Build 0)  -->
<svg xmlns="http://www.w3.org/2000/svg" xmlns:xlink="http://www.w3.org/1999/xlink" version="1.1" id="Capa_1" x="0px" y="0px" viewBox="0 0 504.116 504.116" style="enable-background:new 0 0 504.116 504.116;" xml:space="preserve">
<path style="fill:#8725C1;" d="M410.122,36.318L359.631,7.394c-2.209-1.611-4.577-2.97-7.093-4.064l-0.744-0.421l-0.032,0.063  c-13.584-5.522-31.13-3.529-50.271,7.519l-155.518,89.777c-42.76,24.69-77.745,85.287-77.745,134.668v179.558  c0,24.08,8.361,41.157,21.847,49.538l-0.13,0.232l56.115,31.791l31.555-54.938l123.876-71.511  c42.752-24.69,77.745-85.287,77.745-134.668V90.089L410.122,36.318z"/>
<path style="fill:#6B1693;" d="M410.122,36.318l-54.047-12.674c-2.209-1.611-13.245-1.568-15.762-2.666l-4.005-1.607l-7.215-1.339  c-13.584-5.522-8.46-18.593-27.601-7.546l-155.518,89.781c-42.76,24.69-77.745,85.287-77.745,134.668v179.558  c0,24.08,8.361,41.157,21.847,49.538l-0.13,0.232l56.115,31.791l31.555-54.938l123.876-71.511  c42.752-24.69,77.745-85.287,77.745-134.668V90.089L410.122,36.318z"/>
<path style="fill:#561670;" d="M71.19,209.066c-1.887,8.787-2.962,17.495-2.962,25.868v179.558c0,24.08,8.361,41.157,21.847,49.538  l-0.13,0.232l56.115,31.791l31.555-54.938l123.876-71.511c7.263-4.194,14.285-9.496,20.961-15.537L71.19,209.066z"/>
<path style="fill:#AC42C6;" d="M199.423,131.258c-42.76,24.69-77.753,85.287-77.753,134.668v179.558  c0,49.38,34.993,69.577,77.753,44.891l155.506-89.781c42.76-24.69,77.753-85.287,77.753-134.668V86.372  c0-49.38-34.993-69.577-77.753-44.891L199.423,131.258z"/>
<path style="fill:#9F3DB7;" d="M432.682,86.372c0-49.38-34.993-69.577-77.753-44.891l-155.506,89.777  c-42.76,24.69-77.753,85.287-77.753,134.668v179.558c0,49.38,34.993,69.577,77.753,44.891"/>
<polygon style="opacity:0.4;fill:#8725C1;enable-background:new    ;" points="239.177,467.426 343.188,407.38 343.188,339.13   239.177,339.13 "/>
<path style="fill:#C14EDD;" d="M164.882,504.116h-0.008c-28.192,0-46.407-23.016-46.407-58.632V265.926  c0-50.527,35.592-112.187,79.344-137.44l155.514-89.781c12.607-7.278,24.769-10.965,36.147-10.965  c28.191,0,46.415,23.016,46.415,58.632V265.93c0,50.527-35.6,112.187-79.352,137.44l-155.514,89.781  C188.415,500.426,176.26,504.116,164.882,504.116z M389.477,34.155c-10.24,0-21.323,3.399-32.937,10.098l-155.518,89.777  c-41.984,24.245-76.146,83.413-76.146,131.895v179.558c0,32.209,15.325,52.22,39.999,52.22h0.008  c10.24,0,21.315-3.403,32.929-10.102l155.514-89.777c41.984-24.241,76.146-83.413,76.146-131.895V86.372  C429.476,54.163,414.151,34.155,389.477,34.155z"/>
<path style="fill:#B4A6BF;" d="M373.337,134.078c-0.181-0.122-0.358-0.244-0.563-0.347l-0.193-0.122l-0.032,0.039  c-2.454-1.178-5.687-0.937-9.267,1.126l-38.81,22.406c-0.453,0.26-0.89,0.406-1.331,0.607l4.687-44.973l-20.322-11.634  c-2.536-2.115-6.341-2.261-10.642,0.221l-35.525,20.508c-7.585,4.376-13.8,15.135-13.8,23.903v39.845  c0,8.771-6.207,19.527-13.8,23.91l-36.108,20.838c-7.589,4.384-13.804,15.143-13.808,23.91c0,4.305,1.512,7.337,3.935,8.814  l-0.016,0.008l0.091,0.051c0.035,0.024,0.071,0.047,0.102,0.063l20.504,11.815l30.602-14.423v91.301c0,8.771,0,23.111,0,31.882  l0.004,29.889c0,4.561,1.705,7.676,4.38,9.039l-0.004,0.032l22.556,12.883l6.022-14.734l13.284-78.655  c1.233-0.154,2.363-0.047,3.387,0.287l5.4,13.824l0.008,25.442c0,5.191,2.209,8.507,5.565,9.48l20.378,12.107l2.446-17.731  l2.993-70.853l8.96-125.188l57.309-44.221L373.337,134.078z"/>
<g>
	<path style="fill:#A297A5;" d="M247.547,145.811v39.845c0,2.332-0.461,4.801-1.248,7.255l61.57,35.552l1.658-57.801l-59.821-34.544   C248.358,139.356,247.547,142.699,247.547,145.811z"/>
	<path style="fill:#A297A5;" d="M264.037,434.555l31.902-156.963l-59.821-34.544c-1.355,3.237-2.158,6.585-2.158,9.697v10.307   l5.092-2.402v91.301c0,8.771,0,23.111,0,31.882l0.004,29.889c0,4.561,1.705,7.676,4.38,9.039l-0.004,0.032L264.037,434.555z"/>
	<path style="fill:#A297A5;" d="M227.346,262.37l-38.92-22.469c-2.8,4.533-4.596,9.748-4.596,14.419   c0,4.305,1.512,7.337,3.935,8.814l-0.016,0.008l0.091,0.051c0.035,0.024,0.071,0.047,0.102,0.063l20.504,11.815l18.786-8.854   L227.346,262.37z"/>
</g>
<path style="fill:#FFFFFF;" d="M398.516,155.196c0-8.771-6.219-12.355-13.808-7.971l-38.81,22.406  c-7.597,4.383-13.8,0.799-13.8-7.967v-39.838c0-8.771-6.207-12.355-13.804-7.968l-35.521,20.5  c-7.597,4.383-13.804,15.147-13.804,23.91v39.845c0,8.767-6.211,19.527-13.808,23.903l-36.1,20.846  c-7.597,4.38-13.808,15.143-13.812,23.91l0,0c0,8.767,6.211,12.351,13.808,7.967l27.609-15.943  c7.593-4.38,13.804-0.796,13.804,7.971v97.627c0,8.771,0,23.115,0,31.882l0.004,29.889c0,8.763,6.207,12.347,13.804,7.964  c7.593-4.38,13.824-15.139,13.844-23.906l0.075-29.98c0.024-8.771,6.176-19.48,13.682-23.808c7.495-4.332,13.623-0.701,13.623,8.07  l0.012,29.783c0,8.771,6.211,12.351,13.8,7.964c7.597-4.376,13.82-15.139,13.848-23.906l0.079-29.869  c0.024-8.767,0.043-15.943,0.055-15.951c0.004,0,0.012-7.176,0.012-15.947l0.004-97.631c0-8.767,6.207-19.527,13.804-23.906  l27.605-15.939C392.293,174.719,398.516,163.963,398.516,155.196L398.516,155.196z"/>
<g>
	<path style="opacity:0.3;fill:#DBC1DA;enable-background:new    ;" d="M343.298,218.952c0-8.767,6.207-19.527,13.804-23.906   l27.605-15.939c7.589-4.383,13.808-15.143,13.808-23.906l0,0c0-8.771-6.219-12.355-13.808-7.971l-38.81,22.406   c-7.597,4.383-13.8,0.799-13.8-7.967v-39.841c0-8.771-6.207-12.355-13.804-7.968l-35.521,20.5   c-7.597,4.383-13.804,15.147-13.804,23.91v39.845c0,8.767-6.211,19.527-13.808,23.903l-36.1,20.846   c-7.597,4.38-13.808,15.143-13.812,23.91l0,0c0,8.767,6.211,12.351,13.808,7.967l27.609-15.943   c7.593-4.38,13.804-0.796,13.804,7.971v97.627c0,8.771,0,23.115,0,31.882l0.004,29.889c0,8.763,6.207,12.347,13.804,7.964   c7.593-4.38,13.824-15.139,13.844-23.906l0.075-29.98c0.024-8.771,6.176-19.48,13.682-23.808"/>
	<path style="opacity:0.3;fill:#DBC1DA;enable-background:new    ;" d="M260.469,396.281l0.004,29.889   c0,8.763,6.207,12.347,13.804,7.964c7.593-4.38,13.824-15.139,13.844-23.906l0.075-29.98c0.024-8.771,6.176-19.48,13.682-23.808"/>
	<path style="opacity:0.2;fill:#DBC1DA;enable-background:new    ;" d="M357.103,195.042l27.605-15.939   c7.589-4.383,13.808-15.143,13.808-23.906l0,0c0-8.771-6.219-12.355-13.808-7.971l-38.81,22.406   c-7.597,4.383-13.8,0.799-13.8-7.967v-39.838c0-8.771-6.207-12.355-13.804-7.968l-35.521,20.5   c-7.597,4.383-13.804,15.147-13.804,23.91v39.845c0,8.767-6.211,19.527-13.808,23.903l-36.1,20.846   c-7.597,4.38-13.808,15.143-13.812,23.91l0,0c0,8.767,6.211,12.351,13.808,7.967l27.609-15.943   c7.593-4.38,13.804-0.796,13.804,7.971"/>
</g>
<g>
</g>
<g>
</g>
<g>
</g>
<g>
</g>
<g>
</g>
<g>
</g>
<g>
</g>
<g>
</g>
<g>
</g>
<g>
</g>
<g>
</g>
<g>
</g>
<g>
</g>
<g>
</g>
<g>
</g>
</svg>
