<?xml version="1.0" encoding="iso-8859-1"?>
<!-- Generator: Adobe Illustrator 19.0.0, SVG Export Plug-In . SVG Version: 6.00 Build 0)  -->
<svg xmlns="http://www.w3.org/2000/svg" xmlns:xlink="http://www.w3.org/1999/xlink" version="1.1" id="Capa_1" x="0px" y="0px" viewBox="0 0 504.116 504.116" style="enable-background:new 0 0 504.116 504.116;" xml:space="preserve">
<path style="fill:#323738;" d="M408.084,36.318L357.593,7.394c-2.209-1.611-4.576-2.97-7.093-4.064l-0.744-0.421l-0.032,0.063  c-13.584-5.522-31.13-3.529-50.271,7.519l-155.518,89.777c-42.76,24.69-77.745,85.287-77.745,134.668v179.558  c0,24.08,8.361,41.157,21.847,49.538l-0.13,0.232l56.115,31.791l31.555-54.938l123.876-71.511  c42.752-24.69,77.745-85.287,77.745-134.668V90.089L408.084,36.318z"/>
<path style="fill:#252B2D;" d="M408.084,36.318l-54.048-12.674c-2.209-1.611-13.245-1.568-15.762-2.666l-4.005-1.607l-7.215-1.339  c-13.584-5.522-8.46-18.593-27.601-7.546l-155.518,89.781c-42.76,24.69-77.745,85.287-77.745,134.668v179.558  c0,24.08,8.361,41.157,21.847,49.538l-0.13,0.232l56.115,31.791l31.555-54.938l123.876-71.511  c42.752-24.69,77.745-85.287,77.745-134.668V90.089L408.084,36.318z"/>
<path style="fill:#090C0C;" d="M69.152,209.066c-1.887,8.787-2.962,17.495-2.962,25.868v179.558c0,24.08,8.361,41.157,21.847,49.538  l-0.13,0.232l56.115,31.791l31.555-54.938l123.876-71.511c7.263-4.194,14.285-9.496,20.96-15.537L69.152,209.066z"/>
<path style="fill:#3B4142;" d="M197.384,131.258c-42.764,24.69-77.757,85.287-77.757,134.668v179.558  c0,49.38,34.993,69.577,77.753,44.891l155.506-89.781c42.76-24.69,77.753-85.287,77.753-134.668V86.372  c0-49.38-34.993-69.577-77.753-44.891L197.384,131.258z"/>
<path style="opacity:0.2;fill:#383E3F;enable-background:new    ;" d="M430.644,86.372c0-49.38-34.993-69.577-77.753-44.891  l-155.506,89.777c-42.764,24.69-77.757,85.287-77.757,134.668v179.558c0,49.38,34.993,69.577,77.753,44.891"/>
<path style="fill:#252B2D;" d="M216.254,165.822c-32.386,18.696-58.884,64.595-58.884,101.986v135.983  c0,37.396,26.502,52.693,58.884,33.993l117.76-67.99c32.386-18.696,58.884-64.587,58.884-101.986V131.829  c0-37.396-26.502-52.689-58.884-33.997L216.254,165.822z"/>
<path style="fill:#161B1C;" d="M392.898,131.829c0-37.396-26.502-52.689-58.884-33.997l-117.76,67.994  c-32.386,18.692-58.884,64.591-58.884,101.983v135.983c0,37.396,26.502,52.693,58.884,33.993l17.239-9.953l159.409-276.094v-19.909  H392.898z"/>
<path style="fill:#4F5759;" d="M162.844,504.116h-0.008c-28.192,0-46.407-23.016-46.407-58.632V265.926  c0-50.527,35.592-112.187,79.344-137.44l155.514-89.781c12.607-7.278,24.769-10.965,36.147-10.965  c28.191,0,46.415,23.016,46.415,58.632V265.93c0,50.527-35.6,112.187-79.352,137.44l-155.514,89.781  C186.376,500.426,174.222,504.116,162.844,504.116z M387.439,34.155c-10.24,0-21.323,3.399-32.937,10.098l-155.518,89.777  c-41.984,24.245-76.146,83.413-76.146,131.895v179.558c0,32.209,15.325,52.22,39.999,52.22h0.008  c10.24,0,21.315-3.403,32.929-10.102l155.514-89.777c41.984-24.241,76.146-83.413,76.146-131.895V86.372  C427.438,54.163,412.113,34.155,387.439,34.155z"/>
<path style="fill:#8E0724;" d="M419.344,38.547l-81.68,141.477l-11.914-6.88c-0.083-0.051-0.173-0.098,2.257,1.304l-1.252-0.725  l-2.458-1.556c-9.685-6.361-15.667-18.893-15.659-36.45c-0.016-36.734,26.006-81.798,57.832-100.167  c15.191-8.779,29.034-9.854,39.385-4.651l2.584,1.343L419.344,38.547z"/>
<path style="fill:#9B0E33;" d="M308.638,135.72c-0.016-36.734,26.006-81.798,57.832-100.167c15.191-8.779,29.034-9.854,39.385-4.651  l2.584,1.343l10.91,6.302L349.59,159.363L308.638,135.72z"/>
<path style="fill:#BF112E;" d="M322.265,143.601c0.004-36.738,26.021-81.806,57.828-100.171  c31.823-18.377,57.844-3.356,57.832,33.394c0.008,36.722-26.01,81.794-57.832,100.163  C348.29,195.349,322.269,180.324,322.265,143.601z"/>
<path style="fill:#D61841;" d="M437.922,76.825c0.008,36.722-26.01,81.794-57.832,100.163c-31.799,18.361-57.824,3.34-57.828-33.386  "/>
<path style="fill:#FFFFFF;" d="M366.872,146.461c-1.434,0-2.859-0.54-3.95-1.579c-1.839-1.749-2.304-4.51-1.138-6.766l24.631-47.852  l-13.82,7.975l0.004,4.809c0,3.163-2.564,5.723-5.723,5.723h-0.004c-3.163,0-5.723-2.56-5.723-5.719l-0.004-8.113  c0-2.048,1.091-3.938,2.863-4.962l26.447-15.262c1.768-1.028,3.954-1.028,5.723,0c1.776,1.024,2.863,2.907,2.863,4.955v9.7  c0,0.914-0.217,1.808-0.63,2.623l-17.53,34.052l9.578-5.53c2.745-1.579,6.246-0.642,7.822,2.095  c1.575,2.737,0.638,6.239-2.095,7.822l-26.447,15.265C368.841,146.209,367.853,146.461,366.872,146.461z"/>
<g>
</g>
<g>
</g>
<g>
</g>
<g>
</g>
<g>
</g>
<g>
</g>
<g>
</g>
<g>
</g>
<g>
</g>
<g>
</g>
<g>
</g>
<g>
</g>
<g>
</g>
<g>
</g>
<g>
</g>
</svg>
