<?xml version="1.0" encoding="iso-8859-1"?>
<!-- Generator: Adobe Illustrator 19.0.0, SVG Export Plug-In . SVG Version: 6.00 Build 0)  -->
<svg xmlns="http://www.w3.org/2000/svg" xmlns:xlink="http://www.w3.org/1999/xlink" version="1.1" id="Capa_1" x="0px" y="0px" viewBox="0 0 504.123 504.123" style="enable-background:new 0 0 504.123 504.123;" xml:space="preserve">
<path style="fill:#323738;" d="M408.157,35.51L358.796,7.232c-2.162-1.571-4.478-2.903-6.94-3.978l-0.733-0.414L351.1,2.904  c-13.284-5.4-30.44-3.446-49.152,7.353l-152.04,87.773c-41.807,24.139-76.004,83.385-76.004,131.663V430.27  c0,23.544,8.168,40.239,21.354,48.431l-0.13,0.228l54.871,6.053l30.846-53.713l121.108-69.916  c41.799-24.139,76.016-83.385,76.016-131.663V88.081L408.157,35.51z"/>
<path style="fill:#252B2D;" d="M408.157,35.51l-52.838-12.394c-2.162-1.571-12.954-1.532-15.407-2.607l-3.923-1.564l-7.054-1.312  c-13.277-5.4-8.271-18.176-26.986-7.377l-152.04,87.773c-41.807,24.139-76.004,83.385-76.004,131.663V430.27  c0,23.544,8.168,40.239,21.354,48.431l-0.13,0.228l54.871,6.053l30.846-53.713l121.108-69.916  c41.799-24.139,76.016-83.385,76.016-131.663V88.081L408.157,35.51z"/>
<path d="M76.794,204.399c-1.847,8.598-2.891,17.105-2.891,25.293V430.27c0,23.544,8.168,40.239,21.354,48.431l-0.13,0.228  l40.409,22.678l45.308-70.333l121.108-69.916c7.101-4.104,13.97-9.279,20.5-15.191L76.794,204.399z"/>
<path style="fill:#252C2D;" d="M202.163,128.328c-41.807,24.139-76.024,83.389-76.024,131.667v214.059  c0,48.274,34.217,29.515,76.024,5.38l152.033-87.776c41.807-24.135,76.024-44.883,76.024-93.156V84.446  c0-48.278-34.217-68.021-76.024-43.89L202.163,128.328z"/>
<path style="fill:#526163;" d="M354.196,40.556l-152.032,87.773c-41.807,24.139-76.024,83.389-76.024,131.667v175.549  l304.077-175.549V84.442C430.216,36.168,396.003,16.421,354.196,40.556z"/>
<path style="opacity:0.2;fill:#383E3F;enable-background:new    ;" d="M128.073,490.403c6.81,23.367,31.098,13.225,61.353-3.702  L430.22,84.446c0-48.278-34.217-68.021-76.024-43.89l-152.032,87.773c-41.807,24.139-76.024,83.389-76.024,131.667v175.549v5.498  C126.147,457.465,126.265,475.188,128.073,490.403z"/>
<path style="fill:#5BC433;" d="M399.992,305.85l-31.701,54.898l-4.62-2.666c-0.039-0.02-0.071-0.035,0.863,0.508l-0.484-0.287  l-0.953-0.595c-3.753-2.469-6.077-7.329-6.069-14.147c-0.008-14.253,10.09-31.744,22.437-38.869  c5.9-3.403,11.276-3.828,15.285-1.804l1.008,0.52L399.992,305.85z"/>
<path style="fill:#4DA528;" d="M357.024,343.557c-0.008-14.253,10.09-31.744,22.437-38.869c5.9-3.403,11.276-3.828,15.285-1.804  l1.008,0.52l4.238,2.446l-27.069,46.883L357.024,343.557z"/>
<path style="fill:#5BC433;" d="M362.309,346.617c0-14.257,10.106-31.744,22.445-38.873c12.347-7.133,22.445-1.3,22.437,12.958  c0.008,14.249-10.09,31.744-22.437,38.873C372.419,366.703,362.309,360.867,362.309,346.617z"/>
<path style="fill:#70DD43;" d="M407.196,320.702c0.008,14.249-10.09,31.744-22.437,38.873c-12.339,7.133-22.445,1.292-22.445-12.958  "/>
<g>
</g>
<g>
</g>
<g>
</g>
<g>
</g>
<g>
</g>
<g>
</g>
<g>
</g>
<g>
</g>
<g>
</g>
<g>
</g>
<g>
</g>
<g>
</g>
<g>
</g>
<g>
</g>
<g>
</g>
</svg>
