<?xml version="1.0" encoding="iso-8859-1"?>
<!-- Generator: Adobe Illustrator 19.0.0, SVG Export Plug-In . SVG Version: 6.00 Build 0)  -->
<svg xmlns="http://www.w3.org/2000/svg" xmlns:xlink="http://www.w3.org/1999/xlink" version="1.1" id="Capa_1" x="0px" y="0px" viewBox="0 0 505.512 505.512" style="enable-background:new 0 0 505.512 505.512;" xml:space="preserve">
<path style="fill:#C5D1CF;" d="M410.818,36.321L360.327,7.397c-2.209-1.611-4.577-2.97-7.093-4.068l-0.744-0.421l-0.032,0.063  c-13.584-5.522-31.13-3.525-50.271,7.519L146.67,100.273c-42.76,24.686-77.745,85.283-77.745,134.668v179.554  c0,24.084,8.361,41.161,21.847,49.538l-0.13,0.232l56.115,31.795l31.555-54.942l123.876-71.511  c42.752-24.694,77.745-85.291,77.745-134.668V90.096L410.818,36.321z"/>
<path style="fill:#B2C1BE;" d="M410.818,36.321l-54.048-12.67c-2.209-1.611-13.245-1.568-15.762-2.67L337,19.377l-7.215-1.343  c-13.584-5.526-8.46-18.59-27.597-7.546L146.67,100.273c-42.76,24.686-77.745,85.283-77.745,134.668v179.554  c0,24.084,8.361,41.161,21.847,49.538l-0.13,0.232l56.115,31.795l31.555-54.942l123.876-71.511  c42.752-24.694,77.745-85.291,77.745-134.668V90.096L410.818,36.321z"/>
<path style="fill:#A1B2AF;" d="M71.886,209.069c-1.887,8.791-2.962,17.495-2.962,25.872v179.554  c0,24.084,8.361,41.161,21.847,49.538l-0.13,0.232l56.115,31.795l31.555-54.942l123.876-71.511  c7.263-4.198,14.285-9.496,20.961-15.537L71.886,209.069z"/>
<path style="fill:#D7DDDC;" d="M200.122,135.857c-42.76,24.69-77.753,85.291-77.753,134.668v179.562  c0,49.376,34.993,69.577,77.753,44.887l155.506-89.781c42.76-24.686,77.753-85.283,77.753-134.668V90.967  c0-49.38-34.993-69.573-77.753-44.887L200.122,135.857z"/>
<path style="fill:#E3E8E7;" d="M122.365,265.933v179.558c0,49.38,34.993,69.577,77.753,44.887l155.506-89.777  c42.76-24.69,77.753-85.291,77.753-134.668V86.371c0-49.376-34.993-69.577-77.753-44.887"/>
<g>
	<path style="fill:#090C0C;" d="M128.498,227.537l173.666,67.95l18.534-47.364L150.104,181.37   C140.793,195.816,133.322,211.641,128.498,227.537z"/>
	<path style="fill:#090C0C;" d="M363.498,238.687l18.534-47.368l-170.429-66.686l-11.485,6.632   c-12.54,7.239-24.371,17.621-34.883,29.846L363.498,238.687z"/>
	<polygon style="fill:#090C0C;" points="238.633,109.025 424.831,181.878 433.378,160.039 433.378,130.607 295.024,76.473  "/>
	<path style="fill:#090C0C;" d="M355.625,41.484l-33.568,19.381l111.325,43.559v-18.05c0-17.94-4.636-32.004-12.568-41.484   l-35.1-13.737C376.443,31.973,366.274,35.332,355.625,41.484z"/>
</g>
<path style="fill:#1FDD8C;" d="M426.013,82.503L129.73,253.574c-4.348,2.517-8.117,7.554-10.031,12.824  c-0.331,3.584-0.54,7.136-0.54,10.638v165.254c0,35.616,18.215,58.632,46.411,58.632h0.004c11.382,0,23.54-3.694,36.147-10.969  l155.506-89.777c43.756-25.253,79.352-86.914,79.352-137.444V97.473c0-5.132-0.418-9.96-1.154-14.533  C433.382,80.605,429.943,80.234,426.013,82.503z"/>
<path style="fill:#1BCE85;" d="M436.584,97.473c0-5.132-0.418-9.96-1.154-14.533c-2.048-2.336-5.486-2.706-9.417-0.433  L129.73,253.574c-4.348,2.517-8.117,7.554-10.031,12.824c-0.331,3.584-0.54,7.136-0.54,10.638v165.254  c0,35.616,18.215,58.632,46.411,58.632h0.004c11.382,0,23.54-3.694,36.147-10.969"/>
<path style="fill:#090C0C;" d="M435.43,82.936c-2.048-2.336-5.486-2.706-9.417-0.433L129.73,253.574  c-4.348,2.517-8.117,7.554-10.031,12.824c-0.331,3.584-0.54,7.136-0.54,10.638v11.815c0-3.501,0.209-7.054,0.54-10.638  c1.914-5.27,5.679-10.307,10.031-12.824L426.017,94.318c3.931-2.269,7.369-1.898,9.417,0.433c0.736,4.573,1.154,9.405,1.154,14.533  V97.469C436.584,92.341,436.162,87.509,435.43,82.936z"/>
<path style="fill:#FFFFFF;" d="M165.578,504.119h-0.008c-28.192,0-46.407-23.012-46.407-58.628V265.933  c0-50.527,35.592-112.187,79.344-137.444l155.514-89.777c12.607-7.278,24.769-10.969,36.147-10.969  c28.191,0,46.415,23.016,46.415,58.632v179.562c0,50.523-35.6,112.183-79.352,137.44l-155.514,89.781  C189.11,500.433,176.956,504.119,165.578,504.119z M390.173,34.158c-10.24,0-21.323,3.399-32.937,10.098l-155.518,89.781  c-41.984,24.241-76.146,83.413-76.146,131.895v179.558c0,32.209,15.325,52.22,39.999,52.22h0.008  c10.24,0,21.315-3.403,32.929-10.102l155.514-89.781c41.984-24.237,76.146-83.409,76.146-131.891V86.371  C430.172,54.166,414.847,34.158,390.173,34.158z"/>
<g>
</g>
<g>
</g>
<g>
</g>
<g>
</g>
<g>
</g>
<g>
</g>
<g>
</g>
<g>
</g>
<g>
</g>
<g>
</g>
<g>
</g>
<g>
</g>
<g>
</g>
<g>
</g>
<g>
</g>
</svg>
