<?xml version="1.0" encoding="iso-8859-1"?>
<!-- Generator: Adobe Illustrator 19.0.0, SVG Export Plug-In . SVG Version: 6.00 Build 0)  -->
<svg xmlns="http://www.w3.org/2000/svg" xmlns:xlink="http://www.w3.org/1999/xlink" version="1.1" id="Capa_1" x="0px" y="0px" viewBox="0 0 504.118 504.118" style="enable-background:new 0 0 504.118 504.118;" xml:space="preserve">
<path style="fill:#1CC464;" d="M410.131,36.319L359.632,7.395c-2.213-1.607-4.576-2.97-7.089-4.064l-0.752-0.425l-0.032,0.067  c-13.584-5.526-31.13-3.529-50.271,7.519l-155.506,89.777c-42.76,24.69-77.753,85.287-77.753,134.668v179.558  c0,24.08,8.369,41.157,21.855,49.538l-0.13,0.232l56.107,31.791l31.563-54.938l123.869-71.511  c42.76-24.69,77.749-85.287,77.749-134.668V90.091L410.131,36.319z"/>
<path style="fill:#15A054;" d="M410.131,36.319l-54.048-12.674c-2.213-1.611-13.253-1.571-15.762-2.666l-4.009-1.603l-7.211-1.343  c-13.584-5.522-8.468-18.593-27.609-7.546l-155.51,89.781c-42.76,24.69-77.753,85.287-77.753,134.668v179.558  c0,24.08,8.369,41.157,21.855,49.538l-0.13,0.232l56.107,31.791l31.563-54.938l123.869-71.511  c42.76-24.69,77.749-85.287,77.749-134.668V90.091L410.131,36.319z"/>
<path style="fill:#07875C;" d="M71.195,209.064c-1.887,8.791-2.966,17.499-2.966,25.872v179.558c0,24.08,8.369,41.157,21.855,49.538  l-0.13,0.232l56.107,31.791l31.563-54.938l123.869-71.511c7.266-4.194,14.285-9.496,20.968-15.537L71.195,209.064z"/>
<path style="fill:#25D625;" d="M199.427,131.26c-42.756,24.69-77.749,85.287-77.749,134.668v179.558  c0,49.38,34.993,69.577,77.749,44.891l155.51-89.781c42.76-24.69,77.745-85.287,77.745-134.668V86.373  c0-49.38-34.985-69.577-77.745-44.891L199.427,131.26z"/>
<path style="fill:#1BBF1B;" d="M432.683,86.373c0-49.38-34.985-69.577-77.745-44.891l-155.51,89.777  c-42.756,24.69-77.749,85.287-77.749,134.668v179.558c0,49.38,34.993,69.577,77.749,44.891"/>
<path style="fill:#2AE82A;" d="M164.887,504.118L164.887,504.118c-28.199,0-46.419-23.016-46.419-58.632V265.928  c0-50.527,35.6-112.187,79.352-137.441l155.51-89.781c12.603-7.278,24.769-10.965,36.151-10.965  c28.191,0,46.407,23.016,46.407,58.632v179.558c0,50.527-35.592,112.187-79.352,137.444L201.03,493.153  C188.423,500.428,176.269,504.118,164.887,504.118z M389.486,34.157c-10.244,0-21.327,3.399-32.945,10.098l-155.51,89.777  c-41.984,24.245-76.146,83.413-76.146,131.895v179.558c0,32.209,15.325,52.22,39.999,52.22h0.004  c10.244,0,21.319-3.403,32.933-10.102l155.51-89.777c41.984-24.241,76.146-83.413,76.146-131.895V86.373  C429.481,54.165,414.152,34.157,389.486,34.157z"/>
<path style="fill:#EDF7F1;" d="M171.102,328.352c0.012-71.459,50.617-159.102,112.479-194.82  c61.893-35.745,112.502-6.534,112.482,64.937c0.008,71.432-50.597,159.086-112.482,194.816  C221.719,429.004,171.11,399.788,171.102,328.352z"/>
<g>
	<path style="fill:#F8FFFB;" d="M396.059,198.474c0.008,71.432-50.597,159.086-112.482,194.816   c-61.861,35.714-112.471,6.498-112.479-64.933"/>
	<polygon style="fill:#F8FFFB;" points="190.07,364.724 190.07,447.755 279.154,395.511  "/>
</g>
<g>
</g>
<g>
</g>
<g>
</g>
<g>
</g>
<g>
</g>
<g>
</g>
<g>
</g>
<g>
</g>
<g>
</g>
<g>
</g>
<g>
</g>
<g>
</g>
<g>
</g>
<g>
</g>
<g>
</g>
</svg>
