<?xml version="1.0" encoding="iso-8859-1"?>
<!-- Generator: Adobe Illustrator 19.0.0, SVG Export Plug-In . SVG Version: 6.00 Build 0)  -->
<svg xmlns="http://www.w3.org/2000/svg" xmlns:xlink="http://www.w3.org/1999/xlink" version="1.1" id="Capa_1" x="0px" y="0px" viewBox="0 0 504.122 504.122" style="enable-background:new 0 0 504.122 504.122;" xml:space="preserve">
<path style="fill:#CCE6F2;" d="M382.531,7.545c-2.245-1.642-4.671-3.029-7.231-4.147l-0.76-0.433l-0.032,0.063  c-13.855-5.632-31.752-3.592-51.279,7.672l-157.215,90.762c0.378,0.232,0.768,0.449,1.122,0.713l54.686,31.323l-1.04,1.8h122.317  v227.178c34.06-29.932,59.431-80.408,59.431-122.841V91.895l31.508-54.847L382.531,7.545z"/>
<path style="fill:#FFFFFF;" d="M377.738,42.31l-156.57,90.392v366.289l156.57-90.388c43.615-25.186,79.309-86.993,79.309-137.362  V88.099C457.046,37.734,421.352,17.136,377.738,42.31z"/>
<path style="opacity:0.1;fill:#5BC0D8;enable-background:new    ;" d="M377.738,42.31l-156.57,90.392v366.289L457.046,88.099  C457.046,37.734,421.352,17.136,377.738,42.31z"/>
<path style="fill:#AFD1E2;" d="M172.776,477.179c-3.84-2.213-6.971-7.641-6.971-12.064V102.675c0-4.427,3.131-6.235,6.971-4.021  l41.563,24.001c3.84,2.213,6.971,7.637,6.971,12.063v362.441c0,4.423-3.131,6.235-6.971,4.021L172.776,477.179z"/>
<polygon style="opacity:0.4;fill:#74B4CE;enable-background:new    ;" points="179.022,480.787 206.639,496.734 206.639,154.608   179.022,154.608 "/>
<path style="fill:#9BB8BA;" d="M182.138,439.276l16.691,28.908l2.43-1.402c0.024-0.012,0.039-0.02-0.453,0.264l0.252-0.15l0.5-0.315  c1.977-1.3,3.198-3.86,3.198-7.448c0-7.507-5.317-16.715-11.815-20.468c-3.107-1.792-5.939-2.017-8.046-0.949l-0.532,0.272  L182.138,439.276z"/>
<path style="fill:#BCCACC;" d="M204.76,459.133c0-7.507-5.317-16.715-11.815-20.468c-3.107-1.792-5.939-2.017-8.046-0.949  l-0.532,0.272l-2.229,1.288l14.253,24.69L204.76,459.133z"/>
<path style="fill:#E4EDEF;" d="M201.976,460.74c0-7.507-5.325-16.715-11.815-20.468c-6.506-3.753-11.823-0.685-11.815,6.821  c-0.008,7.503,5.317,16.715,11.815,20.468C196.655,471.319,201.976,468.247,201.976,460.74z"/>
<path style="fill:#FFFFFF;" d="M178.345,447.097c-0.008,7.503,5.317,16.715,11.815,20.468c6.491,3.753,11.815,0.681,11.815-6.821"/>
<path style="fill:#CCE6F2;" d="M217.438,504.122c-1.323,0-2.702-0.41-4.1-1.213l-41.563-24.001  c-4.47-2.576-7.968-8.637-7.968-13.796V102.675c0-4.813,2.946-6.963,5.868-6.963c1.323,0,2.702,0.406,4.092,1.209l41.57,24.005  c4.462,2.572,7.967,8.629,7.967,13.792v362.441C223.307,501.968,220.353,504.122,217.438,504.122z M169.676,99.702  c-1.694,0-1.879,2.08-1.879,2.974v362.437c0,3.734,2.729,8.468,5.971,10.335l41.57,24.005c0.768,0.441,1.493,0.677,2.099,0.677  c1.694,0,1.879-2.076,1.879-2.97V134.718c0-3.738-2.737-8.472-5.979-10.338l-41.563-24.001  C171.008,99.938,170.283,99.702,169.676,99.702z"/>
<polygon style="fill:#647882;" points="206.639,139.311 192.299,131.028 172.776,142.442 187.132,150.732 "/>
<polyline style="fill:#70838E;" points="172.776,142.442 187.132,150.732 206.639,139.311 "/>
<polygon style="fill:#647882;" points="187.116,150.764 172.76,142.473 172.792,168.424 187.14,176.702 "/>
<polyline style="fill:#51636B;" points="187.14,176.702 187.132,150.732 172.776,142.442 "/>
<polygon style="fill:#A2B2BC;" points="206.639,139.311 187.132,150.732 187.132,161.157 187.124,176.734 206.647,165.269 "/>
<polygon style="fill:#34484F;" points="195.213,164.064 192.906,165.415 192.906,166.647 192.906,168.479 195.213,167.132 "/>
<polyline style="fill:#8E9BA5;" points="206.639,139.311 187.132,150.732 187.132,161.157 187.124,176.734 "/>
<polygon style="fill:#34484F;" points="185.245,152.209 174.34,145.915 174.359,167.502 185.253,173.788 "/>
<polygon style="fill:#27A0C1;" points="179.062,148.641 174.34,145.915 174.359,167.502 179.085,170.228 "/>
<polygon style="fill:#287BBF;" points="179.03,148.621 185.245,152.209 185.253,166.521 179.015,170.188 179.022,154.608 "/>
<polygon style="fill:#34484F;" points="194.761,152.414 192.453,153.769 192.46,154.994 192.46,156.833 194.761,155.482 "/>
<polygon style="fill:#272A2D;" points="198.868,137.995 175.206,124.337 119.477,156.404 143.171,170.09 "/>
<polygon style="fill:#09090A;" points="143.147,170.133 119.445,156.459 119.5,199.266 143.171,212.932 "/>
<polygon style="fill:#3A3D3F;" points="198.868,137.995 143.171,170.09 143.155,187.277 143.147,212.98 198.86,180.85 "/>
<g>
	<path style="fill:#272A2D;" d="M86.831,207.072v106.5l12.485,7.203l91.487-52.854l1.654,112.998l-25.986,15.002   c-3.97,2.284-5.337,7.385-3.044,11.366c2.3,3.974,7.393,5.337,11.37,3.044l30.208-17.447l4.163-7.329l-1.93-132.045l-12.477-7.077   l-91.294,52.724l0.008-87.276l30.425-17.566c3.978-2.292,5.344-7.381,3.044-11.366c-2.3-3.982-7.392-5.344-11.37-3.044   L90.99,199.872L86.831,207.072z"/>
	<polygon style="fill:#272A2D;" points="176.486,377.024 144.738,358.691 69.978,401.711 101.762,420.064  "/>
</g>
<polygon style="fill:#09090A;" points="101.722,420.127 69.939,401.77 70.006,459.216 101.754,477.546 "/>
<polygon style="fill:#3A3D3F;" points="176.486,377.024 101.762,420.064 101.746,443.124 101.714,477.613 176.486,434.506 "/>
<polygon style="fill:#647882;" points="96.378,426.18 75.508,414.129 47.1,430.745 67.993,442.808 "/>
<polyline style="fill:#70838E;" points="47.1,430.745 67.993,442.808 96.378,426.18 "/>
<polygon style="fill:#647882;" points="67.97,442.852 47.076,430.788 47.131,468.546 67.993,480.59 "/>
<polyline style="fill:#51636B;" points="67.993,480.59 67.993,442.808 47.1,430.745 "/>
<polygon style="fill:#A2B2BC;" points="96.378,426.18 67.993,442.808 67.985,457.964 67.97,480.633 96.37,463.958 "/>
<polygon style="fill:#34484F;" points="79.754,462.194 76.398,464.163 76.39,465.951 76.398,468.629 79.754,466.656 "/>
<polyline style="fill:#8E9BA5;" points="96.378,426.18 67.993,442.808 67.985,457.964 67.97,480.633 "/>
<polygon style="fill:#34484F;" points="65.236,444.959 49.376,435.79 49.416,467.195 65.26,476.341 "/>
<polygon style="fill:#27A0C1;" points="56.253,439.764 49.376,435.79 49.416,467.195 56.276,471.165 "/>
<polygon style="fill:#287BBF;" points="56.202,439.733 65.236,444.959 65.26,465.781 56.178,471.106 56.194,448.437 "/>
<polygon style="fill:#34484F;" points="79.092,445.258 75.736,447.223 75.736,449.012 75.732,451.686 79.092,449.713 "/>
<path style="fill:#E83A92;" d="M408.639,192.2l-35.801,20.669v-41.342c0-7.582-5.368-10.681-11.937-6.892L337.03,178.42  c-6.561,3.785-11.93,13.091-11.93,20.673v41.342l-35.809,20.669c-6.569,3.793-11.937,13.091-11.937,20.673v27.561  c0,7.582,5.368,10.685,11.937,6.892l35.801-20.673v41.346c0,7.578,5.368,10.677,11.937,6.888l23.871-13.781  c6.569-3.793,11.937-13.091,11.937-20.673v-41.342l35.801-20.673c6.561-3.789,11.937-13.091,11.937-20.669v-27.561  C420.576,191.511,415.2,188.407,408.639,192.2z"/>
<path style="fill:#CE2E77;" d="M391.66,202.003l-18.822,10.866v-41.342c0-7.582-5.368-10.681-11.937-6.892L337.03,178.42  c-6.561,3.785-11.93,13.091-11.93,20.673v41.342l-35.809,20.669c-6.569,3.793-11.937,13.091-11.937,20.673v27.561  c0,7.582,5.368,10.685,11.937,6.892l35.801-20.673v22.402L391.66,202.003z"/>
<g>
</g>
<g>
</g>
<g>
</g>
<g>
</g>
<g>
</g>
<g>
</g>
<g>
</g>
<g>
</g>
<g>
</g>
<g>
</g>
<g>
</g>
<g>
</g>
<g>
</g>
<g>
</g>
<g>
</g>
</svg>
