<?xml version="1.0" encoding="iso-8859-1"?>
<!-- Generator: Adobe Illustrator 19.0.0, SVG Export Plug-In . SVG Version: 6.00 Build 0)  -->
<svg xmlns="http://www.w3.org/2000/svg" xmlns:xlink="http://www.w3.org/1999/xlink" version="1.1" id="Capa_1" x="0px" y="0px" viewBox="0 0 504.123 504.123" style="enable-background:new 0 0 504.123 504.123;" xml:space="preserve">
<path style="fill:#BC1142;" d="M408.157,35.51L358.796,7.232c-2.162-1.571-4.478-2.903-6.932-3.978l-0.733-0.414L351.1,2.904  c-13.284-5.4-30.44-3.446-49.148,7.353L149.908,98.029c-41.807,24.139-76.004,83.385-76.004,131.663V430.27  c0,23.544,8.176,40.239,21.354,48.431l-0.122,0.228l54.863,6.053l30.846-53.713l121.116-69.916  c41.799-24.139,76.008-83.385,76.008-131.663V88.081L408.157,35.51z"/>
<path style="fill:#A30C33;" d="M408.157,35.51l-52.838-12.394c-2.154-1.571-12.946-1.532-15.407-2.607l-3.915-1.564l-7.054-1.312  c-13.284-5.4-8.279-18.176-26.986-7.377L149.908,98.029c-41.807,24.139-76.004,83.385-76.004,131.663V430.27  c0,23.544,8.176,40.239,21.354,48.431l-0.122,0.228l54.863,6.053l30.846-53.713l121.116-69.916  c41.799-24.139,76.008-83.385,76.008-131.663V88.081L408.157,35.51z"/>
<path style="fill:#890622;" d="M76.794,204.399c-1.839,8.598-2.891,17.105-2.891,25.293V430.27c0,23.544,8.176,40.239,21.354,48.431  l-0.122,0.228l40.401,22.678l45.308-70.333l121.116-69.916c7.101-4.104,13.962-9.279,20.492-15.191L76.794,204.399z"/>
<path style="fill:#601E36;" d="M202.163,128.328c-41.807,24.139-76.016,83.389-76.016,131.667v214.059  c0,48.274,34.209,29.515,76.016,5.38l152.04-87.776c41.807-24.135,76.016-44.883,76.016-93.156V84.446  c0-48.278-34.209-68.021-76.016-43.89L202.163,128.328z"/>
<g>
	<path style="opacity:0.4;fill:#2D2D2D;enable-background:new    ;" d="M357.024,390.011c12.784-7.4,24.777-14.572,35.214-22.37   v-24.084h-35.214V390.011z"/>
	<path style="opacity:0.4;fill:#2D2D2D;enable-background:new    ;" d="M354.204,50.146l-152.04,87.776   c-41.807,24.135-76.016,83.385-76.016,131.663v175.549l304.069-175.549V94.036C430.216,45.758,396.01,26.011,354.204,50.146z"/>
</g>
<path style="fill:#E51034;" d="M354.204,40.556l-152.04,87.773c-41.807,24.139-76.016,83.389-76.016,131.667v175.549  l304.069-175.549V84.442C430.216,36.168,396.01,16.421,354.204,40.556z"/>
<path style="opacity:0.1;fill:#383E3F;enable-background:new    ;" d="M128.073,490.403c6.81,23.367,31.098,13.225,61.353-3.702  L430.22,84.446c0-48.278-34.209-68.021-76.016-43.89l-152.04,87.773c-41.807,24.139-76.016,83.389-76.016,131.667v175.549v5.498  C126.147,457.465,126.265,475.188,128.073,490.403z"/>
<path style="fill:#B3BCBC;" d="M399.996,305.85l-31.701,54.898l-4.624-2.67c-0.039-0.02-0.071-0.035,0.863,0.508l-0.484-0.287  l-0.945-0.595c-3.761-2.469-6.077-7.329-6.077-14.147c0-14.253,10.09-31.744,22.445-38.869c5.892-3.403,11.268-3.828,15.277-1.804  l1.008,0.52L399.996,305.85z"/>
<path style="fill:#C7D1D1;" d="M357.024,343.557c0-14.253,10.09-31.744,22.445-38.869c5.892-3.403,11.268-3.828,15.277-1.804  l1.008,0.52l4.238,2.446l-27.069,46.883L357.024,343.557z"/>
<path style="fill:#EDF3F4;" d="M362.309,346.617c0-14.257,10.106-31.744,22.445-38.873c12.355-7.133,22.445-1.3,22.437,12.958  c0.008,14.249-10.09,31.744-22.437,38.873C372.419,366.703,362.309,360.867,362.309,346.617z"/>
<g>
	<path style="fill:#FFFFFF;" d="M407.196,320.702c0.008,14.249-10.09,31.744-22.437,38.873   c-12.339,7.133-22.445,1.292-22.445-12.958"/>
	<path style="fill:#FFFFFF;" d="M346.177,159.521l-35.805,20.669v-41.342c0-7.582-5.364-10.681-11.934-6.888l-23.871,13.781   c-6.565,3.789-11.934,13.091-11.934,20.673v41.342l-35.801,20.673c-6.569,3.793-11.937,13.091-11.937,20.669v27.561   c0,7.586,5.368,10.685,11.937,6.892l35.801-20.669v41.342c0,7.582,5.368,10.681,11.937,6.888l23.871-13.777   c6.569-3.793,11.934-13.091,11.934-20.677V235.32l35.805-20.677c6.561-3.789,11.934-13.091,11.934-20.669v-27.561   C358.115,158.831,352.739,155.728,346.177,159.521z"/>
</g>
<g>
</g>
<g>
</g>
<g>
</g>
<g>
</g>
<g>
</g>
<g>
</g>
<g>
</g>
<g>
</g>
<g>
</g>
<g>
</g>
<g>
</g>
<g>
</g>
<g>
</g>
<g>
</g>
<g>
</g>
</svg>
