<?xml version="1.0" encoding="iso-8859-1"?>
<!-- Generator: Adobe Illustrator 19.0.0, SVG Export Plug-In . SVG Version: 6.00 Build 0)  -->
<svg xmlns="http://www.w3.org/2000/svg" xmlns:xlink="http://www.w3.org/1999/xlink" version="1.1" id="Capa_1" x="0px" y="0px" viewBox="0 0 504.119 504.119" style="enable-background:new 0 0 504.119 504.119;" xml:space="preserve">
<path style="fill:#1962CC;" d="M410.124,36.321L359.633,7.393c-2.209-1.607-4.577-2.966-7.093-4.061l-0.744-0.425l-0.032,0.063  c-13.584-5.522-31.13-3.525-50.271,7.519l-155.518,89.781c-42.76,24.686-77.745,85.283-77.745,134.668v179.554  c0,24.084,8.361,41.161,21.847,49.538l-0.13,0.232l56.115,31.795l31.555-54.942l123.876-71.507  c42.752-24.694,77.745-85.291,77.745-134.668V90.092L410.124,36.321z"/>
<path style="fill:#0857B5;" d="M410.124,36.321l-54.047-12.674c-2.209-1.611-13.245-1.568-15.762-2.67l-4.005-1.603l-7.215-1.343  c-13.584-5.522-8.46-18.59-27.601-7.546l-155.518,89.785c-42.76,24.686-77.745,85.283-77.745,134.668v179.554  c0,24.084,8.361,41.161,21.847,49.538l-0.13,0.232l56.115,31.795l31.555-54.942l123.876-71.507  c42.752-24.694,77.745-85.291,77.745-134.668V90.092L410.124,36.321z"/>
<path style="fill:#044B99;" d="M71.192,209.069c-1.887,8.787-2.962,17.495-2.962,25.868v179.554  c0,24.084,8.361,41.161,21.847,49.538l-0.13,0.232l56.115,31.795l31.555-54.942l123.876-71.507  c7.263-4.198,14.285-9.496,20.96-15.537L71.192,209.069z"/>
<path style="fill:#1962CC;" d="M199.424,131.261c-42.76,24.686-77.753,85.287-77.753,134.668v179.558  c0,49.38,34.993,69.577,77.753,44.887l155.506-89.777c42.76-24.69,77.753-85.291,77.753-134.668V86.371  c0-49.376-34.993-69.577-77.753-44.887L199.424,131.261z"/>
<g>
	<path style="fill:#1097E2;" d="M432.683,265.929v-1.887c0,49.38-34.993,109.982-77.753,134.668l-155.506,89.781   c-12.39,7.152-24.123,10.539-34.544,10.539c-25.549,0-43.209-20.354-43.209-55.43v1.887c0,49.38,34.993,69.577,77.753,44.887   l155.506-89.777C397.694,375.91,432.683,315.309,432.683,265.929z"/>
	<path style="fill:#1097E2;" d="M121.671,298.839l117.65-67.923c1.264,14.667,9.484,23.068,20.964,23.068   c5.092,0,10.831-1.654,16.888-5.155c19.716-11.386,36.033-38.345,37.86-61.629l117.65-67.923v-3.938   c-0.681,0-1.363,0.177-1.969,0.532l-117.65,67.915c-1.122,0.654-1.855,1.812-1.957,3.107c-1.741,22.197-17.51,47.907-35.903,58.529   c-5.238,3.025-10.401,4.624-14.919,4.624c-9.618,0-15.99-7.278-17.042-19.468c-0.114-1.347-0.906-2.532-2.103-3.155   c-0.571-0.299-1.197-0.445-1.82-0.445c-0.681,0-1.363,0.177-1.969,0.524l-115.68,66.788V298.839z"/>
</g>
<path style="fill:#1DBC1D;" d="M164.876,502.887c-27.443,0-45.178-22.532-45.178-57.395v-144.77c0-0.705,0.378-1.355,0.985-1.709  l117.65-67.923c0.303-0.173,0.646-0.26,0.985-0.26c0.311,0,0.622,0.079,0.91,0.224c0.595,0.311,0.992,0.906,1.052,1.575  c1.15,13.32,8.255,21.268,19.003,21.268c4.864,0,10.366-1.69,15.904-4.888c18.897-10.913,35.096-37.305,36.884-60.081  c0.051-0.646,0.414-1.229,0.977-1.556l117.65-67.919c0.303-0.173,0.646-0.264,0.985-0.264c0.339,0,0.681,0.091,0.985,0.264  c0.607,0.351,0.985,1.004,0.985,1.705v144.77c0,50.133-35.324,111.309-78.738,136.373l-155.506,89.781  C187.991,499.251,176.037,502.887,164.876,502.887z"/>
<path style="fill:#19DD2B;" d="M428.769,248.316l-12.26-7.085l-11.674,20.216l-11.63-6.715l-11.67,20.208l-11.607-6.703  l-11.678,20.22l-11.622-6.711l-11.678,20.212l-11.618-6.711l-11.678,20.22l-11.622-6.715l-11.67,20.216l-11.618-6.707l-11.67,20.208  l-11.638-6.711l-11.674,20.22l-11.615-6.707l-11.666,20.208l-11.626-6.707l-11.678,20.224l-11.611-6.711l-11.67,20.212  l-11.622-6.711l-11.674,20.22l-11.63-6.715l-11.693,20.255l-3.608,2.079v4.167l-0.5,0.866l0.5-0.288v9.72  c0,49.38,34.993,69.577,77.753,44.887l155.506-89.777c42.76-24.69,77.753-85.291,77.753-134.668v-14.462L428.769,248.316z   M420.474,253.101l-1.871,1.079l0.933-1.619L420.474,253.101z M397.135,266.579l-1.768,1.02l0.886-1.532L397.135,266.579z   M373.792,280.052l-1.686,0.969l0.843-1.457L373.792,280.052z M350.448,293.53l-1.564,0.902l0.784-1.355L350.448,293.53z   M327.105,307.007l-1.477,0.855l0.74-1.28L327.105,307.007z M303.766,320.481l-1.398,0.807l0.701-1.213L303.766,320.481z   M280.418,333.962l-1.284,0.74l0.642-1.115L280.418,333.962z M257.071,347.439l-1.197,0.693l0.599-1.04L257.071,347.439z   M233.74,360.913l-1.087,0.626l0.547-0.941L233.74,360.913z M210.389,374.394l-0.977,0.563l0.488-0.847L210.389,374.394z   M187.053,387.86l-0.902,0.52l0.449-0.776L187.053,387.86z M163.706,401.341l-0.807,0.465l0.406-0.701L163.706,401.341z   M140.008,414.618l0.351,0.205l-0.701,0.406L140.008,414.618z"/>
<path style="fill:#FF9D00;" d="M428.769,253.732l-12.26-7.085l-11.674,20.216l-11.63-6.715l-11.67,20.208l-11.607-6.703  l-11.678,20.22l-11.622-6.711l-11.678,20.212l-11.618-6.711l-11.678,20.22l-11.622-6.715l-11.67,20.216l-11.618-6.707l-11.67,20.208  l-11.638-6.711l-11.674,20.22l-11.615-6.707l-11.666,20.208l-11.626-6.707l-11.678,20.224l-11.611-6.711l-11.67,20.212  l-11.622-6.711l-11.674,20.22l-11.63-6.715l-11.693,20.255l-3.608,2.08v4.167l-0.5,0.866l0.5-0.288v9.72  c0,49.38,34.993,69.577,77.753,44.887l155.506-89.777c42.76-24.69,77.753-85.291,77.753-134.668v-14.462L428.769,253.732z   M420.474,258.517l-1.871,1.079l0.933-1.619L420.474,258.517z M397.135,271.994l-1.768,1.02l0.886-1.532L397.135,271.994z   M373.792,285.468l-1.686,0.969l0.843-1.457L373.792,285.468z M350.448,298.945l-1.564,0.902l0.784-1.355L350.448,298.945z   M327.105,312.423l-1.477,0.855l0.74-1.28L327.105,312.423z M303.766,325.896l-1.398,0.807l0.701-1.213L303.766,325.896z   M280.418,339.377l-1.284,0.74l0.642-1.115L280.418,339.377z M257.071,352.855l-1.197,0.693l0.599-1.04L257.071,352.855z   M233.74,366.328l-1.087,0.626l0.547-0.941L233.74,366.328z M210.389,379.81l-0.977,0.563l0.488-0.847L210.389,379.81z   M187.053,393.275l-0.902,0.52l0.449-0.776L187.053,393.275z M163.706,406.757l-0.807,0.465l0.406-0.701L163.706,406.757z   M140.008,420.033l0.351,0.205l-0.701,0.406L140.008,420.033z"/>
<path style="fill:#1962CC;" d="M164.884,504.119h-0.008c-28.191,0-46.407-23.016-46.407-58.632V265.929  c0-50.527,35.592-112.187,79.344-137.44l155.514-89.781c12.607-7.278,24.769-10.969,36.147-10.969  c28.191,0,46.415,23.016,46.415,58.632v179.562c0,50.523-35.6,112.183-79.352,137.44l-155.514,89.781  C188.416,500.429,176.262,504.119,164.884,504.119z M389.478,34.154c-10.24,0-21.323,3.399-32.937,10.098l-155.518,89.781  c-41.984,24.241-76.146,83.413-76.146,131.895v179.558c0,32.213,15.325,52.22,39.999,52.22h0.008  c10.24,0,21.315-3.403,32.929-10.102l155.514-89.781c41.984-24.237,76.146-83.409,76.146-131.891V86.371  C429.477,54.162,414.153,34.154,389.478,34.154z"/>
<path style="fill:#FFFFFF;" d="M162.899,311.721c-1.749,1.008-3.182,3.486-3.182,5.498v36.699c0,2.016,1.43,2.84,3.182,1.831  l44.489-25.683c1.745-1.008,3.178-3.486,3.178-5.502V287.87c0-2.016-1.43-2.84-3.178-1.831L162.899,311.721z"/>
<path style="fill:#E2E9F2;" d="M210.566,310.315V287.87c0-2.016-1.43-2.84-3.178-1.831l-44.489,25.683  c-1.749,1.008-3.182,3.486-3.182,5.498v36.699c0,2.016,1.43,2.84,3.182,1.831l32.142-18.562L210.566,310.315z"/>
<path style="fill:#FFFFFF;" d="M216.151,296.617c-1.229,1.603-2.233,4.557-2.233,6.577v3.671c0,2.02,1.631,3.903,3.631,4.194  l5.443,0.784c2.001,0.284,3.635-1.13,3.635-3.147l0.004-22.016c0-2.016-1.008-2.363-2.241-0.76L216.151,296.617z"/>
<path style="fill:#E2E9F2;" d="M213.914,304.514l11.11-19.255c-0.205,0.169-0.414,0.374-0.642,0.662l-8.235,10.697  c-1.229,1.603-2.233,4.557-2.233,6.577V304.514z"/>
<g>
	<path style="fill:#FFFFFF;" d="M217.525,394.236c-0.733-0.421-1.631-0.421-2.363,0l-41.437,23.918   c-0.733,0.421-1.182,1.201-1.182,2.048v23.922c0,5.825,3.261,9.744,8.121,9.744c0,0,0,0,0.004,0c1.859,0,3.801-0.579,5.778-1.721   l20.72-11.961c6.471-3.734,11.54-12.516,11.54-19.984V396.28C218.707,395.433,218.258,394.654,217.525,394.236z"/>
	<path style="fill:#FFFFFF;" d="M169.437,476.991c-1.343,0-2.647-0.701-3.367-1.946c-1.071-1.863-0.437-4.234,1.426-5.309   l52.393-30.251c1.855-1.071,4.234-0.441,5.309,1.422c1.075,1.859,0.437,4.234-1.422,5.309l-52.397,30.251   C170.76,476.822,170.098,476.991,169.437,476.991z"/>
	<path style="fill:#FFFFFF;" d="M170.059,445.35v-1.741l-1.067,0.614c-0.67,0.39-1.28,0.583-1.812,0.583h-0.004   c-1.516,0-1.682-1.82-1.682-2.599v-12.568l4.565-2.639v-5.569c0-0.484,0.154-0.945,0.417-1.331l-8.649,4.994   c-1.3,0.748-2.107,2.146-2.107,3.651v13.466c0,4.848,3.135,8.369,7.459,8.369c1.205,0,2.418-0.272,3.631-0.811   C170.327,448.469,170.059,446.992,170.059,445.35z"/>
</g>
<path style="fill:#E2E9F2;" d="M208.782,176.935l-10.212,5.896v-9.421c0-1.067-0.752-1.501-1.678-0.969l-23.501,13.564  c-0.922,0.532-1.678,1.839-1.678,2.907v9.421l-10.212,5.896c-1.863,1.067-3.375,3.706-3.375,5.849v38.995  c0,2.143,1.516,3.025,3.375,1.95l47.277-27.297c1.859-1.071,3.375-3.706,3.375-5.853v-38.991  C212.157,176.739,210.637,175.86,208.782,176.935z M186.825,226.576c-6.077,3.549-11.04,0.666-11.04-6.4  c0-7.062,4.99-15.73,11.091-19.255c6.101-3.517,11.067-0.642,11.036,6.416C197.88,214.378,192.89,223.039,186.825,226.576z"/>
<g>
</g>
<g>
</g>
<g>
</g>
<g>
</g>
<g>
</g>
<g>
</g>
<g>
</g>
<g>
</g>
<g>
</g>
<g>
</g>
<g>
</g>
<g>
</g>
<g>
</g>
<g>
</g>
<g>
</g>
</svg>
