<?xml version="1.0" encoding="iso-8859-1"?>
<!-- Generator: Adobe Illustrator 19.0.0, SVG Export Plug-In . SVG Version: 6.00 Build 0)  -->
<svg xmlns="http://www.w3.org/2000/svg" xmlns:xlink="http://www.w3.org/1999/xlink" version="1.1" id="Capa_1" x="0px" y="0px" viewBox="0 0 504.12 504.12" style="enable-background:new 0 0 504.12 504.12;" xml:space="preserve">
<path style="fill:#DCF1F9;" d="M410.122,36.322L359.631,7.394c-2.209-1.607-4.576-2.97-7.093-4.061l-0.744-0.425l-0.032,0.063  c-13.584-5.522-31.13-3.529-50.271,7.519L145.974,100.27c-42.76,24.686-77.745,85.283-77.745,134.668v179.554  c0,24.084,8.361,41.161,21.847,49.538l-0.13,0.232l56.115,31.795l31.555-54.942l123.876-71.507  c42.752-24.694,77.745-85.291,77.745-134.668V90.093L410.122,36.322z"/>
<path style="fill:#CCE6F2;" d="M410.122,36.322l-54.048-12.674c-2.209-1.611-13.245-1.568-15.762-2.67l-4.005-1.603l-7.215-1.339  c-13.584-5.522-8.46-18.593-27.601-7.546L145.974,100.27c-42.76,24.686-77.745,85.283-77.745,134.668v179.554  c0,24.084,8.361,41.161,21.847,49.538l-0.13,0.232l56.115,31.795l31.555-54.942l123.876-71.507  c42.752-24.694,77.745-85.291,77.745-134.668V90.093L410.122,36.322z"/>
<path style="fill:#BFD9E8;" d="M71.19,209.07c-1.887,8.787-2.962,17.491-2.962,25.868v179.554c0,24.084,8.361,41.161,21.847,49.538  l-0.13,0.232l56.115,31.795l31.555-54.942l123.876-71.507c7.263-4.198,14.285-9.496,20.96-15.537L71.19,209.07z"/>
<path style="fill:#FFFFFF;" d="M199.423,131.266c-42.76,24.686-77.753,85.287-77.753,134.668v179.558  c0,49.38,34.993,69.577,77.753,44.887l155.506-89.777c42.76-24.69,77.753-85.291,77.753-134.668V86.372  c0-49.376-34.993-69.577-77.753-44.887L199.423,131.266z"/>
<path style="opacity:0.1;fill:#5BC0D8;enable-background:new    ;" d="M432.682,86.372c0-49.376-34.993-69.577-77.753-44.887  l-155.506,89.781c-42.76,24.686-77.753,85.287-77.753,134.668v179.558c0,49.38,34.993,69.577,77.753,44.887"/>
<path style="fill:#FFFFFF;" d="M164.882,504.12h-0.008c-28.192,0-46.407-23.012-46.407-58.628V265.934  c0-50.527,35.592-112.187,79.344-137.444L353.33,38.712c12.607-7.278,24.769-10.969,36.147-10.969  c28.191,0,46.415,23.016,46.415,58.632v179.562c0,50.523-35.6,112.183-79.352,137.441l-155.514,89.781  C188.415,500.434,176.26,504.12,164.882,504.12z M389.477,34.155c-10.24,0-21.323,3.399-32.937,10.098l-155.518,89.785  c-41.984,24.241-76.146,83.413-76.146,131.895v179.558c0,32.209,15.325,52.22,39.999,52.22h0.008  c10.24,0,21.315-3.403,32.929-10.102l155.514-89.781c41.984-24.237,76.146-83.409,76.146-131.891V86.372  C429.476,54.163,414.151,34.155,389.477,34.155z"/>
<path style="fill:#CCE6F2;" d="M265.79,194.081c-3.43,0-6.77-1.776-8.609-4.962c-2.737-4.754-1.115-10.819,3.639-13.56  l103.152-59.553c4.738-2.753,10.807-1.115,13.552,3.639c2.737,4.746,1.107,10.815-3.639,13.552l-103.14,59.553  C269.185,193.655,267.467,194.081,265.79,194.081z"/>
<path style="fill:#607EFC;" d="M175.5,229.909c0.008-19.57,13.863-43.563,30.791-53.343c16.955-9.787,30.807-1.788,30.799,17.782  c0.008,19.558-13.856,43.555-30.799,53.339C189.36,257.466,175.504,249.463,175.5,229.909z"/>
<path style="fill:#3359D3;" d="M206.291,247.687c-16.931,9.775-30.783,1.776-30.791-17.778c0.008-19.57,13.863-43.563,30.791-53.343  "/>
<path style="fill:#CCE6F2;" d="M265.79,296.142c-3.43,0-6.77-1.776-8.609-4.962c-2.737-4.746-1.115-10.815,3.639-13.552  l103.152-59.561c4.738-2.753,10.807-1.111,13.552,3.639c2.737,4.75,1.107,10.815-3.639,13.56l-103.14,59.553  C269.185,295.717,267.467,296.142,265.79,296.142z"/>
<path style="fill:#FFA310;" d="M175.5,331.974c0.008-19.562,13.863-43.563,30.791-53.339c16.955-9.787,30.807-1.792,30.799,17.786  c0.008,19.554-13.856,43.555-30.799,53.335C189.36,359.527,175.504,351.525,175.5,331.974z"/>
<path style="fill:#F98008;" d="M206.291,349.752c-16.931,9.771-30.783,1.772-30.791-17.782  c0.008-19.562,13.863-43.563,30.791-53.339"/>
<path style="fill:#CCE6F2;" d="M265.79,398.211c-3.43,0-6.77-1.776-8.609-4.962c-2.737-4.754-1.115-10.819,3.639-13.56  l103.152-59.553c4.738-2.753,10.807-1.115,13.552,3.639c2.737,4.746,1.107,10.815-3.639,13.552L270.74,396.88  C269.185,397.786,267.467,398.211,265.79,398.211z"/>
<path style="fill:#E048B8;" d="M175.5,434.043c0.008-19.57,13.863-43.563,30.791-53.342c16.955-9.787,30.807-1.788,30.799,17.782  c0.008,19.558-13.856,43.555-30.799,53.339C189.36,461.597,175.504,453.594,175.5,434.043z"/>
<path style="fill:#C123A0;" d="M206.291,451.817c-16.931,9.775-30.783,1.776-30.791-17.778c0.008-19.57,13.863-43.563,30.791-53.342  "/>
<g>
</g>
<g>
</g>
<g>
</g>
<g>
</g>
<g>
</g>
<g>
</g>
<g>
</g>
<g>
</g>
<g>
</g>
<g>
</g>
<g>
</g>
<g>
</g>
<g>
</g>
<g>
</g>
<g>
</g>
</svg>
