<?xml version="1.0" encoding="iso-8859-1"?>
<!-- Generator: Adobe Illustrator 19.0.0, SVG Export Plug-In . SVG Version: 6.00 Build 0)  -->
<svg xmlns="http://www.w3.org/2000/svg" xmlns:xlink="http://www.w3.org/1999/xlink" version="1.1" id="Capa_1" x="0px" y="0px" viewBox="0 0 504.12 504.12" style="enable-background:new 0 0 504.12 504.12;" xml:space="preserve">
<path style="fill:#33497F;" d="M410.124,36.318L359.633,7.394c-2.209-1.611-4.576-2.97-7.093-4.064l-0.744-0.421l-0.032,0.063  c-13.584-5.522-31.13-3.529-50.271,7.519l-155.518,89.777c-42.76,24.69-77.745,85.287-77.745,134.668v179.558  c0,24.08,8.361,41.157,21.847,49.538l-0.13,0.232l56.115,31.791l31.555-54.938l123.876-71.511  c42.752-24.69,77.745-85.287,77.745-134.668V90.089L410.124,36.318z"/>
<path style="fill:#2A3B72;" d="M410.124,36.318l-54.048-12.674c-2.209-1.607-13.245-1.568-15.762-2.67l-4.005-1.599l-7.215-1.339  c-13.584-5.522-8.46-18.593-27.601-7.546l-155.518,89.777c-42.76,24.69-77.745,85.287-77.745,134.668v179.558  c0,24.08,8.361,41.157,21.847,49.538l-0.13,0.232l56.115,31.791l31.555-54.938l123.876-71.511  c42.752-24.69,77.745-85.287,77.745-134.668V90.089L410.124,36.318z"/>
<path style="fill:#222F59;" d="M71.192,209.066c-1.887,8.787-2.962,17.495-2.962,25.868v179.558c0,24.08,8.361,41.157,21.847,49.538  l-0.13,0.232l56.115,31.791l31.555-54.938l123.876-71.511c7.263-4.194,14.285-9.496,20.96-15.537L71.192,209.066z"/>
<path style="fill:#3F5599;" d="M199.425,131.262c-42.76,24.69-77.753,85.287-77.753,134.668v179.558  c0,49.38,34.993,69.577,77.753,44.891l155.506-89.781c42.76-24.69,77.753-85.287,77.753-134.668V86.372  c0-49.38-34.993-69.577-77.753-44.891L199.425,131.262z"/>
<path style="fill:#354484;" d="M432.684,86.372c0-49.38-34.993-69.577-77.753-44.891l-155.506,89.781  c-42.76,24.69-77.753,85.287-77.753,134.668v179.558c0,49.38,34.993,69.577,77.753,44.891"/>
<g>
	<path style="opacity:0.3;fill:#F5FBFF;enable-background:new    ;" d="M371.271,389.117c1.568-1.3,3.111-2.686,4.651-4.076V32.738   c-1.536,0.386-3.08,0.823-4.651,1.339V389.117z"/>
	<polygon style="opacity:0.3;fill:#F5FBFF;enable-background:new    ;" points="324.191,418.344 328.842,415.662 328.842,56.542    324.191,59.228  "/>
	<polygon style="opacity:0.3;fill:#F5FBFF;enable-background:new    ;" points="277.115,445.528 281.766,442.838 281.766,83.721    277.115,86.407  "/>
	<polygon style="opacity:0.3;fill:#F5FBFF;enable-background:new    ;" points="230.038,472.703 234.69,470.017 234.69,110.9    230.038,113.586  "/>
	<path style="opacity:0.3;fill:#F5FBFF;enable-background:new    ;" d="M182.962,497.823c1.536-0.5,3.084-1.044,4.651-1.666V139.234   c-1.56,1.182-3.123,2.347-4.651,3.615V497.823z"/>
</g>
<path style="fill:#2A3B72;" d="M164.884,504.12h-0.008c-28.192,0-46.407-23.016-46.407-58.632V265.93  c0-50.527,35.592-112.187,79.344-137.44l155.514-89.781c12.607-7.278,24.769-10.965,36.147-10.965  c28.191,0,46.415,23.016,46.415,58.632v179.558c0,50.527-35.6,112.187-79.352,137.44l-155.514,89.781  C188.417,500.43,176.262,504.12,164.884,504.12z M389.479,34.155c-10.24,0-21.323,3.399-32.937,10.098l-155.518,89.781  c-41.984,24.245-76.146,83.413-76.146,131.895v179.558c0,32.209,15.325,52.22,39.999,52.22h0.008  c10.24,0,21.315-3.403,32.929-10.102l155.514-89.777c41.984-24.241,76.146-83.413,76.146-131.895V86.372  C429.478,54.163,414.153,34.155,389.479,34.155z"/>
<path style="fill:#55FF55;" d="M277.119,371.189c-0.288,0-0.575-0.016-0.878-0.051c-3.529-0.41-6.302-3.218-6.664-6.754  l-15.092-146.928l-14.738,70.144c-0.441,2.111-1.76,3.931-3.623,5.006l-89.576,51.708c-3.639,2.091-8.259,0.847-10.354-2.777  c-2.091-3.627-0.851-8.263,2.777-10.354l86.642-50.011l24.029-114.385c0.772-3.659,4.061-6.278,7.81-6.014  c3.73,0.201,6.762,3.084,7.144,6.802l16.561,161.217l33.575-96.937c1.126-3.261,4.23-5.341,7.751-5.077  c3.438,0.268,6.262,2.824,6.873,6.211l4.387,24.411l26.163-52.315c0.666-1.327,1.705-2.43,2.989-3.178l44.78-25.852  c3.612-2.095,8.255-0.851,10.358,2.773c2.087,3.627,0.851,8.267-2.777,10.358l-42.807,24.718l-35.348,70.664  c-1.461,2.922-4.636,4.58-7.861,4.116c-3.23-0.469-5.801-2.946-6.38-6.16l-3.293-18.314l-35.289,101.88  C283.211,369.169,280.317,371.189,277.119,371.189z"/>
<path style="fill:#1BCE85;" d="M365.466,227.168c-1.284,0.74-2.324,1.851-2.989,3.174l-26.163,52.315l-4.391-24.411  c-0.607-3.387-3.43-5.943-6.869-6.211c-3.517-0.26-6.624,1.816-7.751,5.077l-33.575,96.937l-16.561-161.217  c-0.382-3.714-3.411-6.601-7.14-6.798c-3.757-0.26-7.042,2.355-7.814,6.01L230.397,295.91l5.73-3.308  c1.863-1.075,3.182-2.895,3.623-5.006l14.738-70.144L269.58,364.38c0.366,3.533,3.135,6.345,6.664,6.754  c0.299,0.035,0.587,0.051,0.878,0.051c3.198,0,6.093-2.02,7.156-5.1l35.293-101.884l3.293,18.314c0.579,3.214,3.151,5.691,6.38,6.16  c3.226,0.465,6.4-1.193,7.861-4.116l28.845-57.679L365.466,227.168z"/>
<g>
</g>
<g>
</g>
<g>
</g>
<g>
</g>
<g>
</g>
<g>
</g>
<g>
</g>
<g>
</g>
<g>
</g>
<g>
</g>
<g>
</g>
<g>
</g>
<g>
</g>
<g>
</g>
<g>
</g>
</svg>
