<?xml version="1.0" encoding="iso-8859-1"?>
<!-- Generator: Adobe Illustrator 19.0.0, SVG Export Plug-In . SVG Version: 6.00 Build 0)  -->
<svg xmlns="http://www.w3.org/2000/svg" xmlns:xlink="http://www.w3.org/1999/xlink" version="1.1" id="Capa_1" x="0px" y="0px" viewBox="0 0 504.116 504.116" style="enable-background:new 0 0 504.116 504.116;" xml:space="preserve">
<path style="fill:#40C0F2;" d="M410.12,36.322L359.629,7.394c-2.209-1.607-4.577-2.97-7.089-4.061l-0.748-0.425l-0.032,0.063  c-13.584-5.522-31.13-3.529-50.271,7.519L145.972,100.27c-42.756,24.686-77.745,85.287-77.745,134.668v179.554  c0,24.084,8.365,41.161,21.847,49.538l-0.13,0.232l56.115,31.795l31.555-54.942L301.49,369.61  c42.756-24.694,77.745-85.291,77.745-134.668V90.093L410.12,36.322z"/>
<path style="fill:#34ACE8;" d="M410.12,36.322l-54.044-12.674c-2.213-1.611-13.249-1.571-15.766-2.67l-4.009-1.603l-7.211-1.343  c-13.58-5.522-8.46-18.593-27.601-7.546L145.972,100.27c-42.756,24.686-77.745,85.287-77.745,134.668v179.554  c0,24.084,8.365,41.161,21.847,49.538l-0.13,0.232l56.115,31.795l31.555-54.942L301.49,369.61  c42.756-24.694,77.745-85.291,77.745-134.668V90.093L410.12,36.322z"/>
<path style="fill:#2A98DB;" d="M71.188,209.066c-1.887,8.791-2.962,17.495-2.962,25.872v179.554  c0,24.084,8.365,41.161,21.847,49.538l-0.13,0.232l56.115,31.795l31.555-54.942L301.49,369.61  c7.263-4.198,14.285-9.496,20.961-15.537L71.188,209.066z"/>
<path style="fill:#47D3F4;" d="M199.421,131.262c-42.76,24.686-77.749,85.287-77.749,134.668v179.558  c0,49.38,34.989,69.577,77.749,44.887l155.51-89.777c42.756-24.69,77.749-85.291,77.749-134.668V86.372  c0-49.376-34.993-69.577-77.749-44.887L199.421,131.262z"/>
<g>
	<path style="fill:#2CC5F4;" d="M432.68,86.372c0-49.376-34.993-69.577-77.749-44.887l-155.51,89.777   c-42.76,24.686-77.749,85.287-77.749,134.668v179.558c0,49.38,34.989,69.577,77.749,44.887"/>
	<path style="fill:#2CC5F4;" d="M164.88,504.116h-0.008c-28.192,0-46.407-23.012-46.407-58.628V265.93   c0-50.527,35.592-112.187,79.348-137.444l155.514-89.777c12.607-7.278,24.769-10.969,36.147-10.969   c28.191,0,46.415,23.016,46.415,58.632v179.562c0,50.523-35.6,112.183-79.352,137.441l-155.51,89.781   C188.417,500.43,176.259,504.116,164.88,504.116z M389.475,34.155c-10.24,0-21.323,3.399-32.937,10.098l-155.514,89.781   c-41.984,24.241-76.146,83.413-76.146,131.895v179.558c0,32.209,15.325,52.22,39.995,52.22h0.008   c10.24,0,21.319-3.403,32.933-10.102l155.51-89.781c41.984-24.237,76.146-83.409,76.146-131.891V86.372   C429.474,54.163,414.149,34.155,389.475,34.155z"/>
</g>
<path style="fill:#FF9239;" d="M268.415,414.571c-0.339,0-0.685-0.047-1.028-0.138c-1.717-0.461-2.911-2.024-2.911-3.801v-49.68  l-18.554,10.717c-0.61,0.354-1.292,0.524-1.969,0.524c-0.898,0-1.784-0.303-2.509-0.902c-1.268-1.048-1.753-2.769-1.217-4.324  l21.031-60.711l-63.728,36.395c-0.61,0.351-1.284,0.524-1.953,0.524c-0.929,0-1.855-0.331-2.588-0.969  c-1.26-1.103-1.694-2.883-1.067-4.439l73.7-183.347c0.327-0.819,0.922-1.501,1.686-1.946l97.855-56.497  c0.614-0.354,1.292-0.528,1.969-0.528c0.965,0,1.926,0.354,2.674,1.048c1.264,1.17,1.623,3.033,0.882,4.584l-68.789,144.305  l38.699-22.288c0.61-0.354,1.288-0.528,1.965-0.528c0.945,0,1.887,0.343,2.627,1.004c1.268,1.138,1.662,2.954,0.981,4.513  l-44.839,102.38l14.683-8.499c0.614-0.354,1.296-0.528,1.973-0.528c1.02,0,2.032,0.398,2.788,1.158  c1.26,1.26,1.516,3.214,0.614,4.762l-49.569,85.248C271.105,413.843,269.793,414.571,268.415,414.571z"/>
<path style="fill:#F4601E;" d="M365.167,95.981c0.614-0.354,1.292-0.528,1.969-0.528c0.965,0,1.926,0.354,2.674,1.048  c1.264,1.17,1.623,3.033,0.882,4.584l-68.789,144.305l38.699-22.288c0.61-0.354,1.288-0.528,1.965-0.528  c0.945,0,1.887,0.343,2.627,1.004c1.268,1.138,1.662,2.954,0.981,4.513L301.332,330.47l14.683-8.499  c0.614-0.354,1.296-0.528,1.973-0.528c1.02,0,2.032,0.398,2.788,1.158c1.26,1.26,1.516,3.214,0.614,4.762l-49.569,85.248  c-0.717,1.233-2.028,1.961-3.403,1.961c-0.339,0-0.685-0.047-1.028-0.138c-1.717-0.461-2.911-2.024-2.911-3.801v-49.68  l-18.554,10.717c-0.61,0.354-1.292,0.524-1.969,0.524c-0.898,0-1.784-0.303-2.509-0.902c-1.268-1.048-1.753-2.769-1.217-4.324  l21.031-60.711l-63.728,36.395c-0.61,0.351-1.284,0.524-1.953,0.524c-0.929,0-1.855-0.331-2.588-0.969  c-1.26-1.103-1.694-2.883-1.067-4.439"/>
<path style="fill:#FFFAF8;" d="M367.136,99.392h0.02 M367.136,99.392L292.9,255.115l49.664-28.605L292.9,339.898l25.084-14.517  l-49.569,85.252v-56.501l-24.462,14.123l24.462-70.621l-72.834,41.606l73.7-183.347L367.136,99.392 M367.132,91.515  c-0.158,0-0.315,0.008-0.477,0.016c-1.3,0.079-2.521,0.469-3.576,1.107l-97.737,56.434c-1.528,0.882-2.71,2.245-3.367,3.883  l-73.7,183.347c-1.249,3.107-0.398,6.668,2.131,8.877c1.469,1.276,3.32,1.938,5.175,1.938c1.343,0,2.69-0.347,3.907-1.04  l54.619-31.201l-17.593,50.802c-1.075,3.107-0.106,6.558,2.426,8.653c1.445,1.193,3.226,1.8,5.014,1.8  c1.355,0,2.71-0.347,3.938-1.056l12.646-7.302v42.854c0,3.56,2.387,6.676,5.825,7.605c0.681,0.185,1.371,0.272,2.052,0.272  c2.753,0,5.372-1.453,6.81-3.919l49.569-85.252c1.796-3.084,1.292-6.991-1.229-9.523c-1.52-1.52-3.537-2.312-5.581-2.312  c-1.351,0-2.71,0.351-3.942,1.059l-4.281,2.477l40.023-91.368c1.367-3.115,0.575-6.754-1.957-9.023  c-1.481-1.331-3.363-2.013-5.262-2.013c-1.347,0-2.706,0.343-3.927,1.052l-27.731,15.978l63.185-132.553  c0.595-1.107,0.933-2.371,0.933-3.714c0-4.34-3.505-7.857-7.838-7.877C367.168,91.515,367.152,91.515,367.132,91.515L367.132,91.515  z"/>
<g>
</g>
<g>
</g>
<g>
</g>
<g>
</g>
<g>
</g>
<g>
</g>
<g>
</g>
<g>
</g>
<g>
</g>
<g>
</g>
<g>
</g>
<g>
</g>
<g>
</g>
<g>
</g>
<g>
</g>
</svg>
