<?xml version="1.0" encoding="iso-8859-1"?>
<!-- Generator: Adobe Illustrator 19.0.0, SVG Export Plug-In . SVG Version: 6.00 Build 0)  -->
<svg xmlns="http://www.w3.org/2000/svg" xmlns:xlink="http://www.w3.org/1999/xlink" version="1.1" id="Capa_1" x="0px" y="0px" viewBox="0 0 504.116 504.116" style="enable-background:new 0 0 504.116 504.116;" xml:space="preserve">
<path style="fill:#509FEF;" d="M410.118,36.322L359.627,7.394c-2.209-1.611-4.576-2.97-7.093-4.064l-0.744-0.421l-0.032,0.063  c-13.584-5.522-31.13-3.529-50.271,7.519L145.97,100.266c-42.76,24.686-77.737,85.287-77.737,134.668v179.558  c0,24.08,8.361,41.157,21.847,49.534l-0.13,0.236l56.107,31.795l31.555-54.942l123.876-71.511  c42.752-24.69,77.745-85.291,77.745-134.668V90.089L410.118,36.322z"/>
<path style="fill:#4889D8;" d="M410.118,36.322l-54.048-12.678c-2.209-1.607-13.245-1.568-15.762-2.67l-4.005-1.599l-7.215-1.343  c-13.584-5.522-8.46-18.593-27.601-7.546L145.97,100.266c-42.76,24.686-77.737,85.287-77.737,134.668v179.558  c0,24.08,8.361,41.157,21.847,49.534l-0.13,0.236l56.107,31.795l31.555-54.942l123.876-71.511  c42.752-24.69,77.745-85.291,77.745-134.668V90.089L410.118,36.322z"/>
<path style="fill:#387FC6;" d="M71.194,209.066c-1.887,8.791-2.962,17.495-2.962,25.868v179.558c0,24.08,8.361,41.157,21.847,49.534  l-0.13,0.236l56.107,31.795l31.555-54.942l123.876-71.511c7.263-4.194,14.285-9.492,20.96-15.537L71.194,209.066z"/>
<path style="fill:#94D4FF;" d="M199.419,131.258c-42.76,24.686-77.753,85.291-77.753,134.668v179.562  c0,49.377,34.993,69.577,77.753,44.883l155.506-89.777c42.76-24.686,77.753-85.287,77.753-134.668V86.368  c0-49.376-34.993-69.573-77.753-44.883L199.419,131.258z"/>
<path style="fill:#69BBFF;" d="M432.678,86.368c0-49.376-34.993-69.573-77.753-44.883l-155.506,89.773  c-42.76,24.686-77.753,85.291-77.753,134.668v179.562c0,49.377,34.993,69.577,77.753,44.883"/>
<path style="fill:#C7EBFF;" d="M164.878,504.116h-0.008c-28.192,0-46.407-23.012-46.407-58.628V265.926  c0-50.523,35.592-112.183,79.344-137.44l155.514-89.781c12.607-7.278,24.769-10.965,36.147-10.965  c28.191,0,46.415,23.016,46.415,58.628V265.93c0,50.527-35.6,112.183-79.352,137.444l-155.514,89.777  C188.411,500.426,176.257,504.116,164.878,504.116z M389.473,34.151c-10.24,0-21.323,3.399-32.937,10.098l-155.518,89.785  c-41.984,24.241-76.146,83.409-76.146,131.891v179.562c0,32.209,15.325,52.216,39.999,52.216h0.008  c10.24,0,21.315-3.399,32.929-10.098l155.514-89.785c41.984-24.237,76.146-83.409,76.146-131.891V86.368  C429.472,54.159,414.147,34.151,389.473,34.151z"/>
<g>
	<path style="fill:#FFFFFF;" d="M238.079,414.52L238.079,414.52c-42.079-0.012-70.345-34.339-70.345-85.437   c0-66.521,46.891-147.736,104.511-181.047c17.573-10.134,34.773-15.285,51.137-15.285c42.094,0,70.368,34.351,70.368,85.465   c0,66.532-46.879,147.724-104.499,181C271.674,409.365,254.459,414.52,238.079,414.52z M323.382,166.748   c-10.173,0-21.981,3.714-34.131,10.732c-47.435,27.42-87.52,96.847-87.52,151.603c0,32.217,13.592,51.436,36.348,51.444   c10.193,0,22.004-3.722,34.166-10.748c47.435-27.392,87.513-96.796,87.513-151.56C359.757,185.991,346.166,166.748,323.382,166.748   z"/>
	<path style="fill:#FFFFFF;" d="M238.079,414.52L238.079,414.52c-42.079-0.012-70.345-34.339-70.345-85.437   c0-66.521,46.891-147.736,104.511-181.047c17.573-10.134,34.773-15.285,51.137-15.285c42.094,0,70.368,34.351,70.368,85.465   c0,66.532-46.879,147.724-104.499,181C271.674,409.365,254.459,414.52,238.079,414.52z M323.382,166.748   c-10.173,0-21.981,3.714-34.131,10.732c-47.435,27.42-87.52,96.847-87.52,151.603c0,32.217,13.592,51.436,36.348,51.444   c10.193,0,22.004-3.722,34.166-10.748c47.435-27.392,87.513-96.796,87.513-151.56C359.757,185.991,346.166,166.748,323.382,166.748   z"/>
	<path style="fill:#FFFFFF;" d="M263.013,403.737L263.013,403.737c-17.479-0.008-29.231-31.768-29.231-79.049   c0-61.546,19.484-136.692,43.425-167.511c7.302-9.377,14.446-14.143,21.252-14.143c17.491,0,29.239,31.779,29.239,79.08   c0,61.55-19.476,136.676-43.425,167.467C276.975,398.967,269.827,403.737,263.013,403.737z M298.463,174.487   c-4.23,0-9.133,3.438-14.19,9.929c-19.704,25.368-36.36,89.608-36.36,140.268c0,29.806,5.652,47.588,15.1,47.596   c4.234,0,9.141-3.446,14.194-9.941c19.712-25.348,36.364-89.561,36.364-140.225C313.575,192.289,307.927,174.487,298.463,174.487z"/>
	<path style="fill:#FFFFFF;" d="M373.16,215.419L181.191,326.251c3.222,6.711,7.274,12.438,12.056,17.101l167.869-96.922   C365.886,236.258,369.942,225.852,373.16,215.419z"/>
</g>
<g>
</g>
<g>
</g>
<g>
</g>
<g>
</g>
<g>
</g>
<g>
</g>
<g>
</g>
<g>
</g>
<g>
</g>
<g>
</g>
<g>
</g>
<g>
</g>
<g>
</g>
<g>
</g>
<g>
</g>
</svg>
