<?xml version="1.0" encoding="iso-8859-1"?>
<!-- Generator: Adobe Illustrator 19.0.0, SVG Export Plug-In . SVG Version: 6.00 Build 0)  -->
<svg xmlns="http://www.w3.org/2000/svg" xmlns:xlink="http://www.w3.org/1999/xlink" version="1.1" id="Capa_1" x="0px" y="0px" viewBox="0 0 504.12 504.12" style="enable-background:new 0 0 504.12 504.12;" xml:space="preserve">
<path style="fill:#1CC464;" d="M410.12,36.318L359.629,7.394c-2.209-1.611-4.577-2.97-7.093-4.064l-0.744-0.421l-0.032,0.063  c-13.584-5.522-31.13-3.529-50.271,7.519l-155.514,89.777c-42.76,24.69-77.745,85.287-77.745,134.668v179.558  c0,24.08,8.361,41.157,21.847,49.538l-0.13,0.232l56.115,31.791l31.555-54.938l123.876-71.511  c42.752-24.69,77.745-85.287,77.745-134.668V90.089L410.12,36.318z"/>
<path style="fill:#15A054;" d="M410.12,36.318l-54.044-12.674c-2.209-1.611-13.245-1.568-15.762-2.666l-4.009-1.607l-7.215-1.339  c-13.584-5.522-8.46-18.593-27.601-7.546l-155.514,89.781c-42.76,24.69-77.745,85.287-77.745,134.668v179.558  c0,24.08,8.361,41.157,21.847,49.538l-0.13,0.232l56.115,31.791l31.555-54.938l123.876-71.511  c42.752-24.69,77.745-85.287,77.745-134.668V90.089L410.12,36.318z"/>
<path style="fill:#07875C;" d="M71.192,209.066c-1.887,8.787-2.962,17.495-2.962,25.868v179.558c0,24.08,8.361,41.157,21.847,49.538  l-0.13,0.232l56.115,31.791l31.555-54.938l123.876-71.511c7.263-4.194,14.285-9.496,20.961-15.537L71.192,209.066z"/>
<path style="fill:#25D625;" d="M199.421,131.262c-42.76,24.69-77.753,85.287-77.753,134.668v179.558  c0,49.38,34.993,69.577,77.753,44.891l155.506-89.781c42.76-24.69,77.753-85.287,77.753-134.668V86.372  c0-49.38-34.993-69.577-77.753-44.891L199.421,131.262z"/>
<path style="fill:#1BBF1B;" d="M432.684,86.372c0-49.38-34.993-69.577-77.753-44.891l-155.51,89.781  c-42.76,24.69-77.753,85.287-77.753,134.668v179.558c0,49.38,34.993,69.577,77.753,44.891"/>
<path style="fill:#2EEF2E;" d="M164.884,504.12h-0.008c-28.192,0-46.407-23.016-46.407-58.632V265.93  c0-50.527,35.592-112.187,79.344-137.44l155.514-89.781c12.607-7.278,24.769-10.965,36.147-10.965  c28.191,0,46.415,23.016,46.415,58.632v179.558c0,50.527-35.6,112.187-79.352,137.44l-155.514,89.781  C188.413,500.43,176.259,504.12,164.884,504.12z M389.475,34.155c-10.24,0-21.323,3.399-32.937,10.098l-155.514,89.781  c-41.984,24.245-76.146,83.413-76.146,131.895v179.558c0,32.209,15.325,52.22,39.999,52.22h0.008  c10.24,0,21.315-3.403,32.929-10.102l155.514-89.777c41.984-24.241,76.146-83.413,76.146-131.895V86.372  C429.474,54.163,414.153,34.155,389.475,34.155z"/>
<path style="opacity:0.3;fill:#129B50;enable-background:new    ;" d="M189.787,438.895c-17.995,0-29.621-14.71-29.621-37.478  V299.722c0-32.417,22.843-71.987,50.924-88.206l125.68-72.562c8.074-4.663,15.852-7.022,23.135-7.022  c17.995,0,29.621,14.71,29.621,37.482v101.695c0,32.414-22.847,71.983-50.924,88.202l-125.684,72.566  C204.852,436.532,197.069,438.895,189.787,438.895C189.791,438.895,189.791,438.895,189.787,438.895z"/>
<path style="fill:#7ACBFC;" d="M191.985,415.926c-19.33-0.004-31.815-15.809-31.815-40.263V266.442  c0-34.824,24.533-77.324,54.693-94.74l134.991-77.938c8.669-5.006,17.03-7.538,24.848-7.538c19.33,0,31.819,15.801,31.819,40.255  v109.225c0,34.82-24.533,77.324-54.697,94.736L216.833,408.38C208.16,413.386,199.803,415.926,191.985,415.926L191.985,415.926z"/>
<path style="fill:#264B82;" d="M191.985,415.926L191.985,415.926c7.818,0,16.175-2.54,24.848-7.546l134.991-77.938  c30.161-17.412,54.697-59.916,54.697-94.736v-62.389l-48.782-23.658L260.951,299.32l-44.347-28.223l-56.438,95.137v9.433  C160.166,400.117,172.651,415.922,191.985,415.926z"/>
<path style="fill:#153863;" d="M191.985,415.926L191.985,415.926c7.818,0,16.175-2.54,24.848-7.546l134.991-77.938  c30.161-17.412,54.697-59.916,54.697-94.736v-62.389l-48.782-23.658l-58.585,175.754l-82.546-54.319l-27.569,110.931l-28.869-6.361  C160.166,400.117,172.651,415.922,191.985,415.926z"/>
<path style="opacity:0.3;fill:#53BEF4;enable-background:new    ;" d="M406.517,126.481c0-24.454-12.489-40.255-31.819-40.255  c-7.814,0-16.175,2.536-24.848,7.538l-134.991,77.938c-30.157,17.416-54.693,59.916-54.693,94.74v109.221  c0,24.454,12.485,40.259,31.815,40.263l0,0c7.818,0,16.175-2.54,24.848-7.546l44.898-25.919l144.79-250.774V126.481z"/>
<path style="fill:#1BBF1B;" d="M374.698,88.191c17.652,0,29.85,14.06,29.85,38.29v109.225c0,34.107-24.174,75.973-53.713,93.03  l-134.991,77.938c-8.558,4.943-16.66,7.282-23.863,7.282c-17.648,0-29.846-14.06-29.846-38.294V266.442  c0-34.111,24.17-75.973,53.709-93.03l134.991-77.938C359.397,90.531,367.498,88.191,374.698,88.191 M374.698,84.253  c-8.168,0-16.857,2.627-25.832,7.806l-134.991,77.942c-30.7,17.731-55.678,60.991-55.678,96.441v109.221  c0,25.655,13.261,42.232,33.784,42.232c8.168,0,16.861-2.631,25.832-7.806l134.991-77.938  c30.704-17.731,55.682-60.991,55.682-96.441V126.481C408.486,100.83,395.225,84.253,374.698,84.253L374.698,84.253z"/>
<path style="fill:#F7CA0F;" d="M239.175,220.622c0-21.457,15.195-47.781,33.776-58.502c18.586-10.736,33.784-1.961,33.776,19.499  c0.004,21.453-15.191,47.774-33.776,58.502C254.374,250.85,239.175,242.071,239.175,220.622z"/>
<path style="fill:#F9B00D;" d="M272.952,240.121c-18.578,10.728-33.776,1.95-33.776-19.499c0-21.457,15.195-47.781,33.776-58.502"/>
<path style="fill:#FFFFFF;" d="M183.005,278.935c-4.864,0-8.007-3.97-8.007-10.114c0-8.369,5.612-18.464,12.824-23.123  c0.555-9.984,7.483-21.516,15.892-26.372c2.525-1.457,4.962-2.198,7.239-2.198c5.38,0,8.964,4.222,9.267,10.831  c0.469-0.071,0.933-0.098,1.382-0.098c4.868,0,8.015,3.97,8.015,10.106c0,8.692-6.128,19.302-13.659,23.65l-26.719,15.427  C187.07,278.297,184.966,278.935,183.005,278.935L183.005,278.935z"/>
<path style="fill:#D0E2E0;" d="M210.952,217.711c5.092,0,8.621,4.021,8.696,10.945c0.673-0.142,1.327-0.217,1.95-0.217  c4.391,0,7.424,3.501,7.424,9.523c0,8.483-6.006,18.901-13.359,23.142l-26.719,15.427c-2.131,1.229-4.147,1.808-5.939,1.808  c-4.387,0-7.424-3.497-7.424-9.523c0-8.271,5.719-18.361,12.816-22.792c0.41-9.763,7.263-21.378,15.608-26.191  C206.498,218.397,208.861,217.711,210.952,217.711 M210.952,216.538v1.174V216.538c-2.379,0-4.915,0.764-7.53,2.272  c-8.483,4.899-15.486,16.463-16.167,26.553c-7.243,4.832-12.847,15.002-12.847,23.454c0,6.498,3.375,10.701,8.602,10.701  c2.068,0,4.261-0.662,6.522-1.969l26.722-15.423c7.692-4.443,13.946-15.281,13.946-24.162c0-6.495-3.371-10.697-8.602-10.697  c-0.272,0-0.551,0.012-0.831,0.035C220.255,220.716,216.506,216.538,210.952,216.538L210.952,216.538z"/>
<path style="fill:#EDF4F3;" d="M219.649,228.656c-0.102-9.775-7.097-13.757-15.644-8.822c-8.346,4.817-15.199,16.431-15.608,26.191  c-7.097,4.431-12.816,14.525-12.816,22.792c0,8.483,6.014,11.953,13.363,7.715"/>
<path style="fill:#FFFFFF;" d="M321.277,160.411c-2.938,0-4.832-2.391-4.832-6.097c0-5.049,3.383-11.13,7.731-13.942  c0.331-6.018,4.513-12.973,9.586-15.9c1.524-0.878,2.989-1.323,4.36-1.323c3.245,0,5.408,2.544,5.585,6.53  c0.284-0.043,0.567-0.063,0.839-0.063c2.93,0,4.832,2.391,4.832,6.093c0,5.242-3.694,11.638-8.239,14.261l-16.108,9.299  C323.722,160.025,322.458,160.411,321.277,160.411L321.277,160.411z"/>
<path style="fill:#D0E2E0;" d="M338.121,123.503c3.068,0,5.199,2.422,5.246,6.601c0.406-0.087,0.8-0.13,1.178-0.13  c2.647,0,4.474,2.107,4.474,5.738c0,5.116-3.627,11.394-8.058,13.954l-16.108,9.299c-1.284,0.74-2.501,1.091-3.576,1.091  c-2.647,0-4.478-2.107-4.478-5.742c0-4.99,3.446-11.071,7.723-13.741c0.244-5.884,4.38-12.887,9.417-15.793  C335.435,123.909,336.861,123.503,338.121,123.503 M338.121,122.794v0.709V122.794c-1.434-0.004-2.962,0.457-4.537,1.371  c-5.116,2.954-9.338,9.925-9.748,16.006c-4.368,2.914-7.747,9.047-7.747,14.143c0,3.919,2.032,6.451,5.183,6.451  c1.245,0,2.568-0.402,3.931-1.185l16.108-9.299c4.639-2.678,8.416-9.216,8.416-14.568c0-3.915-2.04-6.447-5.183-6.447  c-0.169,0-0.335,0.004-0.508,0.02C343.73,125.311,341.469,122.794,338.121,122.794L338.121,122.794z"/>
<path style="fill:#EDF4F3;" d="M343.367,130.104c-0.067-5.896-4.281-8.298-9.433-5.325c-5.033,2.903-9.169,9.909-9.417,15.793  c-4.277,2.674-7.723,8.755-7.723,13.741c0,5.116,3.623,7.207,8.054,4.651"/>
<g>
</g>
<g>
</g>
<g>
</g>
<g>
</g>
<g>
</g>
<g>
</g>
<g>
</g>
<g>
</g>
<g>
</g>
<g>
</g>
<g>
</g>
<g>
</g>
<g>
</g>
<g>
</g>
<g>
</g>
</svg>
