<?xml version="1.0" encoding="iso-8859-1"?>
<!-- Generator: Adobe Illustrator 19.0.0, SVG Export Plug-In . SVG Version: 6.00 Build 0)  -->
<svg xmlns="http://www.w3.org/2000/svg" xmlns:xlink="http://www.w3.org/1999/xlink" version="1.1" id="Capa_1" x="0px" y="0px" viewBox="0 0 504.123 504.123" style="enable-background:new 0 0 504.123 504.123;" xml:space="preserve">
<path style="fill:#0D605E;" d="M408.161,35.51L358.796,7.232c-2.158-1.571-4.474-2.903-6.932-3.978l-0.733-0.414L351.1,2.904  c-13.281-5.4-30.44-3.446-49.148,7.353L149.908,98.029c-41.807,24.139-76.004,83.385-76.004,131.663V430.27  c0,23.544,8.176,40.239,21.358,48.431l-0.126,0.228l54.863,6.053l30.85-53.713l121.112-69.916  c41.799-24.139,76.008-83.385,76.008-131.663V88.081L408.161,35.51z"/>
<path style="fill:#075656;" d="M408.161,35.51l-52.838-12.394c-2.158-1.571-12.95-1.532-15.411-2.607l-3.915-1.564l-7.054-1.312  c-13.284-5.4-8.279-18.176-26.986-7.377L149.908,98.029c-41.807,24.139-76.004,83.385-76.004,131.663V430.27  c0,23.544,8.176,40.239,21.358,48.431l-0.126,0.228l54.863,6.053l30.85-53.713l121.112-69.916  c41.799-24.139,76.008-83.385,76.008-131.663V88.081L408.161,35.51z"/>
<path style="fill:#054149;" d="M76.794,204.399c-1.839,8.598-2.891,17.105-2.891,25.293V430.27c0,23.544,8.176,40.239,21.358,48.431  l-0.126,0.228l40.405,22.678l45.308-70.333l121.112-69.916c7.101-4.104,13.966-9.279,20.492-15.191L76.794,204.399z"/>
<path style="fill:#052A2D;" d="M202.163,128.328c-41.807,24.139-76.016,83.389-76.016,131.667v214.059  c0,48.274,34.209,29.515,76.016,5.38l152.04-87.776c41.807-24.135,76.016-44.883,76.016-93.156V84.446  c0-48.278-34.209-68.021-76.016-43.89L202.163,128.328z"/>
<g>
	<path style="opacity:0.1;fill:#383E3F;enable-background:new    ;" d="M357.028,390.011c12.784-7.4,24.773-14.572,35.21-22.37   v-24.084h-35.21V390.011z"/>
	<path style="opacity:0.1;fill:#383E3F;enable-background:new    ;" d="M354.204,50.146l-152.04,87.776   c-41.807,24.135-76.016,83.385-76.016,131.663v175.549l304.069-175.549V94.036C430.216,45.758,396.01,26.011,354.204,50.146z"/>
</g>
<path style="fill:#0A7A7F;" d="M354.204,40.556l-152.04,87.773c-41.807,24.139-76.016,83.389-76.016,131.667v175.549  l304.069-175.549V84.442C430.216,36.168,396.01,16.421,354.204,40.556z"/>
<path style="opacity:0.1;fill:#383E3F;enable-background:new    ;" d="M128.077,490.403c6.806,23.367,31.098,13.225,61.349-3.702  L430.22,84.446c0-48.278-34.209-68.021-76.016-43.89l-152.04,87.773c-41.807,24.139-76.016,83.389-76.016,131.667v175.549v5.498  C126.147,457.465,126.265,475.188,128.077,490.403z"/>
<path style="fill:#B3BCBC;" d="M399.996,305.85l-31.701,54.898l-4.624-2.67c-0.039-0.02-0.071-0.035,0.866,0.508l-0.488-0.287  l-0.945-0.595c-3.757-2.469-6.077-7.329-6.073-14.147c-0.004-14.253,10.09-31.744,22.441-38.869  c5.892-3.403,11.268-3.828,15.277-1.804l1.012,0.52L399.996,305.85z"/>
<path style="fill:#C7D1D1;" d="M357.028,343.557c-0.004-14.253,10.09-31.744,22.441-38.869c5.892-3.403,11.268-3.828,15.277-1.804  l1.012,0.52l4.234,2.446l-27.069,46.883L357.028,343.557z"/>
<path style="fill:#EDF3F4;" d="M362.309,346.617c0-14.257,10.106-31.744,22.445-38.873c12.355-7.133,22.445-1.3,22.441,12.958  c0.004,14.249-10.094,31.744-22.441,38.873C372.419,366.703,362.309,360.867,362.309,346.617z"/>
<path style="fill:#FFFFFF;" d="M407.2,320.702c0.004,14.249-10.094,31.744-22.441,38.873c-12.339,7.133-22.445,1.292-22.445-12.958"/>
<g>
	<path style="fill:#D2FFED;" d="M341.305,124.799c-16.191-9.393-36.911-7.771-58.368,4.604   c-39.55,22.843-71.83,78.08-72.956,124.199c-0.5,0.859-1.182,1.611-1.942,2.052l-16.782,9.696c-1.548,0.882-1.548,2.332,0,3.222   l27.963,16.156c1.548,0.878,3.525,0.35,4.419-1.193L253.966,231c0.894-1.54,0.358-2.068-1.178-1.185l-16.77,9.637   c-1.516,0.87-2.741,0.161-2.781-1.556c6.825-35.131,31.681-73.393,60.384-89.978c14.533-8.381,27.668-10.008,36.943-4.632   c9.299,5.4,14.383,17.64,14.316,34.458c-0.177,38.999-28.727,88.529-62.342,108.15c-10.295,6.014-20.051,8.609-28.239,7.562   c-5.856-0.8-11.213,3.371-11.981,9.224c-0.768,5.857,3.363,11.225,9.224,11.989c2.08,0.268,4.198,0.406,6.353,0.406   c11.221,0,23.331-3.647,35.426-10.713c40.007-23.351,72.732-80.104,72.944-126.527C366.37,153.038,357.508,134.2,341.305,124.799z"/>
	<path style="fill:#D2FFED;" d="M317.328,242.819c-0.792,0-1.591-0.201-2.328-0.622l-22.745-13.139v-58.616   c0-2.576,2.083-4.663,4.659-4.663c2.576,0,4.667,2.083,4.667,4.663v53.236l18.085,10.441c2.229,1.288,2.993,4.143,1.709,6.368   C320.506,241.98,318.939,242.819,317.328,242.819z"/>
</g>
<g>
	<path style="fill:#FFFFFF;" d="M251.54,314.668c2.083,0.268,4.202,0.406,6.357,0.406c11.221,0,23.331-3.647,35.426-10.713   c40.007-23.351,72.732-80.104,72.944-126.527c0.091-22.378-7.136-39.869-20.445-49.987c-0.744-0.496-1.497-0.992-2.273-1.441   c-16.195-9.397-36.915-7.775-58.372,4.6c-39.55,22.843-71.83,78.084-72.952,124.199c-0.504,0.863-1.185,1.615-1.946,2.052   l-16.782,9.693c-1.126,0.646-1.406,1.587-0.894,2.399l26.616,15.372c1.548,0.878,3.525,0.35,4.419-1.193l29.436-50.987   l-14.816,8.507c-1.469,0.847-2.655,0.185-2.753-1.426c-1.26,0.437-2.229-0.221-2.265-1.725   c6.825-35.131,31.681-73.393,60.384-89.978c14.533-8.381,27.668-10.008,36.943-4.632c1.178,0.685,2.28,1.481,3.32,2.379   c8.586,5.715,13.3,17.562,13.233,33.686c-0.173,38.999-28.727,88.529-62.342,108.146c-10.295,6.018-20.051,8.617-28.239,7.57   c-5.853-0.803-11.213,3.367-11.981,9.22c-0.465,3.549,0.886,6.896,3.308,9.173C248.984,314.058,250.209,314.499,251.54,314.668z"/>
	<path style="fill:#FFFFFF;" d="M315,242.197c0.736,0.421,1.536,0.622,2.328,0.622c1.611,0,3.178-0.839,4.041-2.332   c1.02-1.768,0.733-3.923-0.54-5.376l-17.014-9.83v-0.311l-2.237-1.292v-53.236c0-1.056-0.366-2.016-0.957-2.8   c-0.465-0.154-0.949-0.256-1.465-0.256c-2.576,0-4.663,2.087-4.663,4.663v58.309L315,242.197z"/>
</g>
<g>
</g>
<g>
</g>
<g>
</g>
<g>
</g>
<g>
</g>
<g>
</g>
<g>
</g>
<g>
</g>
<g>
</g>
<g>
</g>
<g>
</g>
<g>
</g>
<g>
</g>
<g>
</g>
<g>
</g>
</svg>
