<?xml version="1.0" encoding="iso-8859-1"?>
<!-- Generator: Adobe Illustrator 19.0.0, SVG Export Plug-In . SVG Version: 6.00 Build 0)  -->
<svg xmlns="http://www.w3.org/2000/svg" xmlns:xlink="http://www.w3.org/1999/xlink" version="1.1" id="Capa_1" x="0px" y="0px" viewBox="0 0 504.119 504.119" style="enable-background:new 0 0 504.119 504.119;" xml:space="preserve">
<path style="fill:#0ABCB7;" d="M410.124,36.32L359.633,7.396c-2.209-1.607-4.577-2.97-7.093-4.064l-0.744-0.425l-0.032,0.063  c-13.584-5.522-31.13-3.525-50.271,7.522l-155.518,89.777c-42.76,24.69-77.745,85.287-77.745,134.668v179.558  c0,24.08,8.361,41.157,21.847,49.538l-0.13,0.232l56.115,31.791l31.555-54.938l123.876-71.511  c42.752-24.69,77.745-85.287,77.745-134.668V90.092L410.124,36.32z"/>
<path style="fill:#08A5A5;" d="M410.124,36.32l-54.047-12.674c-2.209-1.611-13.245-1.568-15.762-2.666l-4.005-1.607l-7.215-1.339  c-13.584-5.522-8.46-18.593-27.601-7.546l-155.518,89.781c-42.76,24.69-77.745,85.287-77.745,134.668v179.558  c0,24.08,8.361,41.157,21.847,49.538l-0.13,0.232l56.115,31.791l31.555-54.938l123.876-71.511  c42.752-24.69,77.745-85.287,77.745-134.668V90.092L410.124,36.32z"/>
<path style="fill:#088187;" d="M71.192,209.069c-1.887,8.787-2.962,17.495-2.962,25.868v179.558c0,24.08,8.361,41.157,21.847,49.538  l-0.13,0.232l56.115,31.791l31.555-54.938l123.876-71.511c7.263-4.194,14.285-9.496,20.961-15.537L71.192,209.069z"/>
<path style="fill:#22D197;" d="M199.424,131.261c-42.76,24.69-77.753,85.287-77.753,134.668v179.558  c0,49.38,34.993,69.577,77.753,44.891l155.506-89.781c42.76-24.69,77.753-85.287,77.753-134.668V86.374  c0-49.38-34.993-69.577-77.753-44.891L199.424,131.261z"/>
<path style="fill:#16B282;" d="M432.683,86.374c0-49.38-34.993-69.577-77.753-44.891l-155.506,89.777  c-42.76,24.69-77.753,85.287-77.753,134.668v179.558c0,49.38,34.993,69.577,77.753,44.891"/>
<path style="fill:#3DFCB7;" d="M164.884,504.119h-0.008c-28.192,0-46.407-23.016-46.407-58.632V265.929  c0-50.527,35.592-112.187,79.344-137.44l155.514-89.781c12.607-7.278,24.769-10.965,36.147-10.965  c28.191,0,46.415,23.016,46.415,58.632v179.558c0,50.527-35.6,112.187-79.352,137.44l-155.514,89.781  C188.416,500.429,176.262,504.119,164.884,504.119z M389.478,34.158c-10.24,0-21.323,3.399-32.937,10.098l-155.518,89.777  c-41.984,24.245-76.146,83.413-76.146,131.895v179.558c0,32.209,15.325,52.22,39.999,52.22h0.008  c10.24,0,21.315-3.403,32.929-10.102l155.514-89.777c41.984-24.241,76.146-83.413,76.146-131.895V86.374  C429.477,54.166,414.153,34.158,389.478,34.158z"/>
<g>
	<path style="fill:#D2FFED;" d="M357.982,157.865c-18.995-11.016-43.299-9.114-68.47,5.4   c-46.395,26.793-84.259,91.593-85.579,145.688c-0.587,1.008-1.39,1.89-2.28,2.402l-19.684,11.378c-1.812,1.032-1.812,2.729,0,3.777   l32.799,18.948c1.812,1.032,4.131,0.414,5.183-1.394l35.572-61.629c1.048-1.8,0.417-2.422-1.382-1.386l-19.673,11.303   c-1.772,1.02-3.214,0.193-3.261-1.82c8.011-41.208,37.167-86.091,70.833-105.547c17.05-9.83,32.453-11.737,43.331-5.431   c10.913,6.337,16.872,20.693,16.794,40.42c-0.205,45.749-33.697,103.841-73.125,126.858c-12.075,7.058-23.52,10.098-33.122,8.877   c-6.869-0.945-13.154,3.954-14.052,10.815c-0.902,6.869,3.946,13.162,10.819,14.06c2.442,0.315,4.927,0.477,7.459,0.477   c13.158,0,27.364-4.285,41.555-12.568c46.931-27.392,85.315-93.96,85.563-148.417C387.379,190.996,376.986,168.897,357.982,157.865   z"/>
	<path style="fill:#D2FFED;" d="M329.854,296.306c-0.93,0-1.871-0.236-2.725-0.733l-26.683-15.411v-68.754   c0-3.021,2.446-5.467,5.467-5.467c3.025,0,5.471,2.446,5.471,5.467v62.444l21.216,12.249c2.615,1.512,3.513,4.856,2.005,7.467   C333.58,295.325,331.741,296.306,329.854,296.306z"/>
</g>
<g>
	<path style="fill:#FFFFFF;" d="M252.684,380.589c2.442,0.315,4.927,0.477,7.459,0.477c13.158,0,27.364-4.285,41.555-12.568   c46.931-27.392,85.315-93.96,85.563-148.417c0.11-26.246-8.369-46.769-23.981-58.64c-0.878-0.579-1.753-1.162-2.67-1.694   c-18.995-11.02-43.299-9.114-68.47,5.396c-46.391,26.797-84.259,91.597-85.579,145.688c-0.587,1.008-1.39,1.89-2.28,2.406   l-19.684,11.374c-1.323,0.752-1.654,1.859-1.048,2.812l31.22,18.03c1.812,1.032,4.131,0.414,5.183-1.394l34.525-59.817   l-17.376,9.984c-1.725,0.992-3.111,0.217-3.23-1.678c-1.477,0.516-2.615-0.252-2.658-2.024   c8.011-41.208,37.167-86.091,70.833-105.547c17.05-9.83,32.453-11.737,43.331-5.431c1.382,0.803,2.678,1.737,3.895,2.788   c10.071,6.703,15.6,20.594,15.521,39.511c-0.205,45.749-33.697,103.841-73.125,126.858c-12.075,7.058-23.52,10.102-33.122,8.877   c-6.869-0.941-13.154,3.954-14.052,10.815c-0.547,4.163,1.04,8.09,3.879,10.756C249.683,379.868,251.124,380.38,252.684,380.589z"/>
	<path style="fill:#FFFFFF;" d="M327.129,295.578c0.859,0.496,1.796,0.733,2.725,0.733c1.887,0,3.726-0.981,4.742-2.733   c1.197-2.076,0.859-4.6-0.634-6.313l-19.956-11.528v-0.362l-2.627-1.52v-62.444c0-1.233-0.425-2.367-1.118-3.281   c-0.547-0.181-1.115-0.303-1.725-0.303c-3.021,0-5.467,2.45-5.467,5.467v68.395L327.129,295.578z"/>
</g>
<g>
</g>
<g>
</g>
<g>
</g>
<g>
</g>
<g>
</g>
<g>
</g>
<g>
</g>
<g>
</g>
<g>
</g>
<g>
</g>
<g>
</g>
<g>
</g>
<g>
</g>
<g>
</g>
<g>
</g>
</svg>
