<?xml version="1.0" encoding="iso-8859-1"?>
<!-- Generator: Adobe Illustrator 19.0.0, SVG Export Plug-In . SVG Version: 6.00 Build 0)  -->
<svg xmlns="http://www.w3.org/2000/svg" xmlns:xlink="http://www.w3.org/1999/xlink" version="1.1" id="Capa_1" x="0px" y="0px" viewBox="0 0 504.117 504.117" style="enable-background:new 0 0 504.117 504.117;" xml:space="preserve">
<path style="fill:#29537C;" d="M410.121,36.319L359.63,7.395c-2.209-1.607-4.577-2.97-7.089-4.064l-0.748-0.425l-0.032,0.063  c-13.584-5.518-31.13-3.525-50.271,7.522l-155.518,89.777c-42.756,24.69-77.745,85.287-77.745,134.668v179.558  c0,24.08,8.365,41.157,21.847,49.538l-0.13,0.232l56.115,31.791l31.555-54.938l123.876-71.511  c42.756-24.69,77.745-85.287,77.745-134.668V90.09L410.121,36.319z"/>
<path style="fill:#1D3F68;" d="M410.121,36.319l-54.044-12.674c-2.213-1.611-13.249-1.571-15.766-2.666l-4.005-1.607l-7.215-1.339  c-13.58-5.522-8.46-18.593-27.601-7.546l-155.518,89.781c-42.756,24.69-77.745,85.287-77.745,134.668v179.558  c0,24.08,8.365,41.157,21.847,49.538l-0.13,0.232l56.115,31.791l31.555-54.938l123.876-71.511  c42.756-24.69,77.745-85.287,77.745-134.668V90.09L410.121,36.319z"/>
<path style="fill:#15335E;" d="M71.189,209.064c-1.887,8.791-2.962,17.499-2.962,25.872v179.558c0,24.08,8.365,41.157,21.847,49.538  l-0.13,0.232l56.115,31.791l31.555-54.938l123.876-71.511c7.263-4.194,14.285-9.496,20.96-15.537L71.189,209.064z"/>
<path style="fill:#59A8EF;" d="M68.227,246.786v21.323v140.595c0,24.08,8.365,41.157,21.847,49.534l-0.13,0.236l56.115,31.795  l31.555-54.942l114.066-65.851L68.227,246.786z"/>
<path style="fill:#3491D6;" d="M68.227,252.58v21.319v140.595c0,24.08,8.365,41.157,21.847,49.538l-0.13,0.232l56.115,31.791  l31.555-54.938l114.066-65.847L68.227,252.58z"/>
<path style="fill:#053A70;" d="M199.421,131.259c-42.76,24.69-77.749,85.287-77.749,134.668v179.558  c0,49.38,34.989,69.577,77.749,44.891l155.51-89.781c42.756-24.69,77.749-85.287,77.749-134.668V86.373  c0-49.38-34.993-69.577-77.749-44.891L199.421,131.259z"/>
<path style="fill:#082649;" d="M432.68,86.373c0-49.38-34.993-69.577-77.749-44.891l-155.51,89.777  c-42.76,24.69-77.749,85.287-77.749,134.668v179.558c0,49.38,34.989,69.577,77.749,44.891"/>
<path style="fill:#15335E;" d="M164.881,504.117h-0.008c-28.192,0-46.407-23.016-46.407-58.632V265.927  c0-50.527,35.592-112.187,79.348-137.44l155.51-89.781c12.607-7.278,24.769-10.965,36.147-10.965  c28.191,0,46.415,23.016,46.415,58.632v179.558c0,50.527-35.6,112.187-79.352,137.44l-155.51,89.781  C188.417,500.427,176.259,504.117,164.881,504.117z M389.476,34.156c-10.24,0-21.323,3.399-32.937,10.098l-155.514,89.777  c-41.984,24.245-76.146,83.413-76.146,131.895v179.558c0,32.209,15.325,52.22,39.995,52.22h0.008  c10.24,0,21.319-3.403,32.933-10.102l155.51-89.777c41.984-24.241,76.146-83.413,76.146-131.895V86.373  C429.475,54.164,414.15,34.156,389.476,34.156z"/>
<path style="fill:#7BC7FF;" d="M222.603,178.694c-0.055-7.231-5.222-10.185-11.5-6.577l-68.368,39.479  c-6.27,3.608-11.402,12.509-11.402,19.744v39.471l91.553-52.87L222.603,178.694z"/>
<g>
	<path style="fill:#59A8EF;" d="M222.603,182.562c-0.055-7.231-5.222-10.185-11.5-6.573l-68.368,39.475   c-6.27,3.612-11.402,12.509-11.402,19.743v39.471l91.557-52.87L222.603,182.562z"/>
	<path style="fill:#59A8EF;" d="M435.89,91.563c-1.686-3.875-5.786-4.97-10.571-2.202L129.033,260.425   c-4.781,2.769-8.881,8.594-10.567,14.407v170.654c0,35.616,18.215,58.632,46.407,58.632h0.008c11.378,0,23.536-3.69,36.143-10.965   l155.51-89.781c43.752-25.253,79.352-86.914,79.352-137.44V91.563H435.89z"/>
</g>
<path style="fill:#67BBF9;" d="M143.038,498.477c6.313,3.639,13.635,5.64,21.835,5.64h0.008c11.378,0,23.536-3.69,36.143-10.965  l155.51-89.781c43.752-25.253,79.352-86.914,79.352-137.44V91.563c-0.13-0.299-0.299-0.547-0.461-0.815  c-0.138-0.232-0.276-0.469-0.437-0.677c-0.177-0.232-0.37-0.437-0.575-0.63c-0.201-0.193-0.41-0.362-0.634-0.524  c-0.201-0.146-0.402-0.299-0.622-0.414c-0.437-0.232-0.902-0.421-1.398-0.532c-0.15-0.032-0.319-0.028-0.477-0.047  c-0.41-0.063-0.831-0.091-1.276-0.071c-0.213,0.008-0.429,0.043-0.65,0.071c-0.433,0.063-0.886,0.161-1.343,0.291  c-0.209,0.063-0.414,0.114-0.622,0.193c-0.677,0.244-1.363,0.547-2.068,0.953l-6.03,3.486L143.038,498.477z"/>
<path style="fill:#0D6CBA;" d="M321.994,253.867l-64.035,37.033c-17.743,10.189-32.055,35.194-32.055,55.536v43.839  c0,20.307,14.312,28.711,32.055,18.511l64.035-37.025c17.759-10.134,32.063-35.139,32.063-55.454v-43.926  C354.053,252.079,339.752,243.765,321.994,253.867z M299.375,326.028v21.413c0,0.926-0.654,2.06-1.457,2.528l-9.515,5.498  c-0.803,0.461-1.461,0.083-1.461-0.843v-21.417c-2.375-0.776-3.915-3.214-3.915-6.951c0-6.439,4.557-14.336,10.134-17.554  c5.577-3.218,10.134-0.583,10.13,5.853C303.29,318.289,301.75,322.515,299.375,326.028z"/>
<path style="fill:#067DCE;" d="M225.903,390.276c0,20.307,14.312,28.711,32.055,18.511l64.035-37.025  c17.759-10.134,32.063-35.139,32.063-55.454v-43.926c0-20.303-14.304-28.621-32.063-18.515l-20.401,11.796l-75.689,111.139V390.276z   M293.16,308.703c5.577-3.218,10.134-0.583,10.13,5.853c0,3.734-1.54,7.96-3.915,11.473v21.413c0,0.926-0.654,2.06-1.457,2.528  l-9.515,5.498c-0.803,0.461-1.461,0.083-1.461-0.843v-21.417c-2.375-0.776-3.915-3.214-3.915-6.951  C283.023,319.817,287.584,311.92,293.16,308.703z"/>
<path style="fill:#0D6CBA;" d="M377.333,156.446c-6.152-3.584-13.926-3.226-21.327,0.981l-31.224,18.062  c-11.811,6.782-20.74,22.237-20.74,35.938v46.497l20.59-11.906v-34.588c0-6.227,5.065-15.021,10.429-18.101l31.189-18.042  c0.051-0.031,0.102-0.055,0.154-0.087c0,0.059,0,0.122,0,0.189v50.79c0,5.687,4.612,10.291,10.295,10.291  s10.295-4.604,10.295-10.291v-50.798C386.998,166.918,383.473,160.01,377.333,156.446z"/>
<g>
	<polygon style="fill:#067DCE;" points="324.633,246.014 324.633,231.84 308.706,255.226  "/>
	<path style="fill:#067DCE;" d="M386.998,226.176v-50.794c0-8.464-3.525-15.372-9.665-18.94c-0.327-0.193-0.681-0.327-1.016-0.496   l-15.183,22.296l5.12-2.962c0.051-0.031,0.102-0.055,0.154-0.087c0,0.059,0,0.122,0,0.189v50.79   c0,5.687,4.612,10.291,10.295,10.291S386.998,231.863,386.998,226.176z"/>
</g>
<g>
</g>
<g>
</g>
<g>
</g>
<g>
</g>
<g>
</g>
<g>
</g>
<g>
</g>
<g>
</g>
<g>
</g>
<g>
</g>
<g>
</g>
<g>
</g>
<g>
</g>
<g>
</g>
<g>
</g>
</svg>
