<?xml version="1.0" encoding="iso-8859-1"?>
<!-- Generator: Adobe Illustrator 19.0.0, SVG Export Plug-In . SVG Version: 6.00 Build 0)  -->
<svg xmlns="http://www.w3.org/2000/svg" xmlns:xlink="http://www.w3.org/1999/xlink" version="1.1" id="Capa_1" x="0px" y="0px" viewBox="0 0 504.119 504.119" style="enable-background:new 0 0 504.119 504.119;" xml:space="preserve">
<path style="fill:#29537C;" d="M410.12,36.32L359.629,7.396c-2.209-1.607-4.577-2.97-7.089-4.064l-0.748-0.425L351.76,2.97  c-13.584-5.522-31.13-3.525-50.271,7.522l-155.514,89.777c-42.756,24.69-77.745,85.287-77.745,134.668v179.558  c0,24.08,8.365,41.157,21.847,49.538l-0.13,0.232l56.115,31.791l31.555-54.938l123.876-71.511  c42.756-24.69,77.745-85.287,77.745-134.668V90.092L410.12,36.32z"/>
<path style="fill:#1D3F68;" d="M410.12,36.32l-54.04-12.674c-2.213-1.611-13.249-1.571-15.766-2.666l-4.009-1.607l-7.215-1.339  c-13.58-5.522-8.46-18.593-27.601-7.546l-155.514,89.781c-42.756,24.69-77.745,85.287-77.745,134.668v179.558  c0,24.08,8.365,41.157,21.847,49.538l-0.13,0.232l56.115,31.791l31.555-54.938l123.876-71.511  c42.756-24.69,77.745-85.287,77.745-134.668V90.092L410.12,36.32z"/>
<path style="fill:#15335E;" d="M71.192,209.065c-1.887,8.791-2.962,17.499-2.962,25.872v179.558c0,24.08,8.365,41.157,21.847,49.538  l-0.13,0.232l56.115,31.791l31.555-54.938l123.876-71.511c7.263-4.194,14.285-9.496,20.961-15.537L71.192,209.065z"/>
<path style="fill:#59A8EF;" d="M68.23,246.788v21.323v140.595c0,24.08,8.365,41.157,21.847,49.534l-0.13,0.236l56.115,31.795  l31.555-54.942l114.066-65.851L68.23,246.788z"/>
<path style="fill:#3491D6;" d="M68.23,252.581V273.9v140.595c0,24.08,8.365,41.157,21.847,49.538l-0.13,0.232l56.115,31.791  l31.555-54.938l114.062-65.847L68.23,252.581z"/>
<path style="fill:#053A70;" d="M199.42,131.261c-42.76,24.69-77.749,85.287-77.749,134.668v179.558  c0,49.38,34.989,69.577,77.749,44.891l155.51-89.781c42.756-24.69,77.749-85.287,77.749-134.668V86.374  c0-49.38-34.993-69.577-77.749-44.891L199.42,131.261z"/>
<path style="fill:#082649;" d="M432.683,86.374c0-49.38-34.993-69.577-77.749-44.891L199.42,131.261  c-42.76,24.69-77.749,85.287-77.749,134.668v179.558c0,49.38,34.989,69.577,77.749,44.891"/>
<path style="fill:#15335E;" d="M164.884,504.119h-0.008c-28.192,0-46.407-23.016-46.407-58.632V265.929  c0-50.527,35.592-112.187,79.348-137.44l155.51-89.781c12.607-7.278,24.769-10.965,36.147-10.965  c28.191,0,46.415,23.016,46.415,58.632v179.558c0,50.527-35.6,112.187-79.352,137.44l-155.51,89.781  C188.416,500.429,176.258,504.119,164.884,504.119z M389.474,34.158c-10.24,0-21.323,3.399-32.937,10.098l-155.514,89.777  c-41.984,24.245-76.146,83.413-76.146,131.895v179.558c0,32.209,15.325,52.22,39.995,52.22h0.008  c10.24,0,21.319-3.403,32.933-10.102l155.51-89.777c41.984-24.241,76.146-83.413,76.146-131.895V86.374  C429.473,54.166,414.153,34.158,389.474,34.158z"/>
<path style="fill:#7BC7FF;" d="M222.606,178.696c-0.055-7.231-5.222-10.185-11.5-6.577l-68.368,39.479  c-6.27,3.608-11.402,12.509-11.402,19.743v39.471l91.553-52.87L222.606,178.696z"/>
<g>
	<path style="fill:#59A8EF;" d="M222.606,182.563c-0.055-7.231-5.222-10.185-11.5-6.573l-68.368,39.475   c-6.27,3.612-11.402,12.509-11.402,19.744v39.471l91.553-52.87L222.606,182.563z"/>
	<path style="fill:#59A8EF;" d="M435.889,91.565c-1.686-3.875-5.786-4.97-10.571-2.202L129.032,260.427   c-4.781,2.769-8.881,8.594-10.567,14.407v170.654c0,35.616,18.215,58.632,46.407,58.632h0.008c11.378,0,23.536-3.69,36.143-10.965   l155.51-89.781c43.752-25.253,79.352-86.914,79.352-137.44V91.565H435.889z"/>
</g>
<path style="fill:#67BBF9;" d="M143.041,498.479c6.313,3.639,13.635,5.64,21.835,5.64h0.008c11.378,0,23.536-3.69,36.143-10.965  l155.51-89.781c43.752-25.253,79.352-86.914,79.352-137.44V91.565c-0.13-0.299-0.299-0.547-0.461-0.815  c-0.138-0.232-0.276-0.469-0.437-0.677c-0.177-0.232-0.37-0.437-0.575-0.63c-0.201-0.193-0.41-0.362-0.634-0.524  c-0.201-0.146-0.402-0.299-0.622-0.414c-0.437-0.232-0.902-0.421-1.398-0.532c-0.15-0.032-0.319-0.028-0.477-0.047  c-0.41-0.063-0.831-0.091-1.276-0.071c-0.213,0.008-0.429,0.043-0.65,0.071c-0.433,0.063-0.886,0.161-1.343,0.291  c-0.209,0.063-0.414,0.114-0.622,0.193c-0.677,0.244-1.363,0.547-2.068,0.953l-6.03,3.486L143.041,498.479z"/>
<path style="fill:#0D6CBA;" d="M231.897,331.185c-2.658,0-5.408,0.524-8.235,1.528c5.222-5.923,8.862-14.194,8.862-21.315V285.79  v-0.26l0,0c0-9.917-7.026-13.954-15.608-8.995l-14.478,8.35c-8.578,4.951-15.592,17.113-15.592,27.022l0,0v0.252v25.608  c0,6.672,3.19,10.685,7.904,11.075c-0.406,0.256-0.831,0.54-1.268,0.835l0,0c-0.016,0.008-0.024,0.016-0.043,0.031  c-0.839,0.571-1.662,1.189-2.473,1.827c-0.012,0.012-0.024,0.02-0.035,0.028c-14.139,11.075-24.395,31.165-24.395,47.766v27.943  c0,0.961,0.508,1.847,1.347,2.339c0.414,0.24,0.89,0.358,1.347,0.358c0.477,0,0.937-0.118,1.355-0.358l78.387-45.261  c0.835-0.477,1.347-1.371,1.347-2.339v-27.947C250.317,340.165,243.09,331.185,231.897,331.185z"/>
<path style="fill:#067DCE;" d="M232.527,303.112l-65.989,96.894v27.262c0,0.961,0.508,1.847,1.347,2.339  c0.414,0.24,0.89,0.358,1.347,0.358c0.477,0,0.937-0.118,1.355-0.358l78.387-45.261c0.835-0.477,1.347-1.371,1.347-2.339v-27.943  c0-13.899-7.227-22.882-18.42-22.882c-2.658,0-5.408,0.524-8.235,1.528c5.222-5.923,8.862-14.194,8.862-21.315L232.527,303.112  L232.527,303.112z"/>
<path style="fill:#0D6CBA;" d="M371.365,250.959c-2.662,0-5.408,0.524-8.235,1.528c5.218-5.927,8.862-14.194,8.862-21.311V205.56  v-0.256l0,0c0-9.913-7.026-13.95-15.612-8.995l-14.474,8.346c-8.578,4.955-15.596,17.117-15.596,27.022l0,0v0.252v25.616  c0,6.668,3.194,10.681,7.908,11.071c-0.41,0.26-0.835,0.54-1.272,0.839l0,0c-0.012,0.004-0.02,0.016-0.043,0.031  c-0.835,0.571-1.658,1.185-2.469,1.824c-0.012,0.012-0.024,0.024-0.039,0.032c-14.135,11.071-24.391,31.161-24.391,47.762v27.939  c0,0.965,0.508,1.855,1.347,2.343c0.414,0.24,0.886,0.358,1.347,0.358c0.473,0,0.937-0.118,1.351-0.358l78.391-45.257  c0.835-0.48,1.347-1.375,1.347-2.339v-27.951C389.786,259.942,382.559,250.959,371.365,250.959z"/>
<g>
	<path style="fill:#067DCE;" d="M371.996,222.885l-65.989,96.886v27.262c0,0.965,0.508,1.855,1.347,2.343   c0.414,0.24,0.886,0.358,1.347,0.358c0.473,0,0.937-0.118,1.351-0.358l78.391-45.257c0.835-0.48,1.347-1.375,1.347-2.339v-27.943   c0-13.895-7.227-22.882-18.42-22.882c-2.662,0-5.408,0.524-8.235,1.528c5.218-5.927,8.862-14.194,8.862-21.311V222.885z"/>
	<path style="fill:#067DCE;" d="M250.12,311.426c-1.91,0-3.769-1.126-4.793-3.139c-1.532-3.005-0.622-6.845,2.024-8.578   l57.427-37.671c2.635-1.733,6.018-0.697,7.542,2.304c1.528,3.001,0.622,6.841-2.024,8.578l-57.423,37.664   C252.01,311.158,251.057,311.426,250.12,311.426z"/>
</g>
<g>
</g>
<g>
</g>
<g>
</g>
<g>
</g>
<g>
</g>
<g>
</g>
<g>
</g>
<g>
</g>
<g>
</g>
<g>
</g>
<g>
</g>
<g>
</g>
<g>
</g>
<g>
</g>
<g>
</g>
</svg>
