<?xml version="1.0" encoding="iso-8859-1"?>
<!-- Generator: Adobe Illustrator 19.0.0, SVG Export Plug-In . SVG Version: 6.00 Build 0)  -->
<svg xmlns="http://www.w3.org/2000/svg" xmlns:xlink="http://www.w3.org/1999/xlink" version="1.1" id="Capa_1" x="0px" y="0px" viewBox="0 0 504.119 504.119" style="enable-background:new 0 0 504.119 504.119;" xml:space="preserve">
<path style="fill:#29537C;" d="M410.126,36.32L359.635,7.396c-2.213-1.607-4.577-2.97-7.093-4.064l-0.748-0.425l-0.032,0.063  c-13.584-5.522-31.13-3.525-50.271,7.522l-155.514,89.777c-42.76,24.69-77.749,85.287-77.749,134.668v179.558  c0,24.08,8.365,41.157,21.851,49.538l-0.13,0.232l56.111,31.791l31.559-54.938l123.872-71.511  c42.756-24.69,77.749-85.287,77.749-134.668V90.092L410.126,36.32z"/>
<path style="fill:#1D3F68;" d="M410.126,36.32l-54.048-12.674c-2.209-1.611-13.249-1.571-15.762-2.666l-4.005-1.607l-7.215-1.339  c-13.584-5.522-8.464-18.593-27.605-7.546l-155.514,89.781c-42.76,24.69-77.749,85.287-77.749,134.668v179.558  c0,24.08,8.365,41.157,21.851,49.538l-0.13,0.232l56.111,31.791l31.559-54.938l123.872-71.511  c42.756-24.69,77.749-85.287,77.749-134.668V90.092L410.126,36.32z"/>
<path style="fill:#15335E;" d="M71.194,209.065c-1.887,8.791-2.966,17.499-2.966,25.872v179.558c0,24.08,8.365,41.157,21.851,49.538  l-0.13,0.232l56.111,31.791l31.559-54.938l123.872-71.511c7.266-4.194,14.285-9.496,20.964-15.537L71.194,209.065z"/>
<path style="fill:#59A8EF;" d="M68.228,246.788v21.323v140.595c0,24.08,8.365,41.157,21.851,49.534l-0.13,0.236l56.111,31.795  l31.559-54.942l114.062-65.851L68.228,246.788z"/>
<path style="fill:#3491D6;" d="M68.228,252.581V273.9v140.595c0,24.08,8.365,41.157,21.851,49.538l-0.13,0.232l56.111,31.791  l31.559-54.938l114.062-65.847L68.228,252.581z"/>
<path style="fill:#053A70;" d="M199.426,131.261c-42.76,24.69-77.753,85.287-77.753,134.668v179.558  c0,49.38,34.993,69.577,77.753,44.891l155.506-89.781c42.76-24.69,77.749-85.287,77.749-134.668V86.374  c0-49.38-34.989-69.577-77.749-44.891L199.426,131.261z"/>
<path style="fill:#082649;" d="M432.681,86.374c0-49.38-34.989-69.577-77.749-44.891l-155.506,89.777  c-42.76,24.69-77.753,85.287-77.753,134.668v179.558c0,49.38,34.993,69.577,77.753,44.891"/>
<path style="fill:#15335E;" d="M164.886,504.119h-0.008c-28.192,0-46.411-23.016-46.411-58.632V265.929  c0-50.527,35.596-112.187,79.348-137.44l155.514-89.781c12.603-7.278,24.769-10.965,36.147-10.965  c28.191,0,46.411,23.016,46.411,58.632v179.558c0,50.527-35.596,112.187-79.352,137.44l-155.51,89.781  C188.418,500.429,176.264,504.119,164.886,504.119z M389.48,34.158c-10.24,0-21.323,3.399-32.941,10.098l-155.514,89.777  c-41.984,24.245-76.146,83.413-76.146,131.895v179.558c0,32.209,15.325,52.22,39.999,52.22h0.008  c10.24,0,21.315-3.403,32.929-10.102l155.514-89.777c41.984-24.241,76.146-83.413,76.146-131.895V86.374  C429.479,54.166,414.151,34.158,389.48,34.158z"/>
<path style="fill:#7BC7FF;" d="M222.604,178.696c-0.051-7.231-5.222-10.185-11.496-6.577l-68.368,39.479  c-6.27,3.608-11.402,12.509-11.402,19.743v39.471l91.553-52.87L222.604,178.696z"/>
<g>
	<path style="fill:#59A8EF;" d="M222.604,182.563c-0.051-7.231-5.222-10.185-11.496-6.573l-68.368,39.475   c-6.27,3.612-11.402,12.509-11.402,19.744v39.471l91.557-52.87L222.604,182.563z"/>
	<path style="fill:#59A8EF;" d="M435.891,91.565c-1.686-3.875-5.786-4.97-10.567-2.202l-296.29,171.063   c-4.781,2.769-8.881,8.594-10.567,14.407v170.654c0,35.616,18.219,58.632,46.411,58.632h0.008c11.378,0,23.532-3.69,36.139-10.965   l155.51-89.781c43.756-25.253,79.352-86.914,79.352-137.44V91.565H435.891z"/>
</g>
<path style="fill:#67BBF9;" d="M143.039,498.479c6.313,3.639,13.639,5.64,21.839,5.64h0.008c11.378,0,23.532-3.69,36.139-10.965  l155.51-89.781c43.756-25.253,79.352-86.914,79.352-137.44V91.565c-0.13-0.299-0.299-0.547-0.457-0.815  c-0.138-0.232-0.276-0.469-0.437-0.677c-0.177-0.232-0.374-0.437-0.575-0.63s-0.41-0.362-0.63-0.524  c-0.205-0.146-0.402-0.299-0.622-0.414c-0.437-0.232-0.902-0.421-1.398-0.532c-0.154-0.032-0.323-0.028-0.477-0.047  c-0.414-0.063-0.835-0.091-1.276-0.071c-0.217,0.008-0.429,0.043-0.654,0.071c-0.433,0.063-0.886,0.161-1.343,0.291  c-0.209,0.063-0.41,0.114-0.622,0.193c-0.673,0.244-1.359,0.547-2.064,0.953l-6.034,3.486L143.039,498.479z"/>
<path style="fill:#0D6CBA;" d="M383.679,258.765c-3.363-5.805-10.784-7.806-16.593-4.443l-13.304,7.684  c-1.004-6.554-2.918-12.229-5.589-16.983l13.631-23.607c3.348-5.809,1.363-13.229-4.447-16.589  c-5.829-3.356-13.237-1.367-16.589,4.447l-11.681,20.24c-3.005-0.859-6.183-1.339-9.555-1.339c-4.962,0-10.299,0.973-15.884,2.93  v-23.682c0-6.703-5.435-12.142-12.146-12.142c-6.699,0-12.138,5.439-12.138,12.142v37.703c-8.613,6.936-16.601,15.541-23.583,25.159  l-23.891-13.792c-5.825-3.356-13.237-1.363-16.589,4.447c-3.352,5.813-1.359,13.237,4.45,16.593l23.328,13.466  c-7.188,14.104-12.071,29.117-13.859,43.485l-27.191,15.703c-5.817,3.363-7.798,10.787-4.447,16.589  c2.249,3.899,6.329,6.073,10.527,6.073c2.056,0,4.151-0.52,6.057-1.623l16.018-9.251c1.701,7.148,4.576,13.099,8.436,17.703  l-13.832,23.962c-3.356,5.813-1.371,13.229,4.447,16.585c1.914,1.107,4.001,1.627,6.057,1.627c4.194,0,8.279-2.174,10.531-6.069  l14.407-24.954c1.067,0.095,2.143,0.165,3.241,0.165c4.962,0,10.299-0.973,15.892-2.93v20.185c0,6.703,5.439,12.142,12.138,12.142  c6.711,0,12.146-5.439,12.146-12.142v-34.209c9.992-8.046,19.137-18.369,26.856-29.885l17.613,10.161  c1.914,1.107,4.001,1.631,6.057,1.631c4.198,0,8.283-2.178,10.531-6.077c3.352-5.809,1.359-13.229-4.443-16.585l-17.853-10.307  c4.927-10.63,8.554-21.646,10.5-32.437l26.301-15.183C385.042,272.002,387.031,264.574,383.679,258.765z M265.761,354.186  c-0.461-1.717-0.906-4.407-0.906-8.168c0-27.12,21.398-64.177,44.883-77.741c2.501-1.43,4.513-2.304,6.061-2.84  c0.571,0.922,1.233,1.796,2.056,2.548c0.197,1.426,0.331,3.127,0.331,5.179c0,27.116-21.398,64.169-44.879,77.729  C269.94,352.843,267.423,353.756,265.761,354.186z"/>
<path style="fill:#067DCE;" d="M379.232,275.357c5.809-3.356,7.794-10.784,4.447-16.593c-3.363-5.805-10.784-7.806-16.593-4.443  l-13.304,7.684c-1.004-6.554-2.918-12.229-5.589-16.983l13.631-23.607c3.348-5.809,1.363-13.229-4.447-16.589  c-5.829-3.356-13.237-1.367-16.589,4.447l-11.681,20.24c-0.819-0.236-1.686-0.366-2.525-0.54l-94.582,138.878  c1.682,4.577,3.899,8.558,6.64,11.827l-13.832,23.962c-3.356,5.813-1.371,13.229,4.447,16.585c1.914,1.107,4.001,1.627,6.057,1.627  c4.194,0,8.279-2.174,10.531-6.069l14.407-24.954c1.067,0.095,2.143,0.165,3.241,0.165c4.962,0,10.299-0.973,15.892-2.93v20.185  c0,6.703,5.439,12.142,12.138,12.142c6.711,0,12.146-5.439,12.146-12.142V374.04c9.992-8.046,19.137-18.369,26.856-29.885  l17.613,10.161c1.914,1.107,4.001,1.631,6.057,1.631c4.198,0,8.283-2.178,10.531-6.077c3.352-5.809,1.359-13.229-4.443-16.585  l-17.853-10.307c4.927-10.63,8.554-21.646,10.5-32.437L379.232,275.357z M273.311,350.897c-3.371,1.946-5.888,2.863-7.55,3.289  c-0.461-1.717-0.906-4.407-0.906-8.168c0-27.12,21.398-64.177,44.883-77.741c2.501-1.43,4.513-2.304,6.061-2.84  c0.571,0.922,1.233,1.796,2.056,2.548c0.197,1.426,0.331,3.127,0.331,5.179C318.19,300.28,296.793,337.333,273.311,350.897z"/>
<g>
</g>
<g>
</g>
<g>
</g>
<g>
</g>
<g>
</g>
<g>
</g>
<g>
</g>
<g>
</g>
<g>
</g>
<g>
</g>
<g>
</g>
<g>
</g>
<g>
</g>
<g>
</g>
<g>
</g>
</svg>
