<?xml version="1.0" encoding="iso-8859-1"?>
<!-- Generator: Adobe Illustrator 19.0.0, SVG Export Plug-In . SVG Version: 6.00 Build 0)  -->
<svg xmlns="http://www.w3.org/2000/svg" xmlns:xlink="http://www.w3.org/1999/xlink" version="1.1" id="Capa_1" x="0px" y="0px" viewBox="0 0 504.119 504.119" style="enable-background:new 0 0 504.119 504.119;" xml:space="preserve">
<path style="fill:#29537C;" d="M410.122,36.32L359.631,7.396c-2.209-1.607-4.576-2.97-7.089-4.064l-0.748-0.425l-0.032,0.063  c-13.584-5.522-31.13-3.525-50.271,7.522l-155.518,89.777c-42.756,24.69-77.745,85.287-77.745,134.668v179.558  c0,24.08,8.365,41.157,21.847,49.538l-0.13,0.232l56.115,31.791l31.555-54.938l123.876-71.511  c42.756-24.69,77.745-85.287,77.745-134.668V90.092L410.122,36.32z"/>
<path style="fill:#1D3F68;" d="M410.122,36.32l-54.044-12.674c-2.213-1.611-13.249-1.571-15.766-2.666l-4.005-1.607l-7.215-1.339  c-13.58-5.522-8.46-18.593-27.601-7.546l-155.518,89.781c-42.756,24.69-77.745,85.287-77.745,134.668v179.558  c0,24.08,8.365,41.157,21.847,49.538l-0.13,0.232l56.115,31.791l31.555-54.938l123.876-71.511  c42.756-24.69,77.745-85.287,77.745-134.668V90.092L410.122,36.32z"/>
<path style="fill:#15335E;" d="M71.19,209.065c-1.887,8.791-2.962,17.499-2.962,25.872v179.558c0,24.08,8.365,41.157,21.847,49.538  l-0.13,0.232l56.115,31.791l31.555-54.938l123.876-71.511c7.263-4.194,14.285-9.496,20.96-15.537L71.19,209.065z"/>
<path style="fill:#59A8EF;" d="M68.228,246.788v21.323v140.595c0,24.08,8.365,41.157,21.847,49.534l-0.13,0.236l56.115,31.795  l31.555-54.942l114.066-65.851L68.228,246.788z"/>
<path style="fill:#3491D6;" d="M68.228,252.581V273.9v140.595c0,24.08,8.365,41.157,21.847,49.538l-0.13,0.232l56.115,31.791  l31.555-54.938l114.066-65.847L68.228,252.581z"/>
<path style="fill:#053A70;" d="M199.422,131.261c-42.76,24.69-77.749,85.287-77.749,134.668v179.558  c0,49.38,34.989,69.577,77.749,44.891l155.51-89.781c42.756-24.69,77.749-85.287,77.749-134.668V86.374  c0-49.38-34.993-69.577-77.749-44.891L199.422,131.261z"/>
<path style="fill:#082649;" d="M432.681,86.374c0-49.38-34.993-69.577-77.749-44.891l-155.51,89.777  c-42.76,24.69-77.749,85.287-77.749,134.668v179.558c0,49.38,34.989,69.577,77.749,44.891"/>
<path style="fill:#15335E;" d="M164.882,504.119h-0.008c-28.192,0-46.407-23.016-46.407-58.632V265.929  c0-50.527,35.592-112.187,79.348-137.44l155.51-89.781c12.607-7.278,24.769-10.965,36.147-10.965  c28.191,0,46.415,23.016,46.415,58.632v179.558c0,50.527-35.6,112.187-79.352,137.44l-155.51,89.781  C188.418,500.429,176.26,504.119,164.882,504.119z M389.476,34.158c-10.24,0-21.323,3.399-32.937,10.098l-155.514,89.777  c-41.984,24.245-76.146,83.413-76.146,131.895v179.558c0,32.209,15.325,52.22,39.995,52.22h0.008  c10.24,0,21.319-3.403,32.933-10.102l155.51-89.777c41.984-24.241,76.146-83.413,76.146-131.895V86.374  C429.475,54.166,414.151,34.158,389.476,34.158z"/>
<path style="fill:#7BC7FF;" d="M222.604,178.696c-0.055-7.231-5.222-10.185-11.5-6.577l-68.368,39.479  c-6.27,3.608-11.402,12.509-11.402,19.743v39.471l91.553-52.87L222.604,178.696z"/>
<g>
	<path style="fill:#59A8EF;" d="M222.604,182.563c-0.055-7.231-5.222-10.185-11.5-6.573l-68.368,39.475   c-6.27,3.612-11.402,12.509-11.402,19.744v39.471l91.557-52.87L222.604,182.563z"/>
	<path style="fill:#59A8EF;" d="M435.891,91.565c-1.686-3.875-5.786-4.97-10.571-2.202L129.034,260.427   c-4.781,2.769-8.881,8.594-10.567,14.407v170.654c0,35.616,18.215,58.632,46.407,58.632h0.008c11.378,0,23.536-3.69,36.143-10.965   l155.51-89.781c43.752-25.253,79.352-86.914,79.352-137.44V91.565H435.891z"/>
</g>
<path style="fill:#67BBF9;" d="M143.039,498.479c6.313,3.639,13.635,5.64,21.835,5.64h0.008c11.378,0,23.536-3.69,36.143-10.965  l155.51-89.781c43.752-25.253,79.352-86.914,79.352-137.44V91.565c-0.13-0.299-0.299-0.547-0.461-0.815  c-0.138-0.232-0.276-0.469-0.437-0.677c-0.177-0.232-0.37-0.437-0.575-0.63c-0.201-0.193-0.41-0.362-0.634-0.524  c-0.201-0.146-0.402-0.299-0.622-0.414c-0.437-0.232-0.902-0.421-1.398-0.532c-0.15-0.032-0.319-0.028-0.477-0.047  c-0.41-0.063-0.831-0.091-1.276-0.071c-0.213,0.008-0.429,0.043-0.65,0.071c-0.433,0.063-0.886,0.161-1.343,0.291  c-0.209,0.063-0.414,0.114-0.622,0.193c-0.677,0.244-1.363,0.547-2.068,0.953l-6.03,3.486L143.039,498.479z"/>
<path style="fill:#0D6CBA;" d="M314.795,205.781c-11.674,0-23.942,3.675-36.478,10.906c-41.106,23.765-74.555,81.695-74.555,129.15  c0,36.45,20.165,60.94,50.18,60.948c11.685,0,23.966-3.678,36.506-10.917c41.106-23.741,74.543-81.66,74.543-129.118  C364.991,230.29,344.826,205.781,314.795,205.781z M340.742,266.748c0,1.185-0.106,2.406-0.161,3.616l-23.19,13.387  c0.295-4.813,0.484-9.582,0.484-14.226c0-16.081-1.918-29.601-5.266-39.396c0.74-0.051,1.469-0.095,2.186-0.095  C331.045,230.034,340.742,243.763,340.742,266.748z M281.858,369.558c-3.608,4.632-7.109,7.093-10.126,7.093  c-6.743-0.008-10.772-12.694-10.772-33.953c0-3.052,0.114-6.191,0.276-9.362l42.728-24.671  C299.357,333.859,291.09,357.687,281.858,369.558z M262.934,315.195c3.935-29.259,13.324-58.852,23.966-72.558  c3.604-4.636,7.105-7.085,10.122-7.085c6.747,0,10.776,12.702,10.776,33.973c0,6.561-0.406,13.442-1.126,20.417L262.934,315.195z   M264.367,259.69c-6.089,18.582-10.587,40.57-12.477,61.881l-23.103,13.34C231.973,309.094,245.801,280.611,264.367,259.69z   M228.326,352.335l22.619-13.056c-0.02,1.138-0.067,2.296-0.067,3.419c0,16.262,1.965,29.917,5.38,39.731  c-0.78,0.059-1.56,0.102-2.316,0.102C239.319,382.523,230.02,371.357,228.326,352.335z M304.217,353.075  c5.104-15.435,9.106-33.284,11.426-51.153l22.343-12.898C332.703,311.674,320.179,335.175,304.217,353.075z"/>
<path style="fill:#067DCE;" d="M340.742,266.748c0,1.185-0.106,2.406-0.161,3.616l-23.19,13.387  c0.295-4.813,0.484-9.582,0.484-14.226c0-9.291-0.658-17.696-1.847-25.053l-8.763,12.867c0.343,3.671,0.532,7.727,0.532,12.19  c0,6.561-0.406,13.442-1.126,20.417l-35.612,20.563l-20.129,29.558c-0.02,0.882-0.051,1.768-0.051,2.635  c0,16.262,1.965,29.917,5.38,39.731c-0.78,0.059-1.56,0.102-2.316,0.102c-10.059-0.004-17.597-5.289-21.878-14.773l-14.813,21.748  c8.806,10.953,21.472,17.27,36.687,17.274c11.685,0,23.966-3.678,36.506-10.917c41.11-23.741,74.547-81.66,74.547-129.118  c0-25.817-10.142-45.584-26.703-54.961l-13.773,20.232C334.822,236.556,340.742,248.82,340.742,266.748z M281.858,369.558  c-3.608,4.632-7.109,7.093-10.126,7.093c-6.743-0.008-10.772-12.694-10.772-33.953c0-3.052,0.114-6.191,0.276-9.362l42.728-24.671  C299.357,333.859,291.09,357.687,281.858,369.558z M304.217,353.075c5.104-15.435,9.106-33.284,11.426-51.153l22.343-12.898  C332.703,311.674,320.179,335.175,304.217,353.075z"/>
<g>
</g>
<g>
</g>
<g>
</g>
<g>
</g>
<g>
</g>
<g>
</g>
<g>
</g>
<g>
</g>
<g>
</g>
<g>
</g>
<g>
</g>
<g>
</g>
<g>
</g>
<g>
</g>
<g>
</g>
</svg>
