<?xml version="1.0" encoding="iso-8859-1"?>
<!-- Generator: Adobe Illustrator 19.0.0, SVG Export Plug-In . SVG Version: 6.00 Build 0)  -->
<svg xmlns="http://www.w3.org/2000/svg" xmlns:xlink="http://www.w3.org/1999/xlink" version="1.1" id="Capa_1" x="0px" y="0px" viewBox="0 0 504.119 504.119" style="enable-background:new 0 0 504.119 504.119;" xml:space="preserve">
<path style="fill:#29537C;" d="M410.12,36.32L359.629,7.396c-2.209-1.607-4.577-2.97-7.089-4.064l-0.748-0.425L351.76,2.97  c-13.584-5.522-31.13-3.525-50.271,7.522l-155.514,89.777c-42.756,24.69-77.745,85.287-77.745,134.668v179.558  c0,24.08,8.365,41.157,21.847,49.538l-0.13,0.232l56.115,31.791l31.555-54.938l123.876-71.511  c42.756-24.69,77.745-85.287,77.745-134.668V90.092L410.12,36.32z"/>
<path style="fill:#1D3F68;" d="M410.12,36.32l-54.04-12.674c-2.213-1.611-13.249-1.571-15.766-2.666l-4.009-1.607l-7.215-1.339  c-13.58-5.522-8.46-18.593-27.601-7.546l-155.514,89.781c-42.756,24.69-77.745,85.287-77.745,134.668v179.558  c0,24.08,8.365,41.157,21.847,49.538l-0.13,0.232l56.115,31.791l31.555-54.938l123.876-71.511  c42.756-24.69,77.745-85.287,77.745-134.668V90.092L410.12,36.32z"/>
<path style="fill:#15335E;" d="M71.192,209.065c-1.887,8.791-2.962,17.499-2.962,25.872v179.558c0,24.08,8.365,41.157,21.847,49.538  l-0.13,0.232l56.115,31.791l31.555-54.938l123.876-71.511c7.263-4.194,14.285-9.496,20.961-15.537L71.192,209.065z"/>
<path style="fill:#59A8EF;" d="M68.23,246.788v21.323v140.595c0,24.08,8.365,41.157,21.847,49.534l-0.13,0.236l56.115,31.795  l31.555-54.942l114.066-65.851L68.23,246.788z"/>
<path style="fill:#3491D6;" d="M68.23,252.581V273.9v140.595c0,24.08,8.365,41.157,21.847,49.538l-0.13,0.232l56.115,31.791  l31.555-54.938l114.062-65.847L68.23,252.581z"/>
<path style="fill:#053A70;" d="M199.42,131.261c-42.76,24.69-77.749,85.287-77.749,134.668v179.558  c0,49.38,34.989,69.577,77.749,44.891l155.51-89.781c42.756-24.69,77.749-85.287,77.749-134.668V86.374  c0-49.38-34.993-69.577-77.749-44.891L199.42,131.261z"/>
<path style="fill:#082649;" d="M432.683,86.374c0-49.38-34.993-69.577-77.749-44.891L199.42,131.261  c-42.76,24.69-77.749,85.287-77.749,134.668v179.558c0,49.38,34.989,69.577,77.749,44.891"/>
<path style="fill:#15335E;" d="M164.884,504.119h-0.008c-28.192,0-46.407-23.016-46.407-58.632V265.929  c0-50.527,35.592-112.187,79.348-137.44l155.51-89.781c12.607-7.278,24.769-10.965,36.147-10.965  c28.191,0,46.415,23.016,46.415,58.632v179.558c0,50.527-35.6,112.187-79.352,137.44l-155.51,89.781  C188.416,500.429,176.258,504.119,164.884,504.119z M389.474,34.158c-10.24,0-21.323,3.399-32.937,10.098l-155.514,89.777  c-41.984,24.245-76.146,83.413-76.146,131.895v179.558c0,32.209,15.325,52.22,39.995,52.22h0.008  c10.24,0,21.319-3.403,32.933-10.102l155.51-89.777c41.984-24.241,76.146-83.413,76.146-131.895V86.374  C429.473,54.166,414.153,34.158,389.474,34.158z"/>
<path style="fill:#7BC7FF;" d="M222.606,178.696c-0.055-7.231-5.222-10.185-11.5-6.577l-68.368,39.479  c-6.27,3.608-11.402,12.509-11.402,19.743v39.471l91.553-52.87L222.606,178.696z"/>
<g>
	<path style="fill:#59A8EF;" d="M222.606,182.563c-0.055-7.231-5.222-10.185-11.5-6.573l-68.368,39.475   c-6.27,3.612-11.402,12.509-11.402,19.744v39.471l91.553-52.87L222.606,182.563z"/>
	<path style="fill:#59A8EF;" d="M435.889,91.565c-1.686-3.875-5.786-4.97-10.571-2.202L129.032,260.427   c-4.781,2.769-8.881,8.594-10.567,14.407v170.654c0,35.616,18.215,58.632,46.407,58.632h0.008c11.378,0,23.536-3.69,36.143-10.965   l155.51-89.781c43.752-25.253,79.352-86.914,79.352-137.44V91.565H435.889z"/>
</g>
<path style="fill:#67BBF9;" d="M143.041,498.479c6.313,3.639,13.635,5.64,21.835,5.64h0.008c11.378,0,23.536-3.69,36.143-10.965  l155.51-89.781c43.752-25.253,79.352-86.914,79.352-137.44V91.565c-0.13-0.299-0.299-0.547-0.461-0.815  c-0.138-0.232-0.276-0.469-0.437-0.677c-0.177-0.232-0.37-0.437-0.575-0.63c-0.201-0.193-0.41-0.362-0.634-0.524  c-0.201-0.146-0.402-0.299-0.622-0.414c-0.437-0.232-0.902-0.421-1.398-0.532c-0.15-0.032-0.319-0.028-0.477-0.047  c-0.41-0.063-0.831-0.091-1.276-0.071c-0.213,0.008-0.429,0.043-0.65,0.071c-0.433,0.063-0.886,0.161-1.343,0.291  c-0.209,0.063-0.414,0.114-0.622,0.193c-0.677,0.244-1.363,0.547-2.068,0.953l-6.03,3.486L143.041,498.479z"/>
<path style="fill:#0D6CBA;" d="M362.26,169.838c-7.207,0-14.797,2.272-22.556,6.751L232.145,238.69  c-25.553,14.757-46.34,50.763-46.34,80.262v87.036c0,22.485,12.398,37.589,30.862,37.589c7.2,0,14.789-2.269,22.552-6.747  l107.567-62.106c25.549-14.757,46.336-50.767,46.336-80.266v-87.032C393.121,184.942,380.719,169.838,362.26,169.838z   M362.26,180.854c12.245,0,19.846,10.181,19.846,26.573v34.655l-33.363-16.183L271.62,345.155l-35.336-22.493l-39.463,66.525  v-70.235c0-25.553,18.696-57.943,40.83-70.719l107.563-62.106C351.193,182.678,357.088,180.854,362.26,180.854z"/>
<path style="fill:#067DCE;" d="M393.121,294.463v-87.036c0-20.653-10.476-35.044-26.494-37.258l-7.456,10.945  c1.048-0.134,2.091-0.26,3.084-0.26c12.245,0,19.846,10.181,19.846,26.573v34.655l-33.363-16.183l-77.123,119.257l-16.853-10.728  l-63.831,93.731c5.285,9.665,14.352,15.419,25.73,15.419c7.2,0,14.789-2.269,22.552-6.747l107.567-62.106  C372.338,359.967,393.121,323.962,393.121,294.463z"/>
<g>
	<path style="fill:#0D6CBA;" d="M281.182,297.98c14.809-8.55,26.923-29.523,26.915-46.62c0.008-17.101-12.099-24.092-26.915-15.537   c-14.805,8.546-26.911,29.523-26.915,46.62C254.271,299.536,266.382,306.53,281.182,297.98z"/>
	<path style="fill:#0D6CBA;" d="M216.501,316.759c0.992,0,2.048-0.319,3.135-0.945l12.835-7.408   c3.694-2.135,6.703-7.345,6.703-11.611c0-3.119-1.623-5.136-4.131-5.136c-0.13,0-0.268,0.004-0.402,0.016   c-0.244-3.167-2.052-5.167-4.714-5.167c-1.146-0.004-2.363,0.362-3.623,1.087c-4.068,2.355-7.44,7.908-7.763,12.757   c-3.486,2.324-6.176,7.207-6.176,11.268C212.366,314.742,213.988,316.759,216.501,316.759z"/>
</g>
<g>
</g>
<g>
</g>
<g>
</g>
<g>
</g>
<g>
</g>
<g>
</g>
<g>
</g>
<g>
</g>
<g>
</g>
<g>
</g>
<g>
</g>
<g>
</g>
<g>
</g>
<g>
</g>
<g>
</g>
</svg>
