<?xml version="1.0" encoding="iso-8859-1"?>
<!-- Generator: Adobe Illustrator 19.0.0, SVG Export Plug-In . SVG Version: 6.00 Build 0)  -->
<svg xmlns="http://www.w3.org/2000/svg" xmlns:xlink="http://www.w3.org/1999/xlink" version="1.1" id="Capa_1" x="0px" y="0px" viewBox="0 0 504.119 504.119" style="enable-background:new 0 0 504.119 504.119;" xml:space="preserve">
<path style="fill:#29537C;" d="M410.126,36.32L359.635,7.396c-2.213-1.607-4.577-2.97-7.093-4.064l-0.748-0.425l-0.032,0.063  c-13.584-5.522-31.13-3.525-50.271,7.522l-155.514,89.777c-42.76,24.69-77.749,85.287-77.749,134.668v179.558  c0,24.08,8.365,41.157,21.851,49.538l-0.13,0.232l56.111,31.791l31.559-54.938l123.872-71.511  c42.756-24.69,77.749-85.287,77.749-134.668V90.092L410.126,36.32z"/>
<path style="fill:#1D3F68;" d="M410.126,36.32l-54.048-12.674c-2.209-1.611-13.249-1.571-15.762-2.666l-4.005-1.607l-7.215-1.339  c-13.584-5.522-8.464-18.593-27.605-7.546l-155.514,89.781c-42.76,24.69-77.749,85.287-77.749,134.668v179.558  c0,24.08,8.365,41.157,21.851,49.538l-0.13,0.232l56.111,31.791l31.559-54.938l123.872-71.511  c42.756-24.69,77.749-85.287,77.749-134.668V90.092L410.126,36.32z"/>
<path style="fill:#15335E;" d="M71.194,209.065c-1.887,8.791-2.966,17.499-2.966,25.872v179.558c0,24.08,8.365,41.157,21.851,49.538  l-0.13,0.232l56.111,31.791l31.559-54.938l123.872-71.511c7.266-4.194,14.285-9.496,20.964-15.537L71.194,209.065z"/>
<path style="fill:#59A8EF;" d="M68.228,246.788v21.323v140.595c0,24.08,8.365,41.157,21.851,49.534l-0.13,0.236l56.111,31.795  l31.559-54.942l114.062-65.851L68.228,246.788z"/>
<path style="fill:#3491D6;" d="M68.228,252.581V273.9v140.595c0,24.08,8.365,41.157,21.851,49.538l-0.13,0.232l56.111,31.791  l31.559-54.938l114.062-65.847L68.228,252.581z"/>
<path style="fill:#053A70;" d="M199.426,131.261c-42.76,24.69-77.753,85.287-77.753,134.668v179.558  c0,49.38,34.993,69.577,77.753,44.891l155.506-89.781c42.76-24.69,77.749-85.287,77.749-134.668V86.374  c0-49.38-34.989-69.577-77.749-44.891L199.426,131.261z"/>
<path style="fill:#082649;" d="M432.681,86.374c0-49.38-34.989-69.577-77.749-44.891l-155.506,89.777  c-42.76,24.69-77.753,85.287-77.753,134.668v179.558c0,49.38,34.993,69.577,77.753,44.891"/>
<path style="fill:#15335E;" d="M164.886,504.119h-0.008c-28.192,0-46.411-23.016-46.411-58.632V265.929  c0-50.527,35.596-112.187,79.348-137.44l155.514-89.781c12.603-7.278,24.769-10.965,36.147-10.965  c28.191,0,46.411,23.016,46.411,58.632v179.558c0,50.527-35.596,112.187-79.352,137.44l-155.51,89.781  C188.418,500.429,176.264,504.119,164.886,504.119z M389.48,34.158c-10.24,0-21.323,3.399-32.941,10.098l-155.514,89.777  c-41.984,24.245-76.146,83.413-76.146,131.895v179.558c0,32.209,15.325,52.22,39.999,52.22h0.008  c10.24,0,21.315-3.403,32.929-10.102l155.514-89.777c41.984-24.241,76.146-83.413,76.146-131.895V86.374  C429.479,54.166,414.151,34.158,389.48,34.158z"/>
<path style="fill:#7BC7FF;" d="M222.604,178.696c-0.051-7.231-5.222-10.185-11.496-6.577l-68.368,39.479  c-6.27,3.608-11.402,12.509-11.402,19.743v39.471l91.553-52.87L222.604,178.696z"/>
<g>
	<path style="fill:#59A8EF;" d="M222.604,182.563c-0.051-7.231-5.222-10.185-11.496-6.573l-68.368,39.475   c-6.27,3.612-11.402,12.509-11.402,19.744v39.471l91.557-52.87L222.604,182.563z"/>
	<path style="fill:#59A8EF;" d="M435.891,91.565c-1.686-3.875-5.786-4.97-10.567-2.202l-296.29,171.063   c-4.781,2.769-8.881,8.594-10.567,14.407v170.654c0,35.616,18.219,58.632,46.411,58.632h0.008c11.378,0,23.532-3.69,36.139-10.965   l155.51-89.781c43.756-25.253,79.352-86.914,79.352-137.44V91.565H435.891z"/>
</g>
<path style="fill:#67BBF9;" d="M143.039,498.479c6.313,3.639,13.639,5.64,21.839,5.64h0.008c11.378,0,23.532-3.69,36.139-10.965  l155.51-89.781c43.756-25.253,79.352-86.914,79.352-137.44V91.565c-0.13-0.299-0.299-0.547-0.457-0.815  c-0.138-0.232-0.276-0.469-0.437-0.677c-0.177-0.232-0.374-0.437-0.575-0.63s-0.41-0.362-0.63-0.524  c-0.205-0.146-0.402-0.299-0.622-0.414c-0.437-0.232-0.902-0.421-1.398-0.532c-0.154-0.032-0.323-0.028-0.477-0.047  c-0.414-0.063-0.835-0.091-1.276-0.071c-0.217,0.008-0.429,0.043-0.654,0.071c-0.433,0.063-0.886,0.161-1.343,0.291  c-0.209,0.063-0.41,0.114-0.622,0.193c-0.673,0.244-1.359,0.547-2.064,0.953l-6.034,3.486L143.039,498.479z"/>
<path style="fill:#0D6CBA;" d="M365.81,271.939c-2.237,0-4.553,0.441-6.94,1.292c4.399-5.002,7.467-11.969,7.467-17.967v-21.587  v-0.217c0-8.357-5.923-11.76-13.154-7.589l-12.201,7.038c-7.231,4.175-13.151,14.427-13.151,22.78v0.217v21.579  c0,5.628,2.698,9.007,6.664,9.334c-0.339,0.224-0.701,0.449-1.075,0.709c-0.004,0.004-0.016,0.016-0.032,0.024  c-0.701,0.48-1.398,1-2.083,1.544c-0.008,0.004-0.016,0.012-0.028,0.02c-2.135,1.67-4.112,3.651-6.002,5.746  c-3.738-6.841-10.09-10.831-18.208-10.831c-3.17,0-6.443,0.626-9.807,1.824c6.219-7.062,10.555-16.908,10.555-25.383v-30.499v-0.307  c0-11.808-8.369-16.62-18.586-10.724l-17.243,9.945c-10.216,5.9-18.574,20.385-18.574,32.185v0.303v30.496  c0,7.952,3.805,12.721,9.417,13.186c-0.484,0.315-0.992,0.642-1.52,1c-0.012,0.008-0.02,0.02-0.043,0.035  c-1,0.681-1.981,1.414-2.946,2.182c-0.016,0.004-0.028,0.016-0.047,0.028c-13.135,10.287-23.422,27.112-27.329,43.398  c-0.91-0.161-1.847-0.291-2.84-0.291c-2.237,0-4.553,0.445-6.94,1.292c4.399-4.998,7.467-11.969,7.467-17.967v-21.583v-0.221  c0-8.357-5.923-11.76-13.154-7.585l-12.201,7.034c-7.231,4.179-13.151,14.427-13.151,22.78v0.217v21.583  c0,5.628,2.698,9.003,6.664,9.33c-0.339,0.224-0.701,0.453-1.075,0.713c-0.004,0.004-0.016,0.012-0.031,0.024  c-0.701,0.48-1.398,1-2.083,1.544c-0.008,0.004-0.016,0.012-0.028,0.02c-11.918,9.334-20.563,26.27-20.563,40.263v23.548  c0,0.811,0.425,1.564,1.134,1.969c0.347,0.209,0.744,0.303,1.134,0.303c0.398,0,0.788-0.095,1.142-0.303l56.793-32.788  c0.284-0.071,0.563-0.177,0.823-0.331l93.365-53.914c0.209-0.114,0.386-0.264,0.555-0.421l52.248-30.165  c0.709-0.402,1.138-1.154,1.138-1.973v-23.548C381.34,279.513,375.247,271.939,365.81,271.939z"/>
<path style="fill:#067DCE;" d="M381.34,314.774v-23.548c0-11.717-6.093-19.287-15.529-19.287c-2.237,0-4.553,0.441-6.94,1.292  c4.399-5.002,7.467-11.969,7.467-17.967v-21.587v-0.217c0-8.357-5.923-11.76-13.154-7.589l-12.201,7.038  c-7.231,4.175-13.151,14.427-13.151,22.78v0.217v21.579c0,5.628,2.698,9.007,6.664,9.334c-0.339,0.224-0.701,0.449-1.075,0.709  c-0.004,0.004-0.016,0.016-0.032,0.024c-0.701,0.48-1.398,1-2.083,1.544c-0.008,0.004-0.016,0.012-0.028,0.02  c-2.135,1.67-4.112,3.651-6.002,5.746c-3.738-6.841-10.09-10.831-18.208-10.831c-3.17,0-6.443,0.626-9.807,1.824  c6.219-7.062,10.555-16.908,10.555-25.383v-3.931l-114.44,168.034l39.845-23.005c0.284-0.071,0.563-0.177,0.823-0.331l93.357-53.906  c0.209-0.114,0.386-0.264,0.555-0.421l52.248-30.165C380.91,316.345,381.34,315.593,381.34,314.774z"/>
<g>
</g>
<g>
</g>
<g>
</g>
<g>
</g>
<g>
</g>
<g>
</g>
<g>
</g>
<g>
</g>
<g>
</g>
<g>
</g>
<g>
</g>
<g>
</g>
<g>
</g>
<g>
</g>
<g>
</g>
</svg>
