<?xml version="1.0" encoding="iso-8859-1"?>
<!-- Generator: Adobe Illustrator 19.0.0, SVG Export Plug-In . SVG Version: 6.00 Build 0)  -->
<svg xmlns="http://www.w3.org/2000/svg" xmlns:xlink="http://www.w3.org/1999/xlink" version="1.1" id="Capa_1" x="0px" y="0px" viewBox="0 0 504.119 504.119" style="enable-background:new 0 0 504.119 504.119;" xml:space="preserve">
<path style="fill:#29537C;" d="M410.12,36.32L359.629,7.396c-2.209-1.607-4.577-2.97-7.089-4.064l-0.748-0.425L351.76,2.97  c-13.584-5.522-31.13-3.525-50.271,7.522l-155.514,89.777c-42.756,24.69-77.745,85.287-77.745,134.668v179.558  c0,24.08,8.365,41.157,21.847,49.538l-0.13,0.232l56.115,31.791l31.555-54.938l123.876-71.511  c42.756-24.69,77.745-85.287,77.745-134.668V90.092L410.12,36.32z"/>
<path style="fill:#1D3F68;" d="M410.12,36.32l-54.04-12.674c-2.213-1.611-13.249-1.571-15.766-2.666l-4.009-1.607l-7.215-1.339  c-13.58-5.522-8.46-18.593-27.601-7.546l-155.514,89.781c-42.756,24.69-77.745,85.287-77.745,134.668v179.558  c0,24.08,8.365,41.157,21.847,49.538l-0.13,0.232l56.115,31.791l31.555-54.938l123.876-71.511  c42.756-24.69,77.745-85.287,77.745-134.668V90.092L410.12,36.32z"/>
<path style="fill:#15335E;" d="M71.192,209.065c-1.887,8.791-2.962,17.499-2.962,25.872v179.558c0,24.08,8.365,41.157,21.847,49.538  l-0.13,0.232l56.115,31.791l31.555-54.938l123.876-71.511c7.263-4.194,14.285-9.496,20.961-15.537L71.192,209.065z"/>
<path style="fill:#59A8EF;" d="M68.23,246.788v21.323v140.595c0,24.08,8.365,41.157,21.847,49.534l-0.13,0.236l56.115,31.795  l31.555-54.942l114.066-65.851L68.23,246.788z"/>
<path style="fill:#3491D6;" d="M68.23,252.581V273.9v140.595c0,24.08,8.365,41.157,21.847,49.538l-0.13,0.232l56.115,31.791  l31.555-54.938l114.062-65.847L68.23,252.581z"/>
<path style="fill:#053A70;" d="M199.42,131.261c-42.76,24.69-77.749,85.287-77.749,134.668v179.558  c0,49.38,34.989,69.577,77.749,44.891l155.51-89.781c42.756-24.69,77.749-85.287,77.749-134.668V86.374  c0-49.38-34.993-69.577-77.749-44.891L199.42,131.261z"/>
<path style="fill:#082649;" d="M432.683,86.374c0-49.38-34.993-69.577-77.749-44.891L199.42,131.261  c-42.76,24.69-77.749,85.287-77.749,134.668v179.558c0,49.38,34.989,69.577,77.749,44.891"/>
<path style="fill:#15335E;" d="M164.884,504.119h-0.008c-28.192,0-46.407-23.016-46.407-58.632V265.929  c0-50.527,35.592-112.187,79.348-137.44l155.51-89.781c12.607-7.278,24.769-10.965,36.147-10.965  c28.191,0,46.415,23.016,46.415,58.632v179.558c0,50.527-35.6,112.187-79.352,137.44l-155.51,89.781  C188.416,500.429,176.258,504.119,164.884,504.119z M389.474,34.158c-10.24,0-21.323,3.399-32.937,10.098l-155.514,89.777  c-41.984,24.245-76.146,83.413-76.146,131.895v179.558c0,32.209,15.325,52.22,39.995,52.22h0.008  c10.24,0,21.319-3.403,32.933-10.102l155.51-89.777c41.984-24.241,76.146-83.413,76.146-131.895V86.374  C429.473,54.166,414.153,34.158,389.474,34.158z"/>
<path style="fill:#7BC7FF;" d="M222.606,178.696c-0.055-7.231-5.222-10.185-11.5-6.577l-68.368,39.479  c-6.27,3.608-11.402,12.509-11.402,19.743v39.471l91.553-52.87L222.606,178.696z"/>
<g>
	<path style="fill:#59A8EF;" d="M222.606,182.563c-0.055-7.231-5.222-10.185-11.5-6.573l-68.368,39.475   c-6.27,3.612-11.402,12.509-11.402,19.744v39.471l91.553-52.87L222.606,182.563z"/>
	<path style="fill:#59A8EF;" d="M435.889,91.565c-1.686-3.875-5.786-4.97-10.571-2.202L129.032,260.427   c-4.781,2.769-8.881,8.594-10.567,14.407v170.654c0,35.616,18.215,58.632,46.407,58.632h0.008c11.378,0,23.536-3.69,36.143-10.965   l155.51-89.781c43.752-25.253,79.352-86.914,79.352-137.44V91.565H435.889z"/>
</g>
<path style="fill:#67BBF9;" d="M143.041,498.479c6.313,3.639,13.635,5.64,21.835,5.64h0.008c11.378,0,23.536-3.69,36.143-10.965  l155.51-89.781c43.752-25.253,79.352-86.914,79.352-137.44V91.565c-0.13-0.299-0.299-0.547-0.461-0.815  c-0.138-0.232-0.276-0.469-0.437-0.677c-0.177-0.232-0.37-0.437-0.575-0.63c-0.201-0.193-0.41-0.362-0.634-0.524  c-0.201-0.146-0.402-0.299-0.622-0.414c-0.437-0.232-0.902-0.421-1.398-0.532c-0.15-0.032-0.319-0.028-0.477-0.047  c-0.41-0.063-0.831-0.091-1.276-0.071c-0.213,0.008-0.429,0.043-0.65,0.071c-0.433,0.063-0.886,0.161-1.343,0.291  c-0.209,0.063-0.414,0.114-0.622,0.193c-0.677,0.244-1.363,0.547-2.068,0.953l-6.03,3.486L143.041,498.479z"/>
<path style="fill:#0D6CBA;" d="M323.438,294.018c-4.005,2.296-7.266,0.406-7.266-4.191V186.34c0-4.604-3.265-6.487-7.251-4.179  l-43.54,25.116c-3.986,2.304-7.247,7.96-7.247,12.556V323.47c0,4.612-3.261,10.264-7.255,12.564l-43.496,25.119  c-3.994,2.292-3.994,6.065,0,8.365l72.499,41.862c3.994,2.308,9.129,0.922,11.437-3.072l78.631-136.184  c2.308-3.982,0.922-5.372-3.072-3.08L323.438,294.018z"/>
<path style="fill:#067DCE;" d="M224.24,379.25l55.643,32.13c3.994,2.308,9.129,0.922,11.437-3.072l78.631-136.184  c2.308-3.982,0.922-5.372-3.072-3.08l-43.441,24.978c-4.005,2.296-7.266,0.406-7.266-4.191v-45.568L224.24,379.25z"/>
<g>
</g>
<g>
</g>
<g>
</g>
<g>
</g>
<g>
</g>
<g>
</g>
<g>
</g>
<g>
</g>
<g>
</g>
<g>
</g>
<g>
</g>
<g>
</g>
<g>
</g>
<g>
</g>
<g>
</g>
</svg>
