<?xml version="1.0" encoding="iso-8859-1"?>
<!-- Generator: Adobe Illustrator 19.0.0, SVG Export Plug-In . SVG Version: 6.00 Build 0)  -->
<svg xmlns="http://www.w3.org/2000/svg" xmlns:xlink="http://www.w3.org/1999/xlink" version="1.1" id="Capa_1" x="0px" y="0px" viewBox="0 0 504.119 504.119" style="enable-background:new 0 0 504.119 504.119;" xml:space="preserve">
<path style="fill:#29537C;" d="M410.122,36.32L359.631,7.396c-2.209-1.607-4.576-2.97-7.089-4.064l-0.748-0.425l-0.032,0.063  c-13.584-5.522-31.13-3.525-50.271,7.522l-155.518,89.777c-42.756,24.69-77.745,85.287-77.745,134.668v179.558  c0,24.08,8.365,41.157,21.847,49.538l-0.13,0.232l56.115,31.791l31.555-54.938l123.876-71.511  c42.756-24.69,77.745-85.287,77.745-134.668V90.092L410.122,36.32z"/>
<path style="fill:#1D3F68;" d="M410.122,36.32l-54.044-12.674c-2.213-1.611-13.249-1.571-15.766-2.666l-4.005-1.607l-7.215-1.339  c-13.58-5.522-8.46-18.593-27.601-7.546l-155.518,89.781c-42.756,24.69-77.745,85.287-77.745,134.668v179.558  c0,24.08,8.365,41.157,21.847,49.538l-0.13,0.232l56.115,31.791l31.555-54.938l123.876-71.511  c42.756-24.69,77.745-85.287,77.745-134.668V90.092L410.122,36.32z"/>
<path style="fill:#15335E;" d="M71.19,209.065c-1.887,8.791-2.962,17.499-2.962,25.872v179.558c0,24.08,8.365,41.157,21.847,49.538  l-0.13,0.232l56.115,31.791l31.555-54.938l123.876-71.511c7.263-4.194,14.285-9.496,20.96-15.537L71.19,209.065z"/>
<path style="fill:#59A8EF;" d="M68.228,246.788v21.323v140.595c0,24.08,8.365,41.157,21.847,49.534l-0.13,0.236l56.115,31.795  l31.555-54.942l114.066-65.851L68.228,246.788z"/>
<path style="fill:#3491D6;" d="M68.228,252.581V273.9v140.595c0,24.08,8.365,41.157,21.847,49.538l-0.13,0.232l56.115,31.791  l31.555-54.938l114.066-65.847L68.228,252.581z"/>
<path style="fill:#053A70;" d="M199.422,131.261c-42.76,24.69-77.749,85.287-77.749,134.668v179.558  c0,49.38,34.989,69.577,77.749,44.891l155.51-89.781c42.756-24.69,77.749-85.287,77.749-134.668V86.374  c0-49.38-34.993-69.577-77.749-44.891L199.422,131.261z"/>
<path style="fill:#082649;" d="M432.681,86.374c0-49.38-34.993-69.577-77.749-44.891l-155.51,89.777  c-42.76,24.69-77.749,85.287-77.749,134.668v179.558c0,49.38,34.989,69.577,77.749,44.891"/>
<path style="fill:#15335E;" d="M164.882,504.119h-0.008c-28.192,0-46.407-23.016-46.407-58.632V265.929  c0-50.527,35.592-112.187,79.348-137.44l155.51-89.781c12.607-7.278,24.769-10.965,36.147-10.965  c28.191,0,46.415,23.016,46.415,58.632v179.558c0,50.527-35.6,112.187-79.352,137.44l-155.51,89.781  C188.418,500.429,176.26,504.119,164.882,504.119z M389.476,34.158c-10.24,0-21.323,3.399-32.937,10.098l-155.514,89.777  c-41.984,24.245-76.146,83.413-76.146,131.895v179.558c0,32.209,15.325,52.22,39.995,52.22h0.008  c10.24,0,21.319-3.403,32.933-10.102l155.51-89.777c41.984-24.241,76.146-83.413,76.146-131.895V86.374  C429.475,54.166,414.151,34.158,389.476,34.158z"/>
<path style="fill:#7BC7FF;" d="M222.604,178.696c-0.055-7.231-5.222-10.185-11.5-6.577l-68.368,39.479  c-6.27,3.608-11.402,12.509-11.402,19.743v39.471l91.553-52.87L222.604,178.696z"/>
<g>
	<path style="fill:#59A8EF;" d="M222.604,182.563c-0.055-7.231-5.222-10.185-11.5-6.573l-68.368,39.475   c-6.27,3.612-11.402,12.509-11.402,19.744v39.471l91.557-52.87L222.604,182.563z"/>
	<path style="fill:#59A8EF;" d="M435.891,91.565c-1.686-3.875-5.786-4.97-10.571-2.202L129.034,260.427   c-4.781,2.769-8.881,8.594-10.567,14.407v170.654c0,35.616,18.215,58.632,46.407,58.632h0.008c11.378,0,23.536-3.69,36.143-10.965   l155.51-89.781c43.752-25.253,79.352-86.914,79.352-137.44V91.565H435.891z"/>
</g>
<path style="fill:#67BBF9;" d="M143.039,498.479c6.313,3.639,13.635,5.64,21.835,5.64h0.008c11.378,0,23.536-3.69,36.143-10.965  l155.51-89.781c43.752-25.253,79.352-86.914,79.352-137.44V91.565c-0.13-0.299-0.299-0.547-0.461-0.815  c-0.138-0.232-0.276-0.469-0.437-0.677c-0.177-0.232-0.37-0.437-0.575-0.63c-0.201-0.193-0.41-0.362-0.634-0.524  c-0.201-0.146-0.402-0.299-0.622-0.414c-0.437-0.232-0.902-0.421-1.398-0.532c-0.15-0.032-0.319-0.028-0.477-0.047  c-0.41-0.063-0.831-0.091-1.276-0.071c-0.213,0.008-0.429,0.043-0.65,0.071c-0.433,0.063-0.886,0.161-1.343,0.291  c-0.209,0.063-0.414,0.114-0.622,0.193c-0.677,0.244-1.363,0.547-2.068,0.953l-6.03,3.486L143.039,498.479z"/>
<path style="fill:#0D6CBA;" d="M286.076,202.082c-46.793,27.026-85.059,93.306-85.059,147.322  c-0.012,54.051,38.262,76.142,85.055,49.109c46.789-27.002,85.059-93.286,85.059-147.322  C371.127,197.171,332.861,175.076,286.076,202.082z M219.394,331.386c-0.197,0-0.394-0.02-0.591-0.051  c-1.942-0.327-3.261-2.166-2.934-4.116c6.124-36.722,24.418-70.731,51.527-95.748c1.453-1.335,3.706-1.248,5.049,0.205  c1.343,1.449,1.249,3.71-0.201,5.049c-25.947,23.946-43.465,56.501-49.329,91.668C222.623,330.145,221.111,331.386,219.394,331.386z   M243.147,318.531c-0.291,1.749-1.804,2.989-3.521,2.989c-0.197,0-0.398-0.016-0.591-0.047c-1.946-0.327-3.265-2.17-2.938-4.116  c3.714-22.304,14.836-42.957,31.295-58.151c1.453-1.343,3.706-1.248,5.049,0.201c1.343,1.453,1.249,3.71-0.201,5.049  C256.935,278.579,246.605,297.783,243.147,318.531z M286.19,319.094c-8.921,5.151-16.211,0.937-16.211-9.362  c0.004-10.299,7.294-22.926,16.211-28.081c8.921-5.144,16.211-0.929,16.215,9.366C302.401,301.312,295.111,313.95,286.19,319.094z"/>
<path style="fill:#067DCE;" d="M302.405,291.021c-0.004,10.291-7.298,22.93-16.215,28.077c-8.275,4.777-15.065,1.43-16.018-7.29  l-56.025,82.263c15.104,18.849,41.732,21.89,71.924,4.443c46.789-27.002,85.059-93.286,85.059-147.322  c0-25.868-8.791-44.39-23.079-53.732l-55.926,82.125C298.12,278.871,302.401,283.144,302.405,291.021z"/>
<g>
</g>
<g>
</g>
<g>
</g>
<g>
</g>
<g>
</g>
<g>
</g>
<g>
</g>
<g>
</g>
<g>
</g>
<g>
</g>
<g>
</g>
<g>
</g>
<g>
</g>
<g>
</g>
<g>
</g>
</svg>
