<?xml version="1.0" encoding="iso-8859-1"?>
<!-- Generator: Adobe Illustrator 19.0.0, SVG Export Plug-In . SVG Version: 6.00 Build 0)  -->
<svg xmlns="http://www.w3.org/2000/svg" xmlns:xlink="http://www.w3.org/1999/xlink" version="1.1" id="Capa_1" x="0px" y="0px" viewBox="0 0 504.119 504.119" style="enable-background:new 0 0 504.119 504.119;" xml:space="preserve">
<path style="fill:#29537C;" d="M410.12,36.32L359.629,7.396c-2.209-1.607-4.577-2.97-7.089-4.064l-0.748-0.425L351.76,2.97  c-13.584-5.522-31.13-3.525-50.271,7.522l-155.514,89.777c-42.756,24.69-77.745,85.287-77.745,134.668v179.558  c0,24.08,8.365,41.157,21.847,49.538l-0.13,0.232l56.115,31.791l31.555-54.938l123.876-71.511  c42.756-24.69,77.745-85.287,77.745-134.668V90.092L410.12,36.32z"/>
<path style="fill:#1D3F68;" d="M410.12,36.32l-54.04-12.674c-2.213-1.611-13.249-1.571-15.766-2.666l-4.009-1.607l-7.215-1.339  c-13.58-5.522-8.46-18.593-27.601-7.546l-155.514,89.781c-42.756,24.69-77.745,85.287-77.745,134.668v179.558  c0,24.08,8.365,41.157,21.847,49.538l-0.13,0.232l56.115,31.791l31.555-54.938l123.876-71.511  c42.756-24.69,77.745-85.287,77.745-134.668V90.092L410.12,36.32z"/>
<path style="fill:#15335E;" d="M71.192,209.065c-1.887,8.791-2.962,17.499-2.962,25.872v179.558c0,24.08,8.365,41.157,21.847,49.538  l-0.13,0.232l56.115,31.791l31.555-54.938l123.876-71.511c7.263-4.194,14.285-9.496,20.961-15.537L71.192,209.065z"/>
<path style="fill:#59A8EF;" d="M68.23,246.788v21.323v140.595c0,24.08,8.365,41.157,21.847,49.534l-0.13,0.236l56.115,31.795  l31.555-54.942l114.066-65.851L68.23,246.788z"/>
<path style="fill:#3491D6;" d="M68.23,252.581V273.9v140.595c0,24.08,8.365,41.157,21.847,49.538l-0.13,0.232l56.115,31.791  l31.555-54.938l114.062-65.847L68.23,252.581z"/>
<path style="fill:#053A70;" d="M199.42,131.261c-42.76,24.69-77.749,85.287-77.749,134.668v179.558  c0,49.38,34.989,69.577,77.749,44.891l155.51-89.781c42.756-24.69,77.749-85.287,77.749-134.668V86.374  c0-49.38-34.993-69.577-77.749-44.891L199.42,131.261z"/>
<path style="fill:#082649;" d="M432.683,86.374c0-49.38-34.993-69.577-77.749-44.891L199.42,131.261  c-42.76,24.69-77.749,85.287-77.749,134.668v179.558c0,49.38,34.989,69.577,77.749,44.891"/>
<path style="fill:#15335E;" d="M164.884,504.119h-0.008c-28.192,0-46.407-23.016-46.407-58.632V265.929  c0-50.527,35.592-112.187,79.348-137.44l155.51-89.781c12.607-7.278,24.769-10.965,36.147-10.965  c28.191,0,46.415,23.016,46.415,58.632v179.558c0,50.527-35.6,112.187-79.352,137.44l-155.51,89.781  C188.416,500.429,176.258,504.119,164.884,504.119z M389.474,34.158c-10.24,0-21.323,3.399-32.937,10.098l-155.514,89.777  c-41.984,24.245-76.146,83.413-76.146,131.895v179.558c0,32.209,15.325,52.22,39.995,52.22h0.008  c10.24,0,21.319-3.403,32.933-10.102l155.51-89.777c41.984-24.241,76.146-83.413,76.146-131.895V86.374  C429.473,54.166,414.153,34.158,389.474,34.158z"/>
<path style="fill:#7BC7FF;" d="M222.606,178.696c-0.055-7.231-5.222-10.185-11.5-6.577l-68.368,39.479  c-6.27,3.608-11.402,12.509-11.402,19.743v39.471l91.553-52.87L222.606,178.696z"/>
<g>
	<path style="fill:#59A8EF;" d="M222.606,182.563c-0.055-7.231-5.222-10.185-11.5-6.573l-68.368,39.475   c-6.27,3.612-11.402,12.509-11.402,19.744v39.471l91.553-52.87L222.606,182.563z"/>
	<path style="fill:#59A8EF;" d="M435.889,91.565c-1.686-3.875-5.786-4.97-10.571-2.202L129.032,260.427   c-4.781,2.769-8.881,8.594-10.567,14.407v170.654c0,35.616,18.215,58.632,46.407,58.632h0.008c11.378,0,23.536-3.69,36.143-10.965   l155.51-89.781c43.752-25.253,79.352-86.914,79.352-137.44V91.565H435.889z"/>
</g>
<path style="fill:#67BBF9;" d="M143.041,498.479c6.313,3.639,13.635,5.64,21.835,5.64h0.008c11.378,0,23.536-3.69,36.143-10.965  l155.51-89.781c43.752-25.253,79.352-86.914,79.352-137.44V91.565c-0.13-0.299-0.299-0.547-0.461-0.815  c-0.138-0.232-0.276-0.469-0.437-0.677c-0.177-0.232-0.37-0.437-0.575-0.63c-0.201-0.193-0.41-0.362-0.634-0.524  c-0.201-0.146-0.402-0.299-0.622-0.414c-0.437-0.232-0.902-0.421-1.398-0.532c-0.15-0.032-0.319-0.028-0.477-0.047  c-0.41-0.063-0.831-0.091-1.276-0.071c-0.213,0.008-0.429,0.043-0.65,0.071c-0.433,0.063-0.886,0.161-1.343,0.291  c-0.209,0.063-0.414,0.114-0.622,0.193c-0.677,0.244-1.363,0.547-2.068,0.953l-6.03,3.486L143.041,498.479z"/>
<path style="fill:#0D6CBA;" d="M353.599,176.061c-3.509,0-7.003,1-10.401,2.958l-131.801,76.095  c-9.307,5.368-16.057,17.061-16.057,27.809v139.595c0,11.016,7.322,19.011,17.412,19.011c3.509,0,6.999-0.996,10.398-2.954  l131.805-76.099c9.303-5.372,16.057-17.069,16.057-27.809V195.076C371.011,184.056,363.681,176.061,353.599,176.061z   M276.059,245.614c3.608-2.083,6.546-0.382,6.546,3.781s-2.946,9.259-6.546,11.335c-3.6,2.079-6.546,0.378-6.546-3.773  C269.513,252.798,272.459,247.694,276.059,245.614z M248.162,261.569c3.604-2.083,6.55-0.378,6.55,3.777  c0,4.155-2.946,9.263-6.55,11.339c-3.604,2.083-6.542,0.382-6.542-3.773C241.621,268.741,244.559,263.645,248.162,261.569z   M220.266,277.52c3.604-2.08,6.55-0.386,6.546,3.777c0.004,4.163-2.946,9.267-6.546,11.347c-3.608,2.072-6.546,0.374-6.546-3.781  C213.721,284.7,216.659,279.595,220.266,277.52z M359.251,334.671c0,6.467-4.576,14.395-10.177,17.633l-131.801,76.095  c-1.623,0.933-3.159,1.382-4.521,1.382c-3.348,0-5.66-2.666-5.66-7.259V320.169l152.159-87.851V334.671z"/>
<path style="fill:#067DCE;" d="M359.251,232.318v102.349c0,6.467-4.576,14.395-10.177,17.633l-131.801,76.095  c-1.623,0.933-3.159,1.382-4.521,1.382c-3.348,0-5.66-2.666-5.66-7.259v-18.093l-11.752,17.258v0.835  c0,11.016,7.322,19.011,17.412,19.011c3.509,0,6.999-0.996,10.398-2.954l131.805-76.099c9.303-5.372,16.057-17.069,16.057-27.809  V195.076c0-7.904-3.809-14.194-9.657-17.148l-59.695,87.647L359.251,232.318z"/>
<g>
</g>
<g>
</g>
<g>
</g>
<g>
</g>
<g>
</g>
<g>
</g>
<g>
</g>
<g>
</g>
<g>
</g>
<g>
</g>
<g>
</g>
<g>
</g>
<g>
</g>
<g>
</g>
<g>
</g>
</svg>
