<?xml version="1.0" encoding="iso-8859-1"?>
<!-- Generator: Adobe Illustrator 19.0.0, SVG Export Plug-In . SVG Version: 6.00 Build 0)  -->
<svg xmlns="http://www.w3.org/2000/svg" xmlns:xlink="http://www.w3.org/1999/xlink" version="1.1" id="Capa_1" x="0px" y="0px" viewBox="0 0 504.116 504.116" style="enable-background:new 0 0 504.116 504.116;" xml:space="preserve">
<path style="fill:#323738;" d="M410.122,36.322L359.631,7.394c-2.209-1.611-4.577-2.97-7.093-4.064l-0.744-0.421l-0.032,0.063  c-13.584-5.522-31.13-3.529-50.271,7.519l-155.518,89.777c-42.76,24.686-77.745,85.287-77.745,134.668v179.558  c0,24.08,8.361,41.157,21.847,49.534l-0.13,0.236l56.115,31.795l31.555-54.942l123.876-71.511  c42.752-24.69,77.745-85.291,77.745-134.668V90.089L410.122,36.322z"/>
<path style="fill:#252B2D;" d="M410.122,36.322l-54.047-12.678c-2.209-1.607-13.245-1.568-15.762-2.67l-4.009-1.599l-7.211-1.343  c-13.584-5.522-8.46-18.593-27.601-7.546l-155.518,89.781c-42.76,24.686-77.745,85.287-77.745,134.668v179.558  c0,24.08,8.361,41.157,21.847,49.534l-0.13,0.236l56.115,31.795l31.555-54.942l123.876-71.511  c42.752-24.69,77.745-85.291,77.745-134.668V90.089L410.122,36.322z"/>
<path style="fill:#090C0C;" d="M71.19,209.066c-1.887,8.791-2.962,17.495-2.962,25.868v179.558c0,24.08,8.361,41.157,21.847,49.534  l-0.13,0.236l56.115,31.795l31.555-54.942l123.876-71.511c7.263-4.194,14.285-9.492,20.961-15.537L71.19,209.066z"/>
<path style="fill:#3B4142;" d="M199.423,131.258c-42.76,24.686-77.753,85.291-77.753,134.668v179.562  c0,49.377,34.993,69.577,77.753,44.883l155.506-89.777c42.76-24.686,77.753-85.287,77.753-134.668V86.368  c0-49.376-34.993-69.573-77.753-44.883L199.423,131.258z"/>
<path style="opacity:0.2;fill:#383E3F;enable-background:new    ;" d="M432.682,86.368c0-49.376-34.993-69.573-77.753-44.883  l-155.506,89.773c-42.76,24.686-77.753,85.291-77.753,134.668v179.562c0,49.377,34.993,69.577,77.753,44.883"/>
<path style="fill:#4F5759;" d="M164.882,504.116h-0.008c-28.192,0-46.407-23.012-46.407-58.628V265.926  c0-50.523,35.592-112.183,79.344-137.44l155.514-89.781c12.607-7.278,24.769-10.965,36.147-10.965  c28.191,0,46.415,23.016,46.415,58.628V265.93c0,50.527-35.6,112.183-79.352,137.444l-155.514,89.777  C188.415,500.426,176.26,504.116,164.882,504.116z M389.477,34.151c-10.24,0-21.323,3.399-32.937,10.098l-155.518,89.785  c-41.984,24.241-76.146,83.409-76.146,131.891v179.562c0,32.209,15.325,52.216,39.999,52.216h0.008  c10.24,0,21.315-3.399,32.929-10.098l155.514-89.785c41.984-24.237,76.146-83.409,76.146-131.891V86.368  C429.476,54.159,414.151,34.151,389.477,34.151z"/>
<path style="fill:#F9B00D;" d="M364.354,174.762c0.016-55.391-39.207-78.037-87.178-50.334  c-47.947,27.683-87.17,95.614-87.178,150.997c0.008,37.754,18.255,60.274,45.06,62.019v27.534l84.232-48.628v-27.53  C346.107,256.119,364.361,212.524,364.354,174.762z"/>
<path style="fill:#E59A05;" d="M364.354,174.762c0.016-55.391-39.207-78.037-87.178-50.334  c-47.947,27.683-87.17,95.614-87.178,150.997c0.008,37.754,18.255,60.274,45.06,62.019v27.534l55.138-31.835l67.915-117.63  C362.113,201.694,364.354,187.874,364.354,174.762z"/>
<path style="fill:#228CFF;" d="M235.062,382.859v29.806c0,13.375,9.476,18.842,21.055,12.158l42.122-24.312  c11.575-6.688,21.055-23.099,21.055-36.474v-29.81L235.062,382.859z"/>
<path style="fill:#175EDD;" d="M235.062,382.859v29.806c0,4.561,1.122,8.172,3.033,10.728l36.624-63.429L235.062,382.859z"/>
<path style="fill:#F9B00D;" d="M254.73,286.595c0-14.257,10.106-31.744,22.445-38.873c12.355-7.133,22.445-1.3,22.445,12.958  c0,14.249-10.098,31.744-22.445,38.873C264.836,306.681,254.73,300.844,254.73,286.595z"/>
<g>
</g>
<g>
</g>
<g>
</g>
<g>
</g>
<g>
</g>
<g>
</g>
<g>
</g>
<g>
</g>
<g>
</g>
<g>
</g>
<g>
</g>
<g>
</g>
<g>
</g>
<g>
</g>
<g>
</g>
</svg>
