<?xml version="1.0" encoding="iso-8859-1"?>
<!-- Generator: Adobe Illustrator 19.0.0, SVG Export Plug-In . SVG Version: 6.00 Build 0)  -->
<svg xmlns="http://www.w3.org/2000/svg" xmlns:xlink="http://www.w3.org/1999/xlink" version="1.1" id="Capa_1" x="0px" y="0px" viewBox="0 0 504.12 504.12" style="enable-background:new 0 0 504.12 504.12;" xml:space="preserve">
<path style="fill:#0D2135;" d="M410.124,36.322L359.633,7.394c-2.209-1.611-4.576-2.97-7.093-4.064l-0.744-0.421l-0.032,0.063  c-13.584-5.522-31.13-3.529-50.271,7.519l-155.518,89.777c-42.76,24.686-77.745,85.287-77.745,134.668v179.558  c0,24.08,8.361,41.157,21.847,49.534l-0.13,0.24l56.115,31.791l31.555-54.942l123.876-71.511  c42.752-24.69,77.745-85.291,77.745-134.668V90.089L410.124,36.322z"/>
<path style="fill:#072135;" d="M410.124,36.322l-54.048-12.678c-2.209-1.607-13.245-1.568-15.762-2.67l-4.005-1.599l-7.215-1.339  c-13.584-5.522-8.46-18.593-27.601-7.546l-155.518,89.777c-42.76,24.686-77.745,85.287-77.745,134.668v179.558  c0,24.08,8.361,41.157,21.847,49.534l-0.13,0.24l56.115,31.791l31.555-54.942l123.876-71.511  c42.752-24.69,77.745-85.291,77.745-134.668V90.089L410.124,36.322z"/>
<path style="fill:#020A11;" d="M71.192,209.066c-1.887,8.791-2.962,17.495-2.962,25.868v179.558c0,24.08,8.361,41.157,21.847,49.534  l-0.13,0.24l56.115,31.791l31.555-54.942l123.876-71.511c7.263-4.194,14.285-9.492,20.96-15.537L71.192,209.066z"/>
<path style="fill:#0D2135;" d="M199.425,131.262c-42.76,24.686-77.753,85.291-77.753,134.668v179.562  c0,49.377,34.993,69.577,77.753,44.883l155.506-89.777c42.76-24.686,77.753-85.287,77.753-134.668V86.368  c0-49.376-34.993-69.573-77.753-44.883L199.425,131.262z"/>
<path style="opacity:0.2;fill:#222C35;enable-background:new    ;" d="M432.684,86.368c0-49.376-34.993-69.573-77.753-44.883  l-155.506,89.777c-42.76,24.686-77.753,85.291-77.753,134.668v179.562c0,49.377,34.993,69.577,77.753,44.883"/>
<path style="opacity:0.4;fill:#15326B;enable-background:new    ;" d="M122.743,252.437l308.882-178.33  c0.492-3.738,0.8-7.44,0.933-11.083L121.805,242.433C121.939,245.93,122.254,249.262,122.743,252.437z"/>
<path style="fill:#10314C;" d="M164.884,504.12h-0.008c-28.192,0-46.407-23.012-46.407-58.628V265.93  c0-50.523,35.592-112.183,79.344-137.444l155.514-89.777c12.607-7.278,24.769-10.965,36.147-10.965  c28.191,0,46.415,23.016,46.415,58.628v179.562c0,50.527-35.6,112.183-79.352,137.444l-155.514,89.777  C188.417,500.43,176.262,504.12,164.884,504.12z M389.479,34.151c-10.24,0-21.323,3.399-32.937,10.098l-155.518,89.789  c-41.984,24.241-76.146,83.409-76.146,131.891v179.562c0,32.209,15.325,52.216,39.999,52.216h0.008  c10.24,0,21.315-3.399,32.929-10.098l155.514-89.785c41.984-24.237,76.146-83.409,76.146-131.891V86.368  C429.478,54.159,414.153,34.151,389.479,34.151z"/>
<path style="fill:#FF4D8D;" d="M183.556,181.631c0.004-4.139,2.926-9.216,6.51-11.284c3.584-2.068,6.514-0.378,6.51,3.761  c0.004,4.139-2.93,9.212-6.51,11.28C186.487,187.452,183.56,185.763,183.556,181.631z"/>
<path style="fill:#EA2864;" d="M190.071,185.388c-3.584,2.064-6.506,0.378-6.51-3.757c0.004-4.139,2.926-9.216,6.51-11.284"/>
<path style="fill:#F7D011;" d="M211.307,165.759c0-4.139,2.926-9.212,6.506-11.28c3.584-2.068,6.514-0.378,6.514,3.761  c0,4.135-2.93,9.212-6.514,11.28C214.237,171.588,211.307,169.894,211.307,165.759z"/>
<path style="fill:#F4B414;" d="M217.817,169.52c-3.58,2.064-6.506,0.374-6.506-3.761c0-4.139,2.926-9.212,6.506-11.28"/>
<path style="fill:#15EAA8;" d="M239.053,149.895c0-4.139,2.93-9.212,6.51-11.28c3.584-2.068,6.51-0.378,6.51,3.761  c0,4.135-2.93,9.208-6.51,11.276S239.053,154.03,239.053,149.895z"/>
<path style="fill:#08C1B3;" d="M245.568,153.652c-3.58,2.068-6.51,0.378-6.51-3.757c0-4.139,2.93-9.212,6.51-11.28"/>
<g>
	<polygon style="fill:#5BC433;" points="272.408,268.813 272.408,219.614 238.317,239.306 238.317,211.536 221.307,221.362    221.307,249.125 187.223,268.813 187.223,367.156 251.113,330.284 251.113,379.452 208.514,404.028 208.514,379.452    187.223,391.744 187.223,440.943 221.307,421.255 221.307,450.597 238.317,440.782 238.317,411.432 272.408,391.744    272.408,293.401 208.514,330.284 208.514,281.105 251.113,256.521 251.113,281.105  "/>
	<path style="fill:#5BC433;" d="M221.307,452.566c-0.343,0-0.685-0.087-0.985-0.264c-0.61-0.351-0.985-1-0.985-1.705V424.67   l-31.13,17.979c-0.607,0.351-1.363,0.351-1.969,0c-0.61-0.35-0.985-1.004-0.985-1.705v-49.199c0-0.705,0.374-1.355,0.985-1.709   l21.291-12.292c0.607-0.347,1.363-0.347,1.969,0c0.61,0.354,0.985,1.004,0.985,1.709v21.169l38.656-22.307v-44.623l-60.936,35.17   c-0.607,0.354-1.363,0.354-1.969,0c-0.61-0.35-0.985-1-0.985-1.705v-98.343c0-0.705,0.374-1.355,0.985-1.709l33.099-19.117v-26.632   c0-0.701,0.374-1.355,0.985-1.705l17.006-9.826c0.607-0.347,1.355-0.347,1.969,0c0.607,0.354,0.985,1.004,0.985,1.709v24.359   l31.137-17.983c0.607-0.351,1.363-0.351,1.969,0c0.607,0.351,0.985,1.004,0.985,1.705v49.199c0,0.705-0.378,1.355-0.985,1.709   l-21.295,12.292c-0.607,0.347-1.363,0.347-1.969,0c-0.61-0.354-0.985-1.004-0.985-1.709v-21.177l-38.656,22.315v44.627   l60.94-35.178c0.607-0.351,1.363-0.351,1.969,0c0.607,0.35,0.985,1.004,0.985,1.705v98.347c0,0.705-0.378,1.355-0.985,1.709   l-33.107,19.117v28.215c0,0.709-0.378,1.355-0.985,1.709l-17.006,9.807C221.984,452.475,221.645,452.566,221.307,452.566z    M221.307,419.286c0.339,0,0.677,0.087,0.985,0.264c0.607,0.351,0.985,1,0.985,1.705v25.927l13.068-7.534v-28.215   c0-0.705,0.374-1.355,0.985-1.705l33.107-19.121v-93.79l-60.94,35.178c-0.607,0.347-1.363,0.347-1.969,0   c-0.607-0.354-0.985-1.004-0.985-1.709v-49.18c0-0.705,0.378-1.355,0.985-1.709l42.602-24.58c0.607-0.347,1.363-0.347,1.969,0   c0.61,0.354,0.985,1.004,0.985,1.709v21.177l17.357-10.023v-44.65l-31.137,17.983c-0.607,0.347-1.363,0.347-1.969,0   c-0.61-0.354-0.985-1.004-0.985-1.709v-24.359l-13.068,7.55v26.628c0,0.705-0.378,1.355-0.985,1.705l-33.099,19.121v93.791   l60.936-35.17c0.607-0.347,1.363-0.347,1.969,0c0.61,0.354,0.985,1.004,0.985,1.709v49.168c0,0.705-0.374,1.355-0.985,1.709   l-42.594,24.576c-0.607,0.351-1.363,0.351-1.969,0c-0.607-0.354-0.985-1-0.985-1.709v-21.169L189.2,392.874v44.646l31.13-17.975   C220.625,419.376,220.964,419.286,221.307,419.286z"/>
	<path style="fill:#5BC433;" d="M308.13,245.726c-2.702,0-5.325-1.394-6.774-3.903c-2.158-3.738-0.878-8.507,2.859-10.669   l81.164-46.856c3.722-2.17,8.499-0.878,10.661,2.863c2.158,3.738,0.878,8.507-2.863,10.669l-81.152,46.852   C310.8,245.391,309.449,245.726,308.13,245.726z"/>
	<path style="fill:#5BC433;" d="M308.13,247.695c-3.486,0-6.739-1.875-8.476-4.888c-2.698-4.671-1.091-10.661,3.576-13.359   l81.164-46.856c4.49-2.615,10.748-0.918,13.355,3.584c2.694,4.671,1.083,10.661-3.584,13.359l-81.156,46.852   C311.541,247.242,309.851,247.695,308.13,247.695z M389.266,185.215c-1.016,0-2.02,0.272-2.903,0.784l-81.164,46.86   c-2.784,1.607-3.745,5.187-2.139,7.975c1.556,2.686,5.313,3.686,7.975,2.143l81.152-46.856c2.792-1.611,3.749-5.191,2.139-7.975   C393.287,186.338,391.346,185.215,389.266,185.215z"/>
	<path style="fill:#5BC433;" d="M308.13,283.539c-2.702,0-5.325-1.398-6.774-3.903c-2.158-3.738-0.878-8.511,2.859-10.669   l81.164-46.86c3.722-2.166,8.499-0.878,10.661,2.863c2.158,3.738,0.878,8.511-2.863,10.669l-81.152,46.852   C310.8,283.204,309.449,283.539,308.13,283.539z"/>
	<path style="fill:#5BC433;" d="M308.13,285.508c-3.486,0-6.739-1.879-8.476-4.888c-2.698-4.675-1.091-10.665,3.576-13.359   l81.164-46.864c4.49-2.615,10.748-0.914,13.355,3.584c2.694,4.671,1.083,10.661-3.584,13.363L313.01,284.2   C311.541,285.051,309.851,285.508,308.13,285.508z M389.266,223.024c-1.016,0-2.02,0.272-2.903,0.78L305.2,270.668   c-2.784,1.611-3.745,5.191-2.139,7.979c1.556,2.682,5.313,3.675,7.975,2.143l81.152-46.86c2.792-1.607,3.749-5.187,2.139-7.975   C393.287,224.147,391.346,223.024,389.266,223.024z"/>
	<path style="fill:#5BC433;" d="M308.13,321.344c-2.702,0-5.325-1.398-6.774-3.903c-2.158-3.734-0.878-8.511,2.859-10.665   l81.164-46.86c3.722-2.162,8.499-0.874,10.661,2.867c2.158,3.734,0.878,8.511-2.863,10.665L312.025,320.3   C310.8,321.013,309.449,321.344,308.13,321.344z"/>
	<path style="fill:#5BC433;" d="M308.13,323.313c-3.486,0-6.739-1.875-8.476-4.888c-2.698-4.671-1.091-10.661,3.576-13.359   l81.164-46.856c4.49-2.619,10.748-0.918,13.355,3.584c2.694,4.667,1.083,10.657-3.584,13.359l-81.156,46.852   C311.541,322.86,309.851,323.313,308.13,323.313z M389.266,260.837c-1.016,0-2.02,0.268-2.903,0.78L305.2,308.481   c-2.784,1.611-3.745,5.187-2.139,7.975c1.556,2.682,5.313,3.682,7.975,2.143l81.152-46.856c2.792-1.611,3.749-5.187,2.139-7.975   C393.287,261.956,391.346,260.837,389.266,260.837z"/>
	<path style="fill:#5BC433;" d="M308.13,359.153c-2.702,0-5.325-1.394-6.774-3.899c-2.158-3.738-0.878-8.511,2.859-10.669   l81.164-46.86c3.722-2.166,8.499-0.874,10.661,2.867c2.158,3.734,0.878,8.507-2.863,10.665l-81.152,46.852   C310.8,358.822,309.449,359.153,308.13,359.153z"/>
	<path style="fill:#5BC433;" d="M308.13,361.123c-3.486,0-6.739-1.871-8.476-4.884c-2.698-4.671-1.091-10.661,3.576-13.363   l81.164-46.852c4.49-2.615,10.748-0.922,13.355,3.584c2.694,4.667,1.083,10.658-3.584,13.355l-81.156,46.852   C311.541,360.67,309.851,361.123,308.13,361.123z M389.266,298.647c-1.016,0-2.02,0.268-2.903,0.784L305.2,346.29   c-2.784,1.607-3.745,5.183-2.139,7.975c1.556,2.686,5.313,3.679,7.975,2.139l81.152-46.852c2.792-1.615,3.749-5.191,2.139-7.975   C393.287,299.769,391.346,298.647,389.266,298.647z"/>
</g>
<g>
</g>
<g>
</g>
<g>
</g>
<g>
</g>
<g>
</g>
<g>
</g>
<g>
</g>
<g>
</g>
<g>
</g>
<g>
</g>
<g>
</g>
<g>
</g>
<g>
</g>
<g>
</g>
<g>
</g>
</svg>
