<?xml version="1.0" encoding="iso-8859-1"?>
<!-- Generator: Adobe Illustrator 19.0.0, SVG Export Plug-In . SVG Version: 6.00 Build 0)  -->
<svg xmlns="http://www.w3.org/2000/svg" xmlns:xlink="http://www.w3.org/1999/xlink" version="1.1" id="Capa_1" x="0px" y="0px" viewBox="0 0 504.116 504.116" style="enable-background:new 0 0 504.116 504.116;" xml:space="preserve">
<path style="fill:#16B71A;" d="M410.122,36.322L359.631,7.394c-2.209-1.611-4.577-2.97-7.093-4.064l-0.744-0.421l-0.032,0.063  c-13.584-5.522-31.13-3.529-50.271,7.519l-155.518,89.777c-42.76,24.686-77.745,85.287-77.745,134.668v179.558  c0,24.08,8.361,41.157,21.847,49.534l-0.13,0.236l56.115,31.795l31.555-54.942l123.876-71.511  c42.752-24.69,77.745-85.291,77.745-134.668V90.089L410.122,36.322z"/>
<path style="fill:#07A812;" d="M410.122,36.322l-54.047-12.678c-2.209-1.607-13.245-1.568-15.762-2.67l-4.009-1.599l-7.211-1.343  c-13.584-5.522-8.46-18.593-27.601-7.546l-155.518,89.781c-42.76,24.686-77.745,85.287-77.745,134.668v179.558  c0,24.08,8.361,41.157,21.847,49.534l-0.13,0.236l56.115,31.795l31.555-54.942l123.876-71.511  c42.752-24.69,77.745-85.291,77.745-134.668V90.089L410.122,36.322z"/>
<path style="fill:#009311;" d="M71.19,209.066c-1.887,8.791-2.962,17.495-2.962,25.868v179.558c0,24.08,8.361,41.157,21.847,49.534  l-0.13,0.236l56.115,31.795l31.555-54.942l123.876-71.511c7.263-4.194,14.285-9.492,20.961-15.537L71.19,209.066z"/>
<path style="fill:#4CBF17;" d="M199.423,131.258c-42.76,24.686-77.753,85.291-77.753,134.668v179.562  c0,49.377,34.993,69.577,77.753,44.883l155.506-89.777c42.76-24.686,77.753-85.287,77.753-134.668V86.368  c0-49.376-34.993-69.573-77.753-44.883L199.423,131.258z"/>
<path style="fill:#70DD43;" d="M384.345,31.229v345.632c28.286-29.791,48.337-73.563,48.337-110.931V86.368  C432.682,48.996,412.631,28.358,384.345,31.229z"/>
<path style="opacity:0.1;fill:#383E3F;enable-background:new    ;" d="M432.682,86.368c0-49.376-34.993-69.573-77.753-44.883  l-155.506,89.773c-42.76,24.686-77.753,85.291-77.753,134.668v179.562c0,49.377,34.993,69.577,77.753,44.883"/>
<path style="fill:#70DD43;" d="M164.882,504.116h-0.008c-28.192,0-46.407-23.012-46.407-58.628V265.926  c0-50.523,35.592-112.183,79.344-137.44l155.514-89.781c12.607-7.278,24.769-10.965,36.147-10.965  c28.191,0,46.415,23.016,46.415,58.628V265.93c0,50.527-35.6,112.183-79.352,137.444l-155.514,89.777  C188.415,500.426,176.26,504.116,164.882,504.116z M389.477,34.151c-10.24,0-21.323,3.399-32.937,10.098l-155.518,89.785  c-41.984,24.241-76.146,83.409-76.146,131.891v179.562c0,32.209,15.325,52.216,39.999,52.216h0.008  c10.24,0,21.315-3.399,32.929-10.098l155.514-89.785c41.984-24.237,76.146-83.409,76.146-131.891V86.368  C429.476,54.159,414.151,34.151,389.477,34.151z"/>
<g>
	<path style="fill:#FFFFFF;" d="M179.754,448.682c-4.73,0-8.57-3.844-8.57-8.578l-0.008-137.232c0-3.06,1.638-5.892,4.285-7.424   l79.23-45.745c4.092-2.363,9.346-0.969,11.717,3.139c2.371,4.108,0.969,9.346-3.139,11.717l-74.941,43.268l0.008,132.277   C188.336,444.838,184.492,448.682,179.754,448.682z"/>
	<path style="fill:#FFFFFF;" d="M179.762,372.965c-2.962,0-5.845-1.54-7.432-4.293c-2.363-4.1-0.969-9.346,3.139-11.717   l54.615-31.535c4.092-2.367,9.354-0.965,11.717,3.135c2.371,4.108,0.969,9.35-3.139,11.717l-54.619,31.539   C182.692,372.591,181.223,372.965,179.762,372.965z"/>
	<path style="fill:#FFFFFF;" d="M258.984,402.941c-4.738,0-8.586-3.844-8.586-8.578v-91.49c0-3.06,1.638-5.892,4.293-7.424   l39.617-22.875c4.092-2.375,9.354-0.973,11.717,3.139c2.371,4.104,0.969,9.346-3.139,11.717l-35.324,20.397v86.536   C267.562,399.097,263.714,402.941,258.984,402.941z"/>
	<path style="fill:#FFFFFF;" d="M258.984,357.196c-2.954,0-5.837-1.54-7.432-4.289c-2.371-4.108-0.961-9.35,3.139-11.717   l39.617-22.875c4.092-2.375,9.354-0.965,11.717,3.139c2.371,4.104,0.969,9.346-3.139,11.717l-39.617,22.871   C261.922,356.83,260.445,357.196,258.984,357.196z"/>
	<path style="fill:#FFFFFF;" d="M258.984,402.941c-2.954,0-5.837-1.536-7.432-4.289c-2.371-4.108-0.961-9.346,3.139-11.717   l39.617-22.871c4.092-2.379,9.354-0.973,11.717,3.135c2.371,4.104,0.969,9.35-3.139,11.717l-39.617,22.875   C261.922,402.571,260.445,402.941,258.984,402.941z"/>
</g>
<g style="opacity:0.1;">
	<path style="fill:#383E3F;" d="M179.754,460.12c-4.73,0-8.57-3.848-8.57-8.578l-0.008-137.232c0-3.064,1.638-5.896,4.285-7.428   l79.23-45.741c4.092-2.363,9.346-0.969,11.717,3.139c2.371,4.104,0.969,9.346-3.139,11.717l-74.941,43.268l0.008,132.277   C188.336,456.276,184.492,460.12,179.754,460.12z"/>
	<path style="fill:#383E3F;" d="M179.762,384.403c-2.962,0-5.845-1.536-7.432-4.289c-2.363-4.104-0.969-9.346,3.139-11.717   l54.615-31.539c4.092-2.367,9.354-0.961,11.717,3.139c2.371,4.108,0.969,9.346-3.139,11.717l-54.619,31.539   C182.692,384.029,181.223,384.403,179.762,384.403z"/>
	<path style="fill:#383E3F;" d="M258.984,414.374c-4.738,0-8.586-3.844-8.586-8.578v-91.483c0-3.064,1.638-5.896,4.293-7.428   l39.617-22.875c4.092-2.371,9.354-0.969,11.717,3.139c2.371,4.108,0.969,9.346-3.139,11.717l-35.324,20.401V405.8   C267.562,410.531,263.714,414.374,258.984,414.374z"/>
	<path style="fill:#383E3F;" d="M258.984,368.637c-2.954,0-5.837-1.54-7.432-4.293c-2.371-4.108-0.961-9.346,3.139-11.717   l39.617-22.871c4.092-2.375,9.354-0.969,11.717,3.139c2.371,4.1,0.969,9.346-3.139,11.717l-39.617,22.871   C261.922,368.267,260.445,368.637,258.984,368.637z"/>
	<path style="fill:#383E3F;" d="M258.984,414.374c-2.954,0-5.837-1.532-7.432-4.285c-2.371-4.108-0.961-9.35,3.139-11.717   l39.617-22.875c4.092-2.375,9.354-0.973,11.717,3.135c2.371,4.108,0.969,9.35-3.139,11.717l-39.617,22.879   C261.922,414.004,260.445,414.374,258.984,414.374z"/>
</g>
<g>
</g>
<g>
</g>
<g>
</g>
<g>
</g>
<g>
</g>
<g>
</g>
<g>
</g>
<g>
</g>
<g>
</g>
<g>
</g>
<g>
</g>
<g>
</g>
<g>
</g>
<g>
</g>
<g>
</g>
</svg>
