<?xml version="1.0" encoding="iso-8859-1"?>
<!-- Generator: Adobe Illustrator 19.0.0, SVG Export Plug-In . SVG Version: 6.00 Build 0)  -->
<svg xmlns="http://www.w3.org/2000/svg" xmlns:xlink="http://www.w3.org/1999/xlink" version="1.1" id="Capa_1" x="0px" y="0px" viewBox="0 0 504.116 504.116" style="enable-background:new 0 0 504.116 504.116;" xml:space="preserve">
<path style="fill:#768786;" d="M410.122,36.322L359.631,7.394c-2.209-1.611-4.577-2.97-7.093-4.064l-0.744-0.421l-0.032,0.063  c-13.584-5.522-31.13-3.529-50.271,7.519l-155.518,89.777c-42.76,24.686-77.745,85.287-77.745,134.668v179.558  c0,24.08,8.361,41.157,21.847,49.534l-0.13,0.236l56.115,31.795l31.555-54.942l123.876-71.511  c42.752-24.69,77.745-85.291,77.745-134.668V90.089L410.122,36.322z"/>
<path style="fill:#627070;" d="M410.122,36.322l-54.047-12.678c-2.209-1.607-13.245-1.568-15.762-2.67l-4.009-1.599l-7.211-1.343  c-13.584-5.522-8.46-18.593-27.601-7.546l-155.518,89.781c-42.76,24.686-77.745,85.287-77.745,134.668v179.558  c0,24.08,8.361,41.157,21.847,49.534l-0.13,0.236l56.115,31.795l31.555-54.942l123.876-71.511  c42.752-24.69,77.745-85.291,77.745-134.668V90.089L410.122,36.322z"/>
<path style="opacity:0.2;fill:#383E3F;enable-background:new    ;" d="M130.468,117.021c-1.268-0.926-2.615-1.745-3.994-2.509  c-33.386,29.345-58.246,78.824-58.246,120.422v179.558c0,24.08,8.361,41.157,21.847,49.534l-0.13,0.236l1.646,0.929  c33.501-29.318,58.486-78.935,58.486-120.627V199.72l30.885-53.772L130.468,117.021z"/>
<path style="fill:#4B5959;" d="M71.19,209.066c-1.887,8.791-2.962,17.495-2.962,25.868v179.558c0,24.08,8.361,41.157,21.847,49.534  l-0.13,0.236l56.115,31.795l31.555-54.942l123.876-71.511c7.263-4.194,14.285-9.492,20.961-15.537L71.19,209.066z"/>
<path style="fill:#798A8C;" d="M199.423,131.258c-42.76,24.686-77.753,85.291-77.753,134.668v179.562  c0,49.377,34.993,69.577,77.753,44.883l155.506-89.777c42.76-24.686,77.753-85.287,77.753-134.668V86.368  c0-49.376-34.993-69.573-77.753-44.883L199.423,131.258z"/>
<g>
	<path style="opacity:0.1;fill:#383E3F;enable-background:new    ;" d="M432.682,86.368c0-49.376-34.993-69.573-77.753-44.883   l-155.506,89.773c-42.76,24.686-77.753,85.291-77.753,134.668v179.562c0,49.377,34.993,69.577,77.753,44.883"/>
	<polygon style="opacity:0.2;fill:#383E3F;enable-background:new    ;" points="243.187,465.11 352.538,401.976 352.538,260.916    243.187,260.916  "/>
	<path style="opacity:0.2;fill:#383E3F;enable-background:new    ;" d="M180.959,144.598   c-33.906,29.223-59.294,79.305-59.294,121.332v179.562c0,42.039,25.368,62.901,59.294,52.949V144.598z"/>
</g>
<path style="fill:#8DA2A3;" d="M164.882,504.116h-0.008c-28.192,0-46.407-23.012-46.407-58.628V265.926  c0-50.523,35.592-112.183,79.344-137.444l155.514-89.777c12.607-7.278,24.769-10.965,36.147-10.965  c28.191,0,46.415,23.016,46.415,58.628V265.93c0,50.527-35.6,112.183-79.352,137.444l-155.514,89.777  C188.415,500.426,176.26,504.116,164.882,504.116z M389.477,34.151c-10.24,0-21.323,3.399-32.937,10.098l-155.518,89.785  c-41.984,24.241-76.146,83.409-76.146,131.891v179.562c0,32.209,15.325,52.216,39.999,52.216h0.008  c10.24,0,21.315-3.399,32.929-10.098l155.514-89.785c41.984-24.237,76.146-83.409,76.146-131.891V86.368  C429.476,54.159,414.151,34.151,389.477,34.151z"/>
<path style="fill:#383E3F;" d="M369.229,148.272c-6.558-11.331-21.016-15.206-32.307-8.665l-93.735,54.134v202.827  c0,13.052,10.587,23.643,23.647,23.643c13.06,0,23.65-10.587,23.65-23.643v-80.935l52.799-30.492  c11.315-6.538,15.183-21.004,8.661-32.307c-6.546-11.315-21.039-15.191-32.307-8.653l-29.152,16.833v-39.979l70.085-40.452  C371.884,174.042,375.751,159.576,369.229,148.272z"/>
<path style="fill:#434E4F;" d="M369.229,148.272c-0.709-1.229-1.532-2.355-2.414-3.407c-5.085-0.744-10.437,0.134-15.23,2.911  l-93.739,54.138v202.827c0,5.79,2.091,11.083,5.545,15.195c1.122,0.161,2.269,0.276,3.442,0.276c13.06,0,23.65-10.587,23.65-23.643  v-80.935l52.799-30.492c11.315-6.538,15.183-21.004,8.661-32.307c-0.709-1.225-1.524-2.347-2.406-3.391l-59.175,35.103l0.122-23.532  v-39.979l70.085-40.452C371.884,174.042,375.751,159.576,369.229,148.272z"/>
<g>
</g>
<g>
</g>
<g>
</g>
<g>
</g>
<g>
</g>
<g>
</g>
<g>
</g>
<g>
</g>
<g>
</g>
<g>
</g>
<g>
</g>
<g>
</g>
<g>
</g>
<g>
</g>
<g>
</g>
</svg>
