<?xml version="1.0" encoding="iso-8859-1"?>
<!-- Generator: Adobe Illustrator 19.0.0, SVG Export Plug-In . SVG Version: 6.00 Build 0)  -->
<svg xmlns="http://www.w3.org/2000/svg" xmlns:xlink="http://www.w3.org/1999/xlink" version="1.1" id="Capa_1" x="0px" y="0px" viewBox="0 0 504.119 504.119" style="enable-background:new 0 0 504.119 504.119;" xml:space="preserve">
<path style="fill:#6562CC;" d="M410.12,36.32L359.629,7.396c-2.209-1.607-4.576-2.97-7.093-4.064l-0.744-0.425L351.76,2.97  c-13.584-5.522-31.13-3.525-50.271,7.522l-155.514,89.777c-42.76,24.69-77.745,85.287-77.745,134.668v179.558  c0,24.08,8.361,41.157,21.847,49.538l-0.13,0.232l56.115,31.791l31.555-54.938l123.876-71.511  c42.752-24.69,77.745-85.287,77.745-134.668V90.092L410.12,36.32z"/>
<path style="fill:#5C55B7;" d="M410.12,36.32l-54.044-12.674c-2.209-1.611-13.245-1.568-15.762-2.666l-4.009-1.607l-7.215-1.339  c-13.584-5.522-8.46-18.593-27.601-7.546l-155.514,89.781c-42.76,24.69-77.745,85.287-77.745,134.668v179.558  c0,24.08,8.361,41.157,21.847,49.538l-0.13,0.232l56.115,31.791l31.555-54.938l123.876-71.511  c42.752-24.69,77.745-85.287,77.745-134.668V90.092L410.12,36.32z"/>
<path style="fill:#4C40A0;" d="M71.192,209.069c-1.887,8.787-2.962,17.495-2.962,25.868v179.558c0,24.08,8.361,41.157,21.847,49.538  l-0.13,0.232l56.115,31.791l31.555-54.938l123.876-71.511c7.263-4.194,14.285-9.496,20.96-15.537L71.192,209.069z"/>
<path style="fill:#875CFF;" d="M199.42,131.261c-42.76,24.69-77.753,85.287-77.753,134.668v179.558  c0,49.38,34.993,69.577,77.753,44.891l155.506-89.781c42.76-24.69,77.753-85.287,77.753-134.668V86.374  c0-49.38-34.993-69.577-77.753-44.891L199.42,131.261z"/>
<path style="fill:#7255FF;" d="M432.683,86.374c0-49.38-34.993-69.577-77.753-44.891l-155.51,89.777  c-42.76,24.69-77.753,85.287-77.753,134.668v179.558c0,49.38,34.993,69.577,77.753,44.891"/>
<path style="fill:#BC5FFF;" d="M164.884,504.119h-0.008c-28.192,0-46.407-23.016-46.407-58.632V265.929  c0-50.527,35.592-112.187,79.344-137.44l155.514-89.781c12.607-7.278,24.769-10.965,36.147-10.965  c28.191,0,46.415,23.016,46.415,58.632v179.558c0,50.527-35.6,112.187-79.352,137.44l-155.514,89.781  C188.412,500.429,176.258,504.119,164.884,504.119z M389.474,34.158c-10.24,0-21.323,3.399-32.937,10.098l-155.514,89.777  c-41.984,24.245-76.146,83.413-76.146,131.895v179.558c0,32.209,15.325,52.22,39.999,52.22h0.008  c10.24,0,21.315-3.403,32.929-10.102l155.514-89.777c41.984-24.241,76.146-83.413,76.146-131.895V86.374  C429.473,54.166,414.153,34.158,389.474,34.158z"/>
<g style="opacity:0.7;">
	<path style="fill:#7255FF;" d="M232.574,411.648c-10.567,0-20.413-2.513-29.172-7.57c-20.76-11.989-32.197-36.407-32.197-68.766   c0-63.149,44.493-140.217,99.182-171.792c28.014-16.179,54.879-18.487,75.642-6.498c20.768,11.993,32.209,36.419,32.209,68.785   c0,3.151-1.709,6.049-4.458,7.585l-43.725,24.359c-4.183,2.328-9.48,0.831-11.811-3.363c-2.332-4.187-0.827-9.476,3.363-11.811   l39.156-21.811c-1.024-23.331-9.248-40.523-23.418-48.703c-15.155-8.755-35.856-6.451-58.277,6.495   c-49.9,28.814-90.502,99.139-90.502,156.759c0,25.891,8.353,44.973,23.517,53.728c15.175,8.763,35.868,6.447,58.305-6.502   c4.167-2.402,9.46-0.973,11.859,3.178c2.399,4.151,0.977,9.46-3.178,11.859C262.869,406.93,247.048,411.648,232.574,411.648z"/>
	<path style="fill:#7255FF;" d="M252.928,352.504L252.928,352.504c-21.484-0.004-35.923-17.534-35.923-43.634   c0-33.973,23.942-75.449,53.374-92.463c8.972-5.179,17.759-7.806,26.12-7.806c21.496,0,35.938,17.542,35.938,43.65   c0,33.977-23.942,75.445-53.374,92.44C270.092,349.873,261.297,352.504,252.928,352.504z M296.499,225.965   c-5.199,0-11.229,1.89-17.436,5.478c-24.225,14.005-44.698,49.463-44.698,77.426c0,16.451,6.94,26.27,18.562,26.273   c5.207,0,11.24-1.898,17.451-5.49c24.226-13.989,44.694-49.436,44.694-77.403C315.073,235.788,308.129,225.965,296.499,225.965z"/>
</g>
<g>
	<path style="fill:#FFFFFF;" d="M242.42,396.189c-10.567,0-20.413-2.513-29.172-7.57c-20.76-11.989-32.197-36.407-32.197-68.766   c0-63.149,44.493-140.217,99.182-171.792c28.014-16.179,54.879-18.487,75.642-6.498c20.768,11.993,32.209,36.419,32.209,68.785   c0,3.151-1.709,6.049-4.458,7.585l-43.725,24.355c-4.183,2.328-9.48,0.831-11.811-3.363c-2.332-4.187-0.827-9.476,3.363-11.811   l39.156-21.811c-1.024-23.331-9.247-40.523-23.418-48.703c-15.155-8.759-35.856-6.451-58.277,6.495   c-49.9,28.814-90.502,99.139-90.502,156.759c0,25.891,8.353,44.973,23.517,53.728c15.175,8.763,35.868,6.447,58.305-6.502   c4.167-2.402,9.46-0.973,11.859,3.178c2.399,4.151,0.977,9.46-3.178,11.859C272.715,391.467,256.894,396.189,242.42,396.189z"/>
	<path style="fill:#FFFFFF;" d="M262.774,337.042L262.774,337.042c-21.484-0.004-35.923-17.534-35.923-43.634   c0-33.973,23.942-75.449,53.374-92.463c8.972-5.179,17.759-7.806,26.12-7.806c21.496,0,35.938,17.542,35.938,43.65   c0,33.977-23.942,75.445-53.374,92.44C279.938,334.411,271.143,337.042,262.774,337.042z M306.345,210.503   c-5.199,0-11.229,1.89-17.436,5.478c-24.225,14.005-44.698,49.463-44.698,77.426c0,16.451,6.94,26.27,18.562,26.273   c5.207,0,11.24-1.898,17.451-5.49c24.225-13.985,44.694-49.432,44.694-77.403C324.919,220.325,317.976,210.503,306.345,210.503z"/>
</g>
<g>
</g>
<g>
</g>
<g>
</g>
<g>
</g>
<g>
</g>
<g>
</g>
<g>
</g>
<g>
</g>
<g>
</g>
<g>
</g>
<g>
</g>
<g>
</g>
<g>
</g>
<g>
</g>
<g>
</g>
</svg>
