<?xml version="1.0" encoding="iso-8859-1"?>
<!-- Generator: Adobe Illustrator 19.0.0, SVG Export Plug-In . SVG Version: 6.00 Build 0)  -->
<svg xmlns="http://www.w3.org/2000/svg" xmlns:xlink="http://www.w3.org/1999/xlink" version="1.1" id="Capa_1" x="0px" y="0px" viewBox="0 0 504.116 504.116" style="enable-background:new 0 0 504.116 504.116;" xml:space="preserve">
<path style="fill:#0ABCB7;" d="M410.118,36.318L359.627,7.394c-2.209-1.611-4.576-2.97-7.093-4.064l-0.744-0.421l-0.032,0.063  c-13.584-5.522-31.13-3.529-50.271,7.519l-155.514,89.777c-42.76,24.69-77.745,85.287-77.745,134.668v179.558  c0,24.08,8.361,41.157,21.847,49.538l-0.13,0.232l56.115,31.791l31.555-54.938l123.876-71.511  c42.752-24.69,77.745-85.287,77.745-134.668V90.089L410.118,36.318z"/>
<path style="fill:#08A5A5;" d="M410.118,36.318l-54.044-12.674c-2.209-1.611-13.245-1.568-15.762-2.666l-4.009-1.607l-7.215-1.339  c-13.584-5.522-8.46-18.593-27.601-7.546l-155.514,89.781c-42.76,24.69-77.745,85.287-77.745,134.668v179.558  c0,24.08,8.361,41.157,21.847,49.538l-0.13,0.232l56.115,31.791l31.555-54.938l123.876-71.511  c42.752-24.69,77.745-85.287,77.745-134.668V90.089L410.118,36.318z"/>
<path style="fill:#088187;" d="M71.19,209.066c-1.887,8.787-2.962,17.495-2.962,25.868v179.558c0,24.08,8.361,41.157,21.847,49.538  l-0.13,0.232l56.115,31.791l31.555-54.938l123.876-71.511c7.263-4.194,14.285-9.496,20.96-15.537L71.19,209.066z"/>
<path style="fill:#22D197;" d="M199.419,131.258c-42.76,24.69-77.753,85.287-77.753,134.668v179.558  c0,49.38,34.993,69.577,77.753,44.891l155.506-89.781c42.76-24.69,77.753-85.287,77.753-134.668V86.372  c0-49.38-34.993-69.577-77.753-44.891L199.419,131.258z"/>
<path style="fill:#16B282;" d="M432.682,86.372c0-49.38-34.993-69.577-77.753-44.891l-155.51,89.777  c-42.76,24.69-77.753,85.287-77.753,134.668v179.558c0,49.38,34.993,69.577,77.753,44.891"/>
<path style="fill:#3DFCB7;" d="M164.882,504.116h-0.008c-28.192,0-46.407-23.016-46.407-58.632V265.926  c0-50.527,35.592-112.187,79.344-137.44l155.514-89.781c12.607-7.278,24.769-10.965,36.147-10.965  c28.191,0,46.415,23.016,46.415,58.632V265.93c0,50.527-35.6,112.187-79.352,137.44l-155.514,89.781  C188.411,500.426,176.257,504.116,164.882,504.116z M389.473,34.155c-10.24,0-21.323,3.399-32.937,10.098l-155.514,89.777  c-41.984,24.245-76.146,83.413-76.146,131.895v179.558c0,32.209,15.325,52.22,39.999,52.22h0.008  c10.24,0,21.315-3.403,32.929-10.102l155.514-89.777c41.984-24.241,76.146-83.413,76.146-131.895V86.372  C429.472,54.163,414.151,34.155,389.473,34.155z"/>
<path style="fill:#1F489B;" d="M280.783,199.602c-23.702,13.678-43.103,47.277-43.103,74.65v99.541  c0,27.372,19.401,38.565,43.103,24.879l86.205-49.77c23.71-13.686,43.103-47.281,43.103-74.654v-99.533  c0-27.376-19.397-38.569-43.103-24.883L280.783,199.602z"/>
<path style="fill:#3FEF3F;" d="M265.022,257.246c5.553-3.241,10.122-11.169,10.153-17.609c0.024-6.463-4.521-9.094-10.098-5.872  c-5.589,3.226-10.153,11.158-10.153,17.621C254.923,257.848,259.457,260.495,265.022,257.246z"/>
<path style="fill:#25D625;" d="M265.073,233.765c-5.589,3.226-10.153,11.158-10.153,17.621c0,6.463,4.537,9.106,10.098,5.86"/>
<path style="fill:#607EFC;" d="M194.582,186.31c-23.71,13.686-43.103,47.277-43.103,74.646v99.541  c0,27.376,19.397,38.569,43.103,24.883l86.205-49.766c23.706-13.69,43.103-47.281,43.103-74.661v-99.533  c0-27.372-19.401-38.565-43.103-24.879L194.582,186.31z"/>
<path style="fill:#4A71ED;" d="M323.89,161.419c0-27.372-19.401-38.565-43.103-24.879l-86.205,49.77  c-23.71,13.686-43.103,47.277-43.103,74.646v99.541c0,27.376,19.397,38.569,43.103,24.883"/>
<path style="fill:#FFFFFF;" d="M151.476,260.956v13.296l172.41-99.541v-13.288c0-27.372-19.401-38.565-43.103-24.879l-86.201,49.766  C170.873,199.992,151.476,233.587,151.476,260.956z"/>
<path style="fill:#D0D5D8;" d="M280.783,136.54l-86.201,49.77c-23.71,13.686-43.103,47.277-43.103,74.646v10.527l172.41-99.545  v-10.516C323.89,134.047,304.489,122.854,280.783,136.54z"/>
<path style="fill:#3FEF3F;" d="M178.813,243.953c5.553-3.245,10.122-11.169,10.153-17.605c0.028-6.467-4.513-9.094-10.094-5.88  c-5.593,3.23-10.153,11.166-10.153,17.625C168.714,244.556,173.255,247.203,178.813,243.953z"/>
<path style="fill:#16B282;" d="M280.783,199.602c-23.702,13.678-43.103,47.277-43.103,74.65V360.5l43.103-24.883  c23.706-13.69,43.103-47.281,43.103-74.661v-86.24L280.783,199.602z"/>
<path style="fill:#109999;" d="M323.89,174.715l-43.103,24.883c-23.706,13.682-43.106,47.281-43.106,74.654V360.5"/>
<path style="fill:#25D625;" d="M178.868,220.468c-5.593,3.23-10.153,11.166-10.153,17.625c0,6.463,4.537,9.106,10.094,5.86"/>
<g>
</g>
<g>
</g>
<g>
</g>
<g>
</g>
<g>
</g>
<g>
</g>
<g>
</g>
<g>
</g>
<g>
</g>
<g>
</g>
<g>
</g>
<g>
</g>
<g>
</g>
<g>
</g>
<g>
</g>
</svg>
