<?xml version="1.0" encoding="iso-8859-1"?>
<!-- Generator: Adobe Illustrator 19.0.0, SVG Export Plug-In . SVG Version: 6.00 Build 0)  -->
<svg xmlns="http://www.w3.org/2000/svg" xmlns:xlink="http://www.w3.org/1999/xlink" version="1.1" id="Capa_1" x="0px" y="0px" viewBox="0 0 504.116 504.116" style="enable-background:new 0 0 504.116 504.116;" xml:space="preserve">
<path style="fill:#DCF1F9;" d="M410.12,36.322L359.629,7.394c-2.209-1.607-4.577-2.97-7.093-4.061l-0.744-0.425l-0.032,0.063  c-13.584-5.522-31.13-3.529-50.271,7.519L145.972,100.27c-42.76,24.686-77.745,85.283-77.745,134.668v179.554  c0,24.084,8.361,41.161,21.847,49.538l-0.13,0.232l56.115,31.795l31.555-54.942L301.49,369.61  c42.752-24.694,77.745-85.291,77.745-134.668V90.093L410.12,36.322z"/>
<path style="fill:#CCE6F2;" d="M410.12,36.322l-54.047-12.674c-2.209-1.611-13.245-1.568-15.762-2.67l-4.009-1.603l-7.211-1.343  c-13.584-5.522-8.46-18.593-27.601-7.546L145.972,100.27c-42.76,24.686-77.745,85.283-77.745,134.668v179.554  c0,24.084,8.361,41.161,21.847,49.538l-0.13,0.232l56.115,31.795l31.555-54.942L301.49,369.61  c42.752-24.694,77.745-85.291,77.745-134.668V90.093L410.12,36.322z"/>
<path style="fill:#BFD9E8;" d="M71.188,209.07c-1.887,8.787-2.962,17.491-2.962,25.868v179.554c0,24.084,8.361,41.161,21.847,49.538  l-0.13,0.232l56.115,31.795l31.555-54.942L301.49,369.61c7.263-4.198,14.285-9.496,20.961-15.537L71.188,209.07z"/>
<path style="fill:#FFFFFF;" d="M199.421,131.262c-42.76,24.686-77.753,85.287-77.753,134.668v179.558  c0,49.38,34.993,69.577,77.753,44.887l155.506-89.777c42.76-24.69,77.753-85.291,77.753-134.668V86.372  c0-49.376-34.993-69.577-77.753-44.887L199.421,131.262z"/>
<path style="opacity:0.1;fill:#5BC0D8;enable-background:new    ;" d="M432.68,86.372c0-49.376-34.993-69.577-77.753-44.887  l-155.506,89.777c-42.76,24.686-77.753,85.287-77.753,134.668v179.558c0,49.38,34.993,69.577,77.753,44.887"/>
<path style="fill:#FFFFFF;" d="M164.88,504.116h-0.008c-28.192,0-46.407-23.012-46.407-58.628V265.93  c0-50.527,35.592-112.187,79.344-137.444l155.518-89.777c12.607-7.278,24.769-10.969,36.147-10.969  c28.191,0,46.415,23.016,46.415,58.632v179.562c0,50.523-35.6,112.183-79.352,137.441l-155.514,89.781  C188.413,500.43,176.259,504.116,164.88,504.116z M389.475,34.155c-10.24,0-21.323,3.399-32.937,10.098L201.02,134.035  c-41.984,24.241-76.146,83.413-76.146,131.895v179.558c0,32.209,15.325,52.22,39.999,52.22h0.008  c10.24,0,21.315-3.403,32.929-10.102l155.514-89.781c41.984-24.237,76.146-83.409,76.146-131.891V86.372  C429.474,54.163,414.149,34.155,389.475,34.155z"/>
<path style="fill:#056CC1;" d="M212.02,442.086c-1.623,0-3.214-0.571-4.47-1.599c-2.261-1.863-3.131-4.966-2.178-7.727  l51.554-148.834l-50.991-88.332c-0.937-1.623-1.193-3.525-0.709-5.337c0.484-1.812,1.654-3.328,3.285-4.261l35.06-20.256  c1.048-0.614,2.269-0.937,3.517-0.937c0.591,0,1.193,0.071,1.784,0.217c1.89,0.524,3.399,1.697,4.317,3.32l27.36,47.392  l30.031-86.709c0.563-1.595,1.678-2.934,3.131-3.777l35.084-20.256c1.067-0.614,2.284-0.941,3.517-0.941  c1.623,0,3.206,0.571,4.47,1.603c2.261,1.859,3.139,4.966,2.17,7.735l-51.554,148.831l50.999,88.336  c0.937,1.619,1.185,3.513,0.709,5.329c-0.508,1.843-1.67,3.356-3.277,4.277l-35.084,20.24c-1.04,0.614-2.261,0.949-3.517,0.949  c-2.501,0-4.84-1.343-6.085-3.513l-27.368-47.411l-30.039,86.689c-0.575,1.634-1.701,2.977-3.155,3.797l-35.044,20.244  C214.466,441.763,213.249,442.086,212.02,442.086z"/>
<path style="fill:#D4DDDD;" d="M352.312,106.017c1.146,0,2.284,0.394,3.214,1.154c1.638,1.347,2.261,3.568,1.568,5.569  l-51.85,149.685l51.444,89.112c0.677,1.166,0.863,2.536,0.516,3.844c-0.362,1.3-1.201,2.402-2.363,3.068l-35.084,20.24  c-0.792,0.477-1.67,0.689-2.532,0.689c-1.737,0-3.446-0.91-4.376-2.528l-29.531-51.145l-31.445,90.762  c-0.41,1.154-1.193,2.131-2.253,2.721l-35.068,20.255c-0.792,0.453-1.662,0.677-2.532,0.677c-1.146,0-2.292-0.394-3.222-1.154  c-1.631-1.347-2.253-3.564-1.56-5.561l51.846-149.685l-51.44-89.112c-1.406-2.426-0.575-5.514,1.847-6.908l35.068-20.256  c0.784-0.461,1.646-0.677,2.532-0.677c0.437,0,0.878,0.055,1.315,0.161c1.292,0.354,2.406,1.193,3.06,2.371l29.531,51.145  l31.445-90.785c0.41-1.142,1.201-2.107,2.253-2.714l35.084-20.252C350.567,106.241,351.441,106.017,352.312,106.017   M352.312,102.078c-1.575,0-3.131,0.414-4.502,1.209l-35.084,20.248c-1.871,1.083-3.285,2.792-4.001,4.833l-28.633,82.645  l-25.214-43.678c-1.146-2.044-3.084-3.552-5.431-4.198c-0.855-0.209-1.615-0.299-2.363-0.299c-1.599,0-3.163,0.414-4.521,1.217  l-35.044,20.24c-2.076,1.201-3.568,3.139-4.191,5.463c-0.622,2.324-0.299,4.754,0.906,6.837l50.538,87.548l-51.263,147.98  c-1.225,3.533-0.106,7.511,2.777,9.889c1.615,1.331,3.647,2.052,5.73,2.052c1.575,0,3.131-0.414,4.502-1.205l35.068-20.252  c1.831-1.032,3.269-2.753,4.001-4.825l28.633-82.637l25.214,43.678c1.599,2.777,4.592,4.498,7.794,4.498  c1.607,0,3.178-0.425,4.545-1.241l35.037-20.208c2.052-1.186,3.545-3.115,4.183-5.431c0.622-2.371,0.299-4.793-0.902-6.865  l-50.538-87.568l51.263-147.976c1.229-3.545,0.114-7.522-2.784-9.909C356.419,102.807,354.387,102.078,352.312,102.078  L352.312,102.078z"/>
<path style="fill:#0D83CC;" d="M257.706,281.333l1.378,2.383l-51.846,149.685c-0.693,1.997-0.071,4.214,1.56,5.561  c0.929,0.76,2.076,1.154,3.222,1.154c0.87,0,1.737-0.224,2.532-0.677l35.068-20.255c1.063-0.591,1.847-1.568,2.253-2.721  l31.445-90.762l29.531,51.145c0.929,1.615,2.639,2.528,4.376,2.528c0.863,0,1.737-0.213,2.532-0.689l35.084-20.24  c1.162-0.666,2.001-1.768,2.363-3.068c0.347-1.308,0.161-2.678-0.516-3.844l-51.444-89.108l35.875-103.574L257.706,281.333z"/>
<path style="fill:#0E72CC;" d="M305.243,262.425l35.875-103.574l-83.417,122.482l1.378,2.383l-51.846,149.685  c-0.693,1.997-0.071,4.214,1.56,5.561c0.929,0.76,2.076,1.154,3.222,1.154c0.87,0,1.737-0.224,2.532-0.677l21.421-12.371  l30.578-52.968l16.77-48.4l5.593,9.681l29.223-50.625L305.243,262.425z"/>
<g>
</g>
<g>
</g>
<g>
</g>
<g>
</g>
<g>
</g>
<g>
</g>
<g>
</g>
<g>
</g>
<g>
</g>
<g>
</g>
<g>
</g>
<g>
</g>
<g>
</g>
<g>
</g>
<g>
</g>
</svg>
