<?xml version="1.0" encoding="iso-8859-1"?>
<!-- Generator: Adobe Illustrator 19.0.0, SVG Export Plug-In . SVG Version: 6.00 Build 0)  -->
<svg xmlns="http://www.w3.org/2000/svg" xmlns:xlink="http://www.w3.org/1999/xlink" version="1.1" id="Capa_1" x="0px" y="0px" viewBox="0 0 504.12 504.12" style="enable-background:new 0 0 504.12 504.12;" xml:space="preserve">
<path style="fill:#EFEFEF;" d="M410.124,36.318L359.633,7.394c-2.209-1.611-4.576-2.97-7.093-4.064l-0.744-0.421l-0.032,0.063  c-13.584-5.522-31.13-3.529-50.271,7.519l-155.518,89.777c-42.76,24.69-77.745,85.287-77.745,134.668v179.558  c0,24.08,8.361,41.157,21.847,49.538l-0.13,0.232l56.115,31.791l31.555-54.938l123.876-71.511  c42.752-24.69,77.745-85.287,77.745-134.668V90.089L410.124,36.318z"/>
<path style="fill:#E3E8E7;" d="M410.124,36.318l-54.048-12.674c-2.209-1.607-13.245-1.568-15.762-2.67l-4.005-1.599l-7.215-1.339  c-13.584-5.522-8.46-18.593-27.601-7.546l-155.518,89.777c-42.76,24.69-77.745,85.287-77.745,134.668v179.558  c0,24.08,8.361,41.157,21.847,49.538l-0.13,0.232l56.115,31.791l31.555-54.938l123.876-71.511  c42.752-24.69,77.745-85.287,77.745-134.668V90.089L410.124,36.318z"/>
<path style="fill:#D7DDDC;" d="M71.192,209.066c-1.887,8.787-2.962,17.495-2.962,25.868v179.558c0,24.08,8.361,41.157,21.847,49.538  l-0.13,0.232l56.115,31.791l31.555-54.938l123.876-71.511c7.263-4.194,14.285-9.496,20.96-15.533L71.192,209.066z"/>
<path style="fill:#FFFFFF;" d="M199.425,131.262c-42.76,24.69-77.753,85.287-77.753,134.668v179.558  c0,49.384,34.993,69.577,77.753,44.891l155.506-89.781c42.76-24.69,77.753-85.287,77.753-134.668V86.372  c0-49.38-34.993-69.577-77.753-44.891L199.425,131.262z"/>
<path style="opacity:0.1;fill:#8EACAF;enable-background:new    ;" d="M432.684,86.372c0-49.38-34.993-69.577-77.753-44.891  l-155.506,89.781c-42.76,24.69-77.753,85.287-77.753,134.668v179.558c0,49.384,34.993,69.577,77.753,44.891"/>
<path style="fill:#FFFFFF;" d="M164.884,504.12h-0.008c-28.192,0-46.407-23.016-46.407-58.632V265.93  c0-50.527,35.592-112.187,79.344-137.44l155.514-89.781c12.607-7.278,24.769-10.965,36.147-10.965  c28.191,0,46.415,23.016,46.415,58.632v179.558c0,50.527-35.6,112.187-79.352,137.444l-155.514,89.777  C188.417,500.43,176.262,504.12,164.884,504.12z M389.479,34.155c-10.24,0-21.323,3.399-32.937,10.098l-155.518,89.781  c-41.984,24.245-76.146,83.413-76.146,131.895v179.558c0,32.209,15.325,52.22,39.999,52.22h0.008  c10.24,0,21.315-3.403,32.929-10.102l155.514-89.777c41.984-24.241,76.146-83.413,76.146-131.895V86.372  C429.478,54.163,414.153,34.155,389.479,34.155z"/>
<path style="fill:#607EFC;" d="M163.002,274.366c0.012-44.39,31.437-98.84,69.864-121.029c38.455-22.209,69.892-4.053,69.876,40.346  c0.012,44.379-31.433,98.824-69.876,121.025C194.438,336.889,163.013,318.733,163.002,274.366z"/>
<path style="fill:#FFC612;" d="M263.889,215.927c0.004-44.398,31.437-98.84,69.868-121.029  c38.455-22.209,69.892-4.061,69.876,40.346c0.012,44.379-31.433,98.824-69.876,121.025  C295.326,278.45,263.893,260.294,263.889,215.927z"/>
<path style="fill:#15FFD2;" d="M283.251,149.233c-11.957,21.398-19.361,45.206-19.361,66.694c0,21.563,7.463,36.86,19.507,44.422  c11.945-21.394,19.358-45.202,19.346-66.67C302.754,172.104,295.291,156.795,283.251,149.233z"/>
<path style="fill:#F28314;" d="M163.002,399.712c0.012-44.394,31.437-98.84,69.864-121.029  c38.455-22.209,69.892-4.053,69.876,40.346c0.012,44.379-31.433,98.824-69.876,121.021  C194.438,462.235,163.013,444.078,163.002,399.712z"/>
<path style="fill:#6D3DD8;" d="M232.866,278.679c-16.561,9.57-31.819,25.147-43.823,43.323c12.004,4.293,27.262,2.265,43.823-7.302  c16.589-9.57,31.839-25.159,43.855-43.331C264.705,267.072,249.455,269.112,232.866,278.679z"/>
<path style="fill:#B762F9;" d="M263.889,341.273c0.004-44.39,31.437-98.84,69.868-121.029c38.455-22.209,69.892-4.053,69.876,40.346  c0.012,44.379-31.433,98.824-69.876,121.025C295.326,403.796,263.893,385.639,263.889,341.273z"/>
<path style="fill:#C40C45;" d="M283.251,274.579c-11.957,21.394-19.361,45.214-19.361,66.694c0,21.563,7.463,36.86,19.507,44.422  c11.945-21.398,19.358-45.202,19.346-66.67C302.754,297.453,295.291,282.141,283.251,274.579z"/>
<path style="fill:#EF1682;" d="M333.758,220.24c-16.565,9.57-31.823,25.147-43.831,43.319c12.008,4.297,27.266,2.273,43.831-7.298  c16.581-9.578,31.835-25.163,43.851-43.331C365.592,208.633,350.339,210.665,333.758,220.24z"/>
<path style="opacity:0.5;fill:#FFC612;enable-background:new    ;" d="M333.758,94.894c38.455-22.209,69.892-4.061,69.876,40.346  c0.012,44.379-31.433,98.824-69.876,121.025"/>
<path style="opacity:0.3;fill:#607EFC;enable-background:new    ;" d="M232.866,314.704c-38.428,22.185-69.853,4.029-69.864-40.338  c0.012-44.39,31.437-98.84,69.864-121.029"/>
<path style="opacity:0.3;fill:#F28314;enable-background:new    ;" d="M302.742,319.024c0.012,44.379-31.433,98.824-69.876,121.021  c-38.428,22.189-69.853,4.033-69.864-40.334"/>
<path style="opacity:0.3;fill:#B762F9;enable-background:new    ;" d="M403.634,260.589c0.012,44.379-31.433,98.824-69.876,121.025  c-38.432,22.185-69.864,4.029-69.868-40.338"/>
<g>
</g>
<g>
</g>
<g>
</g>
<g>
</g>
<g>
</g>
<g>
</g>
<g>
</g>
<g>
</g>
<g>
</g>
<g>
</g>
<g>
</g>
<g>
</g>
<g>
</g>
<g>
</g>
<g>
</g>
</svg>
