<?xml version="1.0" encoding="iso-8859-1"?>
<!-- Generator: Adobe Illustrator 19.0.0, SVG Export Plug-In . SVG Version: 6.00 Build 0)  -->
<svg xmlns="http://www.w3.org/2000/svg" xmlns:xlink="http://www.w3.org/1999/xlink" version="1.1" id="Capa_1" x="0px" y="0px" viewBox="0 0 504.116 504.116" style="enable-background:new 0 0 504.116 504.116;" xml:space="preserve">
<path style="fill:#3E4242;" d="M410.122,36.322L359.631,7.394c-2.209-1.611-4.577-2.97-7.093-4.064l-0.744-0.421l-0.032,0.063  c-13.584-5.522-31.13-3.529-50.271,7.519l-155.518,89.777c-42.76,24.686-77.745,85.287-77.745,134.668v179.558  c0,24.08,8.361,41.157,21.847,49.534l-0.13,0.236l56.115,31.795l31.555-54.942l123.876-71.511  c42.752-24.69,77.745-85.291,77.745-134.668V90.089L410.122,36.322z"/>
<path style="fill:#2F3333;" d="M410.122,36.322l-54.047-12.678c-2.209-1.607-13.245-1.568-15.762-2.67l-4.009-1.599l-7.211-1.343  c-13.584-5.522-8.46-18.593-27.601-7.546l-155.518,89.781c-42.76,24.686-77.745,85.287-77.745,134.668v179.558  c0,24.08,8.361,41.157,21.847,49.534l-0.13,0.236l56.115,31.795l31.555-54.942l123.876-71.511  c42.752-24.69,77.745-85.291,77.745-134.668V90.089L410.122,36.322z"/>
<path d="M71.19,209.066c-1.887,8.791-2.962,17.495-2.962,25.868v179.558c0,24.08,8.361,41.157,21.847,49.534l-0.13,0.236  l56.115,31.795l31.555-54.942l123.876-71.511c7.263-4.194,14.285-9.492,20.961-15.537L71.19,209.066z"/>
<path style="fill:#F3FAFF;" d="M199.423,131.258c-42.76,24.686-77.753,85.291-77.753,134.668v179.562  c0,49.377,34.993,69.577,77.753,44.883l155.506-89.777c42.76-24.686,77.753-85.287,77.753-134.668V86.368  c0-49.376-34.993-69.573-77.753-44.883L199.423,131.258z"/>
<path style="fill:#E5F0F9;" d="M432.686,85.19c0-49.376-34.993-69.573-77.753-44.883l-155.506,89.773  c-42.76,24.686-77.753,85.291-77.753,134.668v179.562c0,49.377,34.993,69.577,77.753,44.883"/>
<path d="M164.882,504.116h-0.008c-28.192,0-46.407-23.012-46.407-58.628V265.926c0-50.523,35.592-112.183,79.344-137.44  l155.514-89.781c12.607-7.278,24.769-10.965,36.147-10.965c28.191,0,46.415,23.016,46.415,58.628V265.93  c0,50.527-35.6,112.183-79.352,137.444l-155.514,89.777C188.415,500.426,176.26,504.116,164.882,504.116z M389.477,34.151  c-10.24,0-21.323,3.399-32.937,10.098l-155.518,89.785c-41.984,24.241-76.146,83.409-76.146,131.891v179.562  c0,32.209,15.325,52.216,39.999,52.216h0.008c10.24,0,21.315-3.399,32.929-10.098l155.514-89.785  c41.984-24.237,76.146-83.409,76.146-131.891V86.368C429.476,54.159,414.151,34.151,389.477,34.151z"/>
<path d="M200.088,407.522c-19.684,0-32.402-16.053-32.402-40.893c0-33.871,22.701-74.669,51.873-93.531  c2.225-40.377,30.259-87.012,64.264-106.646c10.216-5.9,20.066-8.889,29.282-8.889c21.752,0,36.254,17.097,37.467,43.811  c1.898-0.276,3.773-0.414,5.589-0.414c19.688,0,32.41,16.045,32.41,40.885c0,35.163-24.773,78.064-55.225,95.646l-108.067,62.389  C216.5,404.95,208.02,407.522,200.088,407.522L200.088,407.522z"/>
<path style="fill:#FFFFFF;" d="M313.106,159.942c20.59,0,34.871,16.246,35.167,44.26c2.725-0.583,5.364-0.87,7.889-0.87  c17.762,0,30.027,14.139,30.027,38.506c0,34.316-24.316,76.43-54.036,93.586l-108.064,62.393c-8.613,4.97-16.762,7.322-24.005,7.322  c-17.755,0-30.023-14.147-30.023-38.514c0-33.453,23.123-74.256,51.814-92.184c1.658-39.487,29.377-86.445,63.134-105.937  C295.092,162.691,304.635,159.934,313.106,159.942 M313.106,155.18v4.762V155.18c-9.633,0-19.889,3.096-30.468,9.208  c-34.3,19.803-62.625,66.548-65.378,107.374c-29.298,19.543-51.952,60.664-51.952,94.866c0,26.285,13.655,43.276,34.781,43.276  c8.357,0,17.235-2.686,26.38-7.967l108.064-62.385c31.106-17.963,56.415-61.791,56.415-97.709c0-26.281-13.655-43.26-34.785-43.26  c-1.107,0-2.229,0.047-3.367,0.142C350.73,172.088,335.552,155.18,313.106,155.18L313.106,155.18z"/>
<path style="fill:#2F3333;" d="M348.273,204.206c-0.417-39.542-28.7-55.647-63.26-35.698  c-33.757,19.491-61.475,66.45-63.134,105.937c-28.692,17.932-51.814,58.73-51.814,92.184c0,34.316,24.312,48.349,54.028,31.193"/>
<g>
</g>
<g>
</g>
<g>
</g>
<g>
</g>
<g>
</g>
<g>
</g>
<g>
</g>
<g>
</g>
<g>
</g>
<g>
</g>
<g>
</g>
<g>
</g>
<g>
</g>
<g>
</g>
<g>
</g>
</svg>
