<?xml version="1.0" encoding="iso-8859-1"?>
<!-- Generator: Adobe Illustrator 19.0.0, SVG Export Plug-In . SVG Version: 6.00 Build 0)  -->
<svg xmlns="http://www.w3.org/2000/svg" xmlns:xlink="http://www.w3.org/1999/xlink" version="1.1" id="Capa_1" x="0px" y="0px" viewBox="0 0 504.116 504.116" style="enable-background:new 0 0 504.116 504.116;" xml:space="preserve">
<path style="fill:#3B66ED;" d="M410.118,36.318L359.627,7.394c-2.209-1.611-4.576-2.97-7.093-4.064l-0.744-0.421l-0.032,0.063  c-13.584-5.522-31.13-3.529-50.271,7.519l-155.514,89.777c-42.76,24.69-77.745,85.287-77.745,134.668v179.558  c0,24.08,8.361,41.157,21.847,49.538l-0.13,0.232l56.115,31.791l31.555-54.938l123.876-71.511  c42.752-24.69,77.745-85.287,77.745-134.668V90.089L410.118,36.318z"/>
<path style="fill:#2A4BD8;" d="M410.118,36.318l-54.044-12.674c-2.209-1.611-13.245-1.568-15.762-2.666l-4.009-1.607l-7.215-1.339  c-13.584-5.522-8.46-18.593-27.601-7.546l-155.514,89.781c-42.76,24.69-77.745,85.287-77.745,134.668v179.558  c0,24.08,8.361,41.157,21.847,49.538l-0.13,0.232l56.115,31.791l31.555-54.938l123.876-71.511  c42.752-24.69,77.745-85.287,77.745-134.668V90.089L410.118,36.318z"/>
<path style="fill:#1A40BA;" d="M71.19,209.066c-1.887,8.787-2.962,17.495-2.962,25.868v179.558c0,24.08,8.361,41.157,21.847,49.538  l-0.13,0.232l56.115,31.791l31.555-54.938l123.876-71.511c7.263-4.194,14.285-9.496,20.96-15.537L71.19,209.066z"/>
<path style="fill:#607EFC;" d="M199.419,131.258c-42.76,24.69-77.753,85.287-77.753,134.668v179.558  c0,49.38,34.993,69.577,77.753,44.891l155.506-89.781c42.76-24.69,77.753-85.287,77.753-134.668V86.372  c0-49.38-34.993-69.577-77.753-44.891L199.419,131.258z"/>
<path style="fill:#5069FF;" d="M432.682,86.372c0-49.38-34.993-69.577-77.753-44.891l-155.51,89.777  c-42.76,24.69-77.753,85.287-77.753,134.668v179.558c0,49.38,34.993,69.577,77.753,44.891"/>
<path style="fill:#7D9CFF;" d="M164.882,504.116h-0.008c-28.192,0-46.407-23.016-46.407-58.632V265.926  c0-50.527,35.592-112.187,79.344-137.44l155.514-89.781c12.607-7.278,24.769-10.965,36.147-10.965  c28.191,0,46.415,23.016,46.415,58.632V265.93c0,50.527-35.6,112.187-79.352,137.44l-155.514,89.781  C188.411,500.426,176.257,504.116,164.882,504.116z M389.473,34.155c-10.24,0-21.323,3.399-32.937,10.098l-155.514,89.777  c-41.984,24.245-76.146,83.413-76.146,131.895v179.558c0,32.209,15.325,52.22,39.999,52.22h0.008  c10.24,0,21.315-3.403,32.929-10.102l155.514-89.777c41.984-24.241,76.146-83.413,76.146-131.895V86.372  C429.472,54.163,414.151,34.155,389.473,34.155z"/>
<path style="fill:#FFFFFF;" d="M363.987,158.461l-34.402,19.862v-31.732c0-3.592-2.544-5.057-5.66-3.265l-79.155,45.702  c-3.107,1.796-5.66,6.203-5.66,9.795v31.732l-34.399,19.866c-6.262,3.612-11.378,12.485-11.378,19.708v131.367  c0,7.223,5.116,10.181,11.378,6.569l159.275-91.955c6.262-3.616,11.378-12.485,11.378-19.708V165.03  C375.365,157.807,370.249,154.85,363.987,158.461z"/>
<path style="fill:#E2E9F2;" d="M375.365,165.03c0-7.223-5.116-10.181-11.378-6.569l-34.402,19.862v-31.732  c0-3.592-2.544-5.057-5.66-3.265l-79.155,45.702c-3.107,1.796-5.66,6.203-5.66,9.795v31.732l-34.399,19.866  c-6.262,3.612-11.378,12.485-11.378,19.708v131.367c0,7.223,5.116,10.181,11.378,6.569l63.346-36.573l107.307-185.86L375.365,165.03  L375.365,165.03z"/>
<path style="fill:#607EFC;" d="M290.007,325.708c20.433-11.922,37.258-41.114,37.364-64.815  c0.098-23.776-16.632-33.461-37.171-21.622c-20.567,11.882-37.376,41.082-37.376,64.866  C252.824,327.941,269.543,337.661,290.007,325.708z"/>
<path style="fill:#5069FF;" d="M290.2,239.27c-20.567,11.882-37.376,41.082-37.376,64.866c0,23.804,16.719,33.528,37.183,21.575"/>
<g>
</g>
<g>
</g>
<g>
</g>
<g>
</g>
<g>
</g>
<g>
</g>
<g>
</g>
<g>
</g>
<g>
</g>
<g>
</g>
<g>
</g>
<g>
</g>
<g>
</g>
<g>
</g>
<g>
</g>
</svg>
