<?xml version="1.0" encoding="iso-8859-1"?>
<!-- Generator: Adobe Illustrator 19.0.0, SVG Export Plug-In . SVG Version: 6.00 Build 0)  -->
<svg xmlns="http://www.w3.org/2000/svg" xmlns:xlink="http://www.w3.org/1999/xlink" version="1.1" id="Capa_1" x="0px" y="0px" viewBox="0 0 504.118 504.118" style="enable-background:new 0 0 504.118 504.118;" xml:space="preserve">
<path style="fill:#1CC464;" d="M410.131,36.319L359.632,7.395c-2.213-1.607-4.576-2.97-7.089-4.064l-0.752-0.425l-0.032,0.067  c-13.584-5.526-31.13-3.529-50.271,7.519l-155.506,89.777c-42.76,24.69-77.753,85.287-77.753,134.668v179.558  c0,24.08,8.369,41.157,21.855,49.538l-0.13,0.232l56.107,31.791l31.563-54.938l123.869-71.511  c42.76-24.69,77.749-85.287,77.749-134.668V90.091L410.131,36.319z"/>
<path style="fill:#15A054;" d="M410.131,36.319l-54.048-12.674c-2.213-1.611-13.253-1.571-15.762-2.666l-4.009-1.603l-7.211-1.343  c-13.584-5.522-8.468-18.593-27.609-7.546l-155.51,89.781c-42.76,24.69-77.753,85.287-77.753,134.668v179.558  c0,24.08,8.369,41.157,21.855,49.538l-0.13,0.232l56.107,31.791l31.563-54.938l123.869-71.511  c42.76-24.69,77.749-85.287,77.749-134.668V90.091L410.131,36.319z"/>
<path style="fill:#07875C;" d="M71.195,209.064c-1.887,8.791-2.966,17.499-2.966,25.872v179.558c0,24.08,8.369,41.157,21.855,49.538  l-0.13,0.232l56.107,31.791l31.563-54.938l123.869-71.511c7.266-4.194,14.285-9.496,20.968-15.537L71.195,209.064z"/>
<path style="fill:#25D625;" d="M199.427,131.26c-42.756,24.69-77.749,85.287-77.749,134.668v179.558  c0,49.38,34.993,69.577,77.749,44.891l155.51-89.781c42.76-24.69,77.745-85.287,77.745-134.668V86.373  c0-49.38-34.985-69.577-77.745-44.891L199.427,131.26z"/>
<path style="fill:#1BBF1B;" d="M432.683,86.373c0-49.38-34.985-69.577-77.745-44.891l-155.51,89.777  c-42.756,24.69-77.749,85.287-77.749,134.668v179.558c0,49.38,34.993,69.577,77.749,44.891"/>
<path style="fill:#2AE82A;" d="M164.887,504.118L164.887,504.118c-28.199,0-46.419-23.016-46.419-58.632V265.928  c0-50.527,35.6-112.187,79.352-137.441l155.51-89.781c12.603-7.278,24.769-10.965,36.151-10.965  c28.191,0,46.407,23.016,46.407,58.632v179.558c0,50.527-35.592,112.187-79.352,137.444L201.03,493.153  C188.423,500.428,176.269,504.118,164.887,504.118z M389.486,34.157c-10.244,0-21.327,3.399-32.945,10.098l-155.51,89.777  c-41.984,24.245-76.146,83.413-76.146,131.895v179.558c0,32.209,15.325,52.22,39.999,52.22h0.004  c10.244,0,21.319-3.403,32.933-10.102l155.51-89.777c41.984-24.241,76.146-83.413,76.146-131.895V86.373  C429.481,54.165,414.152,34.157,389.486,34.157z"/>
<path style="fill:#FFFFFF;" d="M387.78,312.023l-42.472-25.474c-5.782-3.332-15.265-3.332-21.043,0  c-1.426,0.823-2.406,2.249-2.655,3.875l-2.213,14.427c-2.635,0.61-6.152,0.264-8.019-0.811l-77.745-44.898l15.269-8.818  c3.773-2.178,5.939-5.534,5.939-9.208c0-3.521-1.981-6.747-5.463-8.925l-36.383-31.224c-0.252-0.221-0.528-0.414-0.823-0.579  c-0.417-0.244-1.292-1.063-1.993-1.725c-2.292-2.154-5.439-5.104-9.783-5.104c-6.66,0-10.189,6.833-11.359,9.106l-25.36,49.739  c-0.244,0.477-0.488,0.933-0.729,1.378c-1.473,2.745-5.392,10.043,2.883,14.816l140.123,80.908c2.891,1.67,6.628,2.588,10.524,2.588  c3.643,0,7.144-0.803,9.949-2.269l60.191-18.956c0.378-0.114,0.74-0.276,1.079-0.473c3.773-2.174,5.939-5.53,5.939-9.208  C393.641,317.51,391.471,314.15,387.78,312.023z"/>
<path style="fill:#E7F2F2;" d="M287.062,338.596l21.039-36.447l-74.472-43.008l15.269-8.818c3.773-2.178,5.939-5.534,5.939-9.208  c0-3.521-1.981-6.747-5.463-8.925l-36.383-31.224c-0.252-0.221-0.528-0.414-0.823-0.579c-0.417-0.244-1.292-1.063-1.993-1.725  c-2.292-2.154-5.439-5.104-9.783-5.104c-6.66,0-10.189,6.833-11.359,9.106l-25.36,49.739c-0.244,0.477-0.488,0.933-0.729,1.378  c-1.473,2.745-5.392,10.043,2.883,14.816L287.062,338.596z"/>
<g>
</g>
<g>
</g>
<g>
</g>
<g>
</g>
<g>
</g>
<g>
</g>
<g>
</g>
<g>
</g>
<g>
</g>
<g>
</g>
<g>
</g>
<g>
</g>
<g>
</g>
<g>
</g>
<g>
</g>
</svg>
