<?xml version="1.0" encoding="iso-8859-1"?>
<!-- Generator: Adobe Illustrator 19.0.0, SVG Export Plug-In . SVG Version: 6.00 Build 0)  -->
<svg xmlns="http://www.w3.org/2000/svg" xmlns:xlink="http://www.w3.org/1999/xlink" version="1.1" id="Capa_1" x="0px" y="0px" viewBox="0 0 504.119 504.119" style="enable-background:new 0 0 504.119 504.119;" xml:space="preserve">
<path style="fill:#323738;" d="M410.124,36.32L359.633,7.396c-2.209-1.611-4.577-2.97-7.093-4.068l-0.744-0.421l-0.032,0.063  c-13.584-5.522-31.13-3.525-50.271,7.522l-155.518,89.773c-42.76,24.69-77.745,85.291-77.745,134.668v179.562  c0,24.08,8.361,41.153,21.847,49.534l-0.13,0.236l56.115,31.791l31.555-54.938l123.876-71.515  c42.752-24.686,77.745-85.287,77.745-134.668V90.088L410.124,36.32z"/>
<path style="fill:#252B2D;" d="M410.124,36.32l-54.047-12.678c-2.209-1.607-13.245-1.568-15.762-2.666l-4.005-1.603l-7.215-1.339  c-13.584-5.522-8.46-18.593-27.601-7.546l-155.518,89.777c-42.76,24.69-77.745,85.291-77.745,134.668v179.562  c0,24.08,8.361,41.153,21.847,49.534l-0.13,0.236l56.115,31.791l31.555-54.938l123.876-71.515  c42.752-24.686,77.745-85.287,77.745-134.668V90.088L410.124,36.32z"/>
<path style="fill:#090C0C;" d="M71.192,209.065c-1.887,8.791-2.962,17.499-2.962,25.868v179.562c0,24.08,8.361,41.153,21.847,49.534  l-0.13,0.236l56.115,31.791l31.555-54.938l123.876-71.515c7.263-4.191,14.285-9.492,20.961-15.537L71.192,209.065z"/>
<path style="fill:#3B4142;" d="M199.424,131.257c-42.76,24.69-77.753,85.291-77.753,134.668v179.562  c0,49.377,34.993,69.577,77.753,44.887l155.506-89.781c42.76-24.686,77.753-85.283,77.753-134.668V86.37  c0-49.38-34.993-69.573-77.753-44.887L199.424,131.257z"/>
<path style="opacity:0.2;fill:#383E3F;enable-background:new    ;" d="M432.683,86.37c0-49.38-34.993-69.573-77.753-44.887  l-155.506,89.773c-42.76,24.69-77.753,85.291-77.753,134.668v179.562c0,49.377,34.993,69.577,77.753,44.887"/>
<path style="fill:#4F5759;" d="M164.884,504.119h-0.008c-28.192,0-46.407-23.016-46.407-58.632V265.925  c0-50.523,35.592-112.183,79.344-137.44l155.514-89.781c12.607-7.278,24.769-10.961,36.147-10.961  c28.191,0,46.415,23.016,46.415,58.628v179.558c0,50.53-35.6,112.187-79.352,137.444L201.023,493.15  C188.416,500.425,176.262,504.119,164.884,504.119z M389.478,34.154c-10.24,0-21.323,3.399-32.937,10.098l-155.518,89.781  c-41.984,24.245-76.146,83.409-76.146,131.891v179.562c0,32.209,15.325,52.216,39.999,52.216h0.008  c10.24,0,21.315-3.399,32.929-10.098l155.514-89.781c41.984-24.241,76.146-83.413,76.146-131.895V86.37  C429.477,54.162,414.153,34.154,389.478,34.154z"/>
<g style="opacity:0.3;">
	<path style="fill:#F98008;" d="M234.701,292.573c-6.132,0-11.083-4.962-11.083-11.075v-88.623c0-6.116,4.955-11.075,11.083-11.075   c6.116,0,11.075,4.962,11.075,11.075v88.623C245.776,287.61,240.817,292.573,234.701,292.573z"/>
	<path style="fill:#F98008;" d="M196.34,270.419c-3.832,0-7.554-1.989-9.606-5.537c-3.06-5.297-1.245-12.071,4.045-15.139   l76.753-44.308c5.27-3.06,12.06-1.245,15.132,4.053c3.06,5.301,1.245,12.075-4.053,15.139l-76.745,44.308   C200.121,269.942,198.223,270.419,196.34,270.419z"/>
	<path style="fill:#F98008;" d="M338.207,189.605c-3.824,0-7.546-1.981-9.602-5.534c-3.06-5.301-1.245-12.071,4.053-15.139   l44.485-25.683c5.277-3.06,12.06-1.245,15.139,4.057c3.06,5.305,1.237,12.071-4.061,15.135l-44.485,25.683   C342,189.129,340.094,189.605,338.207,189.605z"/>
	<path style="fill:#F98008;" d="M330.638,320.075c-3.832,0-7.546-1.985-9.602-5.537c-3.068-5.301-1.245-12.067,4.053-15.136   l46.687-26.943c5.285-3.072,12.056-1.252,15.124,4.053c3.068,5.301,1.252,12.071-4.053,15.132l-46.679,26.951   C334.423,319.598,332.524,320.075,330.638,320.075z"/>
	<path style="fill:#F98008;" d="M330.638,369.471c-3.832,0-7.546-1.985-9.602-5.537c-3.068-5.293-1.245-12.071,4.053-15.132   l46.687-26.955c5.285-3.052,12.056-1.252,15.124,4.053c3.068,5.301,1.252,12.071-4.053,15.136l-46.679,26.955   C334.423,368.998,332.524,369.471,330.638,369.471z"/>
	<path style="fill:#F98008;" d="M196.309,445.586c-1.879,0-3.777-0.477-5.53-1.481c-5.293-3.06-7.109-9.834-4.037-15.135   l56.734-98.316c3.06-5.301,9.846-7.117,15.139-4.057c5.301,3.06,7.117,9.838,4.053,15.139l-56.753,98.312   C203.863,443.601,200.137,445.586,196.309,445.586z"/>
	<path style="fill:#F98008;" d="M253.062,412.81c-1.887,0-3.785-0.477-5.522-1.481l-56.761-32.764   c-5.293-3.052-7.109-9.83-4.037-15.132c3.052-5.309,9.823-7.121,15.124-4.061l56.753,32.764c5.301,3.064,7.117,9.834,4.053,15.135   C260.616,410.825,256.894,412.81,253.062,412.81z"/>
</g>
<g>
	<path style="fill:#FFB612;" d="M234.701,284.518c-6.132,0-11.083-4.959-11.083-11.075V184.82c0-6.116,4.955-11.075,11.083-11.075   c6.116,0,11.075,4.962,11.075,11.075v88.623C245.776,279.56,240.817,284.518,234.701,284.518z"/>
	<path style="fill:#FFB612;" d="M196.34,262.364c-3.832,0-7.554-1.989-9.606-5.537c-3.06-5.297-1.245-12.071,4.045-15.139   l76.753-44.308c5.27-3.06,12.06-1.245,15.132,4.053c3.06,5.301,1.245,12.075-4.053,15.139l-76.749,44.308   C200.121,261.888,198.223,262.364,196.34,262.364z"/>
	<path style="fill:#FFB612;" d="M338.207,181.551c-3.824,0-7.546-1.977-9.602-5.534c-3.06-5.301-1.245-12.071,4.053-15.139   l44.485-25.683c5.277-3.06,12.06-1.245,15.139,4.057c3.06,5.305,1.237,12.071-4.061,15.136l-44.485,25.683   C342,181.079,340.094,181.551,338.207,181.551z"/>
</g>
<g>
	<path style="fill:#2D9CF7;" d="M330.638,312.021c-3.832,0-7.546-1.985-9.602-5.537c-3.068-5.301-1.245-12.067,4.053-15.135   l46.687-26.947c5.285-3.068,12.056-1.249,15.124,4.057c3.068,5.301,1.252,12.067-4.053,15.132l-46.679,26.951   C334.423,311.544,332.524,312.021,330.638,312.021z"/>
	<path style="fill:#2D9CF7;" d="M330.638,361.421c-3.832,0-7.546-1.985-9.602-5.537c-3.068-5.293-1.245-12.071,4.053-15.132   l46.687-26.959c5.285-3.048,12.056-1.249,15.124,4.057c3.068,5.301,1.252,12.071-4.053,15.135l-46.679,26.955   C334.423,360.94,332.524,361.421,330.638,361.421z"/>
</g>
<g>
	<path style="fill:#FFB612;" d="M196.309,437.532c-1.879,0-3.777-0.477-5.53-1.481c-5.293-3.06-7.109-9.83-4.037-15.136   l56.734-98.316c3.06-5.301,9.846-7.121,15.139-4.057c5.301,3.06,7.117,9.838,4.053,15.139l-56.753,98.312   C203.863,435.547,200.137,437.532,196.309,437.532z"/>
	<path style="fill:#FFB612;" d="M253.062,404.756c-1.887,0-3.785-0.477-5.522-1.481l-56.761-32.764   c-5.293-3.056-7.109-9.83-4.037-15.132c3.052-5.309,9.823-7.121,15.124-4.061l56.753,32.764c5.301,3.06,7.117,9.834,4.053,15.136   C260.616,402.775,256.894,404.756,253.062,404.756z"/>
</g>
<g>
</g>
<g>
</g>
<g>
</g>
<g>
</g>
<g>
</g>
<g>
</g>
<g>
</g>
<g>
</g>
<g>
</g>
<g>
</g>
<g>
</g>
<g>
</g>
<g>
</g>
<g>
</g>
<g>
</g>
</svg>
