<?xml version="1.0" encoding="iso-8859-1"?>
<!-- Generator: Adobe Illustrator 19.0.0, SVG Export Plug-In . SVG Version: 6.00 Build 0)  -->
<svg xmlns="http://www.w3.org/2000/svg" xmlns:xlink="http://www.w3.org/1999/xlink" version="1.1" id="Capa_1" x="0px" y="0px" viewBox="0 0 504.116 504.116" style="enable-background:new 0 0 504.116 504.116;" xml:space="preserve">
<path style="fill:#FFAF22;" d="M410.122,36.318L359.631,7.394c-2.209-1.611-4.577-2.97-7.093-4.064l-0.744-0.421l-0.032,0.063  c-13.584-5.522-31.13-3.529-50.271,7.519l-155.518,89.777c-42.76,24.69-77.745,85.287-77.745,134.668v179.558  c0,24.08,8.361,41.157,21.847,49.538l-0.13,0.232l56.115,31.791l31.555-54.938l123.876-71.511  c42.752-24.69,77.745-85.287,77.745-134.668V90.089L410.122,36.318z"/>
<path style="fill:#F28314;" d="M410.122,36.318l-54.047-12.674c-2.209-1.611-13.245-1.568-15.762-2.666l-4.005-1.607l-7.215-1.339  c-13.584-5.522-8.46-18.593-27.601-7.546l-155.518,89.781c-42.76,24.69-77.745,85.287-77.745,134.668v179.558  c0,24.08,8.361,41.157,21.847,49.538l-0.13,0.232l56.115,31.791l31.555-54.938l123.876-71.511  c42.752-24.69,77.745-85.287,77.745-134.668V90.089L410.122,36.318z"/>
<path style="fill:#DD5900;" d="M71.19,209.066c-1.887,8.787-2.962,17.495-2.962,25.868v179.558c0,24.08,8.361,41.157,21.847,49.538  l-0.13,0.232l56.115,31.791l31.555-54.938l123.876-71.511c7.263-4.194,14.285-9.496,20.961-15.537L71.19,209.066z"/>
<path style="fill:#FFA310;" d="M199.423,131.258c-42.76,24.69-77.753,85.287-77.753,134.668v179.558  c0,49.38,34.993,69.577,77.753,44.891l155.506-89.781c42.76-24.69,77.753-85.287,77.753-134.668V86.372  c0-49.38-34.993-69.577-77.753-44.891L199.423,131.258z"/>
<path style="fill:#F98008;" d="M432.682,86.372c0-49.38-34.993-69.577-77.753-44.891l-155.506,89.777  c-42.76,24.69-77.753,85.287-77.753,134.668v179.558c0,49.38,34.993,69.577,77.753,44.891"/>
<path style="fill:#1275D8;" d="M290.846,286.512l-0.035,151.103l64.118-37.018c42.76-24.69,77.753-85.287,77.753-134.668v-60.743  L290.846,286.512z"/>
<polygon style="fill:#1346D6;" points="290.846,286.512 290.811,437.615 290.815,437.611 290.846,302.676 432.682,221.347   432.682,205.187 "/>
<path style="fill:#FFC612;" d="M164.882,504.116h-0.008c-28.192,0-46.407-23.016-46.407-58.632V265.926  c0-50.527,35.592-112.187,79.344-137.44l155.514-89.781c12.607-7.278,24.769-10.965,36.147-10.965  c28.191,0,46.415,23.016,46.415,58.632V265.93c0,50.527-35.6,112.187-79.352,137.44l-155.514,89.781  C188.415,500.426,176.26,504.116,164.882,504.116z M389.477,34.155c-10.24,0-21.323,3.399-32.937,10.098l-155.518,89.777  c-41.984,24.245-76.146,83.413-76.146,131.895v179.558c0,32.209,15.325,52.22,39.999,52.22h0.008  c10.24,0,21.315-3.403,32.929-10.102l155.514-89.777c41.984-24.241,76.146-83.413,76.146-131.895V86.372  C429.476,54.163,414.151,34.155,389.477,34.155z"/>
<g style="opacity:0.3;">
	<path style="fill:#F98008;" d="M230.028,293.271c-6.128,0-11.079-4.962-11.079-11.075v-88.627c0-6.116,4.955-11.075,11.079-11.075   c6.12,0,11.075,4.962,11.075,11.075v88.623C241.107,288.308,236.149,293.271,230.028,293.271z"/>
	<path style="fill:#F98008;" d="M191.668,271.113c-3.832,0-7.554-1.989-9.606-5.534c-3.056-5.301-1.241-12.075,4.049-15.139   l76.749-44.308c5.27-3.06,12.064-1.245,15.136,4.053c3.06,5.301,1.241,12.075-4.057,15.135l-76.745,44.312   C195.453,270.64,193.554,271.113,191.668,271.113z"/>
	<path style="fill:#F98008;" d="M333.539,190.3c-3.828,0-7.546-1.985-9.602-5.537c-3.064-5.301-1.245-12.071,4.053-15.139   l44.485-25.679c5.278-3.064,12.06-1.245,15.136,4.053c3.06,5.309,1.241,12.075-4.061,15.139l-44.481,25.683   C337.328,189.823,335.426,190.3,333.539,190.3z"/>
	<path style="fill:#F98008;" d="M325.969,320.769c-3.828,0-7.546-1.985-9.602-5.537c-3.064-5.301-1.245-12.071,4.053-15.139   l46.687-26.943c5.289-3.072,12.06-1.249,15.128,4.057c3.064,5.301,1.249,12.067-4.053,15.132l-46.683,26.947   C329.758,320.293,327.852,320.769,325.969,320.769z"/>
	<path style="fill:#F98008;" d="M325.969,370.169c-3.828,0-7.546-1.985-9.602-5.537c-3.064-5.293-1.245-12.075,4.053-15.136   l46.687-26.955c5.289-3.052,12.06-1.252,15.128,4.057c3.064,5.297,1.249,12.067-4.053,15.132l-46.683,26.955   C329.758,369.693,327.852,370.169,325.969,370.169z"/>
	<path style="fill:#F98008;" d="M191.64,446.276c-1.883,0-3.781-0.477-5.53-1.481c-5.293-3.056-7.109-9.834-4.041-15.135   l56.741-98.316c3.06-5.301,9.846-7.117,15.136-4.053c5.305,3.06,7.117,9.834,4.053,15.136l-56.749,98.312   C199.194,444.295,195.472,446.276,191.64,446.276z"/>
	<path style="fill:#F98008;" d="M248.393,413.508c-1.887,0-3.785-0.477-5.522-1.485l-56.761-32.76   c-5.293-3.056-7.109-9.83-4.041-15.132c3.052-5.309,9.826-7.125,15.128-4.061l56.749,32.76c5.305,3.064,7.117,9.838,4.053,15.139   C255.943,411.523,252.226,413.508,248.393,413.508z"/>
</g>
<g>
	<path style="fill:#FFFFFF;" d="M230.028,285.217c-6.128,0-11.079-4.962-11.079-11.075v-88.627c0-6.116,4.955-11.075,11.079-11.075   c6.12,0,11.075,4.962,11.075,11.075v88.623C241.107,280.254,236.149,285.217,230.028,285.217z"/>
	<path style="fill:#FFFFFF;" d="M191.668,263.059c-3.832,0-7.554-1.989-9.606-5.534c-3.056-5.301-1.241-12.075,4.049-15.139   l76.749-44.308c5.27-3.06,12.064-1.245,15.136,4.053c3.06,5.301,1.241,12.075-4.057,15.135l-76.745,44.312   C195.453,262.586,193.554,263.059,191.668,263.059z"/>
	<path style="fill:#FFFFFF;" d="M333.539,182.246c-3.828,0-7.546-1.981-9.602-5.537c-3.064-5.301-1.245-12.071,4.053-15.139   l44.485-25.679c5.278-3.064,12.06-1.245,15.136,4.053c3.06,5.309,1.241,12.075-4.061,15.139l-44.481,25.683   C337.328,181.769,335.426,182.246,333.539,182.246z"/>
	<path style="fill:#FFFFFF;" d="M325.969,312.715c-3.828,0-7.546-1.985-9.602-5.537c-3.064-5.301-1.245-12.071,4.053-15.139   l46.687-26.947c5.289-3.068,12.06-1.245,15.128,4.061c3.064,5.301,1.249,12.067-4.053,15.132l-46.683,26.947   C329.758,312.238,327.852,312.715,325.969,312.715z"/>
	<path style="fill:#FFFFFF;" d="M325.969,362.115c-3.828,0-7.546-1.985-9.602-5.537c-3.064-5.293-1.245-12.075,4.053-15.136   l46.687-26.959c5.289-3.048,12.06-1.249,15.128,4.061c3.064,5.297,1.249,12.067-4.053,15.132l-46.683,26.955   C329.758,361.638,327.852,362.115,325.969,362.115z"/>
	<path style="fill:#FFFFFF;" d="M191.64,438.226c-1.883,0-3.781-0.477-5.53-1.481c-5.293-3.056-7.109-9.83-4.041-15.136   l56.741-98.316c3.06-5.301,9.846-7.117,15.136-4.053c5.305,3.06,7.117,9.834,4.053,15.136l-56.749,98.312   C199.194,436.241,195.472,438.226,191.64,438.226z"/>
	<path style="fill:#FFFFFF;" d="M248.393,405.454c-1.887,0-3.785-0.477-5.522-1.485l-56.761-32.76   c-5.293-3.06-7.109-9.83-4.041-15.132c3.052-5.309,9.826-7.125,15.128-4.061l56.749,32.76c5.305,3.06,7.117,9.838,4.053,15.139   C255.943,403.469,252.226,405.454,248.393,405.454z"/>
</g>
<g>
</g>
<g>
</g>
<g>
</g>
<g>
</g>
<g>
</g>
<g>
</g>
<g>
</g>
<g>
</g>
<g>
</g>
<g>
</g>
<g>
</g>
<g>
</g>
<g>
</g>
<g>
</g>
<g>
</g>
</svg>
