<?xml version="1.0" encoding="iso-8859-1"?>
<!-- Generator: Adobe Illustrator 19.0.0, SVG Export Plug-In . SVG Version: 6.00 Build 0)  -->
<svg xmlns="http://www.w3.org/2000/svg" xmlns:xlink="http://www.w3.org/1999/xlink" version="1.1" id="Capa_1" x="0px" y="0px" viewBox="0 0 504.119 504.119" style="enable-background:new 0 0 504.119 504.119;" xml:space="preserve">
<path style="fill:#992269;" d="M410.124,36.32L359.633,7.396c-2.209-1.611-4.577-2.97-7.093-4.068l-0.744-0.421l-0.032,0.063  c-13.584-5.522-31.13-3.525-50.271,7.522l-155.518,89.773c-42.76,24.69-77.745,85.291-77.745,134.668v179.562  c0,24.08,8.361,41.153,21.847,49.534l-0.13,0.236l56.115,31.791l31.555-54.938l123.876-71.515  c42.752-24.686,77.745-85.287,77.745-134.668V90.088L410.124,36.32z"/>
<path style="fill:#891956;" d="M410.124,36.32l-54.047-12.678c-2.209-1.607-13.245-1.568-15.762-2.666l-4.005-1.603l-7.215-1.339  c-13.584-5.522-8.46-18.593-27.601-7.546l-155.518,89.777c-42.76,24.69-77.745,85.291-77.745,134.668v179.562  c0,24.08,8.361,41.153,21.847,49.534l-0.13,0.236l56.115,31.791l31.555-54.938l123.876-71.515  c42.752-24.686,77.745-85.287,77.745-134.668V90.088L410.124,36.32z"/>
<path style="fill:#771144;" d="M71.192,209.065c-1.887,8.791-2.962,17.499-2.962,25.868v179.562c0,24.08,8.361,41.153,21.847,49.534  l-0.13,0.236l56.115,31.791l31.555-54.938l123.876-71.515c7.263-4.191,14.285-9.492,20.961-15.537L71.192,209.065z"/>
<path style="fill:#D13985;" d="M199.424,131.257c-42.76,24.69-77.753,85.291-77.753,134.668v179.562  c0,49.377,34.993,69.577,77.753,44.887l155.506-89.781c42.76-24.686,77.753-85.283,77.753-134.668V86.37  c0-49.38-34.993-69.573-77.753-44.887L199.424,131.257z"/>
<path style="fill:#C93270;" d="M432.683,86.37c0-49.38-34.993-69.573-77.753-44.887l-155.506,89.773  c-42.76,24.69-77.753,85.291-77.753,134.668v179.562c0,49.377,34.993,69.577,77.753,44.887"/>
<path style="fill:#FF76AB;" d="M164.884,504.119h-0.008c-28.192,0-46.407-23.016-46.407-58.632V265.925  c0-50.523,35.592-112.183,79.344-137.44l155.514-89.781c12.607-7.278,24.769-10.961,36.147-10.961  c28.191,0,46.415,23.016,46.415,58.628v179.558c0,50.53-35.6,112.187-79.352,137.444L201.023,493.15  C188.416,500.425,176.262,504.119,164.884,504.119z M389.478,34.154c-10.24,0-21.323,3.399-32.937,10.098l-155.518,89.781  c-41.984,24.241-76.146,83.409-76.146,131.891v179.562c0,32.209,15.325,52.216,39.999,52.216h0.008  c10.24,0,21.315-3.399,32.929-10.098l155.514-89.781c41.984-24.241,76.146-83.413,76.146-131.895V86.37  C429.477,54.162,414.153,34.154,389.478,34.154z"/>
<path style="fill:#FFFFFF;" d="M355.6,280.879l-37.971,21.823c-3.493,2.001-6.345,0.347-6.345-3.671v-73.996  c0.118-3.978,2.883-8.739,6.302-10.709l38.006-21.945c3.489-2.009,3.489-5.305,0-7.314l-63.35-36.576  c-3.489-2.009-7.979-0.807-9.996,2.678l-68.71,119.005c-2.016,3.486-0.803,4.699,2.686,2.694l37.967-21.823  c3.497-2.005,6.345-0.354,6.345,3.671v73.992c-0.114,3.978-2.879,8.743-6.298,10.709l-38.006,21.949  c-3.489,2.013-3.489,5.305,0,7.318l63.35,36.58c3.489,2.005,7.975,0.796,9.992-2.686l68.714-119.008  C360.298,280.088,359.089,278.875,355.6,280.879z"/>
<path style="fill:#F4E4ED;" d="M317.586,214.327l38.006-21.945c3.489-2.009,3.489-5.305,0-7.314l-63.35-36.576  c-3.489-2.009-7.979-0.807-9.996,2.678l-68.71,119.005c-2.016,3.486-0.803,4.699,2.686,2.694l37.967-21.823  c3.497-2.005,6.345-0.354,6.345,3.671v73.992c-0.114,3.978-2.879,8.743-6.298,10.709l-38.006,21.949  c-3.489,2.013-3.489,5.305,0,7.318l40.094,23.15l54.965-95.197v-71.601C311.402,221.058,314.171,216.296,317.586,214.327z"/>
<g>
</g>
<g>
</g>
<g>
</g>
<g>
</g>
<g>
</g>
<g>
</g>
<g>
</g>
<g>
</g>
<g>
</g>
<g>
</g>
<g>
</g>
<g>
</g>
<g>
</g>
<g>
</g>
<g>
</g>
</svg>
