<?xml version="1.0" encoding="iso-8859-1"?>
<!-- Generator: Adobe Illustrator 19.0.0, SVG Export Plug-In . SVG Version: 6.00 Build 0)  -->
<svg xmlns="http://www.w3.org/2000/svg" xmlns:xlink="http://www.w3.org/1999/xlink" version="1.1" id="Capa_1" x="0px" y="0px" viewBox="0 0 504.116 504.116" style="enable-background:new 0 0 504.116 504.116;" xml:space="preserve">
<path style="fill:#323738;" d="M410.118,36.322L359.627,7.394c-2.209-1.611-4.576-2.97-7.093-4.064l-0.744-0.421l-0.032,0.063  c-13.584-5.522-31.13-3.529-50.271,7.519L145.97,100.266c-42.76,24.686-77.737,85.287-77.737,134.668v179.558  c0,24.08,8.361,41.157,21.847,49.534l-0.13,0.236l56.107,31.795l31.555-54.942l123.876-71.511  c42.752-24.69,77.745-85.291,77.745-134.668V90.089L410.118,36.322z"/>
<path style="fill:#252B2D;" d="M410.118,36.322l-54.048-12.678c-2.209-1.607-13.245-1.568-15.762-2.67l-4.005-1.599l-7.215-1.343  c-13.584-5.522-8.46-18.593-27.601-7.546L145.97,100.266c-42.76,24.686-77.737,85.287-77.737,134.668v179.558  c0,24.08,8.361,41.157,21.847,49.534l-0.13,0.236l56.107,31.795l31.555-54.942l123.876-71.511  c42.752-24.69,77.745-85.291,77.745-134.668V90.089L410.118,36.322z"/>
<path style="fill:#090C0C;" d="M71.194,209.066c-1.887,8.791-2.962,17.495-2.962,25.868v179.558c0,24.08,8.361,41.157,21.847,49.534  l-0.13,0.236l56.107,31.795l31.555-54.942l123.876-71.511c7.263-4.194,14.285-9.492,20.96-15.537L71.194,209.066z"/>
<path style="fill:#3B4142;" d="M199.419,131.258c-42.76,24.686-77.753,85.291-77.753,134.668v179.562  c0,49.377,34.993,69.577,77.753,44.883l155.506-89.777c42.76-24.686,77.753-85.287,77.753-134.668V86.368  c0-49.376-34.993-69.573-77.753-44.883L199.419,131.258z"/>
<g>
	<path style="opacity:0.2;fill:#383E3F;enable-background:new    ;" d="M432.678,86.368c0-49.376-34.993-69.573-77.753-44.883   l-155.506,89.773c-42.76,24.686-77.753,85.291-77.753,134.668v179.562c0,49.377,34.993,69.577,77.753,44.883"/>
	<polygon style="opacity:0.6;fill:#383E3F;enable-background:new    ;" points="211.644,483.317 337.269,410.79 337.269,305.141    211.644,305.141  "/>
</g>
<path style="fill:#4F5759;" d="M164.878,504.116h-0.008c-28.192,0-46.407-23.012-46.407-58.628V265.926  c0-50.523,35.592-112.183,79.344-137.44l155.514-89.781c12.607-7.278,24.769-10.965,36.147-10.965  c28.191,0,46.415,23.016,46.415,58.628V265.93c0,50.527-35.6,112.183-79.352,137.444l-155.514,89.777  C188.411,500.426,176.257,504.116,164.878,504.116z M389.473,34.151c-10.24,0-21.323,3.399-32.937,10.098l-155.518,89.785  c-41.984,24.241-76.146,83.409-76.146,131.891v179.562c0,32.209,15.325,52.216,39.999,52.216h0.008  c10.24,0,21.315-3.399,32.929-10.098l155.514-89.785c41.984-24.237,76.146-83.409,76.146-131.891V86.368  C429.472,54.159,414.147,34.151,389.473,34.151z"/>
<path style="fill:#C0CEDD;" d="M332.519,207.058c6.014-3.434,10.925-11.898,10.925-18.818l19.2-7.333  c-2.816-14.714-24.856-17.026-31.752-17.467l-79.557-5.077c-6.904-0.441-18.034-2.166-24.757-3.836l-3.293-0.815  c-6.715-1.666-14.899,1.946-18.192,8.031l-8.133,15.017c-3.293,6.081-5.99,16.719-5.99,23.635v176.061  c0,6.916,5.557,13.647,12.351,14.954l18.026,9.24c6.798,1.304,39.869-1.875,45.863-5.329l65.339-37.727  c5.994-3.462,10.902-11.945,10.902-18.869v-25.151c0-6.92-4.903-15.407-10.902-18.861l-43.555-25.151  c-5.994-3.462-10.898-11.945-10.898-18.861l0,0c0-6.92,4.911-15.388,10.921-18.81L332.519,207.058z"/>
<path style="fill:#FFFFFF;" d="M353.196,217.109c6.014-3.434,10.925-11.898,10.925-18.818v-11.422  c0-6.916-5.656-12.938-12.556-13.375l-79.557-5.077c-6.904-0.437-18.034-2.162-24.757-3.832l-3.293-0.815  c-6.715-1.67-14.899,1.946-18.192,8.031l-8.133,15.013c-3.293,6.085-5.99,16.723-5.99,23.639V386.51  c0,6.92,5.557,13.647,12.351,14.954l40.645,7.826c6.798,1.3,17.25-0.461,23.241-3.915l65.339-37.727  c5.994-3.458,10.902-11.941,10.902-18.865v-25.155c0-6.916-4.903-15.407-10.902-18.861l-43.555-25.147  c-5.994-3.462-10.898-11.949-10.898-18.865l0,0c0-6.92,4.911-15.388,10.921-18.81L353.196,217.109z"/>
<path style="fill:#E2EBF2;" d="M309.668,279.62c-5.994-3.462-10.898-11.949-10.898-18.865c0-6.92,4.911-15.388,10.921-18.81  l43.5-24.836c6.014-3.434,10.925-11.898,10.925-18.818v-11.422c0-6.916-5.656-12.938-12.556-13.375l-79.557-5.077  c-6.904-0.437-18.034-2.162-24.757-3.832l-3.293-0.815c-6.715-1.67-14.899,1.946-18.192,8.031l-8.133,15.013  c-3.293,6.085-5.99,16.723-5.99,23.639V386.51c0,6.92,5.557,13.647,12.351,14.954l24.08,4.636l70.168-121.525L309.668,279.62z"/>
<g>
</g>
<g>
</g>
<g>
</g>
<g>
</g>
<g>
</g>
<g>
</g>
<g>
</g>
<g>
</g>
<g>
</g>
<g>
</g>
<g>
</g>
<g>
</g>
<g>
</g>
<g>
</g>
<g>
</g>
</svg>
