<?xml version="1.0" encoding="iso-8859-1"?>
<!-- Generator: Adobe Illustrator 19.0.0, SVG Export Plug-In . SVG Version: 6.00 Build 0)  -->
<svg xmlns="http://www.w3.org/2000/svg" xmlns:xlink="http://www.w3.org/1999/xlink" version="1.1" id="Capa_1" x="0px" y="0px" viewBox="0 0 504.118 504.118" style="enable-background:new 0 0 504.118 504.118;" xml:space="preserve">
<path style="fill:#323738;" d="M410.119,36.319L359.628,7.395c-2.209-1.607-4.577-2.97-7.093-4.064l-0.744-0.425l-0.032,0.067  c-13.584-5.526-31.13-3.529-50.271,7.519l-155.514,89.777c-42.76,24.69-77.745,85.287-77.745,134.668v179.558  c0,24.08,8.361,41.157,21.847,49.538l-0.13,0.232l56.115,31.791l31.555-54.938l123.876-71.511  c42.752-24.69,77.745-85.287,77.745-134.668V90.091L410.119,36.319z"/>
<path style="fill:#252B2D;" d="M410.119,36.319l-54.044-12.674c-2.209-1.611-13.245-1.568-15.762-2.666l-4.009-1.603l-7.215-1.343  c-13.584-5.522-8.46-18.593-27.601-7.546l-155.514,89.781c-42.76,24.69-77.745,85.287-77.745,134.668v179.558  c0,24.08,8.361,41.157,21.847,49.538l-0.13,0.232l56.115,31.791l31.555-54.938l123.876-71.511  c42.752-24.69,77.745-85.287,77.745-134.668V90.091L410.119,36.319z"/>
<path style="fill:#090C0C;" d="M71.191,209.068c-1.887,8.787-2.962,17.495-2.962,25.868v179.558c0,24.08,8.361,41.157,21.847,49.538  l-0.13,0.232l56.115,31.791l31.555-54.938l123.876-71.511c7.263-4.194,14.285-9.496,20.961-15.537L71.191,209.068z"/>
<path style="fill:#3B4142;" d="M199.42,131.26c-42.76,24.69-77.753,85.287-77.753,134.668v179.558  c0,49.38,34.993,69.577,77.753,44.891l155.506-89.781c42.76-24.69,77.753-85.287,77.753-134.668V86.373  c0-49.38-34.993-69.577-77.753-44.891L199.42,131.26z"/>
<path style="opacity:0.2;fill:#383E3F;enable-background:new    ;" d="M432.683,86.373c0-49.38-34.993-69.577-77.753-44.891  L199.42,131.26c-42.76,24.69-77.753,85.287-77.753,134.668v179.558c0,49.38,34.993,69.577,77.753,44.891"/>
<path style="fill:#4F5759;" d="M164.883,504.118h-0.008c-28.192,0-46.407-23.016-46.407-58.632V265.928  c0-50.527,35.592-112.187,79.344-137.441l155.514-89.781c12.607-7.278,24.769-10.965,36.147-10.965  c28.191,0,46.415,23.016,46.415,58.632v179.558c0,50.527-35.6,112.187-79.352,137.44l-155.514,89.781  C188.412,500.428,176.257,504.118,164.883,504.118z M389.474,34.157c-10.24,0-21.323,3.399-32.937,10.098l-155.514,89.777  c-41.984,24.245-76.146,83.413-76.146,131.895v179.558c0,32.209,15.325,52.22,39.999,52.22h0.008  c10.24,0,21.315-3.403,32.929-10.102l155.514-89.777c41.984-24.241,76.146-83.413,76.146-131.895V86.373  C429.473,54.165,414.152,34.157,389.474,34.157z"/>
<path style="fill:#DFEAE9;" d="M276.527,194.902c0.232,0,0.855-0.063,1.083-0.098c8.932-1.619,17.128-8.18,23.068-18.475  c5.573-9.661,8.952-21.894,9.767-35.371c0.114-1.871-0.614-3.663-2.052-4.959c-1.115-0.977-2.544-1.516-4.037-1.516  c-0.236,0-0.859,0.055-1.091,0.095c-8.917,1.619-17.109,8.188-23.064,18.495c-5.581,9.677-8.956,21.906-9.763,35.336  c-0.122,1.883,0.646,3.742,2.028,4.947C273.577,194.354,275.022,194.902,276.527,194.902z"/>
<path style="fill:#FFFFFF;" d="M360.081,210.238c-3.167-13.978-12.355-21.673-25.868-21.673c-9.728,0-21.307,3.84-34.414,11.414  c-6.408,3.694-12.788,8.649-18.983,14.73c-6.624,1.048-13.418,3.56-20.22,7.491c-27.88,16.1-57.675,47.529-57.675,87.454  c0,32.894,20.094,71.129,46.001,71.129c5.226,0,10.48-1.505,15.616-4.474c6.361-3.682,12.768-9.362,19.062-16.908  c0.484,0.02,0.973,0.032,1.461,0.032c6.254,0,12.544-1.8,18.676-5.348c18.656-10.772,32.701-39.259,39.408-55.28  c0.48-1.15,0.394-2.462-0.244-3.529c-0.638-1.071-1.741-1.78-2.985-1.906c-8.917-0.918-14.234-8.862-14.234-21.248  c0-20.677,14.639-46.537,32.634-57.663C359.742,213.574,360.451,211.88,360.081,210.238z"/>
<path style="fill:#DFEAE9;" d="M360.081,210.238c-3.167-13.978-12.355-21.673-25.868-21.673c-9.728,0-21.307,3.84-34.414,11.414  c-6.408,3.694-12.788,8.649-18.983,14.73c-6.624,1.048-13.418,3.56-20.22,7.491c-27.88,16.1-57.675,47.529-57.675,87.454  c0,32.894,20.094,71.129,46.001,71.129c5.226,0,10.48-1.505,15.616-4.474c0.402-0.232,0.8-0.54,1.197-0.784l59.967-103.861  c0.209-20.594,14.746-46.167,32.614-57.206c0.315-0.197,0.583-0.445,0.827-0.713l0.8-1.39  C360.168,211.687,360.243,210.959,360.081,210.238z"/>
<g>
</g>
<g>
</g>
<g>
</g>
<g>
</g>
<g>
</g>
<g>
</g>
<g>
</g>
<g>
</g>
<g>
</g>
<g>
</g>
<g>
</g>
<g>
</g>
<g>
</g>
<g>
</g>
<g>
</g>
</svg>
