<?xml version="1.0" encoding="iso-8859-1"?>
<!-- Generator: Adobe Illustrator 19.0.0, SVG Export Plug-In . SVG Version: 6.00 Build 0)  -->
<svg xmlns="http://www.w3.org/2000/svg" xmlns:xlink="http://www.w3.org/1999/xlink" version="1.1" id="Capa_1" x="0px" y="0px" viewBox="0 0 504.121 504.121" style="enable-background:new 0 0 504.121 504.121;" xml:space="preserve">
<path style="fill:#DCF1F9;" d="M410.121,36.322L359.63,7.398c-2.209-1.607-4.577-2.97-7.093-4.064l-0.744-0.425l-0.031,0.067  c-13.584-5.53-31.13-3.533-50.271,7.515l-155.514,89.781c-42.76,24.69-77.745,85.287-77.745,134.668v179.558  c0,24.08,8.361,41.157,21.847,49.538l-0.13,0.232l56.115,31.791l31.555-54.938l123.872-71.511  c42.752-24.69,77.745-85.287,77.745-134.668V90.094L410.121,36.322z"/>
<path style="fill:#CCE6F2;" d="M410.121,36.322l-54.044-12.674c-2.209-1.611-13.245-1.568-15.762-2.666l-4.009-1.603l-7.215-1.343  c-13.584-5.522-8.46-18.593-27.601-7.546l-155.514,89.781c-42.76,24.69-77.745,85.287-77.745,134.668v179.558  c0,24.08,8.361,41.157,21.847,49.538l-0.13,0.232l56.115,31.791l31.555-54.938l123.872-71.511  c42.752-24.69,77.745-85.287,77.745-134.668V90.094L410.121,36.322z"/>
<path style="fill:#BFD9E8;" d="M71.193,209.071c-1.887,8.787-2.962,17.495-2.962,25.868v179.558c0,24.08,8.361,41.157,21.847,49.538  l-0.13,0.232l56.115,31.791l31.555-54.938l123.872-71.511c7.263-4.194,14.285-9.496,20.96-15.533L71.193,209.071z"/>
<path style="fill:#FFFFFF;" d="M199.421,131.263c-42.76,24.69-77.753,85.287-77.753,134.668v179.558  c0,49.384,34.993,69.577,77.753,44.891l155.506-89.781c42.76-24.69,77.753-85.287,77.753-134.668V86.376  c0-49.38-34.993-69.577-77.753-44.891L199.421,131.263z"/>
<path style="opacity:0.1;fill:#5BC0D8;enable-background:new    ;" d="M432.684,86.376c0-49.38-34.993-69.577-77.753-44.891  l-155.51,89.777c-42.76,24.69-77.753,85.287-77.753,134.668v179.558c0,49.384,34.993,69.577,77.753,44.891"/>
<path style="fill:#FFFFFF;" d="M164.885,504.121h-0.008c-28.192,0-46.407-23.016-46.407-58.632V265.931  c0-50.527,35.592-112.187,79.344-137.44l155.514-89.781c12.607-7.278,24.769-10.965,36.147-10.965  c28.191,0,46.415,23.016,46.415,58.632v179.558c0,50.527-35.6,112.187-79.352,137.444l-155.514,89.777  C188.413,500.431,176.259,504.121,164.885,504.121z M389.475,34.16c-10.24,0-21.323,3.399-32.937,10.098l-155.514,89.777  c-41.984,24.245-76.146,83.413-76.146,131.895v179.558c0,32.209,15.325,52.22,39.999,52.22h0.008  c10.24,0,21.315-3.403,32.929-10.102l155.514-89.777c41.984-24.241,76.146-83.413,76.146-131.895V86.376  C429.474,54.167,414.154,34.16,389.475,34.16z"/>
<path style="fill:#0A935F;" d="M214.616,287.73c0.61,0,1.225-0.161,1.768-0.473l127.799-73.783c1.095-0.63,1.768-1.796,1.768-3.052  c0.008-14.746-3.671-27.136-10.638-35.824c-12.702-15.833-35.253-17.601-58.549-4.147c-36.218,20.929-65.686,71.956-65.686,113.739  c0,1.264,0.673,2.43,1.764,3.064C213.391,287.569,214.005,287.73,214.616,287.73z"/>
<path style="fill:#17BC52;" d="M338.299,234.143c-6.061,0-13.883,4.608-22.945,9.941l-70.884,40.972l-4.86,2.769  c-16.041,9.066-29.893,16.896-29.893,37.983v60.286c0,16.431,8.582,27.053,21.862,27.053c0,0,0,0,0.008,0  c5.211,0,10.74-1.666,16.423-4.947l65.985-38.093c19.168-11.075,34.761-38.085,34.761-60.207v-60.278  C348.752,236.825,343.068,234.143,338.299,234.143z"/>
<g>
	<path style="fill:#0A935F;" d="M338.299,234.143c-6.061,0-13.883,4.608-22.945,9.941l-70.884,40.972l-4.86,2.769   c-16.041,9.066-29.893,16.896-29.893,37.983v60.286c0,16.431,8.582,27.053,21.862,27.053c0,0,0,0,0.008,0   c1.977,0,4.017-0.315,6.077-0.792l102.77-178.003C339.713,234.21,338.996,234.143,338.299,234.143z"/>
	<path style="fill:#0A935F;" d="M306.709,175.051c-1.343,0-2.706-0.339-3.95-1.063c-3.789-2.186-5.089-7.03-2.899-10.815   l18.294-31.685c2.194-3.785,7.03-5.088,10.815-2.891c3.789,2.186,5.089,7.026,2.899,10.815l-18.294,31.677   C312.108,173.637,309.45,175.051,306.709,175.051z"/>
	<path style="fill:#0A935F;" d="M251.846,206.732c-1.347,0-2.71-0.343-3.954-1.067l-18.397-10.618   c-3.789-2.19-5.088-7.03-2.895-10.819c2.186-3.789,7.03-5.085,10.815-2.895l18.397,10.618c3.789,2.19,5.088,7.03,2.895,10.819   C257.241,205.314,254.579,206.732,251.846,206.732z"/>
</g>
<g>
	<path style="fill:#FFFFFF;" d="M245.962,246.175c0-4.139,2.922-9.212,6.506-11.276c3.584-2.068,6.514-0.382,6.514,3.757   c0,4.135-2.93,9.212-6.514,11.28C248.884,252,245.962,250.315,245.962,246.175z"/>
	<path style="fill:#FFFFFF;" d="M301.455,214.443c0-4.139,2.93-9.216,6.514-11.28c3.584-2.068,6.506-0.382,6.506,3.757   s-2.93,9.212-6.506,11.28C304.385,220.268,301.455,218.578,301.455,214.443z"/>
</g>
<g>
</g>
<g>
</g>
<g>
</g>
<g>
</g>
<g>
</g>
<g>
</g>
<g>
</g>
<g>
</g>
<g>
</g>
<g>
</g>
<g>
</g>
<g>
</g>
<g>
</g>
<g>
</g>
<g>
</g>
</svg>
