<?xml version="1.0" encoding="iso-8859-1"?>
<!-- Generator: Adobe Illustrator 19.0.0, SVG Export Plug-In . SVG Version: 6.00 Build 0)  -->
<svg xmlns="http://www.w3.org/2000/svg" xmlns:xlink="http://www.w3.org/1999/xlink" version="1.1" id="Capa_1" x="0px" y="0px" viewBox="0 0 504.118 504.118" style="enable-background:new 0 0 504.118 504.118;" xml:space="preserve">
<path style="fill:#B21033;" d="M412.75,36.551L361.932,7.442c-2.221-1.619-4.608-2.989-7.136-4.092l-0.752-0.425l-0.032,0.063  c-13.67-5.557-31.33-3.545-50.59,7.57l-156.511,90.348c-43.036,24.848-78.241,85.835-78.241,135.53v180.708  c0,24.233,8.416,41.421,21.988,49.853l-0.134,0.232l56.474,32l31.756-55.292l124.668-71.967  c43.028-24.848,78.241-85.835,78.241-135.53V90.666L412.75,36.551z"/>
<path style="fill:#991027;" d="M412.75,36.551l-54.394-12.757c-2.221-1.619-13.332-1.579-15.86-2.686l-4.033-1.615l-7.263-1.351  c-13.674-5.557-8.519-18.708-27.778-7.593l-156.511,90.356c-43.036,24.848-78.241,85.835-78.241,135.53v180.708  c0,24.233,8.416,41.421,21.988,49.853l-0.134,0.232l56.474,32l31.756-55.292l124.668-71.967  c43.028-24.848,78.241-85.835,78.241-135.53V90.666L412.75,36.551z"/>
<path style="fill:#4C091A;" d="M131.308,117.77c-1.28-0.933-2.635-1.76-4.021-2.528c-33.599,29.535-58.62,79.332-58.62,121.19  v180.708c0,24.233,8.416,41.421,21.988,49.853l-0.134,0.232l1.658,0.937c33.717-29.507,58.86-79.439,58.86-121.399v-145.77  l31.082-54.114L131.308,117.77z"/>
<path style="fill:#E88B10;" d="M322.406,2.389c-6.089,1.729-12.434,4.38-18.983,8.16L243.625,45.07  c0.106,0.079,0.232,0.134,0.339,0.213l53.953,30.909l-33,57.462v154.778c0,12.973-2.324,26.667-6.416,40.33  c1.508,21.984,9.992,37.762,23.032,45.867l-0.138,0.248l1.757,0.996c35.801-31.33,62.495-84.346,62.495-128.902V92.19l33-57.454  L324.694,3.831C323.969,3.295,323.174,2.866,322.406,2.389z"/>
<path style="fill:#3F0817;" d="M71.648,210.403c-1.894,8.846-2.981,17.609-2.981,26.033v180.708  c0,24.233,8.416,41.421,21.988,49.853l-0.134,0.232l56.474,32l31.756-55.292l124.668-71.967c7.306-4.222,14.371-9.555,21.094-15.64  L71.648,210.403z"/>
<path style="fill:#E51034;" d="M200.699,132.099c-43.036,24.848-78.249,85.835-78.249,135.53v180.708  c0,49.692,35.214,70.022,78.249,45.178l156.503-90.352c43.036-24.848,78.249-85.835,78.249-135.53V86.92  c0-49.696-35.214-70.018-78.249-45.178L200.699,132.099z"/>
<path style="fill:#CE1329;" d="M435.451,86.92c0-49.696-35.214-70.018-78.249-45.178l-156.503,90.356  c-43.036,24.848-78.249,85.835-78.249,135.53v180.708c0,49.692,35.214,70.022,78.249,45.178"/>
<path style="fill:#720C22;" d="M182.122,145.521c-34.127,29.412-59.672,79.813-59.672,122.108v180.708  c0,42.307,25.529,63.307,59.672,53.291V145.521z"/>
<path style="fill:#A00D26;" d="M302.981,81.422c-2.785,1.607-5.061,5.557-5.061,8.775v109.832c0,3.214,1.438,3.647,3.194,0.949  l36.766-56.352c1.757-2.694,5.478-3.584,8.267-1.985l25.647,14.746c2.788,1.599,5.069,0.28,5.069-2.934V44.621  c0-3.214-2.276-4.533-5.061-2.922L302.981,81.422z"/>
<path style="fill:#EAA60F;" d="M357.202,41.746L297.92,75.968v109.202c0,3.214,1.438,3.643,3.194,0.945l36.766-56.348  c1.757-2.698,5.478-3.588,8.267-1.985l25.647,14.742c2.788,1.603,5.069,0.28,5.069-2.934V33.31  C370.573,35.039,363.984,37.828,357.202,41.746z"/>
<g>
	<path style="fill:#720C22;" d="M228.71,411.481c-0.796,0-1.599-0.091-2.41-0.295c-5.348-1.323-8.617-6.739-7.294-12.091   l34.603-139.867c1.063-4.301,4.821-7.385,9.24-7.585c4.801-0.098,8.452,2.536,9.905,6.715l34.607,99.899   c1.804,5.211-0.957,10.906-6.176,12.709c-5.226,1.8-10.91-0.957-12.713-6.168l-23.56-68.037l-26.51,107.13   C237.28,408.445,233.2,411.481,228.71,411.481z"/>
	<path style="fill:#720C22;" d="M332.524,351.538c-1.733,0-3.458-0.437-4.998-1.335c-3.092-1.784-4.998-5.085-4.998-8.653v-39.968   c0-3.513,1.855-6.77,4.868-8.578l29.747-17.747v-16.309l-19.629,11.331c-4.773,2.753-10.89,1.115-13.647-3.659   c-2.765-4.785-1.126-10.894,3.659-13.655l34.615-19.976c3.08-1.784,6.908-1.784,9.992,0c3.092,1.784,4.994,5.085,4.994,8.649   v79.927c0,3.568-1.898,6.869-4.994,8.653l-34.619,19.98C335.974,351.097,334.245,351.538,332.524,351.538z M342.512,307.262v16.983   l14.635-8.448V298.53L342.512,307.262z"/>
	<path style="fill:#720C22;" d="M243.117,363.215c-3.454,0-6.814-1.8-8.665-5.002c-2.761-4.777-1.122-10.89,3.663-13.651   l40.417-23.343c4.766-2.757,10.89-1.126,13.651,3.659c2.761,4.777,1.122,10.89-3.659,13.655l-40.42,23.339   C246.527,362.778,244.81,363.215,243.117,363.215z"/>
</g>
<g>
</g>
<g>
</g>
<g>
</g>
<g>
</g>
<g>
</g>
<g>
</g>
<g>
</g>
<g>
</g>
<g>
</g>
<g>
</g>
<g>
</g>
<g>
</g>
<g>
</g>
<g>
</g>
<g>
</g>
</svg>
