<?xml version="1.0" encoding="iso-8859-1"?>
<!-- Generator: Adobe Illustrator 19.0.0, SVG Export Plug-In . SVG Version: 6.00 Build 0)  -->
<svg xmlns="http://www.w3.org/2000/svg" xmlns:xlink="http://www.w3.org/1999/xlink" version="1.1" id="Capa_1" x="0px" y="0px" viewBox="0 0 504.116 504.116" style="enable-background:new 0 0 504.116 504.116;" xml:space="preserve">
<path style="fill:#EA5A1B;" d="M410.122,36.322L359.631,7.394c-2.209-1.611-4.577-2.97-7.093-4.064l-0.744-0.421l-0.032,0.063  c-13.584-5.522-31.13-3.529-50.271,7.519l-155.518,89.777c-42.76,24.686-77.745,85.287-77.745,134.668v179.558  c0,24.08,8.361,41.157,21.847,49.534l-0.13,0.236l56.115,31.795l31.555-54.942l123.876-71.511  c42.752-24.69,77.745-85.291,77.745-134.668V90.089L410.122,36.322z"/>
<path style="fill:#D8510E;" d="M410.122,36.322l-54.047-12.678c-2.209-1.607-13.245-1.568-15.762-2.67l-4.009-1.599l-7.211-1.343  c-13.584-5.522-8.46-18.593-27.601-7.546l-155.518,89.781c-42.76,24.686-77.745,85.287-77.745,134.668v179.558  c0,24.08,8.361,41.157,21.847,49.534l-0.13,0.236l56.115,31.795l31.555-54.942l123.876-71.511  c42.752-24.69,77.745-85.291,77.745-134.668V90.089L410.122,36.322z"/>
<path style="fill:#C1430C;" d="M71.19,209.066c-1.887,8.791-2.962,17.495-2.962,25.868v179.558c0,24.08,8.361,41.157,21.847,49.534  l-0.13,0.236l56.115,31.795l31.555-54.942l123.876-71.511c7.263-4.194,14.285-9.492,20.961-15.537L71.19,209.066z"/>
<path style="fill:#EA7A00;" d="M199.423,131.258c-42.76,24.686-77.753,85.291-77.753,134.668v179.562  c0,49.377,34.993,69.577,77.753,44.883l155.506-89.777c42.76-24.686,77.753-85.287,77.753-134.668V86.368  c0-49.376-34.993-69.573-77.753-44.883L199.423,131.258z"/>
<path style="fill:#FFAF22;" d="M384.345,31.229v345.632c28.286-29.791,48.337-73.563,48.337-110.931V86.368  C432.682,48.996,412.631,28.358,384.345,31.229z"/>
<path style="opacity:0.1;fill:#383E3F;enable-background:new    ;" d="M432.682,86.368c0-49.376-34.993-69.573-77.753-44.883  l-155.506,89.773c-42.76,24.686-77.753,85.291-77.753,134.668v179.562c0,49.377,34.993,69.577,77.753,44.883"/>
<path style="fill:#FFAF22;" d="M164.882,504.116h-0.008c-28.192,0-46.407-23.012-46.407-58.628V265.926  c0-50.523,35.592-112.183,79.344-137.44l155.514-89.781c12.607-7.278,24.769-10.965,36.147-10.965  c28.191,0,46.415,23.016,46.415,58.628V265.93c0,50.527-35.6,112.183-79.352,137.444l-155.514,89.777  C188.415,500.426,176.26,504.116,164.882,504.116z M389.477,34.151c-10.24,0-21.323,3.399-32.937,10.098l-155.518,89.785  c-41.984,24.241-76.146,83.409-76.146,131.891v179.562c0,32.209,15.325,52.216,39.999,52.216h0.008  c10.24,0,21.315-3.399,32.929-10.098l155.514-89.785c41.984-24.237,76.146-83.409,76.146-131.891V86.368  C429.476,54.159,414.151,34.151,389.477,34.151z"/>
<g>
	<path style="fill:#FFFFFF;" d="M166.06,448.682c-0.685,0-1.378-0.079-2.068-0.252c-4.592-1.138-7.4-5.786-6.27-10.386   l39.617-160.098c0.914-3.686,4.147-6.329,7.94-6.506c3.722-0.177,7.247,2.17,8.491,5.762l39.617,114.353   c1.556,4.482-0.823,9.366-5.293,10.913c-4.494,1.544-9.362-0.811-10.913-5.293l-30.137-87.005l-32.662,132.001   C173.413,446.067,169.916,448.682,166.06,448.682z"/>
	<path style="fill:#FFFFFF;" d="M179.262,395.308c-2.954,0-5.845-1.536-7.432-4.289c-2.371-4.1-0.961-9.346,3.139-11.713   l24.446-14.112c4.092-2.371,9.346-0.977,11.709,3.139c2.371,4.104,0.969,9.346-3.139,11.717l-24.438,14.108   C182.192,394.942,180.723,395.308,179.262,395.308z"/>
	<path style="fill:#FFFFFF;" d="M284.891,380.067c-4.73,0-8.578-3.844-8.578-8.578v-91.483c0-4.734,3.848-8.578,8.578-8.578   c4.738,0,8.578,3.844,8.578,8.578v91.487C293.469,376.223,289.629,380.067,284.891,380.067z"/>
</g>
<g style="opacity:0.1;">
	<path style="fill:#383E3F;" d="M166.06,460.12c-0.685,0-1.378-0.083-2.068-0.252c-4.592-1.138-7.4-5.786-6.27-10.386   l39.617-160.098c0.914-3.686,4.147-6.333,7.94-6.506c3.722-0.177,7.247,2.17,8.491,5.758l39.617,114.357   c1.556,4.482-0.823,9.362-5.293,10.91c-4.494,1.548-9.362-0.811-10.913-5.293l-30.137-87.001l-32.662,131.998   C173.413,457.505,169.916,460.12,166.06,460.12z"/>
	<path style="fill:#383E3F;" d="M179.262,406.742c-2.954,0-5.845-1.532-7.432-4.285c-2.371-4.1-0.961-9.346,3.139-11.717   l24.446-14.108c4.092-2.371,9.346-0.981,11.709,3.135c2.371,4.104,0.969,9.35-3.139,11.717l-24.438,14.111   C182.192,406.379,180.723,406.742,179.262,406.742z"/>
	<path style="fill:#383E3F;" d="M284.891,391.504c-4.73,0-8.578-3.848-8.578-8.578v-91.487c0-4.734,3.848-8.574,8.578-8.574   c4.738,0,8.578,3.84,8.578,8.574v91.487C293.469,387.66,289.629,391.504,284.891,391.504z"/>
</g>
<g>
</g>
<g>
</g>
<g>
</g>
<g>
</g>
<g>
</g>
<g>
</g>
<g>
</g>
<g>
</g>
<g>
</g>
<g>
</g>
<g>
</g>
<g>
</g>
<g>
</g>
<g>
</g>
<g>
</g>
</svg>
